<?xml version="1.0" encoding="UTF-8" standalone="no"?>
<svg width="200px" height="550px" viewBox="0 0 200 550" version="1.1" xmlns="http://www.w3.org/2000/svg" xmlns:xlink="http://www.w3.org/1999/xlink" xmlns:sketch="http://www.bohemiancoding.com/sketch/ns">
    <!-- Generator: Sketch 3.0.3 (7891) - http://www.bohemiancoding.com/sketch -->
    <title>BC Approach Diagram</title>
    <desc>Created with Sketch.</desc>
    <defs></defs>
    <g id="Page-1" stroke="none" stroke-width="1" fill="none" fill-rule="evenodd" sketch:type="MSPage">
        <g id="bcapproach" sketch:type="MSLayerGroup">
            <g id="Group">
                <path d="M100.1336,114.538204 C63.4033307,114.538204 33.6293625,84.7375606 33.6293625,47.9750004 L0.373952191,47.9750004 L0.373952191,550.067208 L199.901147,550.067208 L199.901147,47.9750004 L166.647054,47.9750004 C166.647054,84.7375606 136.873086,114.538204 100.1336,114.538204 Z" id="Shape" fill="#00529C" sketch:type="MSShapeGroup"></path>
                <path d="M100.1336,114.538204 C63.4033307,114.538204 33.6293625,84.7375606 33.6293625,47.9750004 L0.373952191,47.9750004 L0.373952191,550.067208 L100.015625,550.067208 C100.015625,550.067208 100,114.646484 100.1336,114.538204 Z" id="Shape-2" fill="#265EA6" sketch:type="MSShapeGroup"></path>
                <path d="M149.017849,48.2379294 C149.017849,74.9285734 127.398409,96.5681045 100.72403,96.5681045 C74.0496516,96.5681045 52.4209942,74.9285734 52.4209942,48.2379294 C52.4209942,21.5354253 74.0496516,-0.10015251 100.72403,-0.10015251 C127.398409,-0.10015251 149.017849,21.5354253 149.017849,48.2379294 L149.017849,48.2379294 Z" id="Shape" fill="#066939" sketch:type="MSShapeGroup"></path>
                <path d="M100.72403,96.5681045 C74.0496516,96.5681045 52.4209942,74.9285734 52.4209942,48.2379294 C52.4209942,21.5354253 74.0496516,-0.10015251 100.72403,-0.10015251 C100,0.37109375 100,96.5585938 100.72403,96.5681045 Z" id="Shape-6" fill="#00703E" sketch:type="MSShapeGroup"></path>
                <g transform="translate(-0.209944, 293.109957)" fill="#FFFFFF">
                    <g transform="translate(0.000000, 75.752723)" font-weight="normal" font-family="Helvetica" id="Foundational-" sketch:alignment="middle" font-size="18" sketch:type="MSTextLayer">
                        <text>
                            <tspan x="48.0820198" y="18">Foundational </tspan>
                            <tspan x="31.6025276" y="40">and Critical Skills</tspan>
                        </text>
                    </g>
                    <g transform="translate(74.546439, 0.000000)" id="Shape" sketch:type="MSShapeGroup">
                        <g>
                            <path d="M26.3004263,5.46753638 L26.3004263,7.02385367 L26.3004263,31.8933033 L26.3004263,32.0237651 L26.3109602,32.1529092 C26.5018865,34.6198236 28.1241016,37.113094 30.928743,37.8023014 C31.4225179,37.9261742 31.9531614,37.9933819 32.5193566,37.9933819 C33.7821036,37.9933819 34.8460239,37.669204 35.7216514,37.1882084 C35.871759,37.106505 36.0205498,37.0195305 36.1601235,36.9272847 C37.208243,37.3634753 38.4973247,37.7113735 39.9378307,37.7113735 C40.8332092,37.7113735 41.7167371,37.5769583 42.5660299,37.3120812 C44.9638008,36.5648908 46.7743088,35.0784167 47.8026773,33.0121123 C48.3886235,31.8313669 48.7138566,30.472719 48.775743,28.9533 C50.0398068,27.7396097 51.2367171,25.843301 51.4013088,23.2011197 C51.4921633,21.7554972 51.187998,20.5075443 50.6929064,19.4625319 C50.5546494,19.1726167 50.4045418,18.8958795 50.2412669,18.6375915 C50.2662849,18.5914686 50.2886693,18.5427101 50.3110538,18.4952695 C51.0760757,16.9494945 51.4526614,15.0241943 50.7271414,12.9328518 C50.2096653,11.4503311 49.3603725,10.371056 48.4386594,9.59092064 C48.0094044,9.2245733 47.5630319,8.92411577 47.1298267,8.67900568 C47.12851,8.66450993 47.1245598,8.65133196 47.123243,8.63683621 C46.8980817,7.01726469 46.1501773,5.24351103 44.3949721,3.89145214 C43.0097689,2.82535502 41.391504,2.26133826 39.7126693,2.26133826 C39.4611733,2.26133826 39.2149442,2.27451622 38.9779323,2.29691875 C37.8587092,0.914550553 36.1364223,-0.300457531 33.6438466,-0.499444755 C33.340998,-0.523165086 33.0434163,-0.535025252 32.7576853,-0.535025252 C29.685747,-0.535025252 28.0964502,0.844707355 27.3024602,2.004368 C26.7586494,2.8003169 26.4373665,3.72672762 26.3372948,4.76383321 C26.3149104,4.99181195 26.3004263,5.22506188 26.3004263,5.46753638 L26.3004263,5.46753638 Z M29.6620458,29.6016557 C30.4705199,29.4263888 30.9972131,30.0773802 31.0037968,30.0852869 C31.3356135,30.5043461 31.8280717,30.7244181 32.3244801,30.7244181 C32.6892151,30.7244181 33.0552669,30.6071342 33.3646992,30.3633419 C34.0928526,29.7887828 34.2166255,28.7319103 33.6425299,28.003169 C32.7616355,26.8830422 31.2737271,26.1239916 29.6633625,26.2175551 L29.6633625,11.4397887 C30.8931912,11.8680725 32.2323088,11.8720258 33.3897171,11.8720258 C34.3153805,11.8720258 35.0685518,11.1182464 35.0685518,10.1892001 C35.0685518,9.2601538 34.3153805,8.50769218 33.3897171,8.50769218 C31.9044422,8.50769218 30.7259661,8.46420491 30.1782052,7.9133661 C29.9109084,7.64321788 29.7529004,7.21493412 29.6633625,6.74843427 L29.6633625,5.47017197 C29.6633625,4.81654506 29.7370996,2.82799062 32.7603187,2.82799062 C32.9538785,2.82799062 33.1619223,2.83589739 33.3818167,2.85302874 C34.2508606,2.92155415 34.9368785,3.19829134 35.4741056,3.56595648 C35.16599,3.86773181 34.9750637,4.28679099 34.9750637,4.74933746 C34.9750637,5.66388801 35.7163845,6.40580726 36.6301972,6.40580726 C36.8737928,6.40580726 37.1068546,6.36495558 37.3201653,6.28588781 C37.3227988,6.29643018 37.3241155,6.30170136 37.3241155,6.30170136 C37.3241155,6.30170136 37.3517669,6.28325222 37.4004861,6.2542607 C37.4926574,6.21604461 37.5808785,6.16860395 37.6611992,6.1145743 C38.0680697,5.91426928 38.8107072,5.62435412 39.7153028,5.62435412 C40.5106096,5.62435412 41.4296892,5.84969727 42.3487689,6.55735382 C42.851761,6.9447859 43.1941116,7.3941544 43.4205896,7.85274747 C42.4488406,7.89755255 41.5179104,8.14398043 40.6831016,8.6038913 C38.9331633,9.56720031 37.8863606,11.3317294 37.8060398,13.4415211 C37.7718048,14.3705674 38.496008,15.149385 39.422988,15.1849655 L39.4888247,15.1849655 C40.3868367,15.1849655 41.1321076,14.4720377 41.1663426,13.5653939 C41.199261,12.6376654 41.5929641,11.9405512 42.304,11.5491658 C43.1124741,11.1037507 44.2053625,11.1037507 45.3022012,11.5149031 C46.1488606,11.9629538 47.0995418,12.7351823 47.5538147,14.0384828 C47.823745,14.8212537 47.7934602,15.556584 47.6104343,16.2075753 C46.911249,15.9097534 46.1067251,15.7252619 45.2047629,15.7252619 C44.2764661,15.7252619 43.5246116,16.4777235 43.5246116,17.4067698 C43.5246116,18.3358161 44.2764661,19.0882778 45.2047629,19.0882778 C45.747257,19.0882778 46.176512,19.2213752 46.5149124,19.4005955 C47.2114641,20.0094173 48.1621454,21.1809381 48.0475896,22.9889545 C47.9896534,23.9193186 47.7394741,24.666509 47.4155578,25.2661063 C46.541247,23.981255 45.2653327,22.8150054 43.7418725,21.990065 C42.1578426,21.1308618 40.479008,20.735523 38.8080737,20.7842815 C38.338,17.8376892 35.9270618,15.7252619 32.8248386,15.7252619 C31.8978586,15.7252619 31.146004,16.4777235 31.146004,17.4067698 C31.146004,18.3358161 31.8978586,19.0882778 32.8248386,19.0882778 C34.4457371,19.0882778 35.3595498,20.237396 35.5109741,21.4761244 C34.7446355,21.7805354 33.9927809,22.1798276 33.2698944,22.6845436 C32.5088227,23.2142976 32.3205299,24.2619456 32.8511733,25.0236318 C33.3818167,25.7879536 34.4273028,25.9763984 35.1896912,25.4440088 C38.185259,23.3579374 40.8305757,24.2369075 42.1420418,24.9471996 C44.1500598,26.0343815 45.3588207,27.8951097 45.3285359,28.9954695 C45.3232689,29.1430627 45.3403865,29.2853847 45.3733048,29.4237533 C45.1310259,31.6112949 44.0381375,33.3283834 41.5653127,34.0979763 C41.0070179,34.2732432 40.4605737,34.345722 39.9391474,34.345722 C39.46249,34.345722 39.0029502,34.2837856 38.5789622,34.1862687 C39.097755,33.1662944 39.3663685,32.0145406 39.3163327,30.8048037 C39.2794641,29.8757573 38.4933745,29.1549228 37.5690279,29.1931389 C36.6420478,29.2287194 35.9204781,30.0141259 35.9573466,30.9405367 C36.0152829,32.3387184 35.2265598,33.5879892 33.9914641,34.2995991 C33.5911773,34.494633 33.1066195,34.6290482 32.52199,34.6290482 C29.8753566,34.6290482 29.6646793,31.8946211 29.6646793,31.8946211 C29.6646793,31.8946211 29.6620458,31.0235578 29.6620458,29.6016557 L29.6620458,29.6016557 Z"></path>
                            <path d="M24.7335139,4.75987983 C24.6334422,3.72277423 24.3134761,2.79636351 23.7696653,2.00041461 C22.9756753,0.842071763 21.3850618,-0.53897864 18.3144402,-0.53897864 C18.0287092,-0.53897864 17.7324442,-0.527118475 17.4282789,-0.503398143 C14.9357032,-0.305728715 13.2134163,0.910597165 12.09551,2.29296536 C11.8571813,2.27056283 11.6135857,2.25738487 11.3594562,2.25738487 C9.68193825,2.25738487 8.06103984,2.82271943 6.67715339,3.88749875 C4.92194821,5.23955764 4.17404382,7.0133113 3.94888247,8.63288282 C3.946249,8.64737858 3.94493227,8.66055654 3.94098207,8.6750523 C3.50909363,8.92148018 3.06272112,9.22193771 2.63346614,9.58696726 C1.71306972,10.3671026 0.861143426,11.4463777 0.346300797,12.9288984 C-0.380535857,15.0189231 -0.00263346614,16.9455412 0.75975498,18.4913161 C0.784772908,18.5387568 0.805840637,18.5875152 0.830858566,18.6336381 C0.668900398,18.8919261 0.518792829,19.1686633 0.379219124,19.4585785 C-0.11587251,20.5035909 -0.420037849,21.7515439 -0.329183267,23.1971663 C-0.1632749,25.8380298 1.03100199,27.7356563 2.29638247,28.9493466 C2.35826892,30.4687656 2.68481873,31.8287313 3.26944821,33.0081589 C4.29518327,35.0731455 6.10700797,36.5596196 8.50741235,37.3081278 C9.35802191,37.5730049 10.2389163,37.7074201 11.1342948,37.7074201 C12.5748008,37.7074201 13.8638825,37.3595219 14.9106853,36.9233313 C15.0515757,37.0155771 15.1990498,37.1025516 15.3504741,37.184255 C16.2261016,37.6652506 17.2913386,37.9894285 18.5514522,37.9894285 C19.1189641,37.9894285 19.6496076,37.9222209 20.1433825,37.798348 C22.9480239,37.1091406 24.570239,34.6158702 24.7598486,32.1489558 L24.7730159,32.0198117 L24.7730159,31.8893499 L24.7730159,7.02385367 L24.7730159,5.46753638 C24.7730159,5.22506188 24.7572151,4.99181195 24.7335139,4.75987983 L24.7335139,4.75987983 Z M21.4100797,31.8933033 C21.4100797,31.8933033 21.1994024,34.6277304 18.5514522,34.6277304 C17.9694562,34.6277304 17.4822649,34.4933152 17.0832948,34.2982813 C15.8481992,33.5866714 15.0594761,32.3374006 15.1160956,30.9392189 C15.1542809,30.0128081 14.4340279,29.2274016 13.5070478,29.1918211 C12.5813845,29.153605 11.7952948,29.8744395 11.7584263,30.8034859 C11.7083904,32.0132228 11.977004,33.1649766 12.4971135,34.1849509 C12.070492,34.2824678 11.6135857,34.3444042 11.1356116,34.3444042 C10.6141853,34.3444042 10.0664243,34.2719254 9.50944622,34.0966585 C7.03530478,33.3270656 5.94241633,31.6099771 5.70408765,29.4224355 C5.73437251,29.2840669 5.75149004,29.1417449 5.74622311,28.9941517 C5.71593825,27.8937919 6.92338247,26.0330637 8.93271713,24.9458818 C10.2441833,24.2355897 12.8908167,23.3566196 15.8850677,25.442691 C16.6461394,25.9737628 17.694259,25.7866358 18.2235857,25.022314 C18.7529124,24.2606278 18.5659363,23.2129798 17.8048645,22.6832258 C17.0806614,22.1785098 16.3301235,21.7792176 15.5637849,21.4748067 C15.7152092,20.2360782 16.6316554,19.08696 18.2486036,19.08696 C19.1769004,19.08696 19.928755,18.3344983 19.928755,17.405452 C19.928755,16.4764057 19.1769004,15.7239441 18.2486036,15.7239441 C15.1490139,15.7239441 12.7380757,17.8363714 12.2666853,20.7829637 C10.595751,20.7342052 8.91823307,21.1295441 7.33288645,21.9887472 C5.80810956,22.8136876 4.53482869,23.9799372 3.66051793,25.2647885 C3.33528486,24.666509 3.08378884,23.9193186 3.02716932,22.9876367 C2.91261355,21.1796203 3.86461155,20.0094173 4.56116335,19.3992777 C4.89693028,19.2200574 5.32881873,19.08696 5.86999602,19.08696 C6.79829283,19.08696 7.55146414,18.3344983 7.55146414,17.405452 C7.55146414,16.4764057 6.79829283,15.7239441 5.86999602,15.7239441 C4.96671713,15.7239441 4.16350996,15.9097534 3.4643247,16.2062575 C3.2812988,15.5552662 3.24969721,14.8186181 3.52094422,14.037165 C3.97521713,12.7338645 4.92721514,11.961636 5.77255777,11.5135853 C6.86939641,11.1024329 7.96360159,11.1024329 8.77075896,11.547848 C9.48179482,11.9392334 9.87549801,12.6363476 9.90973307,13.5640761 C9.94396813,14.4707199 10.6879223,15.1836477 11.587251,15.1836477 L11.6504542,15.1836477 C12.578751,15.1480672 13.3029542,14.3692496 13.2687191,13.4402033 C13.1897151,11.3290938 12.1429124,9.56588252 10.3916574,8.6025735 C9.55684861,8.14266264 8.62591833,7.89623475 7.65548606,7.85142968 C7.88328088,7.39283661 8.22431474,6.9447859 8.72599004,6.55603603 C9.64506972,5.84837948 10.5641494,5.62303633 11.3594562,5.62303633 C12.2653685,5.62303633 13.0066892,5.91295149 13.412243,6.11325651 C13.4938805,6.16728615 13.5821016,6.21472682 13.6755896,6.2529429 C13.722992,6.28193442 13.7506434,6.30038357 13.7506434,6.30038357 C13.7506434,6.30038357 13.7519602,6.29511238 13.7545936,6.28457001 C13.9679044,6.36363778 14.2035996,6.40448947 14.443245,6.40448947 C15.3570578,6.40448947 16.0983785,5.66388801 16.0983785,4.74801966 C16.0983785,4.2841554 15.9074522,3.86509621 15.6006534,3.56463868 C16.1391972,3.19829134 16.8225817,2.92155415 17.6916255,2.85171095 C17.9128367,2.8345796 18.118247,2.82667282 18.3144402,2.82667282 C21.3376594,2.82667282 21.4113964,4.81522727 21.4113964,5.46885417 L21.4113964,6.74711647 C21.3231753,7.21361632 21.1638506,7.64321788 20.8965538,7.9120483 C20.3487928,8.46288711 19.169,8.50637438 17.6863586,8.50637438 C16.7593785,8.50637438 16.0075239,9.25883601 16.0075239,10.1878823 C16.0075239,11.1169286 16.7593785,11.870708 17.6863586,11.870708 C18.8424502,11.870708 20.1828845,11.8680725 21.4113964,11.4384709 L21.4113964,26.2162373 C19.8010319,26.1239916 18.3118068,26.8830422 17.4322291,28.0018512 C16.8568167,28.7305925 16.9819064,29.787465 17.7100598,30.3620241 C18.0181753,30.6071342 18.3868606,30.7231003 18.7502789,30.7231003 C19.2466873,30.7231003 19.7404622,30.5030283 20.0709622,30.0839691 C20.0788625,30.0760624 20.6029223,29.425071 21.4127131,29.6003379 C21.4100797,31.0235578 21.4100797,31.8933033 21.4100797,31.8933033 L21.4100797,31.8933033 Z"></path>
                        </g>
                        <g transform="translate(17.117530, 52.711847)">
                            <g>
                                <path d="M15.5822191,5.99465485 L1.25484661,5.99465485 C0.517476096,5.99465485 -0.0803207171,5.39769318 -0.0803207171,4.65840952 C-0.0803207171,3.92044365 0.517476096,3.32216419 1.25484661,3.32216419 L15.5822191,3.32216419 C16.3169562,3.32216419 16.9160697,3.92044365 16.9160697,4.65840952 C16.9160697,5.39769318 16.3169562,5.99465485 15.5822191,5.99465485 L15.5822191,5.99465485 Z"></path>
                                <g>
                                    <path d="M15.5822191,2.30614333 L1.25484661,2.30614333 C0.517476096,2.30614333 -0.0803207171,1.70786386 -0.0803207171,0.969897993 C-0.0803207171,0.230614333 0.517476096,-0.36634734 1.25484661,-0.36634734 L15.5822191,-0.36634734 C16.3169562,-0.36634734 16.9160697,0.230614333 16.9160697,0.969897993 C16.9160697,1.70786386 16.3169562,2.30614333 15.5822191,2.30614333 L15.5822191,2.30614333 Z"></path>
                                    <path d="M15.5822191,9.68448417 L1.25484661,9.68448417 C0.517476096,9.68448417 -0.0803207171,9.08620471 -0.0803207171,8.34823884 C-0.0803207171,7.61027298 0.517476096,7.0133113 1.25484661,7.0133113 L15.5822191,7.0133113 C16.3169562,7.0133113 16.9160697,7.61027298 16.9160697,8.34823884 C16.9160697,9.08620471 16.3169562,9.68448417 15.5822191,9.68448417 L15.5822191,9.68448417 Z"></path>
                                </g>
                            </g>
                            <path d="M12.7012072,13.2346271 L4.13585857,13.2346271 C3.39980478,13.2346271 2.80200797,12.6376654 2.80200797,11.8983818 C2.80200797,11.1604159 3.39980478,10.5621364 4.13585857,10.5621364 L12.7012072,10.5621364 C13.437261,10.5621364 14.0350578,11.1604159 14.0350578,11.8983818 C14.0350578,12.6376654 13.437261,13.2346271 12.7012072,13.2346271 L12.7012072,13.2346271 Z"></path>
                        </g>
                        <g transform="translate(11.850598, 38.216089)">
                            <path d="M6.67056972,11.8377631 C5.93451594,11.8377631 5.33671912,11.2394837 5.33671912,10.5015178 C5.33671912,4.26175287 1.06918725,2.2797874 1.02573506,2.26002046 C0.354201195,1.95824513 0.0526693227,1.16888522 0.352884462,0.495491366 C0.653099602,-0.179220281 1.44313944,-0.479677812 2.11599004,-0.179220281 C2.35563546,-0.0711609941 8.00573705,2.54598223 8.00573705,10.5002 C8.00573705,11.2394837 7.40794024,11.8377631 6.67056972,11.8377631 L6.67056972,11.8377631 Z"></path>
                            <path d="M20.6990438,13.1555593 C19.9616733,13.1555593 19.3638765,12.5572799 19.3638765,11.819314 C19.3638765,3.86509621 25.0139781,1.24795299 25.2549402,1.1398937 C25.9277908,0.838118375 26.7165139,1.1398937 27.0193625,1.81460535 C27.318261,2.4866814 27.0193625,3.27077013 26.3517789,3.57518105 C26.1595359,3.66479119 22.0342112,5.66915919 22.0342112,11.8206318 C22.0342112,12.5572799 21.4364143,13.1555593 20.6990438,13.1555593 L20.6990438,13.1555593 Z"></path>
                        </g>
                        <path d="M29.5000876,40.0886778 C29.4526853,39.8791482 29.2499084,39.724966 29.0181633,39.724966 C28.4401175,39.724966 27.9818944,40.223093 27.6184761,41.2470206 C27.1036335,41.4315121 26.3991813,41.5237578 25.5248705,41.5237578 C24.7071793,41.5237578 24.0382789,41.4394189 23.5366036,41.2694232 C23.1797689,40.2309998 22.6938944,39.724966 22.0513287,39.724966 C21.8090498,39.724966 21.6062729,39.8844194 21.5654542,40.1058091 C21.5601873,40.1334829 21.4469482,40.785792 22.0012928,41.3972494 C22.1882689,41.6028256 22.4265976,41.7807281 22.7096952,41.9243679 C23.0336116,43.1051133 23.4101972,45.5021845 23.4101972,50.2567932 C23.4101972,50.50981 23.6314084,50.7140684 23.9026554,50.7140684 C24.1725857,50.7140684 24.3937968,50.5111278 24.3937968,50.2567932 C24.3937968,47.3826797 24.2502729,44.9394855 23.9790259,43.1934056 C23.9263566,42.8692277 23.8723705,42.5648168 23.8118008,42.2893974 C24.3055757,42.3869143 24.880988,42.4369906 25.5248705,42.4369906 C26.208255,42.4369906 26.8139522,42.3842787 27.3274781,42.2762195 C26.7388984,44.839333 26.6756952,48.6872979 26.6756952,50.2567932 C26.6756952,50.50981 26.8955896,50.7140684 27.1668367,50.7140684 C27.4380837,50.7140684 27.6592948,50.5111278 27.6592948,50.2567932 C27.6592948,46.734324 27.9371255,43.6968037 28.4203665,41.9059187 C28.6981972,41.7596434 28.9299422,41.5830587 29.1077012,41.3788003 C29.6330777,40.7765674 29.5158884,40.1572032 29.5000876,40.0886778 L29.5000876,40.0886778 Z"></path>
                    </g>
                </g>
                <g transform="translate(0.054218, 434.393751)">
                    <g transform="translate(0.000000, 57.764032)" font-weight="normal" font-family="Helvetica" id="Flexible,-Affordable" fill="#FFFFFF" sketch:alignment="middle" font-size="18" sketch:type="MSTextLayer">
                        <text>
                            <tspan x="23.6815764" y="18">Flexible, Affordable </tspan>
                            <tspan x="61.0614592" y="40">Programs</tspan>
                        </text>
                    </g>
                    <g transform="translate(79.925454, 0.000000)" sketch:type="MSShapeGroup">
                        <path d="M18.3234151,48.2303492 L18.3234151,45.3470309 C15.2631755,44.9241007 12.731987,43.7314158 10.7961166,41.791808 C8.80266985,39.8000134 7.5142623,36.9547479 6.96565705,33.3386404 L6.91568509,33.0157349 L14.6048493,32.1894445 L14.660253,32.4699484 C14.9383578,33.8648569 15.4663224,35.0836352 16.2300244,36.0882302 C16.8666237,36.92648 17.5705766,37.580989 18.3234151,38.0310998 L18.3234151,27.4219668 C14.8471046,26.3923655 12.2485626,24.8332861 10.5973151,22.7795198 C8.90478647,20.6790028 8.04657233,18.0990199 8.04657233,15.1048047 C8.04657233,12.0725366 9.01885291,9.48385601 10.9362554,7.41813018 C12.7939088,5.41111445 15.2794708,4.21625514 18.3234151,3.85964563 L18.3234151,1.14158533 L22.8828135,1.14158533 L22.8828135,3.86399453 C25.6866751,4.24669742 27.9593131,5.25455418 29.6474964,6.85820975 C31.3889106,8.51840099 32.5132798,10.7635188 32.9945315,13.5348531 L33.0510216,13.8555842 L25.5715224,14.8319115 L25.517205,14.5427098 C25.1532788,12.6824694 24.2896329,11.3995449 22.8828135,10.6395752 L22.8828135,20.5115703 C27.1402074,21.6944701 30.1005031,23.2448517 31.6778789,25.123575 C33.2911042,27.0457872 34.1102099,29.5387921 34.1102099,32.5297457 C34.1102099,35.8696982 33.0846983,38.7236615 31.0630065,41.0177044 C29.092373,43.2497755 26.3428287,44.6599052 22.8828135,45.2056917 L22.8828135,48.229262 L18.3234151,48.229262 L18.3234151,48.2303492 Z M22.8828135,38.5497057 C23.9930601,38.2692018 24.9186278,37.7005836 25.6388759,36.8492871 C26.4351682,35.9088383 26.8392893,34.7835613 26.8392893,33.5115091 C26.8392893,32.3775343 26.5036081,31.3903348 25.8376774,30.5727423 C25.2271504,29.8236449 24.2342292,29.2202355 22.8817272,28.7809969 L22.8817272,38.5497057 L22.8828135,38.5497057 Z M18.3234151,10.5156317 C17.5162593,10.8657179 16.8492422,11.395196 16.3419181,12.088845 C15.7542044,12.8999142 15.4543726,13.8044847 15.4543726,14.7840736 C15.4543726,15.6712485 15.724873,16.5127599 16.2637011,17.2749041 C16.7330031,17.9413724 17.4260925,18.506729 18.3234151,18.9611887 L18.3234151,10.5156317 L18.3234151,10.5156317 Z" id="Shape" fill="#FFFFFF"></path>
                        <g>
                            <rect id="Rectangle-path" fill="#FFFFFF" transform="translate(20.591002, 25.945516) rotate(126.898546) translate(-20.591002, -25.945516) " x="-7.65402437" y="23.2274558" width="56.6953714" height="5.94929113"></rect>
                            <path d="M35.3193141,2.42450979 L38.7510843,5.00449263 L5.70658086,49.058814 L2.27263795,46.4788312 L35.3193141,2.42450979 L35.3193141,2.42450979 Z M34.990151,0.109809636 L33.9972298,1.43296139 L0.950553637,45.4872828 L-0.0412811865,46.8093473 L1.28080313,47.8030702 L4.71474604,50.383053 L6.03683036,51.3756886 L7.02866518,50.0525369 L40.0731687,5.99821548 L41.0639171,4.67615094 L39.7440055,3.68351532 L36.3111489,1.10353248 L34.990151,0.109809636 L34.990151,0.109809636 Z" id="Shape" fill="#00539B"></path>
                        </g>
                    </g>
                </g>
                <g transform="translate(-0.158783, 191.838007)" fill="#FFFFFF">
                    <text id="Passion-Teachers" sketch:type="MSTextLayer" font-family="Helvetica" font-size="18" font-weight="normal" sketch:alignment="middle">
                        <tspan x="29.2426643" y="75.6245343">Passion Teachers</tspan>
                    </text>
                    <path d="M81.597142,-4.4408921e-14 L130.342739,-4.4408921e-14 C132.419076,1.19969395 132.275665,5.43216426 130.342739,6.55073456 L81.597142,6.55073456 C79.6626568,5.43216426 79.5192462,1.19813388 81.597142,-4.4408921e-14 L81.597142,-4.4408921e-14 L81.597142,-4.4408921e-14 Z M128.537635,41.2669756 L116.453728,41.2669756 L116.520757,41.2186134 C117.465396,40.5555836 118.121656,39.6320221 118.466153,38.6148564 L125.889214,38.6148564 L125.889214,7.83935251 L128.537635,7.83935251 L128.537635,41.2669756 L128.537635,41.2669756 L128.537635,41.2669756 Z M83.400687,14.3620058 L83.400687,7.83779244 L86.0506667,7.83779244 L86.0506667,14.3245641 C85.659405,14.2793221 85.2665845,14.255921 84.8675287,14.255921 C84.3780619,14.2574811 83.8854774,14.2933627 83.400687,14.3620058 L83.400687,14.3620058 L83.400687,14.3620058 Z M96.0395313,17.6381531 L113.805307,17.6381531 L113.805307,20.1405056 L96.0395313,20.1405056 L96.0395313,17.6381531 L96.0395313,17.6381531 Z M96.0395313,12.0921037 L113.805307,12.0921037 L113.805307,14.5944563 L96.0395313,14.5944563 L96.0395313,12.0921037 L96.0395313,12.0921037 Z M95.59527,46.3840057 L95.59527,50.4526687 L68.1664214,50.4526687 C68.6262709,42.3949063 72.2770076,38.7568227 79.8372437,35.892534 C80.6166495,36.7911344 81.5238779,37.5727295 82.6555751,37.9970686 C83.7763606,38.4167275 85.9633732,38.4167275 87.0841588,37.9970686 C88.215856,37.5727295 89.1230843,36.7911344 89.8978137,35.892534 L92.6288516,36.5337228 L102.630187,38.7646231 C103.655885,38.9955135 104.316821,38.8441867 104.792258,38.4401285 L111.36109,33.8316813 C111.884851,33.4650648 112.470964,33.248215 113.06643,33.1748918 L118.915091,10.096774 C119.332853,8.18568808 120.447403,8.42905902 120.034318,10.340145 L115.761615,33.8535223 C116.10923,34.1000133 116.419434,34.4073472 116.67352,34.7739637 C117.876923,36.5025214 117.456044,38.8816284 115.731998,40.0906827 L106.918477,46.2732407 C105.947338,46.9534313 104.888905,47.0891574 103.757207,46.8364261 L96.8017902,45.6195713 C96.058237,45.3964813 95.5859171,45.678854 95.59527,46.3840057 L95.59527,46.3840057 L95.59527,46.3840057 Z M84.8675287,36.3792758 C86.7240733,36.3761557 88.430972,35.3355889 89.7840204,33.9003244 C89.7902557,33.8940841 89.7980497,33.8894039 89.8089614,33.8862837 C90.9687172,33.6413527 93.4971096,33.1452504 94.4495435,32.2669309 C94.9733042,31.7817491 95.1541263,31.2497652 94.6475126,31.1093589 C92.2703249,30.4478891 93.8852537,24.1171245 92.5088231,20.5367635 C91.2228035,17.2060137 87.8121238,15.6256626 84.8690875,15.6365831 C81.9276101,15.6256626 78.5184891,17.2060137 77.237146,20.5367635 C75.8544801,24.1171245 77.4725266,30.4494492 75.0953389,31.1093589 C74.5887251,31.2497652 74.7679885,31.7817491 75.2964256,32.2669309 C76.2457419,33.1452504 78.7772519,33.6429128 79.9370077,33.8878438 C79.9448017,33.8878438 79.951037,33.892524 79.9572722,33.8956442 C81.3072031,35.3324688 83.0156605,36.3761557 84.8675287,36.3792758 L84.8675287,36.3792758 L84.8675287,36.3792758 Z" id="Shape" sketch:type="MSShapeGroup"></path>
                </g>
                <path d="M27.0012175,157.348197 C34.6212175,157.348197 36.3612175,151.528197 36.3612175,146.698197 C36.3612175,139.888197 33.7212175,136.198197 28.0212175,136.198197 C26.3112175,136.198197 22.6212175,137.158197 22.6212175,141.448197 L22.0512175,141.448197 C21.3612175,141.448197 20.3412175,141.478197 20.0712175,141.628197 C19.9212175,141.718197 18.2412175,144.058197 18.2412175,148.288197 C18.2412175,152.998197 20.6112175,157.348197 27.0012175,157.348197 Z M32.4912175,146.458197 C32.4912175,150.148197 31.6212175,154.228197 27.0312175,154.228197 C24.1212175,154.228197 22.0512175,151.438197 22.0512175,148.138197 C22.0512175,145.288197 22.8012175,143.908197 23.0412175,143.638197 C23.6412175,146.548197 25.4112175,148.468197 25.6212175,148.468197 C27.0312175,148.468197 28.5012175,147.748197 28.5012175,147.478197 C28.5012175,147.478197 25.8012175,144.448197 25.8012175,141.688197 C25.8012175,140.638197 26.5812175,139.408197 28.2912175,139.408197 C30.6612175,139.408197 32.4912175,141.178197 32.4912175,146.458197 Z M46.1412175,155.308197 C46.2912175,157.168197 46.9212175,157.948197 47.0412175,157.948197 C48.3012175,157.948197 50.3712175,156.688197 50.3712175,156.328197 C50.0112175,155.788197 49.7412175,155.188197 49.5612175,153.928197 C49.4712175,153.448197 49.4412175,152.458197 49.4412175,151.288197 C49.4412175,147.988197 49.6812175,143.128197 49.6812175,142.918197 C49.5912175,142.828197 49.1112175,142.798197 48.9312175,142.798197 C47.5812175,142.798197 46.4412175,143.368197 46.2612175,143.668197 C46.1712175,143.878197 46.0812175,147.448197 46.0812175,149.578197 L46.0812175,150.598197 C46.1112175,150.868197 45.2112175,152.878197 43.6512175,152.878197 C41.9412175,152.878197 41.9712175,150.448197 41.9712175,150.448197 C41.9412175,149.908197 41.9112175,149.278197 41.9112175,148.618197 C41.9112175,146.428197 42.0912175,144.028197 42.0912175,143.818197 C41.9412175,143.668197 41.2512175,143.668197 41.2512175,143.668197 C39.5112175,143.668197 38.7312175,144.298197 38.7312175,144.298197 C38.5812175,144.628197 38.4612175,147.838197 38.4612175,150.148197 C38.4612175,151.018197 38.4912175,151.768197 38.5212175,152.158197 C38.7312175,154.378197 39.4212175,157.048197 42.1212175,157.048197 C43.5312175,157.048197 45.1212175,156.088197 46.0812175,154.618197 C46.0812175,154.618197 46.1112175,154.618197 46.1112175,154.678197 L46.1412175,155.308197 Z M60.7512175,144.568197 C60.7512175,143.818197 60.5112175,143.428197 60.5112175,143.428197 C57.7212175,143.428197 56.0412175,145.828197 56.0412175,145.828197 C55.9812175,145.888197 55.9512175,145.888197 55.9212175,145.888197 C55.8612175,145.888197 55.8612175,145.258197 55.8612175,145.198197 C55.8612175,144.418197 55.9212175,143.278197 55.9512175,143.008197 C55.9512175,142.918197 55.5912175,142.858197 55.3212175,142.858197 C54.2412175,142.858197 53.0112175,143.278197 52.5912175,143.698197 C52.5012175,143.788197 52.4712175,144.508197 52.4712175,145.588197 C52.4712175,147.328197 52.5312175,149.998197 52.5312175,152.398197 C52.5312175,154.348197 52.5012175,156.148197 52.3212175,157.138197 C52.3212175,157.228197 52.4412175,157.228197 52.5612175,157.228197 C53.3412175,157.228197 55.1412175,157.108197 55.8612175,156.418197 C55.9512175,156.328197 55.9512175,154.438197 55.9512175,152.728197 L55.9512175,150.088197 C55.9512175,149.908197 56.7612175,147.238197 59.8212175,147.238197 C59.8212175,147.238197 60.1212175,147.268197 60.2112175,147.298197 C60.2112175,147.298197 60.7512175,146.578197 60.7512175,144.568197 Z M70.8012175,157.408197 C75.5412175,157.408197 84.6012175,154.648197 84.6012175,145.678197 C84.6012175,139.948197 80.0112175,136.078197 71.5512175,136.078197 C69.4512175,136.078197 68.1012175,136.288197 68.0112175,136.378197 C67.9812175,136.408197 67.9812175,136.438197 67.9812175,136.498197 C67.9812175,137.098197 68.9112175,139.408197 69.3312175,140.038197 C69.3312175,143.668197 69.2412175,147.298197 69.2412175,151.888197 C69.2412175,154.798197 69.3012175,157.108197 69.4512175,157.258197 C69.5712175,157.378197 70.3812175,157.408197 70.8012175,157.408197 Z M80.6112175,145.648197 C80.6112175,152.128197 74.9412175,153.778197 73.5612175,153.778197 C73.4112175,153.778197 73.2912175,153.748197 73.2612175,153.718197 C73.1112175,153.568197 73.0512175,150.898197 73.0512175,147.898197 C73.0512175,144.058197 73.1412175,139.678197 73.2612175,139.558197 C73.2612175,139.528197 73.4112175,139.528197 73.6512175,139.528197 C75.1512175,139.528197 80.6112175,140.188197 80.6112175,145.648197 Z M90.3912175,140.548197 C90.3912175,139.288197 89.6112175,138.538197 88.5312175,138.538197 C87.4512175,138.538197 86.4012175,139.528197 86.4012175,140.548197 C86.4012175,141.868197 87.1212175,142.588197 88.2312175,142.588197 C89.3112175,142.588197 90.3912175,141.628197 90.3912175,140.548197 Z M89.2512175,144.298197 C87.5112175,144.298197 86.8212175,144.838197 86.8212175,144.838197 C86.7012175,145.078197 86.6112175,149.638197 86.6112175,152.728197 C86.6112175,153.958197 86.6412175,154.948197 86.6712175,155.338197 C86.8512175,157.198197 87.4512175,157.978197 87.5712175,157.978197 C88.8312175,157.978197 90.9012175,156.718197 90.9012175,156.358197 C90.5412175,155.818197 90.2412175,155.218197 90.0912175,153.958197 C90.0312175,153.448197 90.0012175,152.248197 90.0012175,150.868197 C90.0012175,148.108197 90.0912175,144.628197 90.0912175,144.478197 C89.9412175,144.298197 89.2512175,144.298197 89.2512175,144.298197 Z M93.9912175,159.178197 C95.8812175,159.178197 97.0212175,158.338197 97.0212175,158.338197 C97.0512175,158.188197 97.0812175,157.648197 97.0812175,156.868197 C97.0812175,154.378197 96.9312175,149.248197 96.9312175,144.868197 L96.9312175,143.368197 C97.5312175,143.368197 98.1012175,143.398197 98.5812175,143.428197 C98.8812175,143.428197 99.5112175,142.138197 99.5112175,140.728197 C99.5112175,140.668197 98.4012175,140.638197 97.0812175,140.638197 L96.9612175,140.638197 C96.9912175,139.798197 97.0512175,139.048197 97.1412175,138.508197 C97.2312175,137.698197 100.051217,136.528197 100.141217,136.528197 C100.171217,136.438197 100.171217,136.348197 100.171217,136.228197 C100.171217,135.478197 99.6612175,134.338197 99.4212175,134.338197 C97.3812175,134.338197 93.4212175,136.438197 93.4812175,137.038197 C93.4812175,137.038197 93.5112175,138.508197 93.5412175,140.668197 C92.9112175,140.698197 92.3712175,140.728197 92.3712175,140.728197 C92.2212175,140.878197 92.1012175,141.778197 92.1012175,142.498197 C92.1012175,142.978197 92.1612175,143.398197 92.2512175,143.488197 C92.2512175,143.488197 92.7912175,143.458197 93.5712175,143.428197 C93.6012175,144.478197 93.6012175,145.588197 93.6012175,146.728197 C93.6012175,151.318197 93.5112175,156.358197 93.1512175,159.028197 C93.1512175,159.028197 93.6012175,159.178197 93.9912175,159.178197 Z M102.091217,159.178197 C103.981217,159.178197 105.121217,158.338197 105.121217,158.338197 C105.151217,158.188197 105.181217,157.648197 105.181217,156.868197 C105.181217,154.378197 105.031217,149.248197 105.031217,144.868197 L105.031217,143.368197 C105.631217,143.368197 106.201217,143.398197 106.681217,143.428197 C106.981217,143.428197 107.611217,142.138197 107.611217,140.728197 C107.611217,140.668197 106.501217,140.638197 105.181217,140.638197 L105.061217,140.638197 C105.091217,139.798197 105.151217,139.048197 105.241217,138.508197 C105.331217,137.698197 108.151217,136.528197 108.241217,136.528197 C108.271217,136.438197 108.271217,136.348197 108.271217,136.228197 C108.271217,135.478197 107.761217,134.338197 107.521217,134.338197 C105.481217,134.338197 101.521217,136.438197 101.581217,137.038197 C101.581217,137.038197 101.611217,138.508197 101.641217,140.668197 C101.011217,140.698197 100.471217,140.728197 100.471217,140.728197 C100.321217,140.878197 100.201217,141.778197 100.201217,142.498197 C100.201217,142.978197 100.261217,143.398197 100.351217,143.488197 C100.351217,143.488197 100.891217,143.458197 101.671217,143.428197 C101.701217,144.478197 101.701217,145.588197 101.701217,146.728197 C101.701217,151.318197 101.611217,156.358197 101.251217,159.028197 C101.251217,159.028197 101.701217,159.178197 102.091217,159.178197 Z M115.711217,157.138197 C118.621217,157.138197 119.641217,156.448197 119.641217,156.448197 C120.211217,155.728197 120.391217,154.468197 120.391217,153.748197 C120.391217,153.568197 120.361217,153.178197 120.301217,153.178197 C120.271217,153.178197 120.241217,153.208197 120.241217,153.208197 C119.311217,153.778197 117.931217,154.018197 116.641217,154.018197 C115.081217,154.018197 114.451217,153.388197 114.451217,153.208197 C118.291217,151.888197 120.541217,149.158197 120.541217,146.608197 C120.541217,143.938197 118.171217,143.338197 116.761217,143.338197 C111.901217,143.338197 109.501217,146.908197 109.501217,150.808197 C109.501217,154.318197 111.511217,157.138197 115.711217,157.138197 Z M117.031217,146.908197 C117.031217,148.918197 114.391217,150.718197 113.131217,150.748197 C113.011217,150.748197 113.011217,150.658197 113.011217,150.328197 C113.011217,147.958197 114.481217,146.038197 116.101217,146.038197 C116.551217,146.038197 117.031217,146.278197 117.031217,146.908197 Z M131.071217,144.568197 C131.071217,143.818197 130.831217,143.428197 130.831217,143.428197 C128.041217,143.428197 126.361217,145.828197 126.361217,145.828197 C126.301217,145.888197 126.271217,145.888197 126.241217,145.888197 C126.181217,145.888197 126.181217,145.258197 126.181217,145.198197 C126.181217,144.418197 126.241217,143.278197 126.271217,143.008197 C126.271217,142.918197 125.911217,142.858197 125.641217,142.858197 C124.561217,142.858197 123.331217,143.278197 122.911217,143.698197 C122.821217,143.788197 122.791217,144.508197 122.791217,145.588197 C122.791217,147.328197 122.851217,149.998197 122.851217,152.398197 C122.851217,154.348197 122.821217,156.148197 122.641217,157.138197 C122.641217,157.228197 122.761217,157.228197 122.881217,157.228197 C123.661217,157.228197 125.461217,157.108197 126.181217,156.418197 C126.271217,156.328197 126.271217,154.438197 126.271217,152.728197 L126.271217,150.088197 C126.271217,149.908197 127.081217,147.238197 130.141217,147.238197 C130.141217,147.238197 130.441217,147.268197 130.531217,147.298197 C130.531217,147.298197 131.071217,146.578197 131.071217,144.568197 Z M138.181217,157.138197 C141.091217,157.138197 142.111217,156.448197 142.111217,156.448197 C142.681217,155.728197 142.861217,154.468197 142.861217,153.748197 C142.861217,153.568197 142.831217,153.178197 142.771217,153.178197 C142.741217,153.178197 142.711217,153.208197 142.711217,153.208197 C141.781217,153.778197 140.401217,154.018197 139.111217,154.018197 C137.551217,154.018197 136.921217,153.388197 136.921217,153.208197 C140.761217,151.888197 143.011217,149.158197 143.011217,146.608197 C143.011217,143.938197 140.641217,143.338197 139.231217,143.338197 C134.371217,143.338197 131.971217,146.908197 131.971217,150.808197 C131.971217,154.318197 133.981217,157.138197 138.181217,157.138197 Z M139.501217,146.908197 C139.501217,148.918197 136.861217,150.718197 135.601217,150.748197 C135.481217,150.748197 135.481217,150.658197 135.481217,150.328197 C135.481217,147.958197 136.951217,146.038197 138.571217,146.038197 C139.021217,146.038197 139.501217,146.278197 139.501217,146.908197 Z M145.471217,152.698197 C145.471217,154.528197 145.411217,156.178197 145.261217,157.138197 C145.261217,157.228197 145.471217,157.228197 145.711217,157.228197 C146.521217,157.228197 148.201217,157.018197 148.801217,156.418197 C148.891217,156.328197 148.921217,154.738197 148.921217,153.088197 C148.921217,151.198197 148.891217,149.248197 148.891217,149.278197 C148.891217,149.278197 149.431217,147.148197 151.381217,147.148197 C153.031217,147.148197 153.151217,149.428197 153.151217,152.338197 C153.151217,154.318197 153.001217,156.118197 152.851217,157.468197 C152.851217,157.468197 153.271217,157.618197 153.841217,157.618197 C155.131217,157.618197 156.421217,157.168197 156.421217,157.018197 C156.421217,157.018197 156.511217,155.488197 156.511217,153.508197 C156.511217,148.378197 156.421217,143.458197 152.671217,143.458197 C150.421217,143.458197 148.981217,145.348197 148.981217,145.348197 C148.981217,145.348197 148.921217,145.408197 148.891217,145.408197 C148.831217,145.408197 148.801217,145.288197 148.801217,144.808197 C148.801217,144.238197 148.861217,143.488197 148.891217,143.248197 C148.891217,143.158197 148.531217,143.098197 148.261217,143.098197 C147.181217,143.098197 145.951217,143.518197 145.531217,143.938197 C145.411217,144.058197 145.381217,144.808197 145.381217,145.948197 C145.381217,147.718197 145.471217,150.328197 145.471217,152.698197 Z M165.331217,157.318197 C167.281217,157.318197 168.271217,156.748197 168.271217,156.748197 C168.481217,156.568197 168.601217,155.668197 168.601217,154.858197 C168.601217,154.228197 168.541217,153.658197 168.361217,153.478197 C168.271217,153.478197 167.311217,154.078197 165.721217,154.078197 C163.171217,154.078197 162.301217,152.608197 162.301217,150.898197 C162.301217,146.308197 166.411217,146.158197 167.551217,146.158197 L167.761217,146.158197 C167.971217,146.008197 168.121217,144.988197 168.121217,144.178197 C168.121217,143.668197 168.061217,143.248197 167.941217,143.158197 C167.821217,143.128197 167.671217,143.128197 167.131217,143.128197 C162.601217,143.128197 158.611217,146.068197 158.611217,151.198197 C158.611217,154.378197 160.471217,157.318197 165.331217,157.318197 Z M176.401217,157.138197 C179.311217,157.138197 180.331217,156.448197 180.331217,156.448197 C180.901217,155.728197 181.081217,154.468197 181.081217,153.748197 C181.081217,153.568197 181.051217,153.178197 180.991217,153.178197 C180.961217,153.178197 180.931217,153.208197 180.931217,153.208197 C180.001217,153.778197 178.621217,154.018197 177.331217,154.018197 C175.771217,154.018197 175.141217,153.388197 175.141217,153.208197 C178.981217,151.888197 181.231217,149.158197 181.231217,146.608197 C181.231217,143.938197 178.861217,143.338197 177.451217,143.338197 C172.591217,143.338197 170.191217,146.908197 170.191217,150.808197 C170.191217,154.318197 172.201217,157.138197 176.401217,157.138197 Z M177.721217,146.908197 C177.721217,148.918197 175.081217,150.718197 173.821217,150.748197 C173.701217,150.748197 173.701217,150.658197 173.701217,150.328197 C173.701217,147.958197 175.171217,146.038197 176.791217,146.038197 C177.241217,146.038197 177.721217,146.278197 177.721217,146.908197 Z" id="Our-Difference" fill="#FFFFFF" sketch:type="MSShapeGroup"></path>
            </g>
        </g>
    </g>
</svg>