<?xml version="1.0" encoding="UTF-8" standalone="no"?>
<svg width="200px" height="550px" viewBox="0 0 200 550" version="1.1" xmlns="http://www.w3.org/2000/svg" xmlns:xlink="http://www.w3.org/1999/xlink" xmlns:sketch="http://www.bohemiancoding.com/sketch/ns">
    <!-- Generator: Sketch 3.0.3 (7891) - http://www.bohemiancoding.com/sketch -->
    <title>BC Approach Diagram</title>
    <desc>Created with Sketch.</desc>
    <defs></defs>
    <g id="Page-1" stroke="none" stroke-width="1" fill="none" fill-rule="evenodd" sketch:type="MSPage">
        <g id="bcapproach" sketch:type="MSLayerGroup" transform="translate(-230.000000, 0.000000)">
            <g id="Group">
                <path d="M396.654907,47.9750004 C396.654907,84.7375606 366.882256,114.538204 330.14672,114.538204 C293.415134,114.538204 263.637216,84.7375606 263.637216,47.9750004 L230.380489,47.9750004 L230.380489,550.067208 L429.914268,550.067208 L429.914268,47.9750004 L396.654907,47.9750004 L396.654907,47.9750004 Z" id="Shape" fill="#00529C" sketch:type="MSShapeGroup"></path>
                <path d="M329.808405,114.563203 C293.078136,114.563203 263.304168,84.7625602 263.304168,48 L230.048758,48 L230.048758,550.092207 L329.690431,550.092207 C329.690431,550.092207 329.979492,114.59375 329.808405,114.563203 Z" id="Shape-3" fill="#265EA6" sketch:type="MSShapeGroup"></path>
                <path d="M330.653128,96.5681045 C303.9748,96.5681045 282.355359,74.9285734 282.355359,48.2379294 C282.355359,21.5354253 303.9748,-0.10015251 330.653128,-0.10015251 C357.32224,-0.10015251 378.94563,21.5354253 378.94563,48.2379294 C378.94563,74.9285734 357.32224,96.5681045 330.653128,96.5681045 Z" id="Shape" fill="#066939" sketch:type="MSShapeGroup"></path>
                <path d="M330.72403,96.5681045 C304.049652,96.5681045 282.420994,74.9285734 282.420994,48.2379294 C282.420994,21.5354253 304.049652,-0.10015251 330.72403,-0.10015251 C330,0.37109375 330,96.5585938 330.72403,96.5681045 Z" id="Shape-5" fill="#00703E" sketch:type="MSShapeGroup"></path>
                <g transform="translate(230.137831, 411.351798)" fill="#FFFFFF">
                    <g transform="translate(0.000000, 81.777716)" font-weight="normal" font-family="Helvetica" id="Guide-and-Motivate" sketch:alignment="middle" font-size="18" sketch:type="MSTextLayer">
                        <text>
                            <tspan x="22.1434627" y="18">Guide and Motivate</tspan>
                        </text>
                    </g>
                    <g transform="translate(69.988235, 0.000000)" id="Shape" sketch:type="MSShapeGroup">
                        <path d="M63.6313986,39.7052072 C57.9635881,38.6525994 51.4043297,39.0274597 42.9378223,42.4626799 L41.5369757,71.4813685 C48.761449,68.8663428 55.5843961,67.0505193 60.8072318,68.3895205 C61.7705948,59.3568857 62.4672726,50.6061459 63.6313986,39.7052072 L63.6313986,39.7052072 L63.6313986,39.7052072 Z M34.3694352,42.5961302 C36.8190441,43.2288944 39.2686529,43.2213972 41.7167635,42.5961302 L40.3009345,71.6163183 C39.010957,72.0796456 37.1411639,72.1141328 35.7852642,71.6163183 L34.3694352,42.5961302 L34.3694352,42.5961302 Z M12.4548001,39.7052072 C12.8203687,43.1239335 13.139492,46.3357369 13.4346437,49.4110912 C18.4177623,49.7529638 20.6006859,62.2553059 14.7396035,63.1279807 C14.9119001,64.8823271 15.0901897,66.6276769 15.2774687,68.388021 C20.5003044,67.0490199 27.3217533,68.8648434 34.5462266,71.4798691 L33.1468782,42.4611804 C24.6833673,39.0274597 18.1241089,38.6525994 12.4548001,39.7052072 L12.4548001,39.7052072 Z"></path>
                        <path d="M62.5122195,37.3016027 L62.6545515,34.6685837 C63.1324874,25.8098841 37.2265631,25.8323758 37.7059972,34.6685837 L38.0416011,40.8747715 C39.9967935,40.873272 41.7077741,40.336472 43.5745708,39.8581502 C49.7218155,37.55051 55.9814275,36.4049368 62.5122195,37.3016027 L62.5122195,37.3016027 L62.5122195,37.3016027 Z M43.9041818,16.3948918 C44.2023299,13.2385678 47.0264966,11.6566571 50.1787761,11.6566571 C53.3310556,11.6566571 56.1552224,13.2385678 56.4533705,16.3948918 C56.6076884,18.0442773 56.2346287,21.9443243 55.4180924,23.4212741 C54.7004394,24.7137925 53.0329075,25.9538305 51.1855879,26.3796719 C50.2911435,26.5116227 50.067907,26.5116227 49.1719644,26.3796719 C47.3246448,25.95533 45.6526182,24.7152919 44.9394599,23.4212741 C44.1199271,21.9443243 43.7498639,18.0427779 43.9041818,16.3948918 L43.9041818,16.3948918 L43.9041818,16.3948918 Z M9.74749545,7.53019451 C10.31982,2.74397769 14.6646919,0.347870396 19.4425528,0.347870396 C24.2219119,0.347870396 28.4424306,2.74397769 28.7690451,7.53019451 C28.9383453,10.0297633 28.2236888,15.9420605 26.9247219,18.1822259 C25.7890623,20.1404964 23.2121038,22.0207958 20.3939299,22.6625567 C19.0335355,22.8634819 18.6934369,22.8634819 17.3420319,22.6625567 C14.5568192,22.0192964 12.0772457,20.1389969 11.0419676,18.1822259 C9.85686636,15.94356 9.44784911,10.0297633 9.74749545,7.53019451 L9.74749545,7.53019451 L9.74749545,7.53019451 Z M9.46582789,49.4305839 L9.6081599,50.8115694 L13.2278877,50.8115694 C16.721764,50.8115694 18.8672318,61.7679874 14.0698939,61.7679874 C8.80360948,61.752993 3.81150145,60.4709706 1.32743329,55.6472678 C-1.96867646,49.247652 -0.0194770121,30.0847915 7.82826064,27.0349277 C12.0757475,25.3825434 17.6251977,24.8322484 22.696712,25.3855422 L43.7618498,27.3363154 C39.3510556,28.510378 36.0354689,30.9829568 36.2377302,34.7495535 L36.2617019,35.1319111 L31.7789926,35.6762083 L31.4209152,39.4622977 C23.6705627,36.7348139 18.034215,36.4364251 10.0606259,37.9163737 C10.4696431,41.7444475 10.8591834,45.5695224 11.2277484,49.4020945 L9.46582789,49.4305839 L9.46582789,49.4305839 Z"></path>
                    </g>
                </g>
                <g transform="translate(230.048758, 307.179437)" fill="#FFFFFF">
                    <text id="Teach" sketch:type="MSTextLayer" font-family="Helvetica" font-size="18" font-weight="normal" sketch:alignment="middle">
                        <tspan x="76.1059455" y="80.2731578">Teach</tspan>
                    </text>
                    <g transform="translate(63.183824, 0.395504)" id="Shape" sketch:type="MSShapeGroup">
                        <path d="M5.1675937,35.3822037 L42.9305419,40.7586245 C42.9766674,40.7647795 43.0258679,40.767857 43.0704559,40.767857 C43.5486236,40.767857 43.9668281,40.4154814 44.0360164,39.9261564 C44.1113547,39.3937461 43.7408132,38.8982659 43.2072949,38.821328 L5.44280919,33.446446 C4.90775337,33.3710469 4.41574802,33.7418876 4.33887218,34.2758366 C4.26353386,34.8113244 4.63407539,35.3068045 5.1675937,35.3822037 L5.1675937,35.3822037 Z"></path>
                        <path d="M4.10978219,39.9430827 L41.8727304,45.3195035 C41.9188559,45.3271973 41.9649814,45.3302748 42.0126444,45.3302748 C42.4908121,45.3302748 42.9074791,44.9778992 42.9766674,44.4885741 C43.0550807,43.9546251 42.6830017,43.4591449 42.1479458,43.3837458 L4.38346017,38.0088638 C3.84840435,37.9319259 3.356399,38.3027666 3.27952316,38.8382544 C3.20418484,39.3737422 3.57626389,39.8676835 4.10978219,39.9430827 L4.10978219,39.9430827 Z"></path>
                        <path d="M71.2792751,12.582425 C71.2346872,12.4116228 71.079398,12.2931384 70.9025835,12.2931384 C70.8702957,12.2931384 70.8333953,12.2977547 70.802645,12.3069873 L38.8115346,19.8730608 L10.3582501,10.3835396 C10.3167372,10.3681521 10.2736867,10.361997 10.2290987,10.361997 C10.0645844,10.361997 9.91544533,10.4666326 9.86163224,10.6235859 C9.82626936,10.7220664 9.83241942,10.8282407 9.87700741,10.9205662 C9.92159539,11.0159692 10.0000087,11.0852133 10.0999473,11.1221435 L38.667008,20.6501337 C38.7069834,20.6655212 38.7515714,20.6716763 38.7961594,20.6716763 C38.8284472,20.6716763 38.8638101,20.66706 38.8976355,20.6578275 L71.0040596,13.05944 C71.2116244,13.0040447 71.3361633,12.7901573 71.2792751,12.582425 L71.2792751,12.582425 Z"></path>
                        <path d="M70.7811197,14.7613064 C70.7472944,14.7613064 70.7119315,14.7659227 70.6781061,14.7751553 L39.1790011,22.4397093 L10.7257166,12.7547659 C10.6842037,12.7393783 10.6411532,12.7301457 10.5965652,12.7301457 C10.4320509,12.7301457 10.2829118,12.8347813 10.2306363,12.9917346 C10.1952734,13.0902151 10.1998859,13.199467 10.2460114,13.2917924 C10.2921369,13.3871954 10.3705503,13.4564396 10.4704889,13.491831 L39.0375495,23.2152434 C39.0790625,23.230631 39.1221129,23.236786 39.1651634,23.236786 C39.1989888,23.236786 39.2328141,23.2337085 39.2666395,23.224476 L70.8841333,15.527608 C71.0932356,15.4706739 71.216237,15.2567865 71.1593488,15.0490542 C71.1116858,14.8797908 70.9579341,14.7613064 70.7811197,14.7613064 L70.7811197,14.7613064 Z"></path>
                        <path d="M70.6596559,20.7978544 C70.6258305,20.7978544 70.5920052,20.8024707 70.5566423,20.8101645 L39.54493,28.6716796 L11.0901081,18.6912946 C11.0485951,18.6789845 11.0055447,18.669752 10.9609567,18.669752 C10.7979799,18.669752 10.6488408,18.7743875 10.5934902,18.9313409 C10.5612023,19.0298214 10.5642774,19.1359957 10.6104029,19.2313987 C10.6565284,19.3252629 10.7364793,19.3945071 10.8348803,19.4298985 L39.4004035,29.4502912 C39.4419164,29.4626013 39.4865044,29.4718338 39.5310924,29.4718338 C39.5633802,29.4718338 39.5987431,29.4672176 39.631031,29.457985 L70.761132,21.564156 C70.9686968,21.5087607 71.0947731,21.2933346 71.037885,21.0840635 C70.990222,20.9148001 70.8349328,20.7978544 70.6596559,20.7978544 L70.6596559,20.7978544 Z"></path>
                        <path d="M11.3960739,21.8072798 C11.354561,21.7918922 11.3115105,21.7841984 11.26846,21.7841984 C11.1039458,21.7841984 10.9548066,21.8872952 10.9009935,22.047326 C10.8656307,22.1458065 10.8717807,22.2519808 10.9163687,22.3443063 C10.9609567,22.4397093 11.0409076,22.5089534 11.1393086,22.5458836 L39.7063693,32.5631989 C39.7478822,32.5785864 39.7940077,32.5862802 39.8355207,32.5862802 C39.8708836,32.5862802 39.9047089,32.581664 39.9369968,32.5724314 L72.0449585,24.2892966 C72.2525232,24.2323625 72.3755246,24.0169364 72.320174,23.809204 C72.275586,23.6399407 72.1202968,23.5199175 71.9434824,23.5199175 C71.9111945,23.5199175 71.8742941,23.5260726 71.8420063,23.5353051 L39.8524334,31.7845873 L11.3960739,21.8072798 L11.3960739,21.8072798 Z"></path>
                        <path d="M72.7045531,18.663597 C73.0428068,18.2512098 73.3626103,17.6233965 73.3626103,17.6233965 C74.6910247,15.3152593 76.1778034,11.1436861 72.463163,7.87074767 C72.3017238,7.72918192 72.097234,7.63685644 71.8789067,7.58761618 C71.6006161,7.43681788 71.1531988,7.2967909 70.6519683,7.15522515 L42.8413659,-0.164647116 C41.2346609,-0.553952915 38.6008948,-0.526255269 36.9849647,-0.113868099 L9.76938124,6.78746197 C9.18512488,6.92287268 8.83149604,7.05982215 8.6900445,7.20292665 C8.43174169,7.28140332 8.2118768,7.4214303 8.08887546,7.60915879 C7.81827252,8.01539093 8.08887546,8.48625091 8.69158202,8.66474685 L38.1058144,18.0988727 C38.2810913,18.1619618 38.4702058,18.1896595 38.6577829,18.1896595 C38.7777092,18.186582 38.8945605,18.1727331 39.0067992,18.1465742 L71.3899763,9.83728052 C73.3656853,12.3516112 71.9880703,15.4799065 70.9686968,17.1356102 L52.4892833,21.5687723 L39.2220515,24.9586563 L26.9280678,20.5885833 L10.295212,14.9828876 C9.69096789,14.7936203 8.98217268,14.9675 8.71310725,15.3675771 C8.44404183,15.7707317 8.71310725,16.2446692 9.31735132,16.4339365 L24.0359989,21.4349003 L24.3066018,21.5210708 L39.3450529,26.9405768 L57.2063846,22.3704652 L57.1740967,22.3627714 L70.1615005,19.3114141 C70.2368388,19.4037396 70.3306273,19.4868325 70.4474786,19.5560767 C75.0385035,22.3319963 72.5415764,25.9865467 71.8220185,26.8744102 L69.7110081,27.4068205 L39.6510187,34.3343094 L11.8050534,25.0294392 L11.0947207,24.7816992 C10.4950891,24.5755056 9.78475641,24.7293814 9.50954091,25.1202259 C9.37577696,25.3125707 9.37116441,25.5249193 9.46956548,25.7188028 L5.58272321,26.8605613 C5.09071786,26.8251699 4.62485029,26.9713519 4.25584628,27.2514059 L4.18819555,27.269871 L4.22355843,27.276026 C3.83764173,27.5807001 3.56242624,28.02694 3.49170047,28.5531953 C3.34409887,29.6287872 4.09748206,30.6212861 5.17220625,30.7674682 L33.9406816,34.642061 L39.4757418,36.6009001 C39.6525562,36.671683 39.8447458,36.7101519 40.0369354,36.7147682 C40.1783869,36.7209232 40.3229135,36.7055357 40.4536024,36.6732217 L43.588599,35.8915326 C46.90041,36.2669896 49.4680629,38.8767233 49.4680629,42.046565 C49.4680629,45.4733793 46.4683678,48.2523764 42.7660276,48.2523764 C42.6168884,48.2523764 42.4723619,48.2385276 42.3216852,48.2308338 L42.3201477,48.2569927 L42.0879827,48.2216013 C41.8081546,48.1954424 41.5390892,48.1492796 41.2684863,48.0923456 L1.9680214,41.8819179 C0.888684664,41.7526622 -0.0907134865,42.5128087 -0.224477441,43.5914781 C-0.358241396,44.6686088 0.405904414,45.6503365 1.48216612,45.7857472 L44.005266,52.0377213 C46.941923,52.6024456 49.0375583,51.3668228 49.0375583,51.3668228 L65.0800077,42.2850725 C66.4038096,41.4095192 67.3416948,40.6309076 67.3416948,40.6309076 C71.1854866,36.6855318 71.2577499,32.4047068 70.3598401,29.2164 L73.1150701,28.5301139 C73.3164848,28.4716411 73.4886867,28.3716218 73.614763,28.2377498 C75.3736822,26.3573875 77.286353,22.0288609 72.7045531,18.663597 L72.7045531,18.663597 Z M52.8951877,8.38161536 L41.5129514,11.4114301 C40.8595068,11.5945423 39.7970828,11.5714609 39.1528633,11.3560348 L34.1067334,9.41258328 C33.4579013,9.20485094 33.4763515,8.91094814 34.1451713,8.75553357 L45.2137542,5.86266835 C45.8810364,5.70109875 46.9757483,5.79804051 47.6399556,5.97038142 L52.8767375,7.70148428 C53.5409447,7.88305773 53.5501698,8.18773184 52.8951877,8.38161536 L52.8951877,8.38161536 Z"></path>
                    </g>
                </g>
                <g transform="translate(230.816173, 189.620558)" fill="#FFFFFF">
                    <text id="Assess" sketch:type="MSTextLayer" font-family="Helvetica" font-size="18" font-weight="normal" sketch:alignment="middle">
                        <tspan x="70.6277286" y="77.4845861">Assess</tspan>
                    </text>
                    <path d="M84.6288206,50.2210327 L70.2924602,36.0838277 C68.6079765,34.4218667 68.5883241,31.7090631 70.2489444,30.0204096 L73.8565471,26.3565091 C75.5171673,24.6706653 78.2291861,24.6509971 79.9150736,26.3115533 L90.4781904,36.7314727 L120.223366,1.1447153 C121.742209,-0.670376509 124.442998,-0.910609248 126.256625,0.608055028 L130.199721,3.90809424 C132.014752,5.42816338 132.256195,8.12972805 130.738756,9.94762959 L97.596538,49.5972705 C96.0117196,51.4924399 93.6983619,52.6472429 91.2502455,52.765252 C91.1112756,52.7708715 90.9723057,52.7750861 90.831932,52.7750861 C88.5284005,52.7750861 86.2894409,51.8591109 84.6288206,50.2210327 L84.6288206,50.2210327 Z" id="Shape" sketch:type="MSShapeGroup"></path>
                </g>
                <path d="M266.580994,158.348197 C274.200994,158.348197 275.940994,152.528197 275.940994,147.698197 C275.940994,140.888197 273.300994,137.198197 267.600994,137.198197 C265.890994,137.198197 262.200994,138.158197 262.200994,142.448197 L261.630994,142.448197 C260.940994,142.448197 259.920994,142.478197 259.650994,142.628197 C259.500994,142.718197 257.820994,145.058197 257.820994,149.288197 C257.820994,153.998197 260.190994,158.348197 266.580994,158.348197 Z M272.070994,147.458197 C272.070994,151.148197 271.200994,155.228197 266.610994,155.228197 C263.700994,155.228197 261.630994,152.438197 261.630994,149.138197 C261.630994,146.288197 262.380994,144.908197 262.620994,144.638197 C263.220994,147.548197 264.990994,149.468197 265.200994,149.468197 C266.610994,149.468197 268.080994,148.748197 268.080994,148.478197 C268.080994,148.478197 265.380994,145.448197 265.380994,142.688197 C265.380994,141.638197 266.160994,140.408197 267.870994,140.408197 C270.240994,140.408197 272.070994,142.178197 272.070994,147.458197 Z M285.720994,156.308197 C285.870994,158.168197 286.500994,158.948197 286.620994,158.948197 C287.880994,158.948197 289.950994,157.688197 289.950994,157.328197 C289.590994,156.788197 289.320994,156.188197 289.140994,154.928197 C289.050994,154.448197 289.020994,153.458197 289.020994,152.288197 C289.020994,148.988197 289.260994,144.128197 289.260994,143.918197 C289.170994,143.828197 288.690994,143.798197 288.510994,143.798197 C287.160994,143.798197 286.020994,144.368197 285.840994,144.668197 C285.750994,144.878197 285.660994,148.448197 285.660994,150.578197 L285.660994,151.598197 C285.690994,151.868197 284.790994,153.878197 283.230994,153.878197 C281.520994,153.878197 281.550994,151.448197 281.550994,151.448197 C281.520994,150.908197 281.490994,150.278197 281.490994,149.618197 C281.490994,147.428197 281.670994,145.028197 281.670994,144.818197 C281.520994,144.668197 280.830994,144.668197 280.830994,144.668197 C279.090994,144.668197 278.310994,145.298197 278.310994,145.298197 C278.160994,145.628197 278.040994,148.838197 278.040994,151.148197 C278.040994,152.018197 278.070994,152.768197 278.100994,153.158197 C278.310994,155.378197 279.000994,158.048197 281.700994,158.048197 C283.110994,158.048197 284.700994,157.088197 285.660994,155.618197 C285.660994,155.618197 285.690994,155.618197 285.690994,155.678197 L285.720994,156.308197 Z M300.330994,145.568197 C300.330994,144.818197 300.090994,144.428197 300.090994,144.428197 C297.300994,144.428197 295.620994,146.828197 295.620994,146.828197 C295.560994,146.888197 295.530994,146.888197 295.500994,146.888197 C295.440994,146.888197 295.440994,146.258197 295.440994,146.198197 C295.440994,145.418197 295.500994,144.278197 295.530994,144.008197 C295.530994,143.918197 295.170994,143.858197 294.900994,143.858197 C293.820994,143.858197 292.590994,144.278197 292.170994,144.698197 C292.080994,144.788197 292.050994,145.508197 292.050994,146.588197 C292.050994,148.328197 292.110994,150.998197 292.110994,153.398197 C292.110994,155.348197 292.080994,157.148197 291.900994,158.138197 C291.900994,158.228197 292.020994,158.228197 292.140994,158.228197 C292.920994,158.228197 294.720994,158.108197 295.440994,157.418197 C295.530994,157.328197 295.530994,155.438197 295.530994,153.728197 L295.530994,151.088197 C295.530994,150.908197 296.340994,148.238197 299.400994,148.238197 C299.400994,148.238197 299.700994,148.268197 299.790994,148.298197 C299.790994,148.298197 300.330994,147.578197 300.330994,145.568197 Z M312.300994,150.608197 C312.300994,150.608197 322.980994,149.648197 322.980994,142.808197 C322.980994,138.098197 317.280994,137.288197 313.440994,137.288197 C310.590994,137.288197 307.710994,137.468197 307.560994,137.618197 C307.530994,137.648197 307.530994,137.678197 307.530994,137.738197 C307.530994,138.218197 308.100994,140.138197 308.700994,140.858197 C308.700994,140.858197 308.520994,153.758197 308.520994,158.168197 C308.520994,158.168197 308.880994,158.348197 309.600994,158.348197 C310.350994,158.348197 312.090994,158.138197 312.600994,157.628197 C312.450994,156.908197 312.360994,153.938197 312.300994,150.608197 Z M312.300994,147.278197 C312.300994,144.248197 312.330994,141.488197 312.450994,140.618197 C312.450994,140.618197 313.410994,140.438197 314.610994,140.438197 C317.040994,140.438197 319.020994,141.308197 319.020994,142.988197 C319.020994,144.758197 317.730994,146.798197 312.300994,147.278197 Z M331.680994,156.308197 C331.830994,158.168197 332.460994,158.948197 332.580994,158.948197 C333.840994,158.948197 335.910994,157.688197 335.910994,157.328197 C335.550994,156.788197 335.280994,156.188197 335.100994,154.928197 C335.010994,154.448197 334.980994,153.458197 334.980994,152.288197 C334.980994,148.988197 335.220994,144.128197 335.220994,143.918197 C335.130994,143.828197 334.650994,143.798197 334.470994,143.798197 C333.120994,143.798197 331.980994,144.368197 331.800994,144.668197 C331.710994,144.878197 331.620994,148.448197 331.620994,150.578197 L331.620994,151.598197 C331.650994,151.868197 330.750994,153.878197 329.190994,153.878197 C327.480994,153.878197 327.510994,151.448197 327.510994,151.448197 C327.480994,150.908197 327.450994,150.278197 327.450994,149.618197 C327.450994,147.428197 327.630994,145.028197 327.630994,144.818197 C327.480994,144.668197 326.790994,144.668197 326.790994,144.668197 C325.050994,144.668197 324.270994,145.298197 324.270994,145.298197 C324.120994,145.628197 324.000994,148.838197 324.000994,151.148197 C324.000994,152.018197 324.030994,152.768197 324.060994,153.158197 C324.270994,155.378197 324.960994,158.048197 327.660994,158.048197 C329.070994,158.048197 330.660994,157.088197 331.620994,155.618197 C331.620994,155.618197 331.650994,155.618197 331.650994,155.678197 L331.680994,156.308197 Z M346.290994,145.568197 C346.290994,144.818197 346.050994,144.428197 346.050994,144.428197 C343.260994,144.428197 341.580994,146.828197 341.580994,146.828197 C341.520994,146.888197 341.490994,146.888197 341.460994,146.888197 C341.400994,146.888197 341.400994,146.258197 341.400994,146.198197 C341.400994,145.418197 341.460994,144.278197 341.490994,144.008197 C341.490994,143.918197 341.130994,143.858197 340.860994,143.858197 C339.780994,143.858197 338.550994,144.278197 338.130994,144.698197 C338.040994,144.788197 338.010994,145.508197 338.010994,146.588197 C338.010994,148.328197 338.070994,150.998197 338.070994,153.398197 C338.070994,155.348197 338.040994,157.148197 337.860994,158.138197 C337.860994,158.228197 337.980994,158.228197 338.100994,158.228197 C338.880994,158.228197 340.680994,158.108197 341.400994,157.418197 C341.490994,157.328197 341.490994,155.438197 341.490994,153.728197 L341.490994,151.088197 C341.490994,150.908197 342.300994,148.238197 345.360994,148.238197 C345.360994,148.238197 345.660994,148.268197 345.750994,148.298197 C345.750994,148.298197 346.290994,147.578197 346.290994,145.568197 Z M351.030994,157.958197 C352.770994,157.958197 359.130994,156.428197 359.130994,150.488197 C359.130994,144.548197 353.370994,144.308197 351.150994,144.308197 C351.150994,144.218197 351.180994,142.988197 351.180994,142.898197 C351.030994,142.808197 350.820994,142.808197 350.550994,142.808197 C349.440994,142.808197 348.120994,143.408197 347.700994,143.828197 C347.760994,144.458197 347.790994,145.688197 347.790994,147.248197 C347.790994,151.148197 347.640994,157.118197 347.640994,161.198197 C347.640994,162.998197 347.670994,164.438197 347.760994,165.158197 C347.760994,165.248197 348.000994,165.248197 348.210994,165.248197 C349.020994,165.248197 350.700994,165.008197 351.270994,164.408197 C351.150994,163.658197 351.030994,159.938197 351.030994,158.408197 L351.030994,157.958197 Z M355.650994,150.548197 C355.650994,153.398197 353.220994,154.628197 351.060994,154.628197 C351.060994,154.238197 351.030994,153.728197 351.030994,153.128197 C351.030994,150.788197 351.120994,147.368197 351.120994,147.308197 C353.310994,147.308197 355.650994,147.938197 355.650994,150.548197 Z M367.230994,158.228197 C371.400994,158.228197 373.650994,154.778197 373.650994,151.208197 C373.650994,146.978197 370.530994,145.958197 370.230994,145.928197 C370.260994,145.748197 370.320994,145.238197 370.320994,144.848197 C370.320994,144.638197 370.290994,144.458197 370.260994,144.428197 C370.080994,144.248197 368.640994,144.188197 368.640994,144.188197 C363.660994,144.188197 360.930994,148.028197 360.930994,151.688197 C360.930994,155.438197 363.210994,158.228197 367.230994,158.228197 Z M370.200994,151.478197 C370.200994,154.148197 368.640994,155.198197 367.230994,155.198197 C364.350994,155.198197 364.350994,151.898197 364.350994,151.598197 C364.350994,148.718197 366.270994,147.398197 367.710994,147.398197 C367.680994,147.518197 367.620994,147.938197 367.620994,148.268197 C367.620994,148.448197 367.650994,148.598197 367.680994,148.658197 L367.920994,148.658197 C368.550994,148.658197 370.200994,148.898197 370.200994,151.478197 Z M384.480994,153.998197 C384.390994,150.878197 379.710994,150.008197 379.710994,148.508197 C379.710994,146.918197 383.430994,146.288197 383.880994,146.288197 C383.850994,144.998197 382.920994,143.768197 382.590994,143.768197 C379.200994,143.768197 375.450994,146.168197 375.450994,148.658197 C375.450994,151.238197 380.250994,152.168197 380.250994,153.908197 C380.250994,154.868197 378.900994,156.398197 375.450994,156.398197 L375.450994,156.608197 C375.450994,158.018197 376.320994,159.278197 376.620994,159.278197 C378.960994,159.278197 384.480994,157.508197 384.480994,153.998197 Z M392.340994,158.138197 C395.250994,158.138197 396.270994,157.448197 396.270994,157.448197 C396.840994,156.728197 397.020994,155.468197 397.020994,154.748197 C397.020994,154.568197 396.990994,154.178197 396.930994,154.178197 C396.900994,154.178197 396.870994,154.208197 396.870994,154.208197 C395.940994,154.778197 394.560994,155.018197 393.270994,155.018197 C391.710994,155.018197 391.080994,154.388197 391.080994,154.208197 C394.920994,152.888197 397.170994,150.158197 397.170994,147.608197 C397.170994,144.938197 394.800994,144.338197 393.390994,144.338197 C388.530994,144.338197 386.130994,147.908197 386.130994,151.808197 C386.130994,155.318197 388.140994,158.138197 392.340994,158.138197 Z M393.660994,147.908197 C393.660994,149.918197 391.020994,151.718197 389.760994,151.748197 C389.640994,151.748197 389.640994,151.658197 389.640994,151.328197 C389.640994,148.958197 391.110994,147.038197 392.730994,147.038197 C393.180994,147.038197 393.660994,147.278197 393.660994,147.908197 Z" id="Our-Purpose" fill="#FFFFFF" sketch:type="MSShapeGroup"></path>
            </g>
        </g>
    </g>
</svg>