<?xml version="1.0" encoding="UTF-8" standalone="no"?>
<svg width="200px" height="550px" viewBox="0 0 200 550" version="1.1" xmlns="http://www.w3.org/2000/svg" xmlns:xlink="http://www.w3.org/1999/xlink" xmlns:sketch="http://www.bohemiancoding.com/sketch/ns">
    <!-- Generator: Sketch 3.0.3 (7891) - http://www.bohemiancoding.com/sketch -->
    <title>BC Approach Diagram</title>
    <desc>Created with Sketch.</desc>
    <defs></defs>
    <g id="Page-1" stroke="none" stroke-width="1" fill="none" fill-rule="evenodd" sketch:type="MSPage">
        <g id="bcapproach" sketch:type="MSLayerGroup" transform="translate(-461.000000, 0.000000)">
            <g id="Group">
                <path d="M560.85455,114.538204 C524.121647,114.538204 494.346363,84.7375606 494.346363,47.9750004 L461.093586,47.9750004 L461.093586,550.067208 L660.624731,550.067208 L660.624731,47.9750004 L627.368004,47.9750004 C627.368004,84.7375606 597.587452,114.538204 560.85455,114.538204 Z" id="Shape" fill="#00539B" sketch:type="MSShapeGroup"></path>
                <path d="M561.725897,114.563203 C524.995628,114.563203 495.22166,84.7625602 495.22166,48 L461.96625,48 L461.96625,550.092207 L561.607923,550.092207 C561.607923,550.092207 561.962891,114.6875 561.725897,114.563203 Z" id="Shape-4" fill="#265EA6" sketch:type="MSShapeGroup"></path>
                <path d="M609.377774,48.2379294 C609.377774,74.9285734 587.7557,96.5681045 561.082638,96.5681045 C534.40826,96.5681045 512.783552,74.9285734 512.783552,48.2379294 C512.783552,21.5354253 534.40826,-0.10015251 561.082638,-0.10015251 C587.7557,-0.10015251 609.377774,21.5354253 609.377774,48.2379294 L609.377774,48.2379294 Z" id="Shape" fill="#006838" sketch:type="MSShapeGroup"></path>
                <path d="M561.303036,96.5681045 C534.628657,96.5681045 513,74.9285734 513,48.2379294 C513,21.5354253 534.628657,-0.10015251 561.303036,-0.10015251 C560.579006,0.37109375 560.579006,96.5585938 561.303036,96.5681045 Z" id="Shape-7" fill="#00703E" sketch:type="MSShapeGroup"></path>
                <g transform="translate(460.755882, 310.601123)" font-weight="normal" font-family="Helvetica" id="Your-child’s-persona" fill="#FFFFFF" sketch:alignment="middle" font-size="24" sketch:type="MSTextLayer">
                    <text>
                        <tspan x="39.6106114" y="23">Your child’s </tspan>
                        <tspan x="28.2785802" y="52">personal best</tspan>
                    </text>
                </g>
                <g transform="translate(500.090633, 211.484516)" id="Shape" fill="#FFFFFF" sketch:type="MSShapeGroup">
                    <path d="M56.9962258,56.1961006 L31.003915,44.2081087 C28.8773911,43.2263505 27.0537158,44.3306637 26.9325764,46.6723875 L26.0253473,64.255742 C25.9042079,66.5974659 27.4684867,69.4162319 29.548925,70.4968248 C36.528927,74.1233999 51.6634569,81.4055416 60.8489867,81.4055416 C70.0569011,81.4055416 85.4495107,74.0930906 92.5098334,70.4744223 C94.5968553,69.4043717 96.1413832,66.5974659 95.9886421,64.2596954 L94.8430844,46.6592096 C94.6916601,44.3188035 92.846917,43.2197615 90.7177597,44.2002019 L64.7017477,56.1974184 C62.5739071,57.1739053 59.1266999,57.1739053 56.9962258,56.1961006 L56.9962258,56.1961006 Z"></path>
                    <path d="M119.664819,21.8134803 L64.7991859,0.267512626 C62.6213095,-0.590372692 59.081931,-0.590372692 56.901421,0.267512626 L2.03578754,21.8134803 C-0.144722417,22.6713656 -0.188174608,24.1617931 1.9383493,25.144869 L11.4201441,29.5146812 L11.4201441,49.7916111 C10.5431999,50.2528398 9.94671981,51.1752971 9.94671981,52.2374408 L9.94671981,71.0529348 C9.94671981,72.5815784 11.1831322,73.8216246 12.7105425,73.8216246 C14.2379529,73.8216246 15.4796322,72.5815784 15.4796322,71.0529348 L15.4796322,52.2374408 C15.4796322,51.1752971 14.8805186,50.2528398 14.0048911,49.7916111 L14.0048911,30.7072867 L56.9975425,50.5335304 C59.1280166,51.5166063 62.5752238,51.5166063 64.7030644,50.5335304 L119.764891,25.144869 C121.887465,24.1617931 121.845329,22.6713656 119.664819,21.8134803 L119.664819,21.8134803 Z"></path>
                </g>
                <g transform="translate(526.822251, 395.524493)" id="Shape" fill="#FFFFFF" sketch:type="MSShapeGroup">
                    <path d="M62.0706052,78.784445 L5.01919486,78.784445 C1.98412513,78.784445 -0.47289877,76.3214839 -0.47289877,73.2879171 L-0.47289877,5.25668899 C-0.47289877,2.22180437 1.98412513,-0.239838906 5.01919486,-0.239838906 L62.0706052,-0.239838906 C65.1043582,-0.239838906 67.5613821,2.22312217 67.5613821,5.25668899 L67.5613821,73.2879171 C67.5613821,76.3214839 65.1030415,78.784445 62.0706052,78.784445 L62.0706052,78.784445 Z M9.4131331,74.3856413 L57.6753502,74.3856413 C60.7077865,74.3856413 63.1674439,71.9253159 63.1674439,68.8904312 L63.1674439,9.65285707 C63.1674439,6.61665465 60.7077865,4.15896476 57.6753502,4.15896476 L9.4131331,4.15896476 C6.37806338,4.15896476 3.91972274,6.61665465 3.91972274,9.65285707 L3.91972274,68.8904312 C3.91972274,71.9253159 6.37938011,74.3856413 9.4131331,74.3856413 L9.4131331,74.3856413 Z"></path>
                    <path d="M53.0760016,17.2802614 L11.6107606,17.2802614 C10.8523223,17.2802614 10.237408,16.6648506 10.237408,15.9058 L10.237408,13.9818175 C10.237408,13.2240847 10.8523223,12.6086739 11.6107606,12.6086739 L53.0760016,12.6086739 C53.8331231,12.6086739 54.4467208,13.2240847 54.4467208,13.9818175 L54.4467208,15.9058 C54.4467208,16.6648506 53.8331231,17.2802614 53.0760016,17.2802614 L53.0760016,17.2802614 Z"></path>
                    <path d="M53.0760016,26.3506525 L11.6107606,26.3506525 C10.8523223,26.3506525 10.237408,25.7339239 10.237408,24.9761911 L10.237408,23.0508909 C10.237408,22.2931581 10.8523223,21.6790651 11.6107606,21.6790651 L53.0760016,21.6790651 C53.8331231,21.6790651 54.4467208,22.2931581 54.4467208,23.0508909 L54.4467208,24.9761911 C54.4467208,25.7339239 53.8331231,26.3506525 53.0760016,26.3506525 L53.0760016,26.3506525 Z"></path>
                    <path d="M27.4010235,35.1456243 L11.6107606,35.1456243 C10.8523223,35.1456243 10.237408,34.5302135 10.237408,33.7685273 L10.237408,31.8484982 C10.237408,31.0894476 10.8523223,30.4740368 11.6107606,30.4740368 L27.4010235,30.4740368 C28.1581451,30.4740368 28.7730594,31.0894476 28.7730594,31.8484982 L28.7730594,33.7685273 C28.7717427,34.5302135 28.1581451,35.1456243 27.4010235,35.1456243 L27.4010235,35.1456243 Z"></path>
                    <path d="M11.6094439,30.4740368 L27.3997068,30.4740368 C28.1568283,30.4740368 28.7717427,31.0894476 28.7717427,31.8484982 L28.7717427,33.7685273 C28.7717427,34.5302135 28.1568283,35.1456243 27.3997068,35.1456243 L11.6094439,35.1456243 L11.6094439,30.4740368 L11.6094439,30.4740368 Z"></path>
                    <g transform="translate(31.359241, 47.440663)">
                        <path d="M4.48335788,0.902690388 L4.3609017,0.931681904 C4.14364074,0.990982732 3.92637979,1.22291486 3.8750272,1.44430462 L-0.430689934,20.4890951 C-0.482042523,20.7091671 -0.345102284,20.8409467 -0.127841328,20.7816459 L2.43452122,20.0858495 C2.65441564,20.0278664 2.87299333,19.7985699 2.92302919,19.5758623 L4.01196744,14.7566817 C4.06068656,14.5352919 4.27663078,14.308631 4.49784194,14.2480124 L8.86149533,13.060678 C9.08007301,13.0013772 9.34210289,13.1173432 9.44217461,13.3229194 L11.3830391,17.2367741 C11.4857443,17.4383969 11.7464575,17.5569986 11.9650352,17.49638 L14.1876806,16.8901937 C14.4102085,16.8335285 14.5050133,16.6200455 14.4062583,16.4144693 L6.64411684,0.73269468 C6.54404513,0.532389659 6.28333198,0.413788003 6.06607102,0.470453239 L6.0331527,0.480995608 C5.81457501,0.53897864 4.70193556,0.842071763 4.48335788,0.902690388 L4.48335788,0.902690388 Z M4.73353716,10.8612762 L5.76190568,6.24371833 C5.81457501,5.98674807 5.95678218,5.96829893 6.07397142,6.20682004 L7.90949732,9.950679 C8.02800329,10.1905179 7.91476425,10.4369458 7.6580013,10.5081068 L5.08905509,11.205221 C4.83229214,11.2750642 4.67428417,11.1195642 4.73353716,10.8612762 L4.73353716,10.8612762 Z"></path>
                        <path d="M23.0519276,6.57053179 L22.8175491,4.28283761 C22.7938479,4.05617666 22.596338,3.91780806 22.3764435,3.98106228 L19.46383,4.77173999 C19.2439356,4.83235862 19.0451089,4.69399002 19.0187742,4.46996466 L18.6816905,1.43771564 C18.6579893,1.2110547 18.4578459,1.07532169 18.2379515,1.13594031 L16.0350571,1.73421978 C15.8164794,1.79220281 15.6571547,2.02413494 15.6834893,2.25343148 L16.0192563,5.28304491 C16.0455909,5.50970586 15.8888997,5.74163798 15.6690053,5.80093881 L12.7853599,6.58370975 C12.5654654,6.64432837 12.4087742,6.8775783 12.4311587,7.10160365 L12.6668539,9.39193342 C12.6892384,9.61595877 12.8854316,9.75037398 13.105326,9.69107315 L16.000822,8.90698442 C16.2193997,8.8463658 16.4169097,8.9834166 16.4406109,9.20875975 L16.7684774,12.2410088 C16.7921786,12.4676697 16.9910053,12.6047205 17.209583,12.5441019 L19.4151109,11.9445046 C19.6323718,11.883886 19.79433,11.6506361 19.7679953,11.4266107 L19.4427623,8.38909052 C19.4177443,8.16506517 19.577069,7.93313304 19.7982802,7.87251442 L22.6977264,7.0831545 C22.9189376,7.02648927 23.0782623,6.79455714 23.0519276,6.57053179 L23.0519276,6.57053179 Z"></path>
                    </g>
                </g>
                <path d="M500.004309,157.348197 C507.624309,157.348197 509.364309,151.528197 509.364309,146.698197 C509.364309,139.888197 506.724309,136.198197 501.024309,136.198197 C499.314309,136.198197 495.624309,137.158197 495.624309,141.448197 L495.054309,141.448197 C494.364309,141.448197 493.344309,141.478197 493.074309,141.628197 C492.924309,141.718197 491.244309,144.058197 491.244309,148.288197 C491.244309,152.998197 493.614309,157.348197 500.004309,157.348197 Z M505.494309,146.458197 C505.494309,150.148197 504.624309,154.228197 500.034309,154.228197 C497.124309,154.228197 495.054309,151.438197 495.054309,148.138197 C495.054309,145.288197 495.804309,143.908197 496.044309,143.638197 C496.644309,146.548197 498.414309,148.468197 498.624309,148.468197 C500.034309,148.468197 501.504309,147.748197 501.504309,147.478197 C501.504309,147.478197 498.804309,144.448197 498.804309,141.688197 C498.804309,140.638197 499.584309,139.408197 501.294309,139.408197 C503.664309,139.408197 505.494309,141.178197 505.494309,146.458197 Z M519.144309,155.308197 C519.294309,157.168197 519.924309,157.948197 520.044309,157.948197 C521.304309,157.948197 523.374309,156.688197 523.374309,156.328197 C523.014309,155.788197 522.744309,155.188197 522.564309,153.928197 C522.474309,153.448197 522.444309,152.458197 522.444309,151.288197 C522.444309,147.988197 522.684309,143.128197 522.684309,142.918197 C522.594309,142.828197 522.114309,142.798197 521.934309,142.798197 C520.584309,142.798197 519.444309,143.368197 519.264309,143.668197 C519.174309,143.878197 519.084309,147.448197 519.084309,149.578197 L519.084309,150.598197 C519.114309,150.868197 518.214309,152.878197 516.654309,152.878197 C514.944309,152.878197 514.974309,150.448197 514.974309,150.448197 C514.944309,149.908197 514.914309,149.278197 514.914309,148.618197 C514.914309,146.428197 515.094309,144.028197 515.094309,143.818197 C514.944309,143.668197 514.254309,143.668197 514.254309,143.668197 C512.514309,143.668197 511.734309,144.298197 511.734309,144.298197 C511.584309,144.628197 511.464309,147.838197 511.464309,150.148197 C511.464309,151.018197 511.494309,151.768197 511.524309,152.158197 C511.734309,154.378197 512.424309,157.048197 515.124309,157.048197 C516.534309,157.048197 518.124309,156.088197 519.084309,154.618197 C519.084309,154.618197 519.114309,154.618197 519.114309,154.678197 L519.144309,155.308197 Z M533.754309,144.568197 C533.754309,143.818197 533.514309,143.428197 533.514309,143.428197 C530.724309,143.428197 529.044309,145.828197 529.044309,145.828197 C528.984309,145.888197 528.954309,145.888197 528.924309,145.888197 C528.864309,145.888197 528.864309,145.258197 528.864309,145.198197 C528.864309,144.418197 528.924309,143.278197 528.954309,143.008197 C528.954309,142.918197 528.594309,142.858197 528.324309,142.858197 C527.244309,142.858197 526.014309,143.278197 525.594309,143.698197 C525.504309,143.788197 525.474309,144.508197 525.474309,145.588197 C525.474309,147.328197 525.534309,149.998197 525.534309,152.398197 C525.534309,154.348197 525.504309,156.148197 525.324309,157.138197 C525.324309,157.228197 525.444309,157.228197 525.564309,157.228197 C526.344309,157.228197 528.144309,157.108197 528.864309,156.418197 C528.954309,156.328197 528.954309,154.438197 528.954309,152.728197 L528.954309,150.088197 C528.954309,149.908197 529.764309,147.238197 532.824309,147.238197 C532.824309,147.238197 533.124309,147.268197 533.214309,147.298197 C533.214309,147.298197 533.754309,146.578197 533.754309,144.568197 Z M545.724309,149.608197 C545.724309,149.608197 556.404309,148.648197 556.404309,141.808197 C556.404309,137.098197 550.704309,136.288197 546.864309,136.288197 C544.014309,136.288197 541.134309,136.468197 540.984309,136.618197 C540.954309,136.648197 540.954309,136.678197 540.954309,136.738197 C540.954309,137.218197 541.524309,139.138197 542.124309,139.858197 C542.124309,139.858197 541.944309,152.758197 541.944309,157.168197 C541.944309,157.168197 542.304309,157.348197 543.024309,157.348197 C543.774309,157.348197 545.514309,157.138197 546.024309,156.628197 C545.874309,155.908197 545.784309,152.938197 545.724309,149.608197 Z M545.724309,146.278197 C545.724309,143.248197 545.754309,140.488197 545.874309,139.618197 C545.874309,139.618197 546.834309,139.438197 548.034309,139.438197 C550.464309,139.438197 552.444309,140.308197 552.444309,141.988197 C552.444309,143.758197 551.154309,145.798197 545.724309,146.278197 Z M566.784309,144.568197 C566.784309,143.818197 566.544309,143.428197 566.544309,143.428197 C563.754309,143.428197 562.074309,145.828197 562.074309,145.828197 C562.014309,145.888197 561.984309,145.888197 561.954309,145.888197 C561.894309,145.888197 561.894309,145.258197 561.894309,145.198197 C561.894309,144.418197 561.954309,143.278197 561.984309,143.008197 C561.984309,142.918197 561.624309,142.858197 561.354309,142.858197 C560.274309,142.858197 559.044309,143.278197 558.624309,143.698197 C558.534309,143.788197 558.504309,144.508197 558.504309,145.588197 C558.504309,147.328197 558.564309,149.998197 558.564309,152.398197 C558.564309,154.348197 558.534309,156.148197 558.354309,157.138197 C558.354309,157.228197 558.474309,157.228197 558.594309,157.228197 C559.374309,157.228197 561.174309,157.108197 561.894309,156.418197 C561.984309,156.328197 561.984309,154.438197 561.984309,152.728197 L561.984309,150.088197 C561.984309,149.908197 562.794309,147.238197 565.854309,147.238197 C565.854309,147.238197 566.154309,147.268197 566.244309,147.298197 C566.244309,147.298197 566.784309,146.578197 566.784309,144.568197 Z M573.984309,157.228197 C578.154309,157.228197 580.404309,153.778197 580.404309,150.208197 C580.404309,145.978197 577.284309,144.958197 576.984309,144.928197 C577.014309,144.748197 577.074309,144.238197 577.074309,143.848197 C577.074309,143.638197 577.044309,143.458197 577.014309,143.428197 C576.834309,143.248197 575.394309,143.188197 575.394309,143.188197 C570.414309,143.188197 567.684309,147.028197 567.684309,150.688197 C567.684309,154.438197 569.964309,157.228197 573.984309,157.228197 Z M576.954309,150.478197 C576.954309,153.148197 575.394309,154.198197 573.984309,154.198197 C571.104309,154.198197 571.104309,150.898197 571.104309,150.598197 C571.104309,147.718197 573.024309,146.398197 574.464309,146.398197 C574.434309,146.518197 574.374309,146.938197 574.374309,147.268197 C574.374309,147.448197 574.404309,147.598197 574.434309,147.658197 L574.674309,147.658197 C575.304309,147.658197 576.954309,147.898197 576.954309,150.478197 Z M593.214309,148.288197 C593.214309,148.168197 593.874309,146.968197 595.014309,146.968197 C596.724309,146.968197 596.844309,149.128197 596.844309,152.188197 C596.844309,154.168197 596.664309,156.118197 596.514309,157.468197 C596.514309,157.468197 596.904309,157.618197 597.474309,157.618197 C598.764309,157.618197 600.054309,157.168197 600.054309,157.018197 C600.054309,157.018197 600.174309,155.488197 600.174309,153.508197 C600.174309,148.378197 600.084309,143.038197 596.334309,143.038197 C594.654309,143.038197 593.424309,144.208197 592.554309,145.438197 C591.924309,144.328197 591.114309,143.698197 589.614309,143.698197 C587.994309,143.698197 586.374309,145.468197 586.374309,145.468197 C586.314309,145.528197 586.284309,145.528197 586.254309,145.528197 C586.194309,145.528197 586.194309,145.378197 586.194309,145.378197 C586.194309,144.808197 586.284309,143.158197 586.314309,142.828197 C586.314309,142.768197 585.954309,142.708197 585.684309,142.708197 C584.604309,142.708197 583.494309,143.218197 583.074309,143.608197 C582.984309,143.698197 582.924309,144.508197 582.924309,145.678197 C582.924309,147.538197 583.014309,150.298197 583.014309,152.728197 C583.014309,154.558197 582.954309,156.208197 582.804309,157.138197 C582.804309,157.228197 582.924309,157.228197 583.044309,157.228197 C584.124309,157.228197 585.504309,157.168197 586.194309,156.508197 C586.284309,156.388197 586.314309,154.948197 586.314309,153.418197 C586.314309,151.648197 586.284309,149.788197 586.284309,149.608197 C586.284309,149.248197 587.034309,147.178197 588.624309,147.178197 C589.914309,147.178197 589.974309,148.558197 589.974309,150.988197 C589.974309,152.968197 589.854309,154.198197 589.704309,155.548197 C589.704309,155.548197 590.094309,155.698197 590.664309,155.698197 C591.954309,155.698197 593.184309,155.248197 593.184309,155.098197 C593.184309,155.098197 593.304309,154.708197 593.304309,152.728197 C593.304309,150.208197 593.304309,149.248197 593.214309,148.288197 Z M606.864309,140.548197 C606.864309,139.288197 606.084309,138.538197 605.004309,138.538197 C603.924309,138.538197 602.874309,139.528197 602.874309,140.548197 C602.874309,141.868197 603.594309,142.588197 604.704309,142.588197 C605.784309,142.588197 606.864309,141.628197 606.864309,140.548197 Z M605.724309,144.298197 C603.984309,144.298197 603.294309,144.838197 603.294309,144.838197 C603.174309,145.078197 603.084309,149.638197 603.084309,152.728197 C603.084309,153.958197 603.114309,154.948197 603.144309,155.338197 C603.324309,157.198197 603.924309,157.978197 604.044309,157.978197 C605.304309,157.978197 607.374309,156.718197 607.374309,156.358197 C607.014309,155.818197 606.714309,155.218197 606.564309,153.958197 C606.504309,153.448197 606.474309,152.248197 606.474309,150.868197 C606.474309,148.108197 606.564309,144.628197 606.564309,144.478197 C606.414309,144.298197 605.724309,144.298197 605.724309,144.298197 Z M617.904309,152.998197 C617.814309,149.878197 613.134309,149.008197 613.134309,147.508197 C613.134309,145.918197 616.854309,145.288197 617.304309,145.288197 C617.274309,143.998197 616.344309,142.768197 616.014309,142.768197 C612.624309,142.768197 608.874309,145.168197 608.874309,147.658197 C608.874309,150.238197 613.674309,151.168197 613.674309,152.908197 C613.674309,153.868197 612.324309,155.398197 608.874309,155.398197 L608.874309,155.608197 C608.874309,157.018197 609.744309,158.278197 610.044309,158.278197 C612.384309,158.278197 617.904309,156.508197 617.904309,152.998197 Z M625.764309,157.138197 C628.674309,157.138197 629.694309,156.448197 629.694309,156.448197 C630.264309,155.728197 630.444309,154.468197 630.444309,153.748197 C630.444309,153.568197 630.414309,153.178197 630.354309,153.178197 C630.324309,153.178197 630.294309,153.208197 630.294309,153.208197 C629.364309,153.778197 627.984309,154.018197 626.694309,154.018197 C625.134309,154.018197 624.504309,153.388197 624.504309,153.208197 C628.344309,151.888197 630.594309,149.158197 630.594309,146.608197 C630.594309,143.938197 628.224309,143.338197 626.814309,143.338197 C621.954309,143.338197 619.554309,146.908197 619.554309,150.808197 C619.554309,154.318197 621.564309,157.138197 625.764309,157.138197 Z M627.084309,146.908197 C627.084309,148.918197 624.444309,150.718197 623.184309,150.748197 C623.064309,150.748197 623.064309,150.658197 623.064309,150.328197 C623.064309,147.958197 624.534309,146.038197 626.154309,146.038197 C626.604309,146.038197 627.084309,146.278197 627.084309,146.908197 Z" id="Our-Promise" fill="#FFFFFF" sketch:type="MSShapeGroup"></path>
            </g>
        </g>
    </g>
</svg>