<?xml version="1.0" encoding="utf-8"?>
<!-- Generator: Adobe Illustrator 16.0.0, SVG Export Plug-In . SVG Version: 6.00 Build 0)  -->
<!DOCTYPE svg PUBLIC "-//W3C//DTD SVG 1.1//EN" "http://www.w3.org/Graphics/SVG/1.1/DTD/svg11.dtd">
<svg version="1.1" id="Layer_1" xmlns="http://www.w3.org/2000/svg" xmlns:xlink="http://www.w3.org/1999/xlink" x="0px" y="0px"
	 width="792px" height="612px" viewBox="0 0 792 612" enable-background="new 0 0 792 612" xml:space="preserve">
<rect fill="#00539C" width="792" height="612"/>
<text transform="matrix(1 0 0 1 304.8975 356.1113)" display="none"><tspan x="0" y="0" display="inline" font-family="'OpenSans'" font-size="12">Guide every student</tspan><tspan x="5.625" y="14.4" display="inline" font-family="'OpenSans'" font-size="12">towards academic</tspan><tspan x="33.501" y="28.801" display="inline" font-family="'OpenSans'" font-size="12">success.</tspan></text>
<g>
	<path fill="#FFFFFF" d="M621.458,114.042c0,27.897-22.617,50.511-50.514,50.511s-50.51-22.614-50.51-50.511h-25.254v381.009
		h151.535V114.042H621.458z"/>
	<path fill="#066939" d="M606.115,107.605c0,20.254-16.421,36.675-36.678,36.675c-20.258,0-36.681-16.421-36.681-36.675
		c0-20.263,16.423-36.681,36.681-36.681C589.694,70.924,606.115,87.342,606.115,107.605z"/>
	<text transform="matrix(1 0 0 1 530.4551 463.6152)"><tspan x="0" y="0" font-family="'OpenSans'" font-size="14.0192">Your child’s </tspan><tspan x="-5.528" y="16.824" font-family="'OpenSans'" font-size="14.0192">personal best</tspan></text>
	<text transform="matrix(1 0 0 1 523.8447 186.8516)" font-family="'BubblegumSans-Regular'" font-size="18.6922">Our Promise</text>
	<path fill="#00539C" d="M601.116,388.959c0-0.041-0.002-0.078-0.004-0.119c-0.004-0.041-0.004-0.08-0.006-0.119
		c-0.004-0.037-0.008-0.078-0.01-0.117s-0.004-0.08-0.01-0.119c-0.002-0.041-0.008-0.082-0.012-0.123
		c-0.007-0.041-0.008-0.08-0.014-0.121c-0.006-0.039-0.012-0.082-0.018-0.123s-0.011-0.08-0.018-0.123
		c-0.006-0.041-0.014-0.082-0.021-0.127c-0.004-0.043-0.015-0.086-0.023-0.127c-0.007-0.043-0.014-0.088-0.021-0.129
		c-0.011-0.043-0.019-0.084-0.027-0.129c-0.012-0.045-0.021-0.092-0.033-0.137c-0.009-0.045-0.021-0.09-0.033-0.137
		s-0.023-0.088-0.035-0.137c-0.012-0.047-0.024-0.09-0.04-0.135c-0.013-0.053-0.029-0.1-0.042-0.152
		c-0.018-0.051-0.035-0.102-0.051-0.15c-0.015-0.051-0.034-0.1-0.053-0.148c-0.015-0.051-0.034-0.1-0.053-0.15
		c-0.021-0.057-0.047-0.115-0.068-0.176c-0.008-0.02-0.018-0.039-0.025-0.057c-0.332-0.854-0.805-1.672-1.43-2.419
		c-0.902-1.082-1.971-1.943-3.127-2.575c-1.157-0.632-2.399-1.032-3.657-1.195c-0.427-0.057-0.855-0.084-1.282-0.084
		c-0.825,0-1.648,0.104-2.443,0.315c-1.202,0.321-2.344,0.884-3.351,1.7l-39.583,31.379c-0.158,0.127-0.396,0.283-0.523,0.352
		c-0.079,0.039-0.155,0.08-0.232,0.123c-0.184,0.102-0.366,0.213-0.54,0.324c-0.183,0.115-0.36,0.236-0.528,0.355
		c-0.073,0.053-0.148,0.109-0.221,0.164c-0.016,0.014-0.032,0.023-0.047,0.035c-0.027,0.02-0.051,0.037-0.056,0.041
		c-0.003,0.002-0.009,0.008-0.009,0.008c-0.004,0.002-0.01,0.006-0.016,0.008l-0.31,0.262c-0.122,0.098-0.239,0.203-0.356,0.309
		c-0.025,0.023-0.052,0.047-0.079,0.074l-0.021,0.02c-0.082,0.076-0.163,0.154-0.247,0.236c-0.022,0.018-0.045,0.041-0.062,0.057
		c-0.017,0.016-0.029,0.031-0.048,0.049c-0.092,0.092-0.18,0.184-0.272,0.281l-0.043,0.043c-0.102,0.111-0.201,0.223-0.301,0.334
		c-0.014,0.016-0.026,0.029-0.039,0.045c-0.014,0.018-0.029,0.035-0.049,0.059c-0.073,0.086-0.146,0.172-0.224,0.266l-0.087,0.109
		c-0.038,0.045-0.074,0.096-0.113,0.141c-0.061,0.08-0.109,0.143-0.106,0.143c0.002-0.006-0.009,0.012-0.023,0.029
		c-0.009,0.012-0.018,0.023-0.025,0.033l-0.011,0.018c-0.09,0.123-0.178,0.244-0.262,0.363c-0.014,0.02-0.03,0.043-0.045,0.066
		l-0.014,0.021c-0.035,0.049-0.069,0.1-0.101,0.148c-0.056,0.084-0.1,0.152-0.098,0.148c0.002,0-0.005,0.012-0.019,0.027
		c-0.006,0.008-0.011,0.02-0.017,0.027c-0.015,0.021-0.026,0.045-0.041,0.064l-0.007,0.01c-0.039,0.062-0.08,0.129-0.119,0.193
		l-0.01,0.018c-0.01,0.018-0.021,0.039-0.029,0.051c-0.014,0.023-0.028,0.045-0.045,0.074c-0.037,0.064-0.073,0.129-0.111,0.195
		l-0.01,0.014c-0.011,0.023-0.023,0.045-0.041,0.076l-0.031,0.057c-0.037,0.07-0.074,0.135-0.108,0.203l-0.01,0.018
		c-0.013,0.021-0.024,0.045-0.034,0.068l-0.029,0.053c-0.035,0.068-0.069,0.137-0.1,0.199l-0.014,0.023
		c-0.012,0.025-0.023,0.053-0.037,0.078l-0.033,0.074c-0.021,0.041-0.041,0.084-0.058,0.121l-0.095,0.207
		c-0.01,0.021-0.02,0.041-0.026,0.059c-0.009,0.014-0.015,0.037-0.025,0.061c-0.01,0.021-0.019,0.045-0.027,0.062
		c-0.017,0.035-0.03,0.074-0.046,0.111l-0.011,0.031c-0.019,0.039-0.036,0.076-0.051,0.113l-0.015,0.041
		c-0.022,0.053-0.043,0.104-0.063,0.16l-0.052,0.139c-0.035,0.088-0.066,0.172-0.099,0.266c-0.002,0.008-0.003,0.012-0.008,0.023
		c-0.005,0.014-0.024,0.07-0.045,0.131c-0.019,0.053-0.034,0.105-0.034,0.105c-0.012,0.031-0.02,0.059-0.029,0.088l-0.059,0.186
		c-0.02,0.061-0.038,0.121-0.058,0.191l-0.022,0.08c0,0.002-0.008,0.021-0.008,0.021c-0.021,0.07-0.041,0.148-0.062,0.223
		l-0.065,0.248c-0.013,0.059-0.026,0.115-0.038,0.168l-0.022,0.088c-0.009,0.039-0.016,0.076-0.025,0.113l-0.234,1.322
		c0,0.002,0,0.008-0.002,0.014l-0.004,0.051c-0.011,0.064-0.019,0.127-0.025,0.189l-0.025,0.238
		c-0.009,0.078-0.015,0.158-0.023,0.244c0,0,0,0.01-0.001,0.016c0,0.012-0.005,0.062-0.009,0.115
		c-0.003,0.049-0.007,0.096-0.007,0.096c-0.003,0.057-0.009,0.115-0.011,0.176c-0.001,0.012-0.001,0.023-0.002,0.037l-0.003,0.018
		c-0.004,0.076-0.007,0.152-0.009,0.227l-0.01,0.234c0,0.076-0.004,0.152-0.004,0.227c0,0,0,0.014,0,0.031s0,0.041,0,0.057
		c0,0.014,0,0.027,0,0.027c0,0.045,0,0.086,0,0.119c0,0.051,0,0.105,0,0.152v0.082c0.004,0.076,0.004,0.154,0.007,0.242l0.009,0.229
		c0.006,0.076,0.01,0.156,0.014,0.234l0.002,0.049c0.004,0.062,0.008,0.119,0.014,0.182c0,0,0.002,0.045,0.007,0.098
		c0.005,0.055,0.009,0.105,0.011,0.115c0.001,0.012,0.001,0.018,0.001,0.018c0.006,0.084,0.014,0.162,0.021,0.23l0.026,0.244
		c0.009,0.08,0.019,0.156,0.029,0.238c0.01,0.08,0.021,0.156,0.033,0.236l0.035,0.244c0.013,0.082,0.027,0.162,0.039,0.24
		c0.006,0.018,0.007,0.035,0.012,0.055l0.084,0.441c0.017,0.084,0.035,0.166,0.051,0.246l0.061,0.266
		c0.012,0.049,0.024,0.096,0.037,0.148l0.023,0.104c0.021,0.084,0.045,0.166,0.069,0.26l0.036,0.135
		c0.011,0.043,0.022,0.09,0.035,0.133l0.082,0.275c0.025,0.084,0.053,0.174,0.079,0.262l0.02,0.059
		c0.024,0.072,0.049,0.146,0.068,0.211l0.106,0.307c0.011,0.033,0.024,0.066,0.037,0.1l0.07,0.197
		c0.027,0.068,0.053,0.135,0.077,0.201l0.042,0.109c0.04,0.098,0.078,0.195,0.121,0.295l0.012,0.025
		c0.015,0.039,0.031,0.074,0.047,0.111l0.039,0.092c0.016,0.039,0.031,0.074,0.043,0.107c0.008,0.012,0.014,0.027,0.021,0.047
		c0.02,0.037,0.033,0.072,0.051,0.109l0.087,0.193c0.01,0.02,0.019,0.039,0.028,0.059c0.025,0.053,0.051,0.107,0.074,0.154
		l0.02,0.041c0.015,0.031,0.029,0.064,0.047,0.096l0.029,0.064c0.02,0.035,0.04,0.078,0.059,0.111l0.041,0.086
		c0.014,0.029,0.027,0.057,0.037,0.076c0.012,0.021,0.021,0.041,0.034,0.064c0.071,0.139,0.144,0.275,0.224,0.416l0.02,0.039
		c0.041,0.072,0.083,0.146,0.125,0.221c0.072,0.123,0.13,0.219,0.127,0.219c-0.002-0.006,0.004,0.004,0.012,0.018
		c0.006,0.01,0.01,0.02,0.014,0.027c0.014,0.02,0.028,0.045,0.045,0.074c0.068,0.115,0.141,0.229,0.209,0.34l0.009,0.014
		c0.012,0.021,0.025,0.039,0.038,0.064l0.025,0.037c0.088,0.137,0.178,0.275,0.272,0.416l0.024,0.035
		c0.014,0.023,0.031,0.045,0.046,0.064l0.011,0.016c0.064,0.096,0.132,0.191,0.201,0.293l0.03,0.043
		c0.018,0.023,0.036,0.049,0.054,0.074l0.012,0.014c0.062,0.086,0.123,0.168,0.186,0.252l0.014,0.018
		c0.016,0.021,0.029,0.043,0.045,0.062c0.016,0.016,0.027,0.035,0.049,0.062c0.064,0.084,0.131,0.168,0.2,0.258l0.02,0.023
		c0.017,0.021,0.035,0.045,0.046,0.062c0.012,0.012,0.021,0.029,0.039,0.047c0.098,0.121,0.198,0.244,0.301,0.367l0.818,0.967
		c0.132,0.154,0.359,0.168,0.508,0.025l4.664-4.418c0.148-0.143,0.145-0.365-0.004-0.506c-0.703-0.662-1.189-1.273-1.521-1.812
		c-0.109-0.172-0.307-0.207-0.455-0.064c-0.756,0.715-1.594,1.512-2.374,2.248c-0.149,0.141-0.271,0.252-0.276,0.244
		c-0.002-0.004-0.006-0.008-0.008-0.014l-0.055-0.078c-0.082-0.117-0.159-0.238-0.238-0.359c-0.006-0.012-0.014-0.023-0.021-0.035
		l-0.038-0.064c-0.06-0.092-0.116-0.188-0.175-0.283l-0.033-0.057c-0.012-0.02-0.021-0.037-0.027-0.045
		c-0.068-0.115-0.135-0.234-0.199-0.35l-0.022-0.037c-0.066-0.123-0.13-0.242-0.193-0.363l-0.222-0.447
		c-0.021-0.045-0.044-0.088-0.066-0.137l-0.131-0.293c-0.006-0.012-0.011-0.021-0.018-0.037l-0.127-0.291
		c-0.031-0.08-0.063-0.164-0.096-0.244l-0.034-0.09c-0.021-0.051-0.04-0.102-0.065-0.166l-0.174-0.49
		c-0.02-0.062-0.038-0.121-0.059-0.184l-0.014-0.043c-0.023-0.076-0.049-0.15-0.07-0.229l-0.066-0.221
		c-0.008-0.031-0.017-0.066-0.027-0.096l-0.032-0.123c-0.019-0.072-0.038-0.145-0.055-0.215l-0.101-0.422
		c-0.016-0.07-0.028-0.141-0.041-0.209l-0.077-0.404c-0.013-0.064-0.023-0.135-0.034-0.203l-0.029-0.195
		c-0.01-0.064-0.021-0.127-0.027-0.197c-0.01-0.062-0.016-0.129-0.025-0.193l-0.02-0.195c-0.007-0.064-0.014-0.127-0.018-0.182
		l-0.018-0.197c-0.003-0.049-0.006-0.098-0.009-0.156l-0.004-0.053c-0.003-0.057-0.007-0.115-0.009-0.16l-0.006-0.199
		c-0.004-0.064-0.006-0.125-0.006-0.189v-0.078c-0.002-0.035-0.002-0.072-0.002-0.115l0.002-0.178c0-0.057,0-0.107,0.001-0.162
		l0.116-1.441c0.004-0.033,0.01-0.066,0.014-0.096l0.03-0.193c0.009-0.062,0.021-0.127,0.031-0.193l0.009-0.041
		c0.011-0.051,0.018-0.1,0.029-0.154l0.037-0.186c0.018-0.07,0.032-0.137,0.046-0.195l0.003-0.016l0.014-0.061
		c0.011-0.043,0.02-0.088,0.03-0.127l0.052-0.199c0.011-0.043,0.023-0.088,0.035-0.127l0.031-0.109
		c0.018-0.059,0.033-0.119,0.053-0.176l0.139-0.42c0.018-0.047,0.035-0.098,0.051-0.143l0.07-0.188
		c0.015-0.035,0.029-0.07,0.041-0.1l0.015-0.039c0.011-0.027,0.024-0.057,0.034-0.082l0.294-0.65
		c0.025-0.051,0.05-0.105,0.079-0.158l0.055-0.105c0.027-0.051,0.055-0.102,0.084-0.154l0.064-0.115
		c0.029-0.049,0.057-0.104,0.086-0.15l0.033-0.059c0.011-0.016,0.023-0.035,0.033-0.055c0.031-0.049,0.062-0.098,0.095-0.152
		l0.03-0.051c0.011-0.014,0.021-0.029,0.029-0.041c0.051-0.08,0.102-0.158,0.152-0.232l0.046-0.066
		c0.063-0.096,0.133-0.189,0.206-0.287l0.006-0.008c0.014-0.02,0.029-0.041,0.039-0.053c0.055-0.072,0.111-0.146,0.168-0.217
		l0.067-0.082c0.057-0.072,0.114-0.137,0.167-0.201c0.018-0.018,0.031-0.035,0.043-0.053c0.008-0.006,0.016-0.012,0.021-0.023
		c0.078-0.088,0.158-0.178,0.24-0.266l0.036-0.035c0.067-0.07,0.138-0.145,0.212-0.217c0.009-0.012,0.021-0.023,0.031-0.033
		c0.018-0.016,0.034-0.029,0.045-0.043c0.062-0.061,0.127-0.123,0.193-0.184l0.075-0.068c0.091-0.08,0.18-0.162,0.271-0.24
		l0.102-0.086c0.122-0.096,0.245-0.191,0.371-0.283c0.12-0.084,0.248-0.172,0.381-0.256c0.126-0.08,0.259-0.16,0.391-0.232
		c0.133-0.074,0.27-0.146,0.406-0.215c0.078-0.037,0.152-0.072,0.221-0.102c0.077-0.035,0.154-0.07,0.235-0.105
		c0.077-0.029,0.155-0.061,0.235-0.09c0.076-0.029,0.154-0.059,0.229-0.086c0.066-0.023,0.132-0.045,0.186-0.064
		c0.062-0.02,0.125-0.037,0.197-0.057c0.062-0.021,0.122-0.039,0.188-0.055c0.062-0.018,0.123-0.033,0.184-0.049
		c0.057-0.016,0.116-0.029,0.173-0.041c0.057-0.014,0.112-0.025,0.175-0.039c0.055-0.012,0.109-0.02,0.172-0.035
		c0.057-0.012,0.111-0.02,0.174-0.029c0.052-0.01,0.107-0.016,0.161-0.027c0.052-0.006,0.104-0.014,0.157-0.02
		c0.057-0.008,0.111-0.016,0.164-0.021c0.049-0.006,0.104-0.01,0.166-0.018c0.051-0.006,0.1-0.006,0.146-0.012
		c0.055-0.002,0.107-0.01,0.162-0.012c0.052-0.002,0.104-0.006,0.15-0.008c0.054-0.004,0.106-0.006,0.161-0.01
		c0.051,0,0.097-0.002,0.151-0.002c0.051-0.002,0.102-0.002,0.16-0.002c0.048,0,0.098,0,0.152,0.002
		c0.048,0,0.098,0.002,0.143,0.002c0.057,0,0.109,0.006,0.154,0.008c0.05,0.002,0.101,0.004,0.154,0.008
		c0.051,0.002,0.101,0.004,0.16,0.012c0.049,0.002,0.095,0.008,0.143,0.008c0.05,0.006,0.101,0.012,0.158,0.018
		c0.033,0.002,0.066,0.006,0.101,0.012c0.278,0.053,1.683,0.344,1.952,0.404c0.037,0.012,0.075,0.02,0.107,0.031
		c0.056,0.02,0.111,0.035,0.17,0.055c0.054,0.02,0.107,0.035,0.158,0.053c0.057,0.02,0.111,0.043,0.172,0.062
		c0.054,0.02,0.108,0.037,0.165,0.062c0.054,0.021,0.108,0.041,0.164,0.062c0.058,0.025,0.118,0.047,0.176,0.072
		c0.061,0.025,0.118,0.051,0.175,0.074c0.061,0.025,0.121,0.053,0.174,0.078c0.06,0.029,0.122,0.055,0.174,0.078
		c0.067,0.035,0.135,0.068,0.194,0.096c0.021,0.012,0.047,0.021,0.069,0.033c0.039,0.023,0,0.1-0.086,0.176
		c-0.05,0.045-0.103,0.094-0.157,0.139l-5.962,5.275l-0.174,0.158c-0.086,0.074-0.168,0.152-0.247,0.232
		c-0.007,0.006-0.014,0.012-0.021,0.02c-0.021,0.02-0.039,0.043-0.06,0.064c-0.053,0.055-0.104,0.111-0.154,0.168
		c-0.011,0.012-0.021,0.025-0.032,0.035c-0.016,0.02-0.031,0.039-0.049,0.059c-0.046,0.057-0.09,0.111-0.136,0.172
		c-0.014,0.014-0.03,0.033-0.042,0.053c-0.011,0.016-0.025,0.031-0.034,0.049c-0.045,0.059-0.087,0.119-0.128,0.18
		c-0.014,0.023-0.029,0.041-0.045,0.066c-0.012,0.012-0.02,0.031-0.031,0.045c-0.008,0.016-0.016,0.031-0.025,0.043
		c-0.01,0.016-0.021,0.031-0.03,0.049c-0.027,0.047-0.056,0.092-0.083,0.139c-0.006,0.012-0.014,0.021-0.02,0.033
		c-0.008,0.018-0.016,0.027-0.022,0.045c-0.011,0.021-0.024,0.043-0.035,0.064c-0.025,0.047-0.051,0.096-0.075,0.143
		c-0.004,0.01-0.008,0.018-0.013,0.027c-0.003,0.006-0.005,0.014-0.011,0.023c-0.012,0.023-0.021,0.045-0.034,0.068
		c-0.017,0.039-0.036,0.082-0.053,0.119c-0.008,0.02-0.017,0.039-0.024,0.059c-0.002,0.004-0.006,0.012-0.01,0.014
		c0,0.004-0.001,0.01-0.004,0.016c-0.004,0.012-0.007,0.02-0.014,0.031c-0.016,0.041-0.031,0.082-0.049,0.121
		c-0.014,0.035-0.026,0.074-0.04,0.107c0,0.004,0,0.004-0.002,0.008c-0.011,0.033-0.024,0.068-0.034,0.1
		c-0.014,0.039-0.027,0.076-0.038,0.111c-0.007,0.021-0.014,0.047-0.02,0.068c-0.003,0.006-0.005,0.012-0.007,0.016
		c-0.002,0.008-0.004,0.014-0.006,0.025c-0.01,0.033-0.022,0.066-0.031,0.102c-0.009,0.033-0.02,0.068-0.027,0.105
		c-0.004,0.012-0.01,0.031-0.011,0.047c-0.004,0.006-0.005,0.006-0.006,0.012c-0.002,0.014-0.007,0.027-0.01,0.041
		c-0.007,0.035-0.017,0.068-0.024,0.105c-0.006,0.033-0.014,0.066-0.021,0.1c-0.003,0.014-0.005,0.025-0.009,0.039
		c0,0.004,0,0.01-0.003,0.016c-0.005,0.012-0.005,0.029-0.007,0.045c-0.008,0.033-0.015,0.062-0.02,0.1
		c-0.006,0.033-0.012,0.062-0.018,0.098c0,0.014-0.002,0.029-0.006,0.045c-0.002,0.004-0.002,0.01-0.002,0.016
		c-0.001,0.012-0.004,0.025-0.005,0.039c-0.005,0.031-0.01,0.062-0.015,0.096c-0.002,0.031-0.005,0.064-0.011,0.1
		c-0.001,0.018-0.005,0.037-0.007,0.057c0,0.006,0,0.008,0,0.014c0,0.008,0,0.018-0.002,0.025c-0.004,0.033-0.006,0.062-0.012,0.098
		c0,0.031-0.002,0.064-0.005,0.094c-0.001,0.029-0.003,0.053-0.003,0.08c0,0.002,0,0.006,0,0.012c0,0,0,0.002,0,0.006
		c-0.004,0.035-0.005,0.064-0.006,0.096c0,0.035-0.003,0.062-0.003,0.096s-0.001,0.064-0.001,0.096c0,0.006,0,0.01,0,0.014
		c0,0.027,0,0.057,0,0.086c0,0.031,0.001,0.064,0.001,0.1c0.003,0.025,0.003,0.062,0.004,0.094c0,0.008,0,0.018,0,0.025
		c0,0.006,0.001,0.014,0.001,0.02c0.002,0.018,0.004,0.035,0.004,0.053c0.002,0.031,0.003,0.064,0.006,0.1
		c0.001,0.029,0.002,0.064,0.006,0.094c0.002,0.016,0.004,0.033,0.006,0.051c0,0.004,0,0.012,0.002,0.016
		c0,0.01,0.002,0.023,0.002,0.035c0.002,0.029,0.006,0.066,0.01,0.1c0.003,0.031,0.006,0.064,0.011,0.098
		c0.003,0.02,0.007,0.045,0.009,0.066c0.002,0.006,0.002,0.01,0.003,0.02c0,0,0.001,0.006,0.001,0.014
		c0.004,0.035,0.012,0.068,0.015,0.102c0.005,0.037,0.012,0.066,0.017,0.102c0.003,0.029,0.01,0.061,0.016,0.084
		c0,0.004,0.002,0.008,0.002,0.012c0,0.002,0.001,0.004,0.001,0.008c0.006,0.033,0.015,0.068,0.021,0.104
		c0.006,0.033,0.014,0.07,0.021,0.105c0.006,0.031,0.014,0.062,0.02,0.088c0.001,0.006,0.001,0.008,0.001,0.01
		c0.003,0.004,0.003,0.006,0.003,0.01c0.008,0.035,0.017,0.072,0.026,0.107c0.007,0.039,0.017,0.072,0.026,0.107
		c0.007,0.025,0.015,0.057,0.021,0.08c0,0.006,0.002,0.01,0.004,0.016c0,0.008,0.004,0.016,0.006,0.02
		c0.011,0.037,0.021,0.078,0.031,0.113c0.01,0.043,0.023,0.076,0.035,0.117c0.006,0.016,0.01,0.033,0.016,0.051
		c0.002,0.006,0.004,0.01,0.008,0.014c0.003,0.014,0.009,0.033,0.013,0.047c0.015,0.043,0.028,0.086,0.044,0.129
		c0.014,0.041,0.028,0.084,0.045,0.125c0.018,0.047,0.031,0.088,0.047,0.127c0.016,0.041,0.033,0.084,0.051,0.127
		c0.007,0.016,0.014,0.033,0.021,0.049c0.004,0.01,0.008,0.02,0.013,0.029c0.009,0.023,0.02,0.047,0.028,0.068
		c0.021,0.047,0.045,0.098,0.065,0.146c0.009,0.021,0.019,0.041,0.029,0.061c0.005,0.012,0.009,0.023,0.015,0.031
		c0.007,0.02,0.017,0.039,0.025,0.057c0.023,0.047,0.047,0.096,0.073,0.145c0.008,0.02,0.02,0.039,0.028,0.057
		c0.007,0.012,0.016,0.021,0.02,0.037c0.012,0.02,0.021,0.039,0.018,0.043c0,0.002,0.077,0.152,0.184,0.326
		c0.376,0.609,1.104,1.588,2.352,2.594c0.071,0.057,0.143,0.111,0.211,0.16c0.085,0.059,0.166,0.119,0.248,0.174
		c0.054,0.041,0.111,0.08,0.17,0.117c0.036,0.023,0.074,0.045,0.111,0.07c0.013,0.008,0.023,0.014,0.033,0.021
		s0.02,0.014,0.029,0.02c0.059,0.037,0.115,0.072,0.175,0.107c0.047,0.027,0.094,0.057,0.141,0.084c0.004,0,0.007,0.004,0.011,0.008
		c0.012,0.006,0.018,0.012,0.024,0.012c0.048,0.029,0.101,0.057,0.148,0.082c0.05,0.027,0.099,0.055,0.149,0.082
		c0.014,0.008,0.027,0.014,0.04,0.021c0.012,0.004,0.021,0.01,0.028,0.012c0.029,0.016,0.055,0.031,0.08,0.043
		c0.051,0.025,0.103,0.053,0.153,0.076c0.044,0.021,0.086,0.043,0.13,0.061c0.053,0.027,0.097,0.047,0.144,0.066
		c0.045,0.023,0.092,0.043,0.137,0.061c0.032,0.016,0.065,0.027,0.099,0.041c0.004,0.004,0.01,0.004,0.016,0.01
		c0.008,0,0.018,0.004,0.024,0.006c0.043,0.02,0.084,0.035,0.13,0.055c0.043,0.016,0.085,0.029,0.128,0.049
		c0.032,0.012,0.067,0.025,0.099,0.037c0.013,0.006,0.023,0.006,0.033,0.012c0.042,0.014,0.084,0.031,0.129,0.043
		c0.043,0.016,0.083,0.027,0.125,0.043c0.041,0.016,0.082,0.027,0.125,0.041c0.042,0.012,0.086,0.027,0.126,0.039
		c0.042,0.012,0.085,0.023,0.126,0.035c0.043,0.01,0.082,0.021,0.125,0.033c0.04,0.012,0.081,0.023,0.123,0.031
		c0.041,0.012,0.081,0.023,0.121,0.031c0.042,0.01,0.082,0.018,0.125,0.029c0.01,0.004,0.019,0.004,0.025,0.006
		c0.005,0,0.01,0.002,0.016,0.002c0.025,0.008,0.055,0.014,0.081,0.02c0.04,0.01,0.079,0.014,0.121,0.023
		c0.039,0.008,0.079,0.016,0.12,0.021c0.021,0.004,0.039,0.008,0.057,0.012c0.004,0,0.009,0,0.014,0.002c0.001,0,0.004,0,0.008,0
		c0.016,0.002,0.031,0.004,0.043,0.01c0.043,0.004,0.082,0.012,0.123,0.02c0.04,0.004,0.081,0.012,0.122,0.018
		c0.03,0.002,0.063,0.008,0.093,0.008c0.005,0,0.012,0,0.018,0.006c0.002,0,0.006,0,0.01,0c0.042,0.002,0.08,0.01,0.12,0.014
		c0.042,0.004,0.083,0.008,0.123,0.012c0.042,0.004,0.082,0.008,0.122,0.012c0.006,0,0.01,0,0.016,0c0.004,0,0.005,0,0.009,0
		c0.032,0.004,0.065,0.008,0.099,0.008c0.041,0.004,0.082,0.006,0.122,0.008c0.042,0,0.083,0.004,0.125,0.008
		c0.014,0,0.028,0,0.041,0c0.006,0,0.015,0,0.021,0c0.021,0,0.042,0,0.061,0c0.043,0,0.084,0,0.127,0c0.01,0,0.023,0,0.036,0
		c0.027,0,0.059,0,0.087,0c0.02,0,0.043,0,0.063,0c0.007,0,0.016,0,0.025,0c0.013,0,0.026,0,0.04,0c0.042,0,0.084,0,0.127-0.004
		c0.041-0.004,0.084-0.004,0.129-0.008c0.025,0,0.053-0.002,0.08-0.004c0.004,0,0.006,0,0.012,0c0.012,0,0.023,0,0.035-0.004
		c0.043-0.004,0.089-0.008,0.133-0.01c0.044-0.006,0.088-0.012,0.133-0.018c0.023,0,0.046-0.004,0.068-0.004
		c0.012-0.004,0.022-0.004,0.035-0.008c0.009,0,0.019,0,0.028,0c0.045-0.008,0.089-0.01,0.133-0.016
		c0.047-0.01,0.095-0.014,0.144-0.023c0.018-0.004,0.036-0.006,0.053-0.01c0.011,0,0.023-0.004,0.035-0.008
		c0.018-0.004,0.035-0.006,0.055-0.008c0.047-0.01,0.096-0.018,0.143-0.025c0.047-0.012,0.095-0.02,0.143-0.031
		c0.004-0.002,0.008-0.002,0.014-0.004s0.009-0.002,0.013-0.002c0.011-0.002,0.017-0.006,0.024-0.006
		c0.037-0.01,0.072-0.018,0.107-0.027c0.055-0.012,0.106-0.025,0.158-0.037c0.021-0.008,0.043-0.014,0.065-0.02
		c0.017-0.006,0.032-0.008,0.05-0.016c0.014-0.004,0.029-0.008,0.043-0.012c0.054-0.016,0.105-0.029,0.156-0.047
		c0.043-0.014,0.082-0.027,0.123-0.041c0.014-0.006,0.029-0.008,0.045-0.016c0.01-0.004,0.021-0.008,0.03-0.012
		c0.066-0.021,0.132-0.045,0.196-0.072c0.032-0.008,0.064-0.023,0.094-0.035c0.018-0.008,0.034-0.014,0.055-0.021
		c0.015-0.006,0.031-0.012,0.047-0.02c0.064-0.027,0.131-0.055,0.193-0.084c0.018-0.008,0.031-0.016,0.045-0.021
		c0.072-0.031,0.14-0.066,0.207-0.102c0.043-0.02,0.084-0.037,0.125-0.061c0.014-0.004,0.023-0.012,0.035-0.02
		c0.07-0.039,0.138-0.08,0.209-0.119c0.041-0.021,0.083-0.045,0.125-0.068c0.009-0.008,0.015-0.01,0.023-0.016
		c0.076-0.049,0.152-0.1,0.227-0.15c0.035-0.02,0.072-0.041,0.107-0.066c0.002-0.004,0.006-0.004,0.011-0.008
		c0.112-0.082,0.225-0.162,0.333-0.248c0.076-0.061,0.148-0.123,0.221-0.18c0.074-0.064,0.145-0.125,0.215-0.189
		c0.07-0.061,0.139-0.129,0.206-0.191c0.066-0.066,0.132-0.133,0.198-0.199c0.277-0.285,0.553-0.572,0.83-0.857
		c0.143-0.146,0.309-0.344,0.367-0.438c0.062-0.096,0.225-0.293,0.365-0.439c3.572-3.676,10.693-11.035,17.895-18.461
		c0.145-0.146,0.311-0.107,0.376,0.084l3.625,9.217c0.065,0.193,0.21,0.213,0.322,0.043l1.872-2.85
		c0.111-0.172,0.36-0.258,0.555-0.193l3.351,1.105c0.194,0.066,0.3-0.045,0.233-0.234l-3.604-9.441
		c-0.063-0.193,0.031-0.277,0.217-0.188l8.586,5.064c0.185,0.09,0.316,0,0.296-0.205l-0.634-3.369
		c-0.02-0.205,0.105-0.459,0.28-0.564l3.034-1.465c0.174-0.109,0.166-0.268-0.017-0.357l-10.25-4.623
		c-0.184-0.092-0.215-0.285-0.073-0.432c5.266-5.434,9.449-9.752,9.449-9.752c0.064-0.068,0.129-0.137,0.192-0.209
		c0.063-0.068,0.126-0.141,0.185-0.213s0.117-0.146,0.175-0.223c0.058-0.074,0.111-0.148,0.165-0.227
		c0.038-0.053,0.076-0.107,0.111-0.164c0.04-0.057,0.075-0.113,0.107-0.168c0.036-0.057,0.071-0.115,0.105-0.17
		c0.029-0.059,0.064-0.117,0.096-0.174c0.025-0.047,0.052-0.094,0.076-0.141s0.046-0.096,0.07-0.145
		c0.025-0.049,0.046-0.096,0.07-0.143c0.021-0.049,0.043-0.1,0.065-0.146c0.017-0.043,0.036-0.088,0.054-0.127
		c0.018-0.045,0.035-0.088,0.053-0.133c0.018-0.041,0.034-0.086,0.049-0.131c0.019-0.041,0.032-0.088,0.049-0.129
		c0.014-0.041,0.027-0.082,0.041-0.123c0.015-0.043,0.026-0.084,0.039-0.125c0.012-0.041,0.026-0.084,0.039-0.123
		c0.012-0.043,0.023-0.082,0.035-0.123c0.01-0.041,0.019-0.08,0.03-0.121c0.012-0.039,0.02-0.078,0.029-0.117
		c0.011-0.041,0.017-0.08,0.028-0.123c0.009-0.039,0.018-0.076,0.025-0.119c0.008-0.037,0.014-0.074,0.022-0.113
		c0.008-0.041,0.017-0.08,0.021-0.119c0.008-0.037,0.016-0.076,0.021-0.115c0.006-0.041,0.013-0.08,0.018-0.119
		c0.005-0.037,0.011-0.076,0.013-0.115c0.008-0.039,0.013-0.074,0.016-0.115c0.006-0.037,0.008-0.076,0.014-0.115
		c0.004-0.037,0.008-0.074,0.01-0.115c0.002-0.035,0.004-0.078,0.008-0.113c0.004-0.039,0.006-0.08,0.006-0.117
		c0.004-0.037,0.006-0.076,0.008-0.115c0-0.039,0.003-0.078,0.003-0.117c0-0.037,0-0.076,0-0.115
		c0.003-0.039,0.003-0.078,0.003-0.115c-0.003-0.041-0.003-0.078-0.003-0.117C601.119,389.035,601.119,388.996,601.116,388.959z
		 M561.321,429.793c-0.098,0.182-0.301,0.439-0.443,0.59l-0.66,0.684c-0.047,0.045-0.093,0.092-0.141,0.139
		c-0.047,0.045-0.094,0.09-0.148,0.141c-0.049,0.041-0.1,0.084-0.149,0.129c-0.054,0.043-0.107,0.084-0.158,0.129
		c-0.065,0.051-0.138,0.105-0.21,0.156c-0.027,0.014-0.055,0.033-0.078,0.053l-0.021,0.01c-0.049,0.035-0.101,0.066-0.125,0.082
		c-0.003,0.004-0.007,0.008-0.013,0.012c-0.026,0.014-0.055,0.029-0.086,0.047l-0.026,0.014c-0.035,0.023-0.071,0.041-0.105,0.061
		l-0.013,0.006l-0.009,0.006c-0.028,0.016-0.055,0.027-0.082,0.043l-0.014,0.002c-0.039,0.025-0.079,0.043-0.118,0.062
		c-0.021,0.008-0.04,0.016-0.062,0.027c-0.027,0.016-0.053,0.023-0.08,0.037c-0.014,0.004-0.027,0.008-0.041,0.016l-0.012,0.004
		l-0.031,0.012l-0.041,0.016l-0.018,0.008c-0.036,0.016-0.076,0.029-0.114,0.043c-0.009,0.006-0.021,0.006-0.032,0.01
		c-0.004,0.004-0.028,0.012-0.028,0.012l-0.04,0.012c-0.015,0.004-0.029,0.012-0.043,0.014c-0.031,0.008-0.061,0.02-0.095,0.027
		l-0.03,0.01l-0.012,0.002c-0.006,0.004-0.012,0.004-0.012,0.004l-0.025,0.008l-0.036,0.012l-0.007,0.002
		c-0.032,0.006-0.063,0.018-0.094,0.023c-0.021,0.006-0.043,0.008-0.067,0.018l-0.022,0.004l-0.018,0.004l-0.011,0.002
		c-0.034,0.004-0.06,0.012-0.087,0.02c-0.028,0.004-0.059,0.01-0.09,0.016c-0.006,0.002-0.034,0.008-0.034,0.008l-0.03,0.004
		l-0.033,0.006l-0.008,0.002c-0.027,0.004-0.052,0.008-0.078,0.012h-0.014l-0.011,0.002c-0.026,0.006-0.054,0.01-0.081,0.012
		c0,0-0.006,0-0.012,0c-0.008,0-0.01,0-0.008,0c0.004,0-0.003,0-0.018,0.006c-0.006,0-0.014,0-0.02,0l-0.018,0.002
		c-0.006,0.004-0.021,0.004-0.021,0.004c-0.028,0.002-0.057,0.006-0.085,0.008h-0.014c-0.025,0.002-0.048,0.004-0.074,0.008h-0.014
		h-0.007h-0.019l-0.017,0.002l-0.03,0.002c-0.033,0.004-0.064,0.004-0.092,0.008c-0.033,0-0.058,0-0.086,0c-0.008,0-0.027,0-0.027,0
		l-0.02,0.004c-0.006,0-0.032,0-0.032,0h-0.017h-0.063h-0.024c-0.021,0-0.047,0-0.07,0h-0.01h-0.01l-0.014-0.004h-0.035h-0.005
		h-0.012h-0.019c-0.031,0-0.059-0.004-0.087-0.004s-0.054-0.004-0.083-0.006l-0.031-0.002h-0.027c-0.006,0-0.022-0.004-0.022-0.004
		l-0.021-0.002l-0.049-0.002l-0.025-0.002l-0.096-0.012c-0.025,0-0.05-0.006-0.073-0.008h-0.01l-0.021-0.004
		c-0.02,0-0.039-0.006-0.056-0.008h-0.009h-0.013c-0.022-0.004-0.045-0.008-0.069-0.012c-0.033-0.006-0.058-0.008-0.084-0.012
		l-0.011-0.002l-0.013-0.002l-0.022-0.004l-0.012-0.004l-0.024-0.004l-0.011-0.004c-0.039-0.004-0.064-0.012-0.091-0.016
		c-0.029-0.008-0.059-0.01-0.088-0.016l-0.006-0.002c-0.004,0-0.034-0.01-0.034-0.01l-0.018-0.002l-0.022-0.004l-0.01-0.002
		c-0.031-0.006-0.061-0.018-0.092-0.023c-0.027-0.006-0.056-0.014-0.082-0.02l-0.016-0.006c-0.027-0.002-0.049-0.012-0.07-0.016
		c-0.038-0.012-0.071-0.018-0.105-0.029c-0.028-0.008-0.059-0.016-0.088-0.027c-0.03-0.008-0.061-0.016-0.09-0.027l-0.08-0.021
		l-0.015-0.006c-0.028-0.01-0.059-0.021-0.089-0.029c-0.029-0.012-0.06-0.021-0.09-0.035c-0.004,0-0.01,0-0.01,0l-0.135-0.049
		c-0.021-0.008-0.037-0.016-0.057-0.025c-0.016-0.006-0.031-0.012-0.045-0.018c-0.023-0.01-0.045-0.02-0.049-0.02
		c-0.002,0-0.003-0.002-0.003-0.002l-0.021-0.008c-0.008,0-0.029-0.014-0.029-0.014c-0.016-0.004-0.031-0.01-0.047-0.018
		c-0.035-0.018-0.07-0.031-0.105-0.047c-0.025-0.014-0.053-0.021-0.078-0.037c0,0-0.023-0.012-0.054-0.023
		c-0.03-0.018-0.058-0.029-0.064-0.029c-0.006-0.002-0.034-0.02-0.064-0.031c-0.019-0.012-0.035-0.02-0.052-0.029
		c-0.004-0.002-0.011-0.004-0.011-0.004l-0.021-0.01l-0.037-0.02c-0.008-0.004-0.014-0.008-0.014-0.008l-0.008-0.002l-0.029-0.016
		c-0.035-0.02-0.068-0.039-0.104-0.059c-0.039-0.021-0.07-0.037-0.101-0.057l-0.021-0.01c-0.005-0.006-0.015-0.01-0.015-0.01
		l-0.01-0.006c-0.033-0.018-0.067-0.039-0.098-0.059c-0.049-0.027-0.088-0.051-0.125-0.074l-0.021-0.014l-0.007-0.006l-0.024-0.014
		l-0.045-0.029c-0.017-0.012-0.031-0.02-0.039-0.027c-0.049-0.031-0.093-0.061-0.133-0.088c-0.061-0.043-0.124-0.086-0.189-0.135
		c-0.055-0.041-0.111-0.084-0.178-0.135c-0.058-0.045-0.115-0.09-0.172-0.139l-0.014-0.01c-0.018-0.018-0.033-0.029-0.047-0.041
		l-0.006-0.008l-0.015-0.012l-0.046-0.037c-0.014-0.012-0.029-0.027-0.045-0.039c-0.025-0.023-0.048-0.043-0.064-0.061
		c-0.025-0.02-0.049-0.043-0.076-0.068c-0.021-0.02-0.043-0.037-0.064-0.059l-0.011-0.01c-0.015-0.014-0.028-0.029-0.047-0.047
		c-0.026-0.023-0.054-0.051-0.081-0.076l-0.018-0.018c-0.018-0.02-0.036-0.039-0.059-0.059l-0.004-0.006
		c-0.005-0.004-0.011-0.008-0.015-0.014l-0.009-0.008l-0.005-0.008c-0.044-0.043-0.087-0.09-0.126-0.135l-0.027-0.029l-0.01-0.008
		c-0.008-0.006-0.014-0.016-0.022-0.021c-0.001-0.006-0.009-0.012-0.009-0.012c-0.066-0.074-0.129-0.145-0.184-0.213
		c-0.037-0.037-0.068-0.08-0.102-0.121l-0.016-0.02l-0.029-0.037l-0.004-0.006l-0.02-0.025l-0.004-0.006l-0.004-0.006l-0.025-0.035
		c-0.026-0.029-0.052-0.064-0.076-0.1c-0.007-0.008-0.013-0.018-0.021-0.029c-0.001,0-0.026-0.039-0.026-0.039l-0.018-0.023
		c-0.01-0.018-0.021-0.031-0.033-0.045c-0.007-0.012-0.014-0.023-0.021-0.039l-0.021-0.029c-0.005-0.008-0.029-0.043-0.029-0.043
		l-0.009-0.014c-0.006-0.014-0.015-0.025-0.022-0.035c-0.024-0.039-0.046-0.078-0.068-0.115c-0.003-0.006-0.009-0.01-0.013-0.02
		l-0.021-0.033c-0.003-0.008-0.015-0.027-0.015-0.027c-0.013-0.027-0.026-0.049-0.041-0.074l-0.008-0.014l-0.021-0.043
		c-0.014-0.023-0.023-0.043-0.03-0.057l-0.005-0.01l-0.004-0.006l-0.02-0.035c-0.014-0.025-0.027-0.057-0.039-0.084l-0.006-0.01
		l-0.018-0.035l-0.002-0.004l-0.005-0.012l-0.004-0.008l-0.011-0.023l-0.006-0.014c-0.016-0.031-0.031-0.066-0.045-0.1
		c-0.002-0.006-0.004-0.012-0.004-0.012l-0.014-0.029l-0.01-0.025l-0.003-0.004l-0.003-0.012l-0.01-0.025l-0.003-0.002
		c-0.011-0.025-0.02-0.053-0.031-0.076c-0.005-0.01-0.01-0.025-0.013-0.033c0-0.004-0.016-0.041-0.016-0.041l-0.02-0.059
		c-0.006-0.012-0.01-0.023-0.012-0.035c-0.016-0.033-0.022-0.059-0.032-0.088l-0.006-0.025l-0.011-0.027l-0.002-0.012l-0.007-0.02
		c-0.008-0.023-0.015-0.045-0.021-0.064c-0.007-0.027-0.015-0.055-0.021-0.08c-0.003-0.012-0.006-0.023-0.01-0.031
		c-0.001-0.006-0.011-0.045-0.011-0.045l-0.003-0.004l-0.001-0.008c-0.004-0.021-0.01-0.041-0.015-0.064
		c-0.006-0.02-0.009-0.039-0.017-0.059c-0.001-0.014-0.004-0.023-0.006-0.037c-0.005-0.012-0.008-0.027-0.01-0.041
		c-0.006-0.025-0.01-0.051-0.016-0.078c-0.004-0.02-0.008-0.035-0.01-0.053c-0.001-0.004-0.007-0.027-0.007-0.027
		c-0.002-0.016-0.004-0.031-0.008-0.049c-0.005-0.025-0.007-0.047-0.013-0.074c0-0.016-0.004-0.029-0.006-0.047
		c0-0.002,0-0.006-0.002-0.01c0-0.012-0.002-0.023-0.004-0.039l-0.004-0.029c-0.004-0.023-0.006-0.043-0.008-0.064
		s-0.005-0.039-0.007-0.061v-0.018l-0.002-0.008v-0.01l-0.003-0.027c-0.002-0.027-0.004-0.051-0.004-0.076
		c-0.004-0.018-0.004-0.039-0.005-0.053v-0.014v-0.01c0-0.012-0.003-0.023-0.003-0.039c-0.002-0.023-0.002-0.047-0.002-0.066
		c0-0.021,0-0.045,0-0.064c0-0.018,0-0.031,0-0.045v-0.008c0-0.023,0-0.041,0-0.059v-0.008v-0.012c0-0.014,0-0.029,0.002-0.045
		c0-0.012,0-0.02,0-0.031l0.008-0.061v-0.035c0-0.018,0.001-0.041,0.002-0.057c0.002-0.018,0.003-0.031,0.005-0.045l0.002-0.033
		l0.003-0.025l0.002-0.016c0.003-0.023,0.004-0.041,0.006-0.057c0.004-0.016,0.005-0.033,0.008-0.051v-0.006v-0.006l0.004-0.014
		v-0.008l0.002-0.016l0.004-0.02c0.004-0.025,0.006-0.043,0.01-0.061c0.002-0.018,0.007-0.035,0.01-0.053l0.002-0.012
		c0,0,0.001,0,0.001-0.002s0-0.006,0-0.006c0-0.002,0-0.004,0-0.004c0.003-0.012,0.006-0.023,0.007-0.033l0.004-0.014
		c0.004-0.021,0.008-0.041,0.013-0.057c0.005-0.023,0.009-0.043,0.013-0.061l0.002-0.012c0.002-0.002,0.004-0.008,0.004-0.008
		c0.002-0.012,0.006-0.02,0.006-0.027l0.004-0.014c0.007-0.023,0.012-0.041,0.018-0.062c0.004-0.018,0.01-0.035,0.014-0.049
		c0.002-0.006,0.005-0.014,0.005-0.02l0.006-0.016l0.009-0.029l0.002-0.008c0.002-0.004,0.004-0.012,0.004-0.014
		c0.006-0.01,0.047-0.102,0.098-0.205c0.048-0.107,0.09-0.207,0.09-0.223c0-0.018,0.006-0.045,0.016-0.061
		c0.006-0.012,0.012-0.023,0.018-0.033l0.004-0.01l0.019-0.029l0.006-0.012l0.009-0.02l0.004-0.006l0.005-0.006l0.007-0.016
		c0.012-0.018,0.022-0.035,0.034-0.053l0.021-0.037l0.016-0.025c0.001,0,0.002-0.002,0.005-0.006
		c0.012-0.018,0.025-0.035,0.037-0.053c0.025-0.039,0.047-0.074,0.066-0.098c0.011-0.016,0.017-0.021,0.02-0.027
		c0.007-0.008,0.014-0.016,0.018-0.023l0.006-0.004l0.004-0.006c0.02-0.027,0.041-0.055,0.07-0.088
		c0.011-0.012,0.021-0.025,0.031-0.037c0.004-0.006,0.01-0.012,0.014-0.014c0.02-0.023,0.046-0.055,0.084-0.094
		c0.014-0.016,0.029-0.031,0.042-0.047c0.051-0.047,0.095-0.088,0.134-0.129l0.132-0.113c0.012-0.008,0.024-0.018,0.032-0.025
		c0.018-0.012,0.037-0.023,0.055-0.037l0.008-0.008c0.018-0.008,0.031-0.018,0.045-0.029l0.053-0.029l0.01-0.01
		c0.016-0.006,0.029-0.016,0.044-0.025l0.015-0.006l0.036-0.02l0.013-0.008c0.018-0.008,0.035-0.018,0.053-0.027
		c0.031-0.016,0.057-0.027,0.078-0.033c0.002-0.004,0.014-0.008,0.014-0.008c0.045-0.016,0.074-0.031,0.098-0.039l0.012-0.004
		c0.036-0.012,0.068-0.025,0.1-0.033c0.004,0,0.014-0.006,0.02-0.006c0.033-0.01,0.064-0.02,0.104-0.029
		c0.007-0.002,0.015-0.002,0.02-0.004c0.031-0.008,0.064-0.016,0.098-0.02c0.004-0.004,0.014-0.004,0.014-0.004l0.008-0.004
		c0.038-0.004,0.076-0.01,0.112-0.016l0.019-0.002c0.038-0.01,0.082-0.01,0.123-0.012l0.017-0.004c0.035,0,0.072-0.004,0.104-0.008
		c0.008,0,0.014,0,0.021,0c0.029,0,0.06,0,0.089,0c0.013,0,0.022,0,0.036,0c0.004,0,0.01,0,0.015,0
		c0.141,0.004,0.284,0.014,0.427,0.041h0.018c0.043,0.008,0.084,0.016,0.127,0.023c0.008,0.004,0.015,0.004,0.021,0.006
		c0.091,0.021,0.178,0.039,0.262,0.068c0.003,0,0.039,0.006,0.039,0.006c0.043,0.018,0.09,0.031,0.139,0.051
		c0.004,0,0.014,0.002,0.014,0.002l0.007,0.004c0.022,0.008,0.042,0.014,0.062,0.023c0.035,0.012,0.066,0.023,0.076,0.027
		c0.006,0,0.012,0.008,0.012,0.008c0.047,0.016,0.094,0.037,0.139,0.055l0.018,0.01c0.049,0.023,0.096,0.049,0.144,0.072
		l0.009,0.004c0.051,0.023,0.101,0.051,0.146,0.08c0.047,0.025,0.096,0.055,0.141,0.082c0.008,0.006,0.015,0.012,0.021,0.014
		c0.039,0.027,0.082,0.055,0.127,0.086l0.024,0.016c0.041,0.029,0.081,0.055,0.12,0.086l0.023,0.02
		c0.051,0.039,0.088,0.068,0.122,0.096l0.011,0.01l0.004,0.006l0.008,0.004c0.035,0.029,0.07,0.061,0.103,0.09
		c0.017,0.016,0.035,0.033,0.055,0.047c0.024,0.027,0.052,0.055,0.077,0.076l0.005,0.006c0.019,0.016,0.033,0.029,0.042,0.041
		c0.029,0.029,0.059,0.061,0.088,0.094l0.037,0.037l0.007,0.006c0.042,0.047,0.081,0.088,0.114,0.131l1.441,1.713
		c0.132,0.156,0.361,0.17,0.51,0.031l1.635-1.531l2.217-2.078c0.15-0.141,0.273-0.252,0.273-0.246
		c0.004,0.004,0.006,0.008,0.007,0.01l0.003,0.01l0.002,0.008c0.021,0.041,0.038,0.088,0.058,0.135
		c0.007,0.02,0.017,0.039,0.024,0.059c0.379,1,0.584,2.023,0.606,3.039c0.021,0.984-0.129,1.918-0.446,2.783
		C561.61,429.223,561.476,429.514,561.321,429.793z M565.851,424.115c-0.01-0.039-0.018-0.072-0.027-0.109L565.821,424l-0.003-0.008
		c-0.019-0.072-0.041-0.145-0.062-0.221l-0.001-0.006l-0.003-0.006c-0.02-0.074-0.041-0.15-0.066-0.23
		c-0.021-0.072-0.045-0.146-0.07-0.225c-0.025-0.086-0.053-0.164-0.084-0.258c-0.027-0.08-0.057-0.164-0.088-0.252
		c-0.029-0.084-0.061-0.168-0.092-0.244c-0.017-0.051-0.035-0.098-0.055-0.143l-0.002-0.014l-0.021-0.047
		c-0.002-0.004-0.006-0.02-0.006-0.02c-0.002,0-0.002-0.004-0.004-0.006c-0.001-0.006-0.006-0.012-0.008-0.02
		c-0.007-0.021-0.016-0.043-0.025-0.062c-0.4-1.016-0.918-2.006-1.537-2.932c-0.221-0.324-0.434-0.625-0.656-0.908
		c-0.134-0.172-0.26-0.33-0.387-0.48c-1.351-1.609-2.931-2.965-4.703-4.033l-0.01-0.004l-0.121-0.074
		c-0.006-0.002-0.011-0.008-0.017-0.01l-0.017-0.012l-0.025-0.012c-0.059-0.035-0.116-0.07-0.176-0.104
		c-1.502-0.861-3.084-1.488-4.712-1.873c-0.2-0.051-0.231-0.188-0.071-0.314l15.802-12.527c0.159-0.127,0.388-0.219,0.507-0.203
		c0.071,0.012,0.143,0.021,0.214,0.031c2.341,0.395,4.699,1.684,6.64,3.625c2.176,2.174,3.447,4.803,3.699,7.195
		c0.021,0.205-0.084,0.49-0.229,0.637c-4.895,5.051-9.639,9.941-13.297,13.713C565.993,424.104,565.865,424.174,565.851,424.115z
		 M598.026,389.348c0,0.021,0,0.047,0,0.068c-0.002,0.021-0.002,0.045-0.002,0.066v0.008v0.012c-0.004,0.02-0.004,0.039-0.008,0.062
		c0,0.023-0.001,0.045-0.004,0.068c0,0.023-0.004,0.047-0.006,0.072c-0.004,0.02-0.004,0.037-0.006,0.055l-0.004,0.012v0.01
		c-0.002,0.021-0.003,0.041-0.007,0.062c-0.003,0.027-0.007,0.051-0.009,0.074c-0.004,0.023-0.008,0.047-0.01,0.068
		c-0.006,0.023-0.01,0.041-0.012,0.057c-0.005,0.031-0.01,0.057-0.013,0.078c-0.004,0.023-0.009,0.049-0.015,0.072
		c-0.004,0.02-0.008,0.039-0.012,0.061l-0.004,0.008l-0.002,0.01c-0.004,0.02-0.008,0.041-0.014,0.061l-0.002,0.006l-0.002,0.01
		c-0.004,0.02-0.01,0.039-0.012,0.061c-0.009,0.021-0.015,0.043-0.021,0.066c-0.007,0.025-0.013,0.049-0.022,0.072
		c-0.006,0.027-0.013,0.051-0.021,0.074c-0.007,0.023-0.015,0.047-0.021,0.072c-0.01,0.025-0.018,0.051-0.027,0.076
		c-0.008,0.025-0.018,0.051-0.025,0.074c-0.009,0.025-0.021,0.051-0.029,0.08c-0.01,0.021-0.018,0.043-0.027,0.064
		c-0.013,0.031-0.023,0.053-0.035,0.082c-0.012,0.025-0.024,0.055-0.035,0.078l-0.006,0.01l-0.002,0.004
		c-0.01,0.027-0.021,0.051-0.033,0.074c-0.014,0.029-0.027,0.055-0.041,0.08c-0.018,0.035-0.031,0.061-0.043,0.084
		c-0.02,0.033-0.04,0.07-0.058,0.102c-0.021,0.031-0.038,0.064-0.06,0.098c-0.02,0.033-0.039,0.061-0.06,0.094
		c-0.022,0.031-0.042,0.062-0.065,0.096c-0.028,0.041-0.061,0.084-0.09,0.127c-0.032,0.039-0.068,0.084-0.1,0.127
		c-0.039,0.041-0.072,0.08-0.105,0.119c-0.035,0.039-0.07,0.078-0.107,0.117c-2.529,2.609-5.517,5.689-8.682,8.955
		c-0.144,0.148-0.265,0.189-0.273,0.09c-0.006-0.057-0.012-0.115-0.021-0.172c-0.286-2.387-1.481-4.738-3.364-6.623
		c-1.666-1.666-3.699-2.791-5.799-3.229c-0.199-0.041-0.235-0.174-0.075-0.301l8.493-6.732l0.014-0.01l0.012-0.012
		c0.646-0.523,1.385-0.896,2.196-1.11c0.53-0.143,1.085-0.215,1.651-0.215c0.294,0,0.59,0.021,0.885,0.06
		c0.895,0.115,1.759,0.399,2.574,0.844c0.847,0.464,1.602,1.083,2.235,1.842c0.392,0.469,0.702,0.994,0.921,1.555l0.007,0.02
		l0.006,0.018c0.01,0.02,0.019,0.043,0.028,0.062c0.012,0.033,0.025,0.066,0.038,0.102c0.013,0.031,0.023,0.062,0.034,0.092
		c0.01,0.033,0.021,0.066,0.032,0.098c0.009,0.031,0.021,0.064,0.032,0.1c0.008,0.029,0.018,0.061,0.027,0.09
		c0.008,0.029,0.018,0.059,0.023,0.09c0.009,0.025,0.015,0.053,0.023,0.08c0.007,0.029,0.016,0.055,0.021,0.082
		c0.006,0.039,0.015,0.064,0.02,0.094c0.004,0.027,0.012,0.055,0.016,0.076c0.006,0.025,0.012,0.055,0.017,0.084
		c0.005,0.027,0.01,0.055,0.016,0.084c0.001,0.02,0.007,0.041,0.011,0.061l0.002,0.014l0.002,0.014
		c0.002,0.02,0.004,0.037,0.006,0.057l0.002,0.01l0.002,0.008c0.001,0.023,0.006,0.043,0.007,0.064
		c0.004,0.025,0.007,0.049,0.01,0.072c0.003,0.025,0.003,0.045,0.007,0.068v0.01l0.002,0.008c0.004,0.023,0.004,0.051,0.007,0.074
		c0,0.021,0.001,0.043,0.005,0.066c0,0.025,0.004,0.051,0.004,0.076c0,0.023,0,0.049,0.002,0.072c0,0.023,0,0.047,0,0.072
		c0,0.021,0.004,0.047,0.004,0.07c0,0.021,0,0.047,0,0.072C598.026,389.301,598.026,389.326,598.026,389.348z"/>
	<g>
		<g>
			<path fill="#00539B" d="M566.509,251.644l-19.74-9.097c-1.615-0.745-3,0.093-3.092,1.87l-0.689,13.343
				c-0.092,1.777,1.096,3.916,2.676,4.736c5.301,2.752,16.795,8.278,23.771,8.278c6.993,0,18.683-5.549,24.045-8.295
				c1.585-0.812,2.758-2.942,2.642-4.716l-0.87-13.356c-0.115-1.776-1.516-2.61-3.133-1.866l-19.758,9.104
				C570.745,252.386,568.127,252.386,566.509,251.644z"/>
			<path fill="#00539B" d="M614.103,225.553l-41.668-16.35c-1.654-0.651-4.342-0.651-5.998,0l-41.668,16.35
				c-1.656,0.651-1.689,1.782-0.074,2.528l7.201,3.316v15.387c-0.666,0.35-1.119,1.05-1.119,1.856v14.278
				c0,1.16,0.939,2.101,2.099,2.101s2.103-0.941,2.103-2.101V248.64c0-0.806-0.455-1.506-1.12-1.856v-14.482l32.651,15.045
				c1.618,0.746,4.236,0.746,5.852,0l41.817-19.266C615.791,227.335,615.759,226.204,614.103,225.553z"/>
		</g>
	</g>
	<g>
		<g>
			<g>
				<path fill="#00539B" d="M591.101,358.785h-43.328c-2.305,0-4.171-1.869-4.171-4.171v-51.625c0-2.303,1.866-4.171,4.171-4.171
					h43.328c2.304,0,4.17,1.869,4.17,4.171v51.625C595.271,356.916,593.404,358.785,591.101,358.785z M551.11,355.447h36.653
					c2.303,0,4.171-1.867,4.171-4.17v-44.952c0-2.304-1.868-4.169-4.171-4.169H551.11c-2.305,0-4.172,1.865-4.172,4.169v44.952
					C546.938,353.58,548.806,355.447,551.11,355.447z"/>
			</g>
			<path fill="#00539B" d="M584.27,312.113h-31.491c-0.576,0-1.043-0.467-1.043-1.043v-1.46c0-0.575,0.467-1.042,1.043-1.042h31.491
				c0.575,0,1.041,0.467,1.041,1.042v1.46C585.311,311.646,584.845,312.113,584.27,312.113z"/>
			<path fill="#00539B" d="M584.27,318.996h-31.491c-0.576,0-1.043-0.468-1.043-1.043v-1.461c0-0.575,0.467-1.041,1.043-1.041
				h31.491c0.575,0,1.041,0.466,1.041,1.041v1.461C585.311,318.528,584.845,318.996,584.27,318.996z"/>
			<path fill="#00539B" d="M564.771,325.67h-11.992c-0.576,0-1.043-0.467-1.043-1.045v-1.457c0-0.576,0.467-1.043,1.043-1.043
				h11.992c0.575,0,1.042,0.467,1.042,1.043v1.457C565.812,325.203,565.346,325.67,564.771,325.67z"/>
			<path fill="#00539B" d="M552.778,322.125h11.992c0.575,0,1.042,0.467,1.042,1.043v1.457c0,0.578-0.467,1.045-1.042,1.045h-11.992
				V322.125z"/>
			<g>
				<path fill="#00539B" d="M571.182,335.685l-0.093,0.022c-0.165,0.045-0.33,0.221-0.369,0.389l-3.27,14.452
					c-0.039,0.167,0.065,0.267,0.23,0.222l1.946-0.528c0.167-0.044,0.333-0.218,0.371-0.387l0.827-3.657
					c0.037-0.168,0.201-0.34,0.369-0.386l3.314-0.901c0.166-0.045,0.365,0.043,0.441,0.199l1.474,2.97
					c0.078,0.153,0.276,0.243,0.442,0.197l1.688-0.46c0.169-0.043,0.241-0.205,0.166-0.361l-5.895-11.9
					c-0.076-0.152-0.274-0.242-0.439-0.199l-0.025,0.008C572.193,335.409,571.348,335.639,571.182,335.685z M571.372,343.242
					l0.781-3.504c0.04-0.195,0.148-0.209,0.237-0.028l1.394,2.841c0.09,0.182,0.004,0.369-0.191,0.423l-1.951,0.529
					C571.447,343.556,571.327,343.438,571.372,343.242z"/>
				<path fill="#00539B" d="M585.284,339.986l-0.178-1.736c-0.018-0.172-0.168-0.277-0.335-0.229l-2.212,0.6
					c-0.167,0.046-0.318-0.059-0.338-0.229l-0.256-2.301c-0.018-0.172-0.17-0.275-0.337-0.229l-1.673,0.454
					c-0.166,0.044-0.287,0.22-0.267,0.394l0.255,2.299c0.02,0.172-0.099,0.348-0.266,0.393l-2.19,0.594
					c-0.167,0.046-0.286,0.223-0.269,0.393l0.179,1.738c0.017,0.17,0.166,0.272,0.333,0.227l2.199-0.595
					c0.166-0.046,0.316,0.058,0.334,0.229l0.249,2.301c0.018,0.172,0.169,0.276,0.335,0.23l1.675-0.455
					c0.165-0.046,0.288-0.223,0.268-0.393l-0.247-2.305c-0.019-0.17,0.102-0.346,0.27-0.392l2.202-0.599
					C585.183,340.332,585.304,340.156,585.284,339.986z"/>
			</g>
		</g>
	</g>
	<path fill="#FFFFFF" d="M446.511,113.292c0,27.897-22.611,50.511-50.51,50.511c-27.896,0-50.511-22.614-50.511-50.511h-25.257
		v381.009H471.77V113.292H446.511z"/>
	<path fill="#066939" d="M431.169,107.605c0,20.254-16.422,36.675-36.676,36.675c-20.261,0-36.68-16.421-36.68-36.675
		c0-20.263,16.419-36.681,36.68-36.681C414.747,70.924,431.169,87.342,431.169,107.605z"/>
	<text transform="matrix(1 0 0 1 363.0503 186.8511)" font-family="'BubblegumSans-Regular'" font-size="18.6922">Our Role</text>
	<g>
		<text transform="matrix(1 0 0 1 352.644 461.4199)"><tspan x="0" y="0" font-family="'OpenSans'" font-size="14.0192">Personalized</tspan><tspan x="11.442" y="16.824" font-family="'OpenSans'" font-size="14.0192">Attention</tspan></text>
		<g>
			<path fill-rule="evenodd" clip-rule="evenodd" fill="#00539A" d="M415.471,418.48c-3.783-0.702-8.161-0.452-13.812,1.839
				l-0.935,19.353c4.822-1.744,9.376-2.955,12.862-2.062C414.229,431.586,414.694,425.75,415.471,418.48L415.471,418.48z
				 M395.94,420.408c1.635,0.422,3.27,0.417,4.904,0l-0.945,19.354c-0.861,0.309-2.109,0.332-3.014,0L395.94,420.408L395.94,420.408
				z M381.313,418.48c0.244,2.28,0.457,4.422,0.654,6.473c3.326,0.228,4.783,8.566,0.871,9.148c0.115,1.17,0.234,2.334,0.359,3.508
				c3.486-0.893,8.039,0.318,12.861,2.062l-0.934-19.353C389.475,418.028,385.097,417.778,381.313,418.48z"/>
			<path fill-rule="evenodd" clip-rule="evenodd" fill="#00539A" d="M414.724,416.877l0.095-1.756
				c0.319-5.908-16.972-5.893-16.652,0l0.224,4.139c1.305-0.001,2.447-0.359,3.693-0.678
				C406.187,417.043,410.365,416.279,414.724,416.877L414.724,416.877z M402.304,402.934c0.199-2.105,2.084-3.16,4.188-3.16
				c2.104,0,3.989,1.055,4.188,3.16c0.103,1.1-0.146,3.701-0.691,4.686c-0.479,0.862-1.592,1.689-2.825,1.973
				c-0.597,0.088-0.746,0.088-1.344,0c-1.233-0.283-2.349-1.11-2.825-1.973C402.448,406.635,402.201,404.033,402.304,402.934
				L402.304,402.934z M379.506,397.022c0.382-3.192,3.282-4.79,6.471-4.79c3.19,0,6.007,1.598,6.225,4.79
				c0.113,1.667-0.364,5.61-1.231,7.104c-0.758,1.306-2.478,2.56-4.359,2.988c-0.908,0.134-1.135,0.134-2.037,0
				c-1.859-0.429-3.514-1.683-4.205-2.988C379.579,402.633,379.306,398.689,379.506,397.022L379.506,397.022z M379.318,424.966
				l0.095,0.921h2.416c2.332,0,3.764,7.307,0.562,7.307c-3.515-0.01-6.847-0.865-8.505-4.082c-2.2-4.268-0.899-17.048,4.339-19.082
				c2.835-1.102,6.539-1.469,9.924-1.1l14.06,1.301c-2.944,0.783-5.157,2.432-5.022,4.944l0.016,0.255l-2.992,0.363l-0.239,2.525
				c-5.173-1.819-8.935-2.018-14.257-1.031c0.273,2.553,0.533,5.104,0.779,7.66L379.318,424.966z"/>
		</g>
	</g>
	<g>
		<text transform="matrix(1 0 0 1 333.2861 365.3564)" font-family="'OpenSans'" font-size="14.0192">Tailor the Program</text>
		<g>
			<path fill="#005398" d="M373.361,332.994l24.561,3.494c0.03,0.004,0.062,0.006,0.091,0.006c0.311,0,0.583-0.229,0.628-0.547
				c0.049-0.346-0.192-0.668-0.539-0.718l-24.562-3.493c-0.348-0.049-0.668,0.192-0.718,0.539
				C372.773,332.623,373.014,332.945,373.361,332.994z"/>
			<path fill="#005398" d="M372.673,335.958l24.561,3.494c0.03,0.005,0.06,0.007,0.091,0.007c0.311,0,0.582-0.229,0.627-0.547
				c0.051-0.347-0.191-0.669-0.539-0.718l-24.562-3.493c-0.348-0.05-0.668,0.191-0.718,0.539
				C372.084,335.588,372.326,335.909,372.673,335.958z"/>
			<path fill="#005398" d="M416.36,318.177c-0.029-0.111-0.13-0.188-0.245-0.188c-0.021,0-0.045,0.003-0.065,0.009l-20.807,4.917
				l-18.506-6.167c-0.027-0.01-0.055-0.014-0.084-0.014c-0.107,0-0.204,0.068-0.239,0.17c-0.023,0.064-0.019,0.133,0.01,0.193
				c0.029,0.062,0.08,0.107,0.145,0.131l18.58,6.192c0.026,0.01,0.055,0.014,0.084,0.014c0.021,0,0.044-0.003,0.066-0.009
				l20.882-4.938C416.316,318.451,416.397,318.312,416.36,318.177z"/>
			<path fill="#005398" d="M416.036,319.593c-0.022,0-0.045,0.003-0.067,0.009l-20.487,4.981l-18.506-6.294
				c-0.027-0.01-0.055-0.016-0.084-0.016c-0.107,0-0.204,0.068-0.238,0.17c-0.023,0.064-0.02,0.135,0.01,0.195
				c0.03,0.062,0.081,0.107,0.146,0.13l18.58,6.319c0.027,0.01,0.055,0.014,0.083,0.014c0.022,0,0.044-0.002,0.066-0.008
				l20.564-5.002c0.136-0.037,0.216-0.176,0.179-0.311C416.251,319.67,416.151,319.593,416.036,319.593z"/>
			<path fill="#005398" d="M415.957,323.516c-0.022,0-0.044,0.003-0.067,0.008l-20.17,5.109l-18.507-6.486
				c-0.027-0.008-0.055-0.014-0.084-0.014c-0.106,0-0.203,0.068-0.239,0.17c-0.021,0.064-0.019,0.133,0.011,0.195
				c0.03,0.061,0.082,0.106,0.146,0.129l18.579,6.512c0.027,0.008,0.056,0.014,0.085,0.014c0.021,0,0.044-0.003,0.065-0.009
				l20.247-5.13c0.135-0.036,0.217-0.176,0.18-0.312C416.172,323.592,416.071,323.516,415.957,323.516z"/>
			<path fill="#005398" d="M377.412,324.172c-0.027-0.01-0.055-0.015-0.083-0.015c-0.107,0-0.204,0.067-0.239,0.171
				c-0.023,0.064-0.019,0.133,0.01,0.193c0.029,0.062,0.081,0.107,0.145,0.131l18.58,6.51c0.027,0.01,0.057,0.015,0.084,0.015
				c0.023,0,0.045-0.003,0.066-0.009l20.883-5.383c0.135-0.037,0.215-0.177,0.179-0.312c-0.029-0.11-0.13-0.188-0.245-0.188
				c-0.021,0-0.045,0.004-0.066,0.01l-20.806,5.361L377.412,324.172z"/>
			<path fill="#005398" d="M417.287,322.129c0.22-0.268,0.428-0.676,0.428-0.676c0.864-1.5,1.831-4.211-0.585-6.338
				c-0.105-0.092-0.238-0.152-0.38-0.184c-0.181-0.098-0.472-0.189-0.798-0.281l-18.088-4.757c-1.045-0.253-2.758-0.235-3.809,0.033
				l-17.701,4.485c-0.38,0.088-0.61,0.177-0.702,0.27c-0.168,0.051-0.311,0.142-0.391,0.264c-0.176,0.264,0,0.57,0.392,0.686
				l19.131,6.131c0.114,0.041,0.237,0.059,0.359,0.059c0.078-0.002,0.154-0.011,0.227-0.028l21.062-5.4
				c1.285,1.634,0.389,3.667-0.274,4.743l-12.019,2.881l-8.629,2.203l-7.996-2.84l-10.818-3.643c-0.393-0.123-0.854-0.01-1.029,0.25
				c-0.175,0.262,0,0.57,0.393,0.693l9.573,3.25l0.176,0.056l9.781,3.522l11.617-2.97l-0.021-0.005l8.447-1.983
				c0.049,0.06,0.11,0.114,0.186,0.159c2.986,1.804,1.362,4.179,0.894,4.756l-1.373,0.346l-19.551,4.502l-18.111-6.047l-0.462-0.161
				c-0.39-0.134-0.852-0.034-1.031,0.22c-0.087,0.125-0.09,0.263-0.026,0.389l-2.528,0.742c-0.32-0.023-0.623,0.072-0.863,0.254
				l-0.044,0.012l0.023,0.004c-0.251,0.198-0.43,0.488-0.476,0.83c-0.096,0.699,0.394,1.344,1.093,1.439l18.711,2.518l3.6,1.273
				c0.115,0.046,0.24,0.071,0.365,0.074c0.092,0.004,0.186-0.006,0.271-0.027l2.039-0.508c2.154,0.244,3.824,1.94,3.824,4
				c0,2.227-1.951,4.033-4.359,4.033c-0.097,0-0.191-0.009-0.289-0.014l-0.001,0.017l-0.151-0.023
				c-0.182-0.017-0.357-0.047-0.533-0.084l-25.561-4.036c-0.702-0.084-1.339,0.41-1.426,1.111c-0.087,0.7,0.41,1.338,1.11,1.426
				l27.657,4.063c1.91,0.367,3.273-0.436,3.273-0.436l10.434-5.902c0.861-0.569,1.471-1.075,1.471-1.075
				c2.5-2.564,2.547-5.346,1.963-7.418l1.792-0.446c0.131-0.038,0.243-0.103,0.325-0.19
				C419.023,327.129,420.267,324.316,417.287,322.129z M404.403,315.447L397,317.416c-0.425,0.119-1.116,0.104-1.535-0.036
				l-3.282-1.263c-0.422-0.135-0.41-0.326,0.025-0.427l7.199-1.88c0.434-0.105,1.146-0.042,1.578,0.07l3.406,1.125
				C404.823,315.123,404.829,315.321,404.403,315.447z"/>
		</g>
	</g>
	<g>
		<text transform="matrix(1 0 0 1 339.3506 271.916)" font-family="'OpenSans'" font-size="14.0192">Evaluate Student</text>
		<g>
			<path fill="#00539A" d="M382.625,248.506l-10.213-10.063c-1.2-1.183-1.214-3.114-0.031-4.316l2.57-2.608
				c1.183-1.2,3.115-1.214,4.316-0.032l7.525,7.417l21.19-25.331c1.082-1.292,3.006-1.463,4.298-0.382l2.809,2.349
				c1.293,1.082,1.465,3.005,0.384,4.299l-23.61,28.223c-1.129,1.349-2.777,2.171-4.521,2.255c-0.099,0.004-0.198,0.007-0.298,0.007
				C385.403,250.324,383.808,249.672,382.625,248.506z"/>
		</g>
	</g>
	<path fill="#FFFFFF" d="M271.561,114.042c0,27.897-22.612,50.511-50.514,50.511c-27.895,0-50.507-22.614-50.507-50.511h-25.256
		v381.009h151.532V114.042H271.561z"/>
	<path fill="#066939" d="M256.218,107.605c0,20.254-16.419,36.675-36.677,36.675s-36.684-16.421-36.684-36.675
		c0-20.263,16.426-36.681,36.684-36.681S256.218,87.342,256.218,107.605z"/>
	<text transform="matrix(1 0 0 1 167.7793 186.8516)" font-family="'BubblegumSans-Regular'" font-size="18.6922">Our Difference</text>
	<g>
		<text transform="matrix(1 0 0 1 152.5938 360.4844)"><tspan x="0" y="0" font-family="'OpenSans'" font-size="14.0192">Foundational Skills +</tspan><tspan x="14.96" y="14.019" font-family="'OpenSans'" font-size="14.0192">Critical Thinking</tspan></text>
		<g>
			<g>
				<path fill="#00539B" d="M219.974,293.149v1.181v18.872v0.099l0.008,0.098c0.145,1.872,1.377,3.764,3.507,4.287
					c0.375,0.094,0.778,0.145,1.208,0.145c0.959,0,1.767-0.246,2.432-0.611c0.114-0.062,0.227-0.128,0.333-0.198
					c0.796,0.331,1.775,0.595,2.869,0.595c0.68,0,1.351-0.102,1.996-0.303c1.821-0.567,3.196-1.695,3.977-3.263
					c0.445-0.896,0.692-1.927,0.739-3.08c0.96-0.921,1.869-2.36,1.994-4.365c0.069-1.097-0.162-2.044-0.538-2.837
					c-0.105-0.22-0.219-0.43-0.343-0.626c0.019-0.035,0.036-0.072,0.053-0.108c0.581-1.173,0.867-2.634,0.316-4.221
					c-0.393-1.125-1.038-1.944-1.738-2.536c-0.326-0.278-0.665-0.506-0.994-0.692c-0.001-0.011-0.004-0.021-0.005-0.032
					c-0.171-1.229-0.739-2.575-2.072-3.601c-1.052-0.809-2.281-1.237-3.556-1.237c-0.191,0-0.378,0.01-0.558,0.027
					c-0.85-1.049-2.158-1.971-4.051-2.122c-0.23-0.018-0.456-0.027-0.673-0.027c-2.333,0-3.54,1.047-4.143,1.927
					c-0.413,0.604-0.657,1.307-0.733,2.094C219.985,292.788,219.974,292.965,219.974,293.149z M222.527,311.463
					c0.614-0.133,1.014,0.361,1.019,0.367c0.252,0.318,0.626,0.485,1.003,0.485c0.277,0,0.555-0.089,0.79-0.274
					c0.553-0.436,0.647-1.238,0.211-1.791c-0.669-0.85-1.799-1.426-3.022-1.355c0-3.303,0-7.853,0-11.214
					c0.934,0.325,1.951,0.328,2.83,0.328c0.703,0,1.275-0.572,1.275-1.277c0-0.705-0.572-1.276-1.275-1.276
					c-1.128,0-2.023-0.033-2.439-0.451c-0.203-0.205-0.323-0.53-0.391-0.884c0-0.559,0-0.906,0-0.97
					c0-0.496,0.056-2.005,2.352-2.005c0.147,0,0.305,0.006,0.472,0.019c0.66,0.052,1.181,0.262,1.589,0.541
					c-0.234,0.229-0.379,0.547-0.379,0.898c0,0.694,0.563,1.257,1.257,1.257c0.185,0,0.362-0.031,0.524-0.091
					c0.002,0.008,0.003,0.012,0.003,0.012s0.021-0.014,0.058-0.036c0.07-0.029,0.137-0.065,0.198-0.106
					c0.309-0.152,0.873-0.372,1.56-0.372c0.604,0,1.302,0.171,2,0.708c0.382,0.294,0.642,0.635,0.814,0.983
					c-0.738,0.034-1.445,0.221-2.079,0.57c-1.329,0.731-2.124,2.07-2.185,3.671c-0.026,0.705,0.524,1.296,1.228,1.323
					c0.018,0,0.033,0,0.05,0c0.682,0,1.248-0.541,1.274-1.229c0.025-0.704,0.324-1.233,0.864-1.53
					c0.614-0.338,1.444-0.338,2.277-0.026c0.643,0.34,1.365,0.926,1.71,1.915c0.205,0.594,0.182,1.152,0.043,1.646
					c-0.531-0.226-1.142-0.366-1.827-0.366c-0.705,0-1.276,0.571-1.276,1.276s0.571,1.276,1.276,1.276
					c0.412,0,0.738,0.101,0.995,0.237c0.529,0.462,1.251,1.351,1.164,2.723c-0.044,0.706-0.234,1.273-0.48,1.728
					c-0.664-0.975-1.633-1.86-2.79-2.486c-1.203-0.652-2.478-0.952-3.747-0.915c-0.357-2.236-2.188-3.839-4.544-3.839
					c-0.704,0-1.275,0.571-1.275,1.276s0.571,1.276,1.275,1.276c1.231,0,1.925,0.872,2.04,1.812
					c-0.582,0.231-1.153,0.534-1.702,0.917c-0.578,0.402-0.721,1.197-0.318,1.775c0.403,0.58,1.197,0.723,1.776,0.319
					c2.275-1.583,4.284-0.916,5.28-0.377c1.525,0.825,2.443,2.237,2.42,3.072c-0.004,0.112,0.009,0.22,0.034,0.325
					c-0.184,1.66-1.014,2.963-2.892,3.547c-0.424,0.133-0.839,0.188-1.235,0.188c-0.362,0-0.711-0.047-1.033-0.121
					c0.394-0.774,0.598-1.648,0.56-2.566c-0.028-0.705-0.625-1.252-1.327-1.223c-0.704,0.027-1.252,0.623-1.224,1.326
					c0.044,1.061-0.555,2.009-1.493,2.549c-0.304,0.148-0.672,0.25-1.116,0.25c-2.01,0-2.17-2.075-2.17-2.075
					S222.527,312.542,222.527,311.463z"/>
				<path fill="#00539B" d="M218.784,292.612c-0.076-0.787-0.319-1.49-0.732-2.094c-0.603-0.879-1.811-1.927-4.143-1.927
					c-0.217,0-0.442,0.009-0.673,0.027c-1.893,0.15-3.201,1.073-4.05,2.122c-0.181-0.017-0.366-0.027-0.559-0.027
					c-1.274,0-2.505,0.429-3.556,1.237c-1.333,1.026-1.901,2.372-2.072,3.601c-0.002,0.011-0.003,0.021-0.006,0.032
					c-0.328,0.187-0.667,0.415-0.993,0.692c-0.699,0.592-1.346,1.411-1.737,2.536c-0.552,1.586-0.265,3.048,0.314,4.221
					c0.019,0.036,0.035,0.073,0.054,0.108c-0.123,0.196-0.237,0.406-0.343,0.626c-0.376,0.793-0.607,1.74-0.538,2.837
					c0.126,2.004,1.033,3.444,1.994,4.365c0.047,1.153,0.295,2.185,0.739,3.08c0.779,1.567,2.155,2.695,3.978,3.263
					c0.646,0.201,1.315,0.303,1.995,0.303c1.094,0,2.073-0.264,2.868-0.595c0.107,0.07,0.219,0.136,0.334,0.198
					c0.665,0.365,1.474,0.611,2.431,0.611c0.431,0,0.834-0.051,1.209-0.145c2.13-0.523,3.362-2.415,3.506-4.287l0.01-0.098v-0.099
					V294.33v-1.181C218.814,292.965,218.802,292.788,218.784,292.612z M216.26,313.202c0,0-0.16,2.075-2.171,2.075
					c-0.442,0-0.812-0.102-1.115-0.25c-0.938-0.54-1.537-1.488-1.494-2.549c0.029-0.703-0.518-1.299-1.222-1.326
					c-0.703-0.029-1.3,0.518-1.328,1.223c-0.038,0.918,0.166,1.792,0.561,2.566c-0.324,0.074-0.671,0.121-1.034,0.121
					c-0.396,0-0.812-0.055-1.235-0.188c-1.879-0.584-2.709-1.887-2.89-3.547c0.023-0.105,0.036-0.213,0.032-0.325
					c-0.023-0.835,0.894-2.247,2.42-3.072c0.996-0.539,3.006-1.206,5.28,0.377c0.578,0.403,1.374,0.261,1.776-0.319
					c0.402-0.578,0.26-1.373-0.318-1.775c-0.55-0.383-1.12-0.686-1.702-0.917c0.115-0.94,0.811-1.812,2.039-1.812
					c0.705,0,1.276-0.571,1.276-1.276s-0.571-1.276-1.276-1.276c-2.354,0-4.185,1.603-4.543,3.839
					c-1.269-0.037-2.543,0.263-3.747,0.915c-1.158,0.626-2.125,1.511-2.789,2.486c-0.247-0.454-0.438-1.021-0.481-1.728
					c-0.087-1.372,0.636-2.26,1.165-2.723c0.255-0.136,0.583-0.237,0.994-0.237c0.705,0,1.277-0.571,1.277-1.276
					s-0.572-1.276-1.277-1.276c-0.686,0-1.296,0.141-1.827,0.366c-0.139-0.494-0.163-1.053,0.043-1.646
					c0.345-0.989,1.068-1.575,1.71-1.915c0.833-0.312,1.664-0.312,2.277,0.026c0.54,0.297,0.839,0.826,0.865,1.53
					c0.026,0.688,0.591,1.229,1.274,1.229c0.016,0,0.031,0,0.048,0c0.705-0.027,1.255-0.618,1.229-1.323
					c-0.06-1.602-0.855-2.94-2.185-3.671c-0.634-0.349-1.341-0.536-2.078-0.57c0.173-0.348,0.432-0.688,0.813-0.983
					c0.698-0.537,1.396-0.708,2-0.708c0.688,0,1.251,0.22,1.559,0.372c0.062,0.041,0.129,0.077,0.2,0.106
					c0.036,0.022,0.057,0.036,0.057,0.036s0.001-0.004,0.003-0.012c0.162,0.06,0.341,0.091,0.523,0.091
					c0.694,0,1.257-0.562,1.257-1.257c0-0.352-0.145-0.67-0.378-0.898c0.409-0.278,0.928-0.488,1.588-0.541
					c0.168-0.013,0.324-0.019,0.473-0.019c2.296,0,2.352,1.509,2.352,2.005c0,0.064,0,0.412,0,0.97
					c-0.067,0.354-0.188,0.68-0.391,0.884c-0.416,0.418-1.312,0.451-2.438,0.451c-0.704,0-1.275,0.571-1.275,1.276
					c0,0.705,0.571,1.277,1.275,1.277c0.878,0,1.896-0.002,2.829-0.328c0,3.362,0,7.911,0,11.214
					c-1.223-0.07-2.354,0.506-3.022,1.355c-0.437,0.553-0.342,1.355,0.211,1.791c0.234,0.186,0.514,0.274,0.79,0.274
					c0.377,0,0.752-0.167,1.003-0.485c0.006-0.006,0.404-0.5,1.019-0.367C216.26,312.542,216.26,313.202,216.26,313.202z"/>
			</g>
			<g>
				<g>
					<g>
						<path fill="#00539B" d="M224.834,333.549h-10.881c-0.56,0-1.014-0.453-1.014-1.014c0-0.56,0.454-1.014,1.014-1.014h10.881
							c0.558,0,1.013,0.454,1.013,1.014C225.847,333.096,225.392,333.549,224.834,333.549z"/>
					</g>
					<g>
						<g>
							<path fill="#00539B" d="M224.834,330.75h-10.881c-0.56,0-1.014-0.454-1.014-1.014c0-0.561,0.454-1.014,1.014-1.014h10.881
								c0.558,0,1.013,0.453,1.013,1.014C225.847,330.296,225.392,330.75,224.834,330.75z"/>
						</g>
						<g>
							<path fill="#00539B" d="M224.834,336.349h-10.881c-0.56,0-1.014-0.454-1.014-1.014s0.454-1.013,1.014-1.013h10.881
								c0.558,0,1.013,0.453,1.013,1.013S225.392,336.349,224.834,336.349z"/>
						</g>
					</g>
				</g>
				<g>
					<path fill="#00539B" d="M222.646,339.043h-6.505c-0.559,0-1.013-0.453-1.013-1.014c0-0.56,0.454-1.014,1.013-1.014h6.505
						c0.559,0,1.013,0.454,1.013,1.014C223.659,338.59,223.205,339.043,222.646,339.043z"/>
				</g>
			</g>
			<g>
				<g>
					<path fill="#00539B" d="M214.066,327.983c-0.559,0-1.013-0.454-1.013-1.014c0-4.735-3.241-6.239-3.274-6.254
						c-0.51-0.229-0.739-0.828-0.511-1.339c0.228-0.512,0.828-0.74,1.339-0.512c0.182,0.082,4.473,2.068,4.473,8.104
						C215.08,327.529,214.626,327.983,214.066,327.983z"/>
				</g>
				<g>
					<path fill="#00539B" d="M224.72,327.983c-0.56,0-1.014-0.454-1.014-1.014c0-6.036,4.291-8.022,4.474-8.104
						c0.511-0.229,1.11,0,1.34,0.512c0.227,0.51,0,1.105-0.507,1.336c-0.146,0.068-3.279,1.589-3.279,6.257
						C225.734,327.529,225.28,327.983,224.72,327.983z"/>
				</g>
			</g>
			<path fill="#00539B" d="M222.404,319.421c-0.036-0.159-0.19-0.276-0.366-0.276c-0.439,0-0.787,0.378-1.063,1.155
				c-0.391,0.14-0.926,0.21-1.59,0.21c-0.621,0-1.129-0.064-1.51-0.193c-0.271-0.788-0.64-1.172-1.128-1.172
				c-0.184,0-0.338,0.121-0.369,0.289c-0.004,0.021-0.09,0.516,0.331,0.98c0.142,0.156,0.323,0.291,0.538,0.4
				c0.246,0.896,0.532,2.715,0.532,6.323c0,0.192,0.168,0.347,0.374,0.347c0.205,0,0.373-0.154,0.373-0.347
				c0-2.181-0.109-4.035-0.315-5.36c-0.04-0.246-0.081-0.477-0.127-0.686c0.375,0.074,0.812,0.112,1.301,0.112
				c0.519,0,0.979-0.04,1.369-0.122c-0.447,1.945-0.495,4.865-0.495,6.056c0,0.192,0.167,0.347,0.373,0.347s0.374-0.154,0.374-0.347
				c0-2.673,0.211-4.978,0.578-6.337c0.211-0.111,0.387-0.245,0.522-0.4C222.505,319.943,222.416,319.473,222.404,319.421z"/>
		</g>
	</g>
	<g>
		<text transform="matrix(1 0 0 1 178.6299 461.4199)"><tspan x="0" y="0" font-family="'OpenSans'" font-size="14.0192">Flexible and </tspan><tspan x="6.428" y="14.02" font-family="'OpenSans'" font-size="14.0192">Affordable</tspan></text>
		<g>
			<path fill="#00539B" d="M217.867,438.361v-2.652c-2.817-0.389-5.147-1.486-6.929-3.27c-1.835-1.832-3.021-4.449-3.526-7.775
				l-0.046-0.297l7.078-0.76l0.051,0.258c0.256,1.283,0.742,2.404,1.445,3.328c0.586,0.771,1.234,1.373,1.927,1.787v-9.758
				c-3.2-0.947-5.592-2.381-7.112-4.27c-1.558-1.932-2.348-4.305-2.348-7.059c0-2.789,0.895-5.17,2.66-7.07
				c1.71-1.846,3.998-2.945,6.8-3.273v-2.5h4.197v2.504c2.581,0.352,4.673,1.279,6.227,2.754c1.603,1.527,2.638,3.592,3.081,6.141
				l0.052,0.295l-6.885,0.898l-0.05-0.266c-0.335-1.711-1.13-2.891-2.425-3.59v9.08c3.919,1.088,6.644,2.514,8.096,4.242
				c1.485,1.768,2.239,4.061,2.239,6.812c0,3.072-0.944,5.697-2.805,7.807c-1.814,2.053-4.345,3.35-7.53,3.852v2.781H217.867z
				 M222.064,429.457c1.022-0.258,1.874-0.781,2.537-1.564c0.733-0.865,1.105-1.9,1.105-3.07c0-1.043-0.309-1.951-0.922-2.703
				c-0.562-0.689-1.476-1.244-2.721-1.648V429.457z M217.867,403.672c-0.743,0.322-1.357,0.809-1.824,1.447
				c-0.541,0.746-0.817,1.578-0.817,2.479c0,0.816,0.249,1.59,0.745,2.291c0.432,0.613,1.07,1.133,1.896,1.551V403.672z"/>
			<g>
				
					<rect x="193.787" y="414.941" transform="matrix(-0.6004 0.7997 -0.7997 -0.6004 685.9171 492.597)" fill="#00539B" width="52.189" height="5.472"/>
				<path fill="#FFFFFF" d="M233.512,396.23l3.159,2.373l-30.418,40.52l-3.161-2.373L233.512,396.23 M233.209,394.101l-0.914,1.217
					l-30.42,40.52l-0.913,1.216l1.217,0.914l3.161,2.373l1.217,0.913l0.913-1.217l30.418-40.52l0.912-1.216l-1.215-0.913
					l-3.16-2.373L233.209,394.101L233.209,394.101z"/>
			</g>
		</g>
	</g>
	<g>
		<text transform="matrix(1 0 0 1 152.8096 270.041)" font-family="'OpenSans'" font-size="14.0192">Passionate Teachers</text>
		<path fill-rule="evenodd" clip-rule="evenodd" fill="#00539B" d="M207.003,215.984c9.276,0,21.993,0,31.271,0
			c1.332,0.769,1.24,3.482,0,4.199c-9.278,0-21.995,0-31.271,0C205.762,219.466,205.67,216.752,207.003,215.984L207.003,215.984z
			 M237.116,242.436h-7.752l0.043-0.031c0.606-0.425,1.027-1.017,1.248-1.669h4.762c0-6.576,0-13.151,0-19.727h1.699
			C237.116,228.15,237.116,235.292,237.116,242.436L237.116,242.436z M208.16,225.19v-4.182h1.7v4.158
			c-0.251-0.029-0.503-0.044-0.759-0.044C208.787,225.123,208.471,225.146,208.16,225.19L208.16,225.19z M216.268,227.29h11.397
			v1.604h-11.397V227.29L216.268,227.29z M216.268,223.735h11.397v1.604h-11.397V223.735L216.268,223.735z M215.983,245.716v2.608
			h-17.596c0.295-5.165,2.637-7.497,7.487-9.333c0.5,0.576,1.082,1.077,1.808,1.349c0.719,0.269,2.122,0.269,2.841,0
			c0.726-0.272,1.308-0.773,1.805-1.349l1.752,0.411l6.416,1.43c0.658,0.148,1.082,0.051,1.387-0.208l4.214-2.954
			c0.336-0.235,0.712-0.374,1.094-0.421l3.752-14.793c0.268-1.225,0.983-1.069,0.718,0.156l-2.741,15.072
			c0.223,0.158,0.422,0.355,0.585,0.59c0.772,1.108,0.502,2.633-0.604,3.408l-5.654,3.963c-0.623,0.436-1.302,0.523-2.028,0.361
			l-4.462-0.78C216.28,245.083,215.977,245.264,215.983,245.716L215.983,245.716z M209.101,239.303
			c1.191-0.002,2.286-0.669,3.154-1.589c0.004-0.004,0.009-0.007,0.016-0.009c0.744-0.157,2.366-0.475,2.977-1.038
			c0.336-0.311,0.452-0.652,0.127-0.742c-1.525-0.424-0.489-4.482-1.372-6.777c-0.825-2.135-3.013-3.148-4.901-3.141
			c-1.887-0.007-4.074,1.006-4.896,3.141c-0.887,2.295,0.151,6.354-1.374,6.777c-0.325,0.09-0.21,0.431,0.129,0.742
			c0.609,0.563,2.233,0.882,2.977,1.039c0.005,0,0.009,0.003,0.013,0.005C206.817,238.632,207.913,239.301,209.101,239.303
			L209.101,239.303z"/>
	</g>
</g>
</svg>
