<?xml version="1.0" encoding="utf-8"?>
<!-- Generator: Adobe Illustrator 16.0.0, SVG Export Plug-In . SVG Version: 6.00 Build 0)  -->
<!DOCTYPE svg PUBLIC "-//W3C//DTD SVG 1.1//EN" "http://www.w3.org/Graphics/SVG/1.1/DTD/svg11.dtd">
<svg version="1.1" xmlns="http://www.w3.org/2000/svg" xmlns:xlink="http://www.w3.org/1999/xlink" x="0px" y="0px" width="345.6px"
	 height="72px" viewBox="0 0 345.6 72" enable-background="new 0 0 345.6 72" xml:space="preserve">
<g id="Guides" display="none">
	
		<line display="inline" fill="none" stroke="#27AAE1" stroke-width="0.5" stroke-miterlimit="10" x1="85.189" y1="67.832" x2="101.92" y2="-10.882"/>
	
		<line display="inline" fill="none" stroke="#27AAE1" stroke-width="0.5" stroke-miterlimit="10" x1="324.476" y1="68.456" x2="341.207" y2="-10.258"/>
</g>
<g id="Text">
	<polygon fill="#006838" points="329.461,45 90.071,45 85.189,67.964 324.58,67.964 	"/>
	<g>
		<path fill="#FFFFFF" d="M131.363,57.52h-5.961l-0.988,4.648h6.665l-0.504,2.371h-9.552l3.364-15.824h9.199l-0.504,2.372h-6.313
			l-0.868,4.085h5.961L131.363,57.52z"/>
		<path fill="#FFFFFF" d="M146.982,47.871l-2.859,13.452c-0.25,1.174-0.472,2.441-0.59,3.216h-2.581l0.268-1.808h-0.047
			c-0.951,1.269-2.505,2.065-4.171,2.065c-2.723,0-4.388-2.323-3.639-5.846c0.79-3.826,3.667-6.104,6.414-6.104
			c1.572,0,2.56,0.657,2.896,1.502h0.047l1.377-6.479H146.982z M141.97,57.872c0.05-0.235,0.087-0.517,0.09-0.752
			c-0.019-1.126-0.739-2.042-2.053-2.042c-1.854,0-3.236,1.643-3.69,3.779c-0.444,2.09,0.264,3.616,2.095,3.616
			c1.173,0,2.375-0.799,2.921-2.042c0.125-0.26,0.209-0.54,0.273-0.846L141.97,57.872z"/>
		<path fill="#FFFFFF" d="M157.502,61.112c-0.289,1.361-0.482,2.488-0.635,3.427h-2.535l0.229-1.736h-0.047
			c-0.667,0.82-2.043,1.994-4.085,1.994c-2.088,0-3.726-1.243-2.932-4.977l1.428-6.715h2.887l-1.323,6.223
			c-0.403,1.9-0.053,3.123,1.473,3.123c1.149,0,2.075-0.823,2.535-1.551c0.148-0.258,0.284-0.563,0.354-0.893l1.468-6.902h2.887
			L157.502,61.112z"/>
		<path fill="#FFFFFF" d="M168.375,64.188c-0.671,0.281-1.932,0.587-3.363,0.587c-3.567,0-5.407-2.277-4.653-5.823
			c0.729-3.428,3.645-6.104,7.658-6.104c1.056,0,2.085,0.234,2.677,0.539l-0.975,2.161c-0.425-0.212-1.056-0.446-2.088-0.446
			c-2.206,0-3.864,1.619-4.285,3.709c-0.499,2.349,0.741,3.687,2.713,3.687c1.009,0,1.758-0.211,2.372-0.446L168.375,64.188z"/>
		<path fill="#FFFFFF" d="M176.87,64.539l0.081-1.268h-0.07c-0.894,0.893-2.225,1.525-3.703,1.525c-2.3,0-3.236-1.666-2.867-3.402
			c0.613-2.889,3.48-4.344,7.7-4.32l0.04-0.188c0.159-0.752,0.119-1.997-1.899-1.997c-1.127,0-2.374,0.353-3.254,0.846l-0.164-1.878
			c0.954-0.518,2.538-1.01,4.346-1.01c3.66,0,4.223,2.324,3.693,4.813l-0.878,4.132c-0.22,1.033-0.388,2.043-0.42,2.746H176.87z
			 M177.682,58.951c-2.032-0.047-4.074,0.399-4.443,2.137c-0.239,1.127,0.379,1.644,1.294,1.644c1.15,0,2.154-0.751,2.587-1.572
			c0.115-0.212,0.188-0.446,0.229-0.634L177.682,58.951z"/>
		<path fill="#FFFFFF" d="M188.656,49.842l-0.693,3.264h2.746l-0.46,2.16h-2.746l-1.072,5.048c-0.295,1.386-0.073,2.113,1.029,2.113
			c0.493,0,0.884-0.071,1.156-0.141l-0.422,2.206c-0.458,0.165-1.233,0.282-2.148,0.282c-1.056,0-1.872-0.353-2.288-0.938
			c-0.471-0.658-0.532-1.691-0.213-3.193l1.143-5.377h-1.643l0.46-2.16h1.643l0.549-2.582L188.656,49.842z"/>
		<path fill="#FFFFFF" d="M190.464,64.539l2.431-11.434h2.91l-2.431,11.434H190.464z M196.646,49.913
			c-0.185,0.868-0.963,1.55-1.972,1.55c-0.962,0-1.451-0.682-1.267-1.55c0.19-0.892,0.992-1.573,1.954-1.573
			C196.348,48.34,196.813,49.021,196.646,49.913z"/>
		<path fill="#FFFFFF" d="M208.577,58.717c-0.893,4.203-4.249,6.08-7.159,6.08c-3.239,0-5.253-2.23-4.475-5.893
			c0.799-3.756,3.752-6.057,7.202-6.057C207.548,52.848,209.316,55.242,208.577,58.717z M199.939,58.835
			c-0.47,2.206,0.256,3.874,2.016,3.874c1.643,0,3.138-1.621,3.627-3.922c0.379-1.784,0.015-3.826-1.956-3.826
			C201.584,54.961,200.344,56.934,199.939,58.835z"/>
		<path fill="#FFFFFF" d="M211.421,56.51c0.279-1.314,0.49-2.418,0.63-3.404h2.534l-0.225,1.715h0.071
			c0.683-0.893,2.156-1.973,4.057-1.973c1.995,0,3.786,1.291,3.018,4.906l-1.442,6.785h-2.887l1.372-6.456
			c0.35-1.643,0.004-2.888-1.568-2.888c-1.149,0-2.122,0.822-2.612,1.691c-0.148,0.258-0.247,0.609-0.317,0.938l-1.427,6.714h-2.91
			L211.421,56.51z"/>
		<path fill="#FFFFFF" d="M239.552,64.07c-0.755,0.352-2.332,0.704-4.232,0.704c-5.022,0-7.404-3.146-6.382-7.959
			c1.108-5.212,5.391-8.358,10.225-8.358c1.901,0,3.178,0.399,3.7,0.705l-1.123,2.301c-0.681-0.329-1.654-0.611-2.968-0.611
			c-3.216,0-5.968,2.02-6.776,5.822c-0.739,3.476,0.829,5.706,4.302,5.706c1.174,0,2.444-0.235,3.271-0.587L239.552,64.07z"/>
		<path fill="#FFFFFF" d="M244.514,59.633c-0.369,2.066,1.061,2.958,2.891,2.958c1.338,0,2.341-0.188,3.279-0.517l-0.003,1.996
			c-1.07,0.398-2.496,0.704-4.139,0.704c-3.708,0-5.407-2.277-4.663-5.775c0.674-3.169,3.232-6.151,6.894-6.151
			c3.707,0,4.278,3.052,3.745,5.564c-0.115,0.539-0.252,0.963-0.354,1.221H244.514z M249.964,57.613
			c0.248-1.057,0.148-2.793-1.776-2.793c-1.783,0-2.878,1.62-3.245,2.793H249.964z"/>
		<path fill="#FFFFFF" d="M255.249,56.51c0.279-1.314,0.49-2.418,0.63-3.404h2.534l-0.225,1.715h0.071
			c0.683-0.893,2.156-1.973,4.057-1.973c1.995,0,3.786,1.291,3.018,4.906l-1.442,6.785h-2.887l1.372-6.456
			c0.35-1.643,0.004-2.888-1.568-2.888c-1.149,0-2.122,0.822-2.612,1.691c-0.148,0.258-0.247,0.609-0.317,0.938l-1.427,6.714h-2.91
			L255.249,56.51z"/>
		<path fill="#FFFFFF" d="M273.285,49.842l-0.693,3.264h2.746l-0.46,2.16h-2.746l-1.072,5.048c-0.295,1.386-0.073,2.113,1.029,2.113
			c0.493,0,0.884-0.071,1.156-0.141l-0.422,2.206c-0.458,0.165-1.233,0.282-2.148,0.282c-1.056,0-1.872-0.353-2.288-0.938
			c-0.471-0.658-0.532-1.691-0.213-3.193l1.143-5.377h-1.643l0.46-2.16h1.643l0.549-2.582L273.285,49.842z"/>
		<path fill="#FFFFFF" d="M278.036,59.633c-0.369,2.066,1.061,2.958,2.891,2.958c1.338,0,2.341-0.188,3.279-0.517l-0.003,1.996
			c-1.07,0.398-2.496,0.704-4.139,0.704c-3.708,0-5.407-2.277-4.663-5.775c0.674-3.169,3.232-6.151,6.894-6.151
			c3.707,0,4.278,3.052,3.745,5.564c-0.115,0.539-0.252,0.963-0.354,1.221H278.036z M283.486,57.613
			c0.249-1.057,0.148-2.793-1.776-2.793c-1.783,0-2.878,1.62-3.245,2.793H283.486z"/>
		<path fill="#FFFFFF" d="M288.711,56.791c0.33-1.549,0.541-2.652,0.69-3.686h2.511l-0.371,2.184h0.095
			c0.907-1.62,2.42-2.441,3.641-2.441c0.281,0,0.44,0.023,0.665,0.07l-0.578,2.724c-0.226-0.047-0.474-0.094-0.826-0.094
			c-1.384,0-2.513,0.893-3.045,2.183c-0.102,0.26-0.214,0.564-0.283,0.893l-1.258,5.916h-2.887L288.711,56.791z"/>
	</g>
	<g>
		<path fill="#005BAA" d="M90.912,40.91l1.248-5.869c0.735-0.153,1.277-0.439,1.624-0.86s0.672-1.341,0.974-2.763l3.431-16.139
			c0.302-1.421,0.369-2.342,0.201-2.763s-0.588-0.707-1.259-0.86l1.199-5.64h13.734c4.172,0,7.046,0.757,8.623,2.27
			c1.577,1.513,2.015,3.92,1.313,7.221c-0.412,1.941-1.187,3.565-2.324,4.872c-1.137,1.307-2.565,2.22-4.286,2.74
			c1.771,0.565,2.967,1.532,3.591,2.9c0.623,1.368,0.694,3.183,0.213,5.445c-0.714,3.362-2.153,5.778-4.317,7.245
			s-5.425,2.201-9.784,2.201H90.912z M102.438,34.101h3.609c1.594,0,2.807-0.321,3.638-0.963c0.832-0.642,1.403-1.697,1.715-3.164
			s0.17-2.529-0.424-3.187s-1.712-0.986-3.353-0.986h-3.422L102.438,34.101z M105.473,19.818h3.188c1.563,0,2.728-0.264,3.496-0.791
			c0.769-0.527,1.279-1.387,1.533-2.579c0.283-1.33,0.157-2.281-0.377-2.854c-0.535-0.573-1.583-0.86-3.146-0.86h-3.188
			L105.473,19.818z"/>
		<path fill="#005BAA" d="M129.752,31.808c-0.325,1.529-0.311,2.622,0.042,3.278c0.353,0.657,1.091,0.986,2.216,0.986
			c1.047,0,1.901-0.306,2.562-0.917s1.122-1.528,1.382-2.751l0.029-0.138h7.242l-1.296,6.099c-1.705,0.963-3.501,1.696-5.39,2.201
			c-1.889,0.504-3.771,0.756-5.646,0.756c-3.703,0-6.239-0.715-7.607-2.144s-1.711-3.748-1.029-6.958l1.754-8.253
			c0.686-3.225,2.021-5.56,4.008-7.003c1.987-1.444,4.824-2.167,8.511-2.167c3.625,0,6.111,0.729,7.457,2.189
			c1.346,1.459,1.68,3.786,1,6.98l-1.193,5.617h-13.57L129.752,31.808z M131.34,24.334l-0.151,0.711h6.328l0.219-1.032
			c0.292-1.375,0.249-2.384-0.13-3.026c-0.379-0.642-1.108-0.962-2.186-0.962c-1.109,0-1.986,0.34-2.631,1.02
			S131.662,22.822,131.34,24.334z"/>
		<path fill="#005BAA" d="M144.563,39.305l1.467-6.9h7.289c-0.266,1.253-0.244,2.163,0.064,2.728
			c0.311,0.566,0.934,0.849,1.871,0.849c0.781,0,1.443-0.214,1.988-0.642c0.543-0.428,0.894-1.009,1.049-1.742
			c0.153-0.718,0.035-1.303-0.354-1.754s-1.139-0.852-2.252-1.204c-0.349-0.122-0.861-0.283-1.537-0.481
			c-1.931-0.55-3.334-1.116-4.211-1.696c-0.976-0.627-1.617-1.391-1.926-2.293c-0.309-0.901-0.318-2.033-0.029-3.393
			c0.517-2.43,1.842-4.368,3.978-5.812c2.136-1.444,4.749-2.167,7.843-2.167c1.656,0,3.284,0.191,4.883,0.573
			c1.598,0.382,3.123,0.948,4.572,1.697l-1.373,6.465h-6.82l0.029-0.138c0.223-1.054,0.16-1.857-0.192-2.407
			c-0.352-0.55-0.989-0.825-1.911-0.825c-0.766,0-1.416,0.218-1.955,0.653c-0.537,0.436-0.886,1.028-1.045,1.777
			c-0.27,1.269,1.008,2.315,3.832,3.141c1.119,0.321,1.992,0.588,2.619,0.803c1.92,0.672,3.182,1.532,3.787,2.579
			s0.707,2.518,0.305,4.413c-0.536,2.521-1.759,4.451-3.668,5.789c-1.91,1.338-4.396,2.006-7.458,2.006
			c-1.938,0-3.797-0.164-5.579-0.492C148.047,40.501,146.291,39.992,144.563,39.305z"/>
		<path fill="#005BAA" d="M182.701,8.333l-1.477,6.947h3.117l-1.199,5.64h-3.117l-2.135,10.041
			c-0.387,1.819-0.448,3.049-0.186,3.691c0.262,0.642,0.916,0.963,1.963,0.963h0.352l-1.106,5.205
			c-0.68,0.184-1.322,0.32-1.928,0.412s-1.157,0.138-1.657,0.138c-2.516,0-4.164-0.699-4.945-2.098s-0.771-3.985,0.032-7.76
			l2.251-10.591h-1.336l1.199-5.64h1.336l1.008-4.746L182.701,8.333z"/>
		<path fill="#006838" d="M196.287,26.573c-0.191,0.897-0.24,1.482-0.147,1.758c0.092,0.275,0.331,0.464,0.716,0.565l-0.738,3.469
			h-7.047l0.738-3.469c0.419-0.061,0.746-0.268,0.982-0.619s0.457-1.011,0.664-1.979l1.152-5.426
			c0.167-0.784,0.201-1.307,0.107-1.567c-0.097-0.26-0.342-0.466-0.736-0.619l0.725-3.408h5.984L196.287,26.573z M193.979,11.702
			c0.158-0.743,0.563-1.383,1.213-1.918c0.649-0.535,1.355-0.802,2.115-0.802c0.771,0,1.37,0.268,1.799,0.802
			c0.428,0.535,0.563,1.175,0.404,1.918c-0.158,0.744-0.568,1.378-1.232,1.903c-0.664,0.525-1.371,0.787-2.121,0.787
			c-0.74,0-1.325-0.268-1.758-0.802C193.965,13.054,193.824,12.426,193.979,11.702z"/>
		<path fill="#006838" d="M205.424,26.573c-0.184,0.866-0.229,1.442-0.133,1.727c0.096,0.286,0.34,0.484,0.733,0.596l-0.737,3.469
			h-7.047l0.737-3.469c0.419-0.061,0.746-0.268,0.983-0.619c0.235-0.352,0.457-1.011,0.662-1.979l1.154-5.426
			c0.166-0.784,0.201-1.307,0.105-1.567c-0.096-0.26-0.342-0.466-0.735-0.619l0.725-3.408h5.953l-0.224,1.054
			c0.746-0.376,1.473-0.662,2.182-0.855c0.707-0.193,1.373-0.291,1.998-0.291c1.885,0,3.137,0.451,3.752,1.353
			s0.689,2.453,0.223,4.654l-1.131,5.319c-0.203,0.958-0.254,1.587-0.151,1.887c0.103,0.301,0.364,0.466,0.785,0.497l-0.722,3.469
			h-5.547c-0.074-0.489-0.073-1.09,0-1.804c0.074-0.712,0.273-1.834,0.598-3.362l1.137-5.349c0.245-1.151,0.246-1.966,0.004-2.445
			c-0.241-0.479-0.759-0.718-1.55-0.718c-0.334,0-0.689,0.069-1.067,0.206c-0.379,0.138-0.773,0.339-1.184,0.604L205.424,26.573z"/>
		<path fill="#005BAA" d="M225.166,17.755c0.537-2.521,1.027-4.333,1.473-5.433c0.444-1.101,1.002-2.056,1.675-2.866
			c1.177-1.421,2.688-2.464,4.532-3.129c1.845-0.665,4.166-0.997,6.963-0.997c1.953,0,3.844,0.214,5.676,0.642
			c1.83,0.428,3.592,1.07,5.285,1.926l-2.096,9.858h-7.781l0.146-0.688c0.338-1.589,0.281-2.77-0.172-3.542
			s-1.305-1.158-2.555-1.158c-1.344,0-2.397,0.397-3.16,1.192c-0.763,0.795-1.338,2.102-1.725,3.92l-2.543,11.967
			c-0.391,1.834-0.373,3.148,0.053,3.943c0.424,0.795,1.309,1.192,2.652,1.192c1.313,0,2.346-0.394,3.099-1.181
			s1.327-2.105,1.72-3.955l0.526-2.476h7.781l-2.544,11.966c-1.904,0.871-3.893,1.537-5.967,1.995s-4.111,0.688-6.111,0.688
			c-2.531,0-4.555-0.275-6.07-0.826c-1.516-0.55-2.619-1.406-3.311-2.567c-0.505-0.856-0.773-1.888-0.807-3.095
			c-0.031-1.207,0.246-3.194,0.834-5.96L225.166,17.755z"/>
		<path fill="#005BAA" d="M254.473,14.568c0.25-1.177,0.304-1.96,0.16-2.35c-0.145-0.39-0.512-0.699-1.104-0.929l1.092-5.135h8.977
			l-5.541,26.066c-0.285,1.345-0.359,2.224-0.221,2.636s0.497,0.695,1.074,0.848l-1.106,5.205h-10.57l1.106-5.205
			c0.629-0.092,1.12-0.401,1.475-0.928c0.354-0.527,0.686-1.517,0.994-2.969L254.473,14.568z"/>
		<path fill="#005BAA" d="M275.51,38.228c-1.322,1.009-2.701,1.776-4.133,2.304c-1.434,0.527-2.837,0.791-4.212,0.791
			c-2.078,0-3.587-0.635-4.528-1.902c-0.941-1.27-1.18-2.996-0.716-5.182c0.478-2.247,1.731-4.065,3.761-5.456
			c2.031-1.391,6.223-2.996,12.578-4.814l0.313-1.467c0.211-0.993,0.154-1.719-0.17-2.178s-0.947-0.688-1.869-0.688
			c-0.906,0-1.631,0.245-2.172,0.734c-0.541,0.489-0.918,1.23-1.129,2.224l-0.17,0.802h-7.359l1.256-5.915
			c1.936-0.871,3.835-1.536,5.697-1.995c1.863-0.458,3.631-0.688,5.303-0.688c3.406,0,5.713,0.672,6.92,2.017
			c1.205,1.345,1.482,3.554,0.83,6.625l-1.818,8.551c-0.309,1.452-0.39,2.403-0.244,2.854c0.146,0.451,0.543,0.738,1.189,0.86
			l-1.106,5.205h-8.789L275.51,38.228z M277.223,28.851c-2.844,1.024-4.732,1.861-5.666,2.51c-0.936,0.649-1.499,1.425-1.691,2.327
			c-0.133,0.627-0.051,1.127,0.244,1.502s0.771,0.562,1.428,0.562c0.641,0,1.374-0.218,2.201-0.653
			c0.826-0.436,1.676-1.051,2.549-1.846L277.223,28.851z"/>
		<path fill="#005BAA" d="M286.697,39.305l1.467-6.9h7.289c-0.266,1.253-0.244,2.163,0.064,2.728
			c0.311,0.566,0.934,0.849,1.871,0.849c0.781,0,1.443-0.214,1.988-0.642c0.543-0.428,0.894-1.009,1.049-1.742
			c0.153-0.718,0.035-1.303-0.354-1.754s-1.139-0.852-2.252-1.204c-0.349-0.122-0.861-0.283-1.537-0.481
			c-1.931-0.55-3.334-1.116-4.211-1.696c-0.976-0.627-1.617-1.391-1.926-2.293c-0.309-0.901-0.318-2.033-0.029-3.393
			c0.517-2.43,1.842-4.368,3.978-5.812c2.136-1.444,4.749-2.167,7.843-2.167c1.656,0,3.284,0.191,4.883,0.573
			c1.598,0.382,3.123,0.948,4.572,1.697l-1.373,6.465h-6.82l0.029-0.138c0.223-1.054,0.16-1.857-0.192-2.407
			c-0.352-0.55-0.989-0.825-1.911-0.825c-0.766,0-1.416,0.218-1.955,0.653c-0.537,0.436-0.886,1.028-1.045,1.777
			c-0.27,1.269,1.008,2.315,3.832,3.141c1.119,0.321,1.992,0.588,2.619,0.803c1.92,0.672,3.182,1.532,3.787,2.579
			s0.707,2.518,0.305,4.413c-0.536,2.521-1.759,4.451-3.668,5.789c-1.91,1.338-4.396,2.006-7.458,2.006
			c-1.938,0-3.797-0.164-5.579-0.492C290.182,40.501,288.426,39.992,286.697,39.305z"/>
		<path fill="#005BAA" d="M309.967,39.305l1.467-6.9h7.289c-0.268,1.253-0.246,2.163,0.064,2.728
			c0.309,0.566,0.932,0.849,1.869,0.849c0.781,0,1.445-0.214,1.988-0.642c0.545-0.428,0.895-1.009,1.051-1.742
			c0.152-0.718,0.035-1.303-0.354-1.754s-1.14-0.852-2.252-1.204c-0.35-0.122-0.862-0.283-1.539-0.481
			c-1.93-0.55-3.333-1.116-4.209-1.696c-0.977-0.627-1.619-1.391-1.928-2.293c-0.309-0.901-0.317-2.033-0.028-3.393
			c0.517-2.43,1.843-4.368,3.978-5.812c2.135-1.444,4.75-2.167,7.844-2.167c1.656,0,3.283,0.191,4.881,0.573
			c1.6,0.382,3.123,0.948,4.574,1.697l-1.375,6.465h-6.82l0.029-0.138c0.225-1.054,0.16-1.857-0.191-2.407
			c-0.352-0.55-0.988-0.825-1.91-0.825c-0.766,0-1.418,0.218-1.955,0.653c-0.539,0.436-0.887,1.028-1.046,1.777
			c-0.271,1.269,1.008,2.315,3.833,3.141c1.119,0.321,1.992,0.588,2.617,0.803c1.92,0.672,3.184,1.532,3.789,2.579
			s0.707,2.518,0.303,4.413c-0.535,2.521-1.758,4.451-3.668,5.789c-1.908,1.338-4.395,2.006-7.457,2.006
			c-1.938,0-3.797-0.164-5.578-0.492C313.45,40.501,311.695,39.992,309.967,39.305z"/>
	</g>
	<g>
		<path d="M337.215,11.117h-1.204v-0.444h2.932v0.444h-1.21v3.598h-0.518V11.117z"/>
		<path d="M342.717,12.94c-0.029-0.564-0.064-1.241-0.059-1.745h-0.018c-0.136,0.474-0.3,0.978-0.499,1.535l-0.699,1.961h-0.388
			l-0.641-1.925c-0.188-0.57-0.347-1.092-0.458-1.571h-0.012c-0.012,0.504-0.041,1.181-0.077,1.787l-0.105,1.733h-0.487l0.276-4.042
			h0.651l0.676,1.955c0.165,0.498,0.3,0.941,0.399,1.361h0.018c0.101-0.408,0.241-0.852,0.417-1.361l0.705-1.955h0.652l0.247,4.042
			h-0.5L342.717,12.94z"/>
	</g>
</g>
<g id="Logo">
	<path display="none" fill="#006838" stroke="#000000" stroke-miterlimit="10" d="M14.384,68.037l-1.523-4.328l8.851-20.213
		l0.39-0.004c3.983-0.607,6.934-1.787,9.41-2.835c4.134-1.75,7.122-3.013,10.556,0.38l0.169,0.166v22.438l-3.592,2.188l-0.313-0.274
		c-2.821-2.457-4.869-1.771-8.948-0.408c-3.271,1.096-7.75,2.594-14.57,2.873L14.384,68.037z M14.304,64.193l0.891,2.668
		c6.417-0.316,10.69-1.746,13.826-2.795c3.93-1.314,6.57-2.196,9.736,0.359l2.086-1.271c-3.646-4.747-9.289-3.115-15.789-1.232
		C21.578,62.929,17.991,63.967,14.304,64.193z M22.452,44.693l-8.034,18.351c3.5-0.242,6.963-1.243,10.319-2.216
		c6.288-1.818,12.255-3.547,16.359,0.859V41.684c-2.817-2.653-5.217-1.637-9.142,0.022C29.484,42.752,26.425,44.047,22.452,44.693z"
		/>
	<path display="none" stroke="#2E3192" stroke-miterlimit="10" d="M68.519,68.02c-6.819-0.279-11.298-1.777-14.57-2.873
		c-4.079-1.363-6.127-2.049-8.948,0.408l-0.313,0.274l-3.592-2.188V41.203l0.169-0.166c3.434-3.393,6.421-2.13,10.556-0.38
		c2.476,1.048,5.426,2.228,9.41,2.835l0.39,0.004l8.851,20.213l-1.523,4.328L68.519,68.02z M58.277,61.923
		c-6.5-1.883-12.143-3.515-15.789,1.232l2.086,1.271c3.166-2.556,5.807-1.674,9.736-0.359c3.136,1.049,7.409,2.479,13.826,2.795
		l0.891-2.668C65.34,63.967,61.753,62.929,58.277,61.923z M51.376,41.706c-3.924-1.659-6.324-2.676-9.141-0.022v20.004
		c4.104-4.406,10.071-2.678,16.359-0.859c3.356,0.973,6.819,1.974,10.319,2.216l-8.034-18.351
		C56.906,44.047,53.847,42.752,51.376,41.706z"/>
	<path fill="#005BAA" d="M41.666,34.914l4.59-5.348c19.776,2.365,29.236,12.93,33.076,21.978
		c-7.315-7.895-19.358-15.787-37.666-15.787S11.315,43.648,4,51.543c3.84-9.048,13.299-19.612,33.076-21.978L41.666,34.914z"/>
	<ellipse fill="#005BAA" cx="41.666" cy="17.108" rx="7.885" ry="11.366"/>
	<g>
		<path fill="#FFFFFF" stroke="#006838" stroke-width="1.5" stroke-miterlimit="10" d="M68.593,67.468l1.201-3.742L61.25,44.095
			c0,0-2.759-0.007-6.638-1.625c-5.182-2.162-9.461-4.851-12.946-1.059l-0.005,21.82l2.995,1.906
			c3.942-3.701,8.258-0.672,13.333,0.729S68.593,67.468,68.593,67.468z"/>
		<path fill="none" stroke="#006838" stroke-width="1.5" stroke-miterlimit="10" d="M41.66,63.231
			c4.665-6.187,12.105-3.521,17.501-1.596c3.9,1.392,10.633,2.09,10.633,2.09"/>
	</g>
	<g>
		<path fill="#FFFFFF" stroke="#006838" stroke-width="1.5" stroke-miterlimit="10" d="M14.732,67.468l-1.201-3.742l8.544-19.631
			c0,0,2.759-0.007,6.638-1.625c5.182-2.162,9.461-4.851,12.946-1.059l0.005,21.82l-2.995,1.906
			c-3.942-3.701-8.258-0.672-13.333,0.729S14.732,67.468,14.732,67.468z"/>
		<path fill="none" stroke="#006838" stroke-width="1.5" stroke-miterlimit="10" d="M41.666,63.231
			c-4.665-6.187-12.105-3.521-17.501-1.596c-3.9,1.392-10.633,2.09-10.633,2.09"/>
	</g>
</g>
</svg>
