<?xml version="1.0" encoding="UTF-8" standalone="no"?>
<svg width="354px" height="65px" viewBox="0 0 354 65" version="1.1" xmlns="http://www.w3.org/2000/svg" xmlns:xlink="http://www.w3.org/1999/xlink" xmlns:sketch="http://www.bohemiancoding.com/sketch/ns">
    <title>Slice 1</title>
    <description>Created with Sketch (http://www.bohemiancoding.com/sketch)</description>
    <defs></defs>
    <g id="Page-1" stroke="none" stroke-width="1" fill="none" fill-rule="evenodd" sketch:type="MSPage">
        <g id="Best-in-Class-logo-v3" sketch:type="MSLayerGroup" transform="translate(0.000000, 1.000000)">
            <g id="Text" transform="translate(80.000000, 0.000000)" sketch:type="MSShapeGroup">
                <path d="M254.356,64.186 L0.364,64.186 L5.257,41.168 L259.25,41.168 L254.356,64.186 Z" id="Shape" fill="#006838"></path>
                <g id="Group" transform="translate(48.000000, 44.000000)" fill="#FFFFFF">
                    <path d="M9.465,9.146 L3.519,9.146 L2.341,14.685 L8.993,14.685 L8.639,16.349 L-0.017,16.349 L3.248,0.988 L11.562,0.988 L11.208,2.652 L4.897,2.652 L3.865,7.506 L9.812,7.506 L9.465,9.146 L9.465,9.146 Z" id="Shape"></path>
                    <path d="M23.998,0.168 L21.164,13.5 C20.955,14.48 20.764,15.598 20.648,16.35 L18.873,16.35 L19.187,14.436 L19.119,14.436 C18.265,15.665 16.746,16.6 14.946,16.6 C12.28,16.6 10.687,14.344 11.398,10.994 C12.156,7.325 14.931,5.091 17.597,5.091 C19.306,5.091 20.251,5.89 20.57,6.755 L20.615,6.755 L22.015,0.169 L23.998,0.169 L23.998,0.168 Z M19.967,9.808 C20.02,9.558 20.071,9.215 20.055,8.965 C20.026,7.711 19.155,6.663 17.651,6.663 C15.578,6.663 13.961,8.486 13.447,10.902 C12.972,13.135 13.696,14.981 15.839,14.981 C17.183,14.981 18.607,14.07 19.285,12.587 C19.411,12.315 19.492,12.041 19.559,11.722 L19.967,9.808 L19.967,9.808 Z" id="Shape"></path>
                    <path d="M33.781,13.318 C33.533,14.48 33.343,15.482 33.226,16.349 L31.451,16.349 L31.719,14.548 L31.674,14.548 C30.984,15.437 29.552,16.599 27.593,16.599 C25.862,16.599 23.996,15.62 24.815,11.767 L26.186,5.318 L28.192,5.318 L26.898,11.404 C26.452,13.5 26.807,14.936 28.607,14.936 C29.952,14.936 31.085,14 31.642,13.089 C31.815,12.816 31.96,12.45 32.043,12.064 L33.477,5.318 L35.481,5.318 L33.781,13.318 L33.781,13.318 Z" id="Shape"></path>
                    <path d="M44.407,15.961 C43.83,16.213 42.586,16.6 41.105,16.6 C37.779,16.6 36.093,14.344 36.81,10.971 C37.533,7.575 40.384,5.09 43.984,5.09 C45.17,5.09 46.154,5.387 46.637,5.684 L45.857,7.209 C45.431,6.959 44.739,6.686 43.645,6.686 C41.116,6.686 39.347,8.579 38.863,10.857 C38.32,13.41 39.627,14.982 41.814,14.982 C42.953,14.982 43.761,14.709 44.384,14.459 L44.407,15.961 L44.407,15.961 Z" id="Shape"></path>
                    <path d="M54.981,13.705 C54.777,14.662 54.625,15.598 54.578,16.35 L52.779,16.35 L52.915,14.959 L52.847,14.959 C52.047,15.824 50.699,16.6 49.126,16.6 C46.894,16.6 46.088,15.028 46.428,13.432 C46.994,10.765 49.674,9.307 53.93,9.329 L53.978,9.101 C54.166,8.212 54.27,6.548 52.01,6.571 C50.961,6.571 49.827,6.869 48.942,7.392 L48.772,6.047 C49.805,5.477 51.231,5.089 52.622,5.089 C55.993,5.089 56.325,7.392 55.859,9.579 L54.981,13.705 L54.981,13.705 Z M53.68,10.721 C51.502,10.674 48.936,11.063 48.481,13.203 C48.2,14.525 48.94,15.119 49.942,15.119 C51.401,15.119 52.529,14.207 53.046,13.272 C53.163,13.043 53.235,12.816 53.274,12.634 L53.68,10.721 L53.68,10.721 Z" id="Shape"></path>
                    <path d="M62.887,2.674 L62.324,5.319 L65.195,5.319 L64.87,6.846 L62,6.846 L60.736,12.794 C60.445,14.16 60.667,14.937 61.783,14.937 C62.33,14.937 62.659,14.891 62.974,14.8 L62.74,16.326 C62.325,16.463 61.68,16.599 60.906,16.599 C59.971,16.599 59.289,16.28 58.922,15.756 C58.506,15.14 58.486,14.159 58.762,12.862 L60.041,6.844 L58.332,6.844 L58.656,5.317 L60.365,5.317 L60.802,3.266 L62.887,2.674 L62.887,2.674 Z" id="Shape"></path>
                    <path d="M65.107,16.35 L67.451,5.319 L69.457,5.319 L67.111,16.35 L65.107,16.35 L65.107,16.35 Z M70.344,2.219 C70.198,2.903 69.604,3.449 68.807,3.449 C68.077,3.449 67.715,2.902 67.86,2.219 C68.006,1.535 68.629,0.965 69.38,0.965 C70.108,0.965 70.493,1.513 70.344,2.219 L70.344,2.219 Z" id="Shape"></path>
                    <path d="M81.609,10.743 C80.742,14.822 77.516,16.599 74.874,16.599 C71.912,16.599 70.053,14.411 70.795,10.923 C71.574,7.255 74.473,5.089 77.502,5.089 C80.67,5.09 82.322,7.393 81.609,10.743 L81.609,10.743 Z M72.859,10.856 C72.345,13.272 73.326,15.095 75.285,15.095 C77.197,15.095 79.015,13.294 79.544,10.81 C79.941,8.942 79.506,6.593 77.137,6.593 C74.791,6.594 73.301,8.783 72.859,10.856 L72.859,10.856 Z" id="Shape"></path>
                    <path d="M84.658,8.305 C84.906,7.142 85.078,6.23 85.203,5.319 L86.978,5.319 L86.705,7.142 L86.752,7.142 C87.516,6.116 89.01,5.09 90.832,5.09 C92.359,5.09 94.533,6.002 93.729,9.785 L92.333,16.349 L90.329,16.349 L91.681,9.99 C92.058,8.213 91.713,6.73 89.823,6.73 C88.524,6.73 87.301,7.666 86.699,8.783 C86.553,9.033 86.435,9.375 86.363,9.717 L84.953,16.35 L82.949,16.35 L84.658,8.305 L84.658,8.305 Z" id="Shape"></path>
                    <path d="M111.303,15.871 C110.52,16.235 108.961,16.6 107.093,16.6 C102.764,16.6 100.112,13.866 101.186,8.806 C102.213,3.973 106.159,0.737 110.92,0.737 C112.811,0.737 113.953,1.148 114.42,1.422 L113.574,3.04 C112.923,2.675 111.91,2.401 110.635,2.401 C107.035,2.401 104.155,4.704 103.297,8.737 C102.492,12.521 104.148,14.915 107.861,14.915 C109.09,14.915 110.375,14.663 111.255,14.276 L111.303,15.871 L111.303,15.871 Z" id="Shape"></path>
                    <path d="M115.602,11.199 C115.073,13.91 116.543,15.027 118.571,15.027 C120.007,15.027 120.948,14.777 121.745,14.458 L121.804,15.894 C121.031,16.213 119.718,16.6 117.964,16.6 C114.569,16.6 113.021,14.344 113.728,11.016 C114.435,7.688 116.949,5.09 120.16,5.09 C123.783,5.09 124.049,8.236 123.617,10.264 C123.529,10.674 123.443,10.971 123.349,11.2 L115.602,11.2 L115.602,11.199 Z M121.785,9.763 C122.074,8.509 121.949,6.527 119.693,6.527 C117.642,6.527 116.385,8.373 115.929,9.763 L121.785,9.763 L121.785,9.763 Z" id="Shape"></path>
                    <path d="M126.518,8.305 C126.764,7.142 126.936,6.23 127.061,5.319 L128.838,5.319 L128.565,7.142 L128.61,7.142 C129.375,6.116 130.87,5.09 132.692,5.09 C134.217,5.09 136.393,6.002 135.588,9.785 L134.193,16.349 L132.187,16.349 L133.539,9.99 C133.918,8.213 133.572,6.73 131.682,6.73 C130.383,6.73 129.159,7.666 128.557,8.783 C128.412,9.033 128.295,9.375 128.222,9.717 L126.813,16.35 L124.807,16.35 L126.518,8.305 L126.518,8.305 Z" id="Shape"></path>
                    <path d="M142.685,2.674 L142.123,5.319 L144.992,5.319 L144.668,6.846 L141.798,6.846 L140.533,12.794 C140.243,14.16 140.465,14.937 141.581,14.937 C142.128,14.937 142.457,14.891 142.772,14.8 L142.539,16.326 C142.123,16.463 141.478,16.599 140.704,16.599 C139.769,16.599 139.086,16.28 138.719,15.756 C138.303,15.14 138.284,14.159 138.561,12.862 L139.839,6.844 L138.13,6.844 L138.455,5.317 L140.164,5.317 L140.6,3.266 L142.685,2.674 L142.685,2.674 Z" id="Shape"></path>
                    <path d="M146.979,11.199 C146.45,13.91 147.92,15.027 149.948,15.027 C151.384,15.027 152.325,14.777 153.122,14.458 L153.181,15.894 C152.408,16.213 151.095,16.6 149.341,16.6 C145.946,16.6 144.398,14.344 145.105,11.016 C145.812,7.688 148.326,5.09 151.537,5.09 C155.16,5.09 155.426,8.236 154.994,10.264 C154.906,10.674 154.82,10.971 154.726,11.2 L146.979,11.2 L146.979,11.199 Z M153.162,9.763 C153.451,8.509 153.326,6.527 151.07,6.527 C149.019,6.527 147.762,8.373 147.306,9.763 L153.162,9.763 L153.162,9.763 Z" id="Shape"></path>
                    <path d="M157.797,8.76 C158.074,7.461 158.289,6.344 158.438,5.319 L160.192,5.319 L159.819,7.507 L159.887,7.507 C160.701,6.026 162.131,5.09 163.475,5.09 C163.68,5.09 163.836,5.113 164.012,5.136 L163.61,7.028 C163.415,6.983 163.21,6.983 162.938,6.983 C161.524,6.983 160.299,8.031 159.707,9.536 C159.603,9.808 159.508,10.151 159.44,10.47 L158.19,16.351 L156.184,16.351 L157.797,8.76 L157.797,8.76 Z" id="Shape"></path>
                </g>
                <g id="Group" transform="translate(6.000000, 0.000000)" stroke="#FFFFFF" stroke-width="1.25">
                    <path d="M21.177,0.718 C24.896,0.718 28.112,1.122 30.825,1.928 C33.538,2.734 34.45,5.229 33.561,9.413 C33.113,11.518 32.289,13.309 31.086,14.786 C29.883,16.263 28.195,17.165 26.02,17.494 C28.548,17.822 30.084,18.889 30.631,20.693 C31.177,22.498 31.144,24.453 30.533,26.558 C29.823,29.128 28.534,31.33 26.668,33.162 C24.802,34.994 21.449,35.91 16.609,35.91 L0.121,35.91 L1.49,29.471 C2.38,29.142 2.96,28.665 3.231,28.035 C3.501,27.407 3.721,26.696 3.89,25.902 L6.976,11.382 C7.005,11.245 7.033,11.115 7.059,10.992 C7.085,10.869 7.113,10.74 7.142,10.602 C7.266,9.891 7.297,9.228 7.237,8.613 C7.176,7.997 6.819,7.621 6.164,7.485 L7.602,0.717 L21.177,0.717 L21.177,0.718 Z M14.004,28.486 C15.59,28.486 16.787,28.288 17.596,27.892 C18.405,27.496 18.951,26.627 19.236,25.287 C19.265,25.15 19.297,24.999 19.332,24.836 C19.367,24.671 19.391,24.494 19.404,24.302 C19.589,22.662 19.375,21.705 18.763,21.431 C18.151,21.158 17.282,21.035 16.155,21.061 L15.888,21.061 L15.58,21.061 L14.004,28.486 L14.004,28.486 Z M16.959,14.582 C18.408,14.582 19.56,14.438 20.414,14.151 C21.268,13.864 21.811,13.173 22.043,12.08 C22.066,11.971 22.091,11.855 22.117,11.731 C22.143,11.608 22.154,11.492 22.15,11.382 C22.294,9.933 22.055,9.03 21.433,8.675 C20.811,8.32 19.776,8.142 18.327,8.142 L16.959,14.582 L16.959,14.582 Z" id="Shape" fill="#00529C"></path>
                    <path d="M34.576,18.15 C35.331,14.595 36.842,12.25 39.106,11.115 C41.37,9.98 44.362,9.413 48.081,9.413 C51.007,9.413 53.516,9.926 55.609,10.951 C57.701,11.976 58.439,13.939 57.823,16.837 L56.105,24.917 L42.857,24.917 L42.308,27.501 C42.11,28.43 42.139,29.1 42.393,29.511 C42.648,29.921 42.977,30.139 43.381,30.167 L43.443,30.167 L43.505,30.167 C43.866,30.139 44.238,29.968 44.619,29.654 C45,29.34 45.24,28.95 45.339,28.485 C45.344,28.458 45.35,28.43 45.356,28.402 C45.362,28.376 45.368,28.348 45.374,28.32 C45.353,28.293 45.345,28.266 45.351,28.239 C45.357,28.211 45.363,28.183 45.368,28.157 L45.778,26.229 L55.826,26.229 L54.388,32.996 C54.255,33.106 54.109,33.216 53.949,33.325 C53.789,33.434 53.615,33.544 53.428,33.652 C52.37,34.255 50.966,34.815 49.215,35.335 C47.464,35.855 45.666,36.21 43.82,36.401 C43.453,36.455 43.09,36.489 42.732,36.504 C42.374,36.517 42.017,36.525 41.661,36.525 C38.141,36.36 35.575,35.636 33.961,34.35 C32.347,33.066 31.866,30.892 32.517,27.829 L34.576,18.15 L34.576,18.15 Z M47.943,19.134 C48.187,17.986 48.251,17.104 48.136,16.489 C48.021,15.874 47.567,15.566 46.774,15.566 C45.981,15.566 45.396,15.874 45.019,16.489 C44.642,17.104 44.332,17.986 44.088,19.134 L47.943,19.134 L47.943,19.134 Z" id="Shape" fill="#00529C"></path>
                    <path d="M67.094,27.83 C66.938,28.568 67.024,29.129 67.352,29.512 C67.682,29.895 68.088,30.1 68.575,30.127 L68.699,30.127 L68.823,30.127 C69.266,30.1 69.697,29.941 70.114,29.655 C70.53,29.367 70.796,28.951 70.913,28.404 C70.931,28.322 70.942,28.234 70.948,28.138 C70.956,28.042 70.956,27.94 70.952,27.83 C70.969,26.983 70.497,26.374 69.536,26.004 C68.575,25.635 67.52,25.328 66.369,25.081 C66.182,25.055 65.992,25.02 65.796,24.979 C65.6,24.938 65.409,24.904 65.224,24.877 C64.59,24.768 63.995,24.645 63.436,24.507 C62.876,24.37 62.429,24.193 62.093,23.974 C60.777,23.346 59.903,22.443 59.469,21.267 C59.034,20.092 58.958,18.848 59.238,17.535 C59.244,17.507 59.251,17.473 59.259,17.431 C59.267,17.39 59.275,17.357 59.28,17.329 C59.61,15.908 60.278,14.561 61.288,13.288 C62.296,12.017 63.526,11.053 64.978,10.396 C65.797,10.014 66.749,9.72 67.831,9.515 C68.915,9.309 70.009,9.181 71.114,9.125 C71.305,9.125 71.491,9.12 71.672,9.105 C71.853,9.092 72.038,9.084 72.23,9.084 C72.886,9.084 73.523,9.112 74.14,9.167 C74.757,9.222 75.328,9.304 75.852,9.413 C76.272,9.495 76.831,9.632 77.529,9.823 C78.226,10.015 78.937,10.275 79.66,10.603 C80.285,10.876 80.89,11.211 81.476,11.608 C82.062,12.005 82.519,12.463 82.845,12.982 L81.538,19.135 L72.474,19.135 L72.822,17.495 C72.979,16.756 72.894,16.224 72.568,15.895 C72.241,15.567 71.847,15.39 71.388,15.362 L71.264,15.362 C70.799,15.362 70.348,15.492 69.91,15.752 C69.472,16.012 69.203,16.374 69.104,16.839 C68.923,17.686 69.071,18.281 69.545,18.622 C70.019,18.965 70.708,19.258 71.613,19.505 C71.799,19.531 71.975,19.566 72.145,19.607 C72.313,19.648 72.489,19.696 72.668,19.75 C73.088,19.833 73.527,19.915 73.988,19.997 C74.45,20.079 74.912,20.189 75.375,20.325 C76.749,20.681 77.98,21.289 79.068,22.151 C80.156,23.012 80.672,24.483 80.613,26.56 C80.603,26.861 80.58,27.162 80.544,27.463 C80.508,27.764 80.46,28.051 80.402,28.323 C79.773,31.277 78.179,33.342 75.619,34.517 C73.059,35.692 70.394,36.294 67.627,36.321 C66.615,36.321 65.619,36.254 64.637,36.117 C63.655,35.979 62.735,35.803 61.879,35.583 C61.563,35.529 61.225,35.439 60.869,35.316 C60.512,35.194 60.146,35.05 59.77,34.886 C59.422,34.722 59.07,34.544 58.714,34.352 C58.359,34.162 58.036,33.97 57.749,33.779 C57.489,33.588 57.263,33.396 57.071,33.205 C56.879,33.014 56.747,32.836 56.673,32.672 L58.111,25.904 C58.111,25.904 67.5030393,25.9040002 67.504,25.904 C67.5049607,25.9039998 67.094,27.83 67.094,27.83 Z" id="Shape" stroke-linecap="square" stroke-linejoin="bevel" fill="#00529C"></path>
                    <path d="M85.061,10.07 L86.332,10.07 L87.431,4.903 L97.989,2.318 L96.341,10.07 L99.581,10.07 L98.343,15.894 L95.103,15.894 L92.906,26.23 C92.668,27.352 92.703,28.219 93.01,28.834 C93.317,29.449 94.113,29.757 95.398,29.757 L94.161,35.581 C93.815,35.663 93.464,35.74 93.108,35.808 C92.751,35.875 92.392,35.923 92.031,35.952 C91.128,36.089 90.277,36.163 89.481,36.177 C88.685,36.191 88.055,36.198 87.59,36.198 C85.485,36.198 83.951,35.596 82.99,34.393 C82.028,33.19 81.769,31.549 82.211,29.471 L85.096,15.894 L83.825,15.894 L85.061,10.07 L85.061,10.07 Z" id="Shape" fill="#00529C"></path>
                    <path d="M115.902,10.139 L113.519,21.349 C113.407,21.878 113.374,22.329 113.423,22.703 C113.47,23.078 113.659,23.264 113.987,23.264 L113.114,27.366 L104.938,27.366 L105.764,23.483 C106.145,23.318 106.387,23.105 106.489,22.84 C106.591,22.576 106.673,22.253 106.736,21.869 C106.756,21.779 106.774,21.692 106.792,21.609 C106.81,21.527 106.827,21.441 106.847,21.349 L107.992,15.963 C108.09,15.507 108.122,15.179 108.092,14.979 C108.063,14.778 107.989,14.605 107.875,14.459 C107.863,14.423 107.844,14.387 107.816,14.349 C107.787,14.313 107.757,14.277 107.73,14.24 L108.601,10.138 L115.902,10.138 L115.902,10.139 Z M111.023,4.273 C111.775,3.826 112.55,3.566 113.349,3.494 C113.445,3.476 113.533,3.466 113.615,3.466 L113.875,3.466 C114.732,3.466 115.473,3.69 116.098,4.137 C116.723,4.583 116.934,5.29 116.729,6.256 C116.523,7.222 116.002,7.933 115.167,8.389 C114.332,8.845 113.432,9.072 112.465,9.072 C111.518,9.072 110.766,8.79 110.212,8.225 C109.656,7.66 109.459,7.004 109.619,6.256 C109.805,5.381 110.273,4.721 111.023,4.273 L111.023,4.273 Z" id="Shape" fill="#006838"></path>
                    <path d="M125.391,10.139 L125.252,10.795 C126.115,10.248 126.926,9.93 127.684,9.838 C128.442,9.747 129.149,9.701 129.805,9.701 C131.153,9.701 132.097,9.956 132.636,10.466 C133.174,10.977 133.506,11.533 133.635,12.135 C133.727,12.554 133.752,12.954 133.707,13.338 C133.662,13.721 133.616,14.022 133.57,14.24 L132.105,21.13 C131.968,21.769 131.925,22.27 131.976,22.634 C132.026,22.999 132.185,23.281 132.453,23.482 L131.627,27.365 L124.326,27.365 C124.492,26.071 124.654,25.01 124.812,24.179 C124.97,23.35 125.117,22.616 125.252,21.978 L126.398,16.592 C126.402,16.574 126.404,16.559 126.406,16.551 C126.408,16.541 126.412,16.528 126.416,16.51 C126.498,16.036 126.459,15.598 126.298,15.197 C126.137,14.796 125.828,14.595 125.373,14.595 C125.245,14.595 125.095,14.618 124.922,14.663 C124.748,14.709 124.568,14.778 124.385,14.869 L123.008,21.349 C122.918,21.769 122.903,22.143 122.961,22.471 C123.018,22.8 123.19,23.063 123.477,23.264 L122.604,27.366 L114.209,27.366 L115.082,23.264 C115.524,23.063 115.826,22.782 115.986,22.416 C116.146,22.051 116.267,21.668 116.353,21.267 C116.357,21.25 116.361,21.227 116.367,21.199 C116.374,21.171 116.379,21.149 116.383,21.13 L117.481,15.963 C117.575,15.525 117.588,15.157 117.526,14.856 C117.462,14.555 117.286,14.35 117.001,14.241 L117.872,10.139 L125.391,10.139 L125.391,10.139 Z" id="Shape" fill="#006838"></path>
                    <path d="M160.023,9.741 C160.173,9.031 160.101,8.504 159.804,8.162 C159.507,7.821 159.127,7.649 158.662,7.649 L158.6,7.649 L158.538,7.649 C158.046,7.649 157.545,7.882 157.037,8.346 C156.527,8.811 156.177,9.495 155.985,10.397 L152.55,26.558 C152.392,27.296 152.474,27.877 152.794,28.301 C153.114,28.725 153.517,28.95 154.003,28.977 L154.066,28.977 L154.127,28.977 C154.592,28.977 155.051,28.786 155.5,28.403 C155.951,28.021 156.266,27.406 156.447,26.558 L157.615,21.061 L168.566,21.061 L166.168,32.34 C165.174,33.544 163.482,34.46 161.094,35.089 C158.703,35.718 156.213,36.087 153.619,36.196 L153.023,36.196 L152.429,36.196 C148.71,36.196 145.741,35.395 143.525,33.797 C141.309,32.196 140.613,29.456 141.439,25.573 L144.525,11.052 C145.316,7.334 146.886,4.572 149.24,2.767 C151.592,0.962 154.791,0.06 158.838,0.06 C161.764,0.06 164.283,0.333 166.396,0.881 C168.508,1.428 170.467,2.343 172.272,3.628 L170.145,13.636 L159.194,13.636 L160.023,9.741 L160.023,9.741 Z" id="Shape" fill="#00529C"></path>
                    <path d="M185.813,0.718 L180.389,26.23 C180.186,27.187 180.07,27.993 180.039,28.649 C180.01,29.305 180.29,29.784 180.883,30.085 L179.645,35.909 L167.381,35.909 L168.619,30.085 C169.043,29.894 169.378,29.633 169.625,29.305 C169.873,28.976 170.064,28.622 170.201,28.239 C170.28,27.992 170.351,27.754 170.414,27.521 C170.477,27.289 170.529,27.077 170.57,26.886 L174.144,10.069 C174.312,9.276 174.406,8.579 174.425,7.977 C174.443,7.376 174.155,6.992 173.562,6.829 L174.861,0.718 L185.813,0.718 L185.813,0.718 Z" id="Shape" fill="#00529C"></path>
                    <path d="M191.014,10.787 C192.34,10.336 193.656,10.002 194.959,9.782 C195.809,9.646 196.643,9.55 197.461,9.495 C198.279,9.441 199.071,9.413 199.837,9.413 C200.165,9.413 200.506,9.42 200.858,9.433 C201.212,9.448 201.559,9.482 201.903,9.537 C203.983,9.782 205.788,10.494 207.315,11.669 C208.842,12.846 209.342,14.678 208.813,17.166 L206.616,27.502 C206.471,28.185 206.462,28.678 206.589,28.978 C206.717,29.28 206.88,29.539 207.08,29.758 C207.15,29.813 207.208,29.868 207.251,29.922 C207.294,29.978 207.337,30.032 207.38,30.087 L206.142,35.911 L195.478,35.911 L195.888,33.983 C195.794,34.038 195.702,34.085 195.611,34.126 C195.521,34.167 195.428,34.216 195.335,34.27 C195.176,34.38 195.002,34.49 194.814,34.599 C194.626,34.708 194.436,34.831 194.244,34.967 C193.588,35.351 192.814,35.705 191.925,36.034 C191.035,36.361 189.92,36.526 188.58,36.526 C186.639,36.526 185.021,35.965 183.728,34.844 C182.435,33.723 182.015,31.713 182.466,28.815 C182.851,27.009 183.681,25.547 184.958,24.425 C186.235,23.305 187.544,22.484 188.886,21.965 C189.215,21.828 189.547,21.713 189.882,21.616 C190.217,21.52 190.527,21.446 190.812,21.39 L198.388,19.134 C198.41,19.025 198.435,18.908 198.462,18.785 C198.487,18.662 198.512,18.546 198.535,18.436 C198.708,17.753 198.804,17.138 198.825,16.591 C198.845,16.045 198.528,15.703 197.874,15.566 C197.847,15.566 197.813,15.559 197.776,15.545 C197.737,15.531 197.704,15.525 197.676,15.525 L197.574,15.525 L197.47,15.525 C196.814,15.525 196.271,15.867 195.837,16.55 C195.405,17.234 195.079,18.095 194.858,19.134 L185.794,19.134 L187.171,12.654 C188.406,11.861 189.688,11.239 191.014,10.787 L191.014,10.787 Z M197.087,25.246 C196.26,25.41 195.576,25.601 195.037,25.82 C194.504,26.012 194.005,26.271 193.539,26.599 C193.072,26.927 192.787,27.337 192.682,27.829 C192.555,28.431 192.588,28.855 192.782,29.1 C192.975,29.346 193.247,29.483 193.596,29.511 C193.705,29.511 193.817,29.504 193.929,29.49 C194.041,29.476 194.172,29.442 194.321,29.387 C194.612,29.305 194.917,29.189 195.235,29.038 C195.554,28.888 195.83,28.717 196.062,28.525 C196.127,28.47 196.203,28.409 196.286,28.34 C196.369,28.272 196.431,28.21 196.469,28.156 L197.087,25.246 L197.087,25.246 Z" id="Shape" fill="#00529C"></path>
                    <path d="M218.85,27.83 C218.693,28.568 218.779,29.129 219.108,29.512 C219.436,29.895 219.844,30.1 220.331,30.127 L220.455,30.127 L220.579,30.127 C221.022,30.1 221.452,29.941 221.868,29.655 C222.285,29.367 222.552,28.951 222.667,28.404 C222.685,28.322 222.696,28.234 222.704,28.138 C222.71,28.042 222.712,27.94 222.708,27.83 C222.724,26.983 222.251,26.374 221.291,26.004 C220.331,25.635 219.274,25.328 218.124,25.081 C217.938,25.055 217.747,25.02 217.551,24.979 C217.355,24.938 217.163,24.904 216.978,24.877 C216.345,24.768 215.749,24.645 215.191,24.507 C214.632,24.37 214.185,24.193 213.848,23.974 C212.533,23.346 211.658,22.443 211.224,21.267 C210.79,20.092 210.712,18.848 210.992,17.535 C210.998,17.507 211.006,17.473 211.013,17.431 C211.023,17.39 211.03,17.357 211.035,17.329 C211.364,15.908 212.034,14.561 213.042,13.288 C214.052,12.017 215.281,11.053 216.733,10.396 C217.552,10.014 218.504,9.72 219.587,9.515 C220.669,9.309 221.763,9.181 222.868,9.125 C223.059,9.125 223.246,9.12 223.427,9.105 C223.608,9.092 223.794,9.084 223.986,9.084 C224.642,9.084 225.279,9.112 225.896,9.167 C226.513,9.222 227.084,9.304 227.607,9.413 C228.027,9.495 228.586,9.632 229.283,9.823 C229.981,10.015 230.691,10.275 231.415,10.603 C232.041,10.876 232.646,11.211 233.232,11.608 C233.818,12.005 234.273,12.463 234.601,12.982 L233.292,19.135 L224.228,19.135 L224.578,17.495 C224.734,16.756 224.649,16.224 224.322,15.895 C223.996,15.567 223.603,15.39 223.144,15.362 L223.02,15.362 C222.555,15.362 222.104,15.492 221.665,15.752 C221.227,16.012 220.96,16.374 220.86,16.839 C220.68,17.686 220.827,18.281 221.301,18.622 C221.776,18.965 222.465,19.258 223.369,19.505 C223.555,19.531 223.732,19.566 223.9,19.607 C224.07,19.648 224.244,19.696 224.423,19.75 C224.843,19.833 225.284,19.915 225.745,19.997 C226.206,20.079 226.668,20.189 227.132,20.325 C228.505,20.681 229.736,21.289 230.824,22.151 C231.913,23.012 232.427,24.483 232.368,26.56 C232.359,26.861 232.337,27.162 232.3,27.463 C232.263,27.764 232.216,28.051 232.157,28.323 C231.53,31.277 229.936,33.342 227.376,34.517 C224.816,35.692 222.151,36.294 219.384,36.321 C218.372,36.321 217.374,36.254 216.392,36.117 C215.41,35.979 214.49,35.803 213.634,35.583 C213.318,35.529 212.982,35.439 212.624,35.316 C212.268,35.194 211.901,35.05 211.526,34.886 C211.178,34.722 210.827,34.544 210.471,34.352 C210.115,34.162 209.793,33.97 209.506,33.779 C209.245,33.588 209.02,33.396 208.828,33.205 C208.635,33.014 208.502,32.836 208.428,32.672 L209.867,25.904 L219.26,25.904 L218.85,27.83 Z" id="Shape" stroke-linejoin="bevel" fill="#00529C"></path>
                    <path d="M243.377,27.83 C243.221,28.568 243.307,29.129 243.635,29.512 C243.963,29.895 244.371,30.1 244.858,30.127 L244.982,30.127 L245.106,30.127 C245.549,30.1 245.979,29.941 246.395,29.655 C246.813,29.367 247.079,28.951 247.194,28.404 C247.212,28.322 247.223,28.234 247.231,28.138 C247.237,28.042 247.239,27.94 247.235,27.83 C247.251,26.983 246.778,26.374 245.819,26.004 C244.858,25.635 243.801,25.328 242.651,25.081 C242.465,25.055 242.274,25.02 242.079,24.979 C241.882,24.938 241.69,24.904 241.505,24.877 C240.872,24.768 240.276,24.645 239.718,24.507 C239.159,24.37 238.712,24.193 238.374,23.974 C237.06,23.346 236.185,22.443 235.751,21.267 C235.317,20.092 235.239,18.848 235.519,17.535 C235.525,17.507 235.533,17.473 235.54,17.431 C235.55,17.39 235.558,17.357 235.563,17.329 C235.891,15.908 236.561,14.561 237.569,13.288 C238.579,12.017 239.809,11.053 241.26,10.396 C242.08,10.014 243.031,9.72 244.114,9.515 C245.196,9.309 246.29,9.181 247.395,9.125 C247.586,9.125 247.772,9.12 247.954,9.105 C248.134,9.092 248.321,9.084 248.513,9.084 C249.169,9.084 249.806,9.112 250.423,9.167 C251.04,9.222 251.611,9.304 252.134,9.413 C252.554,9.495 253.113,9.632 253.81,9.823 C254.509,10.015 255.218,10.275 255.943,10.603 C256.568,10.876 257.173,11.211 257.759,11.608 C258.345,12.005 258.8,12.463 259.128,12.982 L257.819,19.135 L248.755,19.135 L249.105,17.495 C249.261,16.756 249.177,16.224 248.849,15.895 C248.523,15.567 248.13,15.39 247.671,15.362 L247.547,15.362 C247.082,15.362 246.631,15.492 246.192,15.752 C245.754,16.012 245.487,16.374 245.387,16.839 C245.207,17.686 245.354,18.281 245.828,18.622 C246.303,18.965 246.992,19.258 247.896,19.505 C248.082,19.531 248.259,19.566 248.427,19.607 C248.597,19.648 248.771,19.696 248.95,19.75 C249.37,19.833 249.811,19.915 250.272,19.997 C250.733,20.079 251.196,20.189 251.659,20.325 C253.032,20.681 254.263,21.289 255.352,22.151 C256.44,23.012 256.954,24.483 256.895,26.56 C256.887,26.861 256.864,27.162 256.827,27.463 C256.79,27.764 256.743,28.051 256.684,28.323 C256.057,31.277 254.463,33.342 251.903,34.517 C249.343,35.692 246.678,36.294 243.911,36.321 C242.899,36.321 241.901,36.254 240.919,36.117 C239.937,35.979 239.017,35.803 238.161,35.583 C237.845,35.529 237.509,35.439 237.151,35.316 C236.796,35.194 236.428,35.05 236.053,34.886 C235.705,34.722 235.354,34.544 234.998,34.352 C234.641,34.162 234.32,33.97 234.033,33.779 C233.771,33.588 233.547,33.396 233.355,33.205 C233.162,33.014 233.029,32.836 232.955,32.672 L234.394,25.904 L243.787,25.904 L243.377,27.83 Z" id="Shape" stroke-linejoin="bevel" fill="#00529C"></path>
                </g>
                <g id="Group" transform="translate(265.000000, 5.000000)" fill="#000000">
                    <path d="M1.38,0.613 L0.01,0.613 L0.01,0.107 L3.345,0.107 L3.345,0.613 L1.968,0.613 L1.968,4.715 L1.38,4.715 L1.38,0.613 L1.38,0.613 Z" id="Shape"></path>
                    <path d="M7.644,2.691 C7.611,2.048 7.571,1.269 7.571,0.702 L7.557,0.702 C7.397,1.235 7.216,1.816 6.99,2.452 L6.194,4.687 L5.754,4.687 L5.019,2.493 C4.805,1.837 4.631,1.249 4.504,0.702 L4.49,0.702 C4.476,1.276 4.443,2.042 4.403,2.739 L4.283,4.715 L3.728,4.715 L4.042,0.108 L4.783,0.108 L5.552,2.337 C5.74,2.904 5.886,3.41 6.007,3.889 L6.02,3.889 C6.141,3.424 6.301,2.918 6.501,2.337 L7.303,0.108 L8.045,0.108 L8.325,4.715 L7.751,4.715 L7.644,2.691 L7.644,2.691 Z" id="Shape"></path>
                </g>
            </g>
            <g id="Logo" transform="translate(0.000000, 1.000000)" sketch:type="MSShapeGroup">
                <path d="M10.304,59.193 L11.195,61.861 C17.612,61.545 21.885,60.115 25.021,59.066 C28.951,57.752 31.591,56.87 34.757,59.425 L36.843,58.154 C33.197,53.407 27.554,55.039 21.054,56.922 C17.578,57.929 13.991,58.967 10.304,59.193 L10.304,59.193 Z M18.452,39.693 L10.418,58.044 C13.918,57.802 17.381,56.801 20.737,55.828 C27.025,54.01 32.992,52.281 37.096,56.687 L37.096,36.684 C34.279,34.031 31.879,35.047 27.954,36.706 C25.484,37.752 22.425,39.047 18.452,39.693 L18.452,39.693 Z" id="Shape" fill="#FFFFFF"></path>
                <path d="M54.277,56.923 C47.777,55.04 42.134,53.408 38.488,58.155 L40.574,59.426 C43.74,56.87 46.381,57.752 50.31,59.067 C53.446,60.116 57.719,61.546 64.136,61.862 L65.027,59.194 C61.34,58.967 57.753,57.929 54.277,56.923 L54.277,56.923 Z M47.376,36.706 C43.452,35.047 41.052,34.03 38.235,36.684 L38.235,56.688 C42.339,52.282 48.306,54.01 54.594,55.829 C57.95,56.802 61.413,57.803 64.913,58.045 L56.879,39.694 C52.906,39.047 49.847,37.752 47.376,36.706 L47.376,36.706 Z" id="Shape" fill="#FFFFFF"></path>
                <path d="M10.384,63.037 L8.861,58.709 L17.712,38.496 L18.102,38.492 C22.085,37.885 25.036,36.705 27.512,35.657 C31.646,33.907 34.634,32.644 38.068,36.037 L38.237,36.203 L38.237,58.641 L34.645,60.829 L34.332,60.555 C31.511,58.098 29.463,58.784 25.384,60.147 C22.113,61.243 17.634,62.741 10.814,63.02 L10.384,63.037 L10.384,63.037 Z M10.304,59.193 L11.195,61.861 C17.612,61.545 21.885,60.115 25.021,59.066 C28.951,57.752 31.591,56.87 34.757,59.425 L36.843,58.154 C33.197,53.407 27.554,55.039 21.054,56.922 C17.578,57.929 13.991,58.967 10.304,59.193 L10.304,59.193 Z M18.452,39.693 L10.418,58.044 C13.918,57.802 17.381,56.801 20.737,55.828 C27.025,54.01 32.992,52.281 37.096,56.687 L37.096,36.684 C34.279,34.031 31.879,35.047 27.954,36.706 C25.484,37.752 22.425,39.047 18.452,39.693 L18.452,39.693 Z" id="Shape" fill="#006838"></path>
                <path d="M64.519,63.02 C57.7,62.741 53.221,61.243 49.949,60.147 C45.87,58.784 43.822,58.098 41.001,60.555 L40.688,60.829 L37.096,58.641 L37.096,36.203 L37.265,36.037 C40.699,32.644 43.686,33.907 47.821,35.657 C50.297,36.705 53.247,37.885 57.231,38.492 L57.621,38.496 L66.472,58.709 L64.949,63.037 L64.519,63.02 L64.519,63.02 Z M54.277,56.923 C47.777,55.04 42.134,53.408 38.488,58.155 L40.574,59.426 C43.74,56.87 46.381,57.752 50.31,59.067 C53.446,60.116 57.719,61.546 64.136,61.862 L65.027,59.194 C61.34,58.967 57.753,57.929 54.277,56.923 L54.277,56.923 Z M47.376,36.706 C43.452,35.047 41.052,34.03 38.235,36.684 L38.235,56.688 C42.339,52.282 48.306,54.01 54.594,55.829 C57.95,56.802 61.413,57.803 64.913,58.045 L56.879,39.694 C52.906,39.047 49.847,37.752 47.376,36.706 L47.376,36.706 Z" id="Shape" fill="#006838"></path>
                <path d="M37.666,29.914 L42.256,24.566 C62.032,26.931 71.492,37.496 75.332,46.544 C68.017,38.649 55.974,30.757 37.666,30.757 C19.358,30.757 7.315,38.648 0,46.543 C3.84,37.495 13.299,26.931 33.076,24.565 L37.666,29.914 L37.666,29.914 Z" id="Shape" fill="#00529C"></path>
                <ellipse id="Oval" fill="#00529C" cx="37.885" cy="11.366" rx="7.885" ry="11.366"></ellipse>
            </g>
        </g>
    </g>
</svg>