<?xml version="1.0" encoding="UTF-8" standalone="no"?>
<svg width="27px" height="48px" viewBox="0 0 27 48" version="1.1" xmlns="http://www.w3.org/2000/svg" xmlns:xlink="http://www.w3.org/1999/xlink" xmlns:sketch="http://www.bohemiancoding.com/sketch/ns">
    <title>Slice 1</title>
    <description>Created with Sketch (http://www.bohemiancoding.com/sketch)</description>
    <defs></defs>
    <g id="Page-1" stroke="none" stroke-width="1" fill="none" fill-rule="evenodd" sketch:type="MSPage">
        <g id="Layer-1" sketch:type="MSLayerGroup" transform="translate(1.000000, 1.000000)">
            <g id="svg_1" sketch:type="MSShapeGroup">
                <path d="M7.99992806,29.0169832 C6.53366774,26.3803885 4.83507741,23.946762 3.26344253,21.3900148 C2.73880105,20.5364975 2.28603183,19.6348116 1.7819001,18.7490123 C0.773878558,16.9778278 -0.0434095989,14.9242413 0.00852421203,12.260405 C0.0592644222,9.65769298 0.80145659,7.5698897 1.87170396,5.86285513 C3.63194883,3.05521637 6.58042053,0.753257788 10.5365567,0.148307728 C13.771181,-0.346307287 16.8038704,0.489337422 18.9544882,1.76476959 C20.7118926,2.8070357 22.0728279,4.19926817 23.1073068,5.8400671 C24.1870578,7.5526224 24.9305878,9.57583816 24.992955,12.2148526 C25.0248804,13.56691 24.8065908,14.8189939 24.4990686,15.8575795 C24.1878476,16.9088325 23.6873215,17.7875841 23.2420009,18.7262258 C22.3727076,20.5584859 21.2828569,22.2373063 20.1891122,23.91712 C16.9313039,28.920572 13.8735417,34.0232673 12.5343825,41.0152305 C11.608741,36.4066439 9.97669616,32.5714847 7.99992806,29.0169832 Z" id="svg_2" stroke="#006838" stroke-width="2" fill="#FFFFFF"></path>
                <ellipse id="svg_4" fill="#006838" cx="12.4959893" cy="12.2378106" rx="4.37755566" ry="4.43981883"></ellipse>
            </g>
        </g>
    </g>
</svg>