<?xml version="1.0" encoding="utf-8"?>
<!-- Generator: Adobe Illustrator 16.0.0, SVG Export Plug-In . SVG Version: 6.00 Build 0)  -->
<!DOCTYPE svg PUBLIC "-//W3C//DTD SVG 1.1//EN" "http://www.w3.org/Graphics/SVG/1.1/DTD/svg11.dtd">
<svg version="1.1" id="Layer_1" xmlns="http://www.w3.org/2000/svg" xmlns:xlink="http://www.w3.org/1999/xlink" x="0px" y="0px"
	 width="100px" height="100px" viewBox="0 0 100 100" enable-background="new 0 0 100 100" xml:space="preserve">
<g display="none">
	<path display="inline" fill="#FFFFFF" d="M52.058,37.646c-0.676-0.075-1.363-0.113-2.058-0.113c-0.695,0-1.382,0.039-2.057,0.113
		c-9.272,1.027-16.508,8.911-16.508,18.451c0,4.959,1.932,9.623,5.438,13.129c3.507,3.506,8.168,5.438,13.127,5.438
		c4.958,0,9.62-1.932,13.128-5.438c0.277-0.279,0.547-0.565,0.805-0.857c2.995-3.393,4.633-7.706,4.633-12.271
		C68.565,46.557,61.329,38.673,52.058,37.646z M61.643,66.352c-2.662,3.019-6.478,4.997-10.748,5.241v-3.359h-1.789v3.359
		c-7.548-0.431-13.667-6.278-14.523-13.708h3.231v-1.788h-3.335c0-8.558,6.962-15.52,15.521-15.52s15.521,6.962,15.521,15.52
		C65.521,60.025,64.055,63.614,61.643,66.352z"/>
	<path display="inline" fill="#FFFFFF" d="M50,42.13v13.966l10.481,9.232c2.17-2.462,3.486-5.692,3.486-9.232
		C63.968,48.384,57.714,42.13,50,42.13z"/>
	<path display="inline" fill="#FFFFFF" d="M46.544,32.046c-0.225-0.486-0.352-1.027-0.352-1.597c0-2.099,1.708-3.807,3.807-3.807
		s3.808,1.708,3.808,3.807c0,0.57-0.127,1.111-0.353,1.597c0.37,0.373,0.616,0.874,0.661,1.43c0.626-0.848,0.995-1.895,0.995-3.027
		c0-2.818-2.293-5.111-5.111-5.111c-2.819,0-5.112,2.293-5.112,5.111c0,1.132,0.37,2.179,0.996,3.027
		C45.93,32.92,46.174,32.419,46.544,32.046z"/>
	<path display="inline" fill="#FFFFFF" d="M47.943,35.871v1.165c0.676-0.074,1.362-0.111,2.057-0.111
		c0.694,0,1.381,0.038,2.058,0.111v-1.165c0,0-0.002,0-0.003,0h-4.11C47.944,35.871,47.943,35.871,47.943,35.871z"/>
	<path display="inline" fill="#FFFFFF" d="M53.41,34.253c0.068-0.183,0.104-0.379,0.104-0.585c0-0.403-0.141-0.775-0.379-1.066
		c-0.309-0.382-0.784-0.628-1.313-0.628h-3.645c-0.529,0-1.004,0.246-1.315,0.628c-0.236,0.291-0.378,0.663-0.378,1.066
		c0,0.206,0.036,0.402,0.105,0.585c0.212,0.576,0.729,1.004,1.354,1.091c0.077,0.011,0.155,0.017,0.235,0.017h0.404h2.836h0.404
		c0.08,0,0.159-0.005,0.235-0.017C52.681,35.257,53.198,34.829,53.41,34.253z"/>
</g>
<g>
	<circle fill="#00539C" cx="50" cy="50" r="50"/>
	<path fill="#FFFFFF" d="M36.821,17.117c-1.68,0-3.042,1.362-3.042,3.042v26.358c0,1.681,1.362,3.042,3.042,3.042H63.18
		c1.679,0,3.04-1.36,3.04-3.042V20.159c0-1.679-1.361-3.042-3.04-3.042H36.821z M62.164,44.503c0,0.551-0.447,1-1,1H38.835
		c-0.553,0-1-0.449-1-1V22.172c0-0.552,0.447-1,1-1h22.329c0.553,0,1,0.448,1,1V44.503z M58.366,41.004
		c0.098,0.25,0.069,0.531-0.079,0.751c-0.152,0.222-0.402,0.354-0.669,0.354h-2.11c-0.331,0-0.632-0.205-0.752-0.517l-1.133-2.95
		c-0.121-0.312-0.421-0.518-0.755-0.518h-5.894c-0.339,0-0.642,0.213-0.758,0.531l-1.062,2.923
		c-0.115,0.319-0.418,0.531-0.758,0.531h-2.013c-0.266,0-0.515-0.13-0.667-0.352c-0.15-0.219-0.182-0.5-0.085-0.747l6.206-15.933
		c0.121-0.31,0.419-0.515,0.753-0.515h2.647c0.332,0,0.629,0.201,0.749,0.507L58.366,41.004z M51.127,35.168
		c0.263,0,0.512-0.129,0.661-0.345c0.151-0.218,0.187-0.494,0.095-0.742l-1.251-3.368c-0.117-0.317-0.421-0.527-0.758-0.526
		c-0.339,0.001-0.641,0.214-0.756,0.531l-1.226,3.367c-0.09,0.248-0.053,0.523,0.097,0.739c0.151,0.215,0.398,0.344,0.662,0.344
		H51.127z M19.79,50.37c-1.68,0-3.041,1.361-3.041,3.041v26.356c0,1.68,1.361,3.044,3.041,3.044h26.357
		c1.68,0,3.041-1.364,3.041-3.044V53.41c0-1.68-1.361-3.041-3.041-3.041H19.79z M45.133,77.752c0,0.554-0.448,1-1,1H21.805
		c-0.554,0-1.001-0.446-1.001-1V55.425c0-0.554,0.447-1.002,1.001-1.002h22.328c0.552,0,1,0.448,1,1.002V77.752z M25.542,58.531
		c0-0.446,0.364-0.812,0.812-0.812c8.904-0.023,10.995-0.379,12.623,2.391c1.182,2.007,0.432,4.843-1.947,5.92
		c3.357,0.977,4.011,4.168,2.8,6.634c-1.608,3.264-4.215,2.814-13.477,2.788c-0.449-0.004-0.812-0.366-0.812-0.816V58.531z
		 M29.934,60.667c-0.448,0.004-0.812,0.366-0.812,0.817v2.474c0,0.448,0.363,0.811,0.812,0.813c3.792,0.017,4.782,0.102,5.58-0.698
		c0.72-0.719,0.67-2.044,0.073-2.72C34.873,60.545,33.775,60.651,29.934,60.667z M29.934,67.72c-0.448,0-0.812,0.365-0.812,0.813
		v3.115c0,0.448,0.363,0.813,0.812,0.814c4.396,0.015,5.408,0.134,6.257-0.815c0.653-0.734,0.652-2.092,0.115-2.863
		C35.494,67.619,34.039,67.705,29.934,67.72z M53.853,50.37c-1.68,0-3.041,1.361-3.041,3.041v26.356c0,1.68,1.361,3.044,3.041,3.044
		H80.21c1.681,0,3.041-1.364,3.041-3.044V53.41c0-1.68-1.36-3.041-3.041-3.041H53.853z M79.195,77.752c0,0.554-0.446,1-0.999,1
		H55.867c-0.554,0-1.001-0.446-1.001-1V55.425c0-0.554,0.447-1.002,1.001-1.002h22.329c0.553,0,0.999,0.448,0.999,1.002V77.752z
		 M71.196,69.729c0.142-0.425,0.6-0.657,1.024-0.522l1.91,0.604c0.212,0.066,0.387,0.219,0.485,0.417
		c0.098,0.197,0.112,0.431,0.038,0.641c-1.169,3.295-3.551,4.95-7.161,4.95c-4.5,0-8.134-3.171-8.134-9.07
		c0-6.272,3.64-9.39,8.353-9.39c3.15,0,5.649,1.324,6.845,4.331c0.089,0.223,0.076,0.472-0.033,0.68
		c-0.11,0.211-0.307,0.367-0.538,0.421l-1.951,0.468c-0.395,0.094-0.799-0.116-0.95-0.493c-0.581-1.446-1.867-2.325-3.554-2.325
		c-3.305,0-4.457,2.708-4.457,6.038c0,3.367,1.015,6.26,4.386,6.26C69.424,72.737,70.597,71.517,71.196,69.729z"/>
</g>
</svg>
