<?xml version="1.0" encoding="UTF-8" standalone="no"?>
<svg width="100px" height="100px" viewBox="0 0 100 100" version="1.1" xmlns="http://www.w3.org/2000/svg" xmlns:xlink="http://www.w3.org/1999/xlink" xmlns:sketch="http://www.bohemiancoding.com/sketch/ns">
    <!-- Generator: Sketch 3.0.3 (7891) - http://www.bohemiancoding.com/sketch -->
    <title>enrichment-icon</title>
    <desc>Created with Sketch.</desc>
    <defs></defs>
    <g id="Page-1" stroke="none" stroke-width="1" fill="none" fill-rule="evenodd" sketch:type="MSPage">
        <g id="enrichment-icon" sketch:type="MSLayerGroup">
            <path d="M50,100 C77.6142375,100 100,77.6142375 100,50 C100,22.3857625 77.6142375,0 50,0 C22.3857625,0 0,22.3857625 0,50 C0,77.6142375 22.3857625,100 50,100 Z" id="Oval" fill="#F18D00" sketch:type="MSShapeGroup"></path>
            <g id="Group" transform="translate(22.000000, 17.000000)" fill="#FFFFFF" sketch:type="MSShapeGroup">
                <path d="M51.751,65.884 L4.251,65.884 C1.724,65.884 -0.322,63.834 -0.322,61.312 L-0.322,4.712 C-0.322,2.188 1.723,0.14 4.251,0.14 L51.751,0.14 C54.282,0.14 56.326,2.188 56.326,4.712 L56.326,61.311 C56.326,63.834 54.282,65.884 51.751,65.884 L51.751,65.884 Z M7.908,62.225 L48.096,62.225 C50.62,62.225 52.666,60.177 52.666,57.652 L52.666,8.372 C52.666,5.846 50.62,3.801 48.096,3.801 L7.908,3.801 C5.383,3.801 3.335,5.846 3.335,8.372 L3.335,57.652 C3.335,60.177 5.383,62.225 7.908,62.225 L7.908,62.225 Z" id="Shape"></path>
                <path d="M44.266,14.716 L9.737,14.716 C9.107,14.716 8.593,14.205 8.593,13.572 L8.593,11.972 C8.593,11.341 9.106,10.831 9.737,10.831 L44.265,10.831 C44.893,10.831 45.405,11.341 45.405,11.972 L45.405,13.572 C45.405,14.205 44.894,14.716 44.266,14.716 L44.266,14.716 Z" id="Shape"></path>
                <path d="M44.266,22.261 L9.737,22.261 C9.107,22.261 8.593,21.748 8.593,21.117 L8.593,19.515 C8.593,18.886 9.106,18.374 9.737,18.374 L44.265,18.374 C44.893,18.374 45.405,18.886 45.405,19.515 L45.405,21.117 C45.405,21.748 44.894,22.261 44.266,22.261 L44.266,22.261 Z" id="Shape"></path>
                <path d="M22.886,29.58 L9.737,29.58 C9.107,29.58 8.593,29.067 8.593,28.434 L8.593,26.835 C8.593,26.204 9.106,25.692 9.737,25.692 L22.886,25.692 C23.517,25.692 24.028,26.203 24.028,26.835 L24.028,28.434 C24.028,29.066 23.517,29.58 22.886,29.58 L22.886,29.58 Z" id="Shape"></path>
                <path d="M9.737,25.692 L22.886,25.692 C23.517,25.692 24.028,26.203 24.028,26.835 L24.028,28.434 C24.028,29.067 23.517,29.58 22.886,29.58 L9.737,29.58 L9.737,25.692 L9.737,25.692 Z" id="Shape"></path>
                <g transform="translate(26.000000, 40.000000)" id="Shape">
                    <path d="M3.915,0.558 L3.816,0.58 C3.631,0.634 3.45,0.822 3.411,1.01 L-0.176,16.854 C-0.22,17.035 -0.105,17.146 0.076,17.098 L2.21,16.518 C2.392,16.47 2.576,16.28 2.618,16.094 L3.522,12.084 C3.565,11.901 3.746,11.709 3.926,11.661 L7.561,10.673 C7.745,10.623 7.963,10.72 8.048,10.891 L9.66,14.147 C9.747,14.316 9.964,14.413 10.142,14.365 L11.994,13.861 C12.182,13.814 12.262,13.634 12.177,13.463 L5.714,0.417 C5.635,0.248 5.415,0.151 5.235,0.198 L5.204,0.206 C5.024,0.258 4.099,0.508 3.915,0.558 L3.915,0.558 Z M4.122,8.844 L4.978,5.002 C5.024,4.787 5.142,4.774 5.238,4.972 L6.765,8.087 C6.865,8.283 6.772,8.491 6.558,8.547 L4.418,9.129 C4.208,9.187 4.075,9.059 4.122,8.844 L4.122,8.844 Z"></path>
                    <path d="M19.377,5.275 L19.182,3.369 C19.161,3.181 18.996,3.065 18.816,3.118 L16.389,3.776 C16.206,3.828 16.041,3.714 16.018,3.529 L15.738,1.002 C15.722,0.817 15.55,0.703 15.369,0.752 L13.534,1.253 C13.353,1.301 13.222,1.493 13.246,1.683 L13.522,4.204 C13.543,4.393 13.415,4.588 13.23,4.635 L10.832,5.285 C10.646,5.336 10.518,5.529 10.534,5.717 L10.73,7.621 C10.751,7.809 10.912,7.92 11.096,7.871 L13.506,7.22 C13.69,7.167 13.854,7.282 13.872,7.471 L14.147,9.993 C14.165,10.181 14.33,10.295 14.511,10.244 L16.347,9.744 C16.529,9.696 16.663,9.502 16.64,9.315 L16.37,6.79 C16.352,6.602 16.482,6.409 16.665,6.358 L19.08,5.703 C19.263,5.653 19.397,5.459 19.377,5.275 L19.377,5.275 Z"></path>
                </g>
            </g>
        </g>
    </g>
</svg>