<?xml version="1.0" encoding="utf-8"?>
<!-- Generator: Adobe Illustrator 16.0.0, SVG Export Plug-In . SVG Version: 6.00 Build 0)  -->
<!DOCTYPE svg PUBLIC "-//W3C//DTD SVG 1.1//EN" "http://www.w3.org/Graphics/SVG/1.1/DTD/svg11.dtd">
<svg version="1.1" id="Layer_1" xmlns="http://www.w3.org/2000/svg" xmlns:xlink="http://www.w3.org/1999/xlink" x="0px" y="0px"
	 width="100px" height="100px" viewBox="0 0 100 100" enable-background="new 0 0 100 100" xml:space="preserve">
<circle fill="#00539C" cx="50" cy="50" r="50"/>
<path display="none" fill="#FFFFFF" d="M40.116,25.338c-1.26,0-2.281,1.021-2.281,2.281v19.769c0,1.26,1.021,2.281,2.281,2.281
	h19.769c1.259,0,2.28-1.021,2.28-2.281V27.619c0-1.259-1.021-2.281-2.28-2.281H40.116z M59.123,45.877c0,0.414-0.336,0.75-0.75,0.75
	H41.626c-0.415,0-0.75-0.337-0.75-0.75V29.129c0-0.415,0.336-0.75,0.75-0.75h16.747c0.414,0,0.75,0.336,0.75,0.75V45.877z
	 M56.274,43.253c0.074,0.187,0.052,0.398-0.06,0.564c-0.113,0.167-0.301,0.266-0.501,0.266h-1.583c-0.249,0-0.474-0.154-0.564-0.388
	l-0.85-2.213c-0.09-0.233-0.315-0.388-0.565-0.388h-4.42c-0.255,0-0.482,0.159-0.569,0.398l-0.797,2.192
	c-0.087,0.239-0.314,0.398-0.568,0.398h-1.51c-0.2,0-0.386-0.098-0.5-0.264c-0.113-0.164-0.137-0.375-0.064-0.561l4.654-11.95
	c0.09-0.233,0.314-0.386,0.564-0.386h1.986c0.248,0,0.471,0.15,0.562,0.38L56.274,43.253z M50.846,38.876
	c0.196,0,0.383-0.097,0.495-0.259c0.114-0.163,0.14-0.37,0.071-0.556l-0.938-2.526c-0.088-0.237-0.315-0.395-0.568-0.394
	c-0.254,0.001-0.48,0.16-0.567,0.398l-0.919,2.525c-0.068,0.186-0.04,0.392,0.073,0.554c0.113,0.162,0.298,0.258,0.496,0.258H50.846
	z M27.343,50.277c-1.26,0-2.281,1.021-2.281,2.281v19.768c0,1.26,1.021,2.282,2.281,2.282H47.11c1.26,0,2.281-1.022,2.281-2.282
	V52.558c0-1.26-1.021-2.281-2.281-2.281H27.343z M46.35,70.814c0,0.415-0.336,0.75-0.75,0.75H28.854
	c-0.415,0-0.751-0.335-0.751-0.75V54.068c0-0.415,0.336-0.751,0.751-0.751H45.6c0.415,0,0.75,0.336,0.75,0.751V70.814z
	 M31.656,56.398c0-0.335,0.273-0.609,0.609-0.609c6.678-0.018,8.247-0.284,9.468,1.793c0.886,1.505,0.324,3.632-1.46,4.439
	c2.518,0.732,3.008,3.127,2.1,4.976c-1.206,2.447-3.161,2.111-10.107,2.091c-0.336-0.002-0.609-0.274-0.609-0.611V56.398z
	 M34.95,58.001c-0.336,0.002-0.608,0.274-0.608,0.612v1.854c0,0.337,0.272,0.609,0.608,0.61c2.844,0.013,3.586,0.076,4.185-0.522
	c0.54-0.539,0.502-1.534,0.054-2.04C38.655,57.908,37.832,57.989,34.95,58.001z M34.95,63.29c-0.336,0-0.609,0.273-0.609,0.61v2.336
	c0,0.337,0.272,0.61,0.609,0.611c3.297,0.011,4.056,0.101,4.693-0.612c0.49-0.551,0.489-1.568,0.086-2.146
	C39.121,63.215,38.029,63.279,34.95,63.29z M52.89,50.277c-1.26,0-2.281,1.021-2.281,2.281v19.768c0,1.26,1.021,2.282,2.281,2.282
	h19.768c1.261,0,2.281-1.022,2.281-2.282V52.558c0-1.26-1.021-2.281-2.281-2.281H52.89z M71.896,70.814
	c0,0.415-0.335,0.75-0.749,0.75H54.4c-0.415,0-0.751-0.335-0.751-0.75V54.068c0-0.415,0.336-0.751,0.751-0.751h16.747
	c0.414,0,0.749,0.336,0.749,0.751V70.814z M65.897,64.797c0.106-0.319,0.449-0.493,0.769-0.392l1.432,0.452
	c0.159,0.051,0.291,0.164,0.364,0.313c0.074,0.148,0.085,0.323,0.028,0.48c-0.876,2.471-2.662,3.712-5.37,3.712
	c-3.375,0-6.101-2.378-6.101-6.803c0-4.704,2.729-7.042,6.265-7.042c2.363,0,4.237,0.994,5.134,3.249
	c0.065,0.166,0.057,0.353-0.025,0.51c-0.083,0.158-0.23,0.275-0.403,0.315l-1.463,0.351c-0.297,0.07-0.6-0.087-0.714-0.37
	c-0.435-1.085-1.4-1.743-2.665-1.743c-2.479,0-3.342,2.03-3.342,4.528c0,2.525,0.761,4.695,3.288,4.695
	C64.568,67.054,65.448,66.138,65.897,64.797z"/>
<g>
	<g>
		<path fill="#FFFFFF" d="M224.332-56.702c0-0.378-0.311-0.688-0.688-0.688h-27.997c-0.378,0-0.748,0.304-0.821,0.675l-7.08,35.92
			c-0.072,0.371-0.189,0.979-0.259,1.351l-0.608,3.218c-0.064,0.373-0.184,0.375-0.264,0.006l-0.756-3.071
			c-0.094-0.367-0.259-0.964-0.367-1.326l-4.396-14.654c-0.109-0.362-0.477-0.522-0.815-0.355l-6.649,3.268
			c-0.34,0.167-0.526,0.599-0.416,0.96l0.717,2.342c0.111,0.361,0.48,0.523,0.822,0.36l2.25-1.074
			c0.341-0.163,0.715-0.002,0.831,0.357l6.702,20.796c0.116,0.359,0.521,0.654,0.898,0.654h3.197c0.379,0,0.75-0.303,0.827-0.674
			l8.927-43.218c0.076-0.371,0.449-0.674,0.828-0.674h24.43c0.377,0,0.688-0.31,0.688-0.688V-56.702z"/>
	</g>
	<g>
		<path fill="#FFFFFF" d="M201.977-17.869c-0.416,0-0.754-0.339-0.754-0.754v-1.933c0-0.415,0.252-0.981,0.559-1.259l2.547-2.3
			c5.346-4.787,7.928-7.518,7.965-10.36c0-1.981-1.16-3.551-3.967-3.551c-2.094,0-4.562,1.576-4.562,1.576
			c-0.35,0.223-0.762,0.09-0.914-0.295l-1.053-2.639c-0.152-0.385,0.02-0.86,0.387-1.056c0,0,4.016-2.147,7.264-2.147
			c5.537,0,8.529,3.213,8.529,7.592c0,4.114-5.932,9.977-5.932,9.977c-0.295,0.292-0.797,0.747-1.115,1.013l-1.088,0.904
			c-0.318,0.266-0.24,0.485,0.174,0.488l7.691,0.062c0.416,0.003,0.754,0.345,0.754,0.76v3.168c0,0.415-0.338,0.754-0.754,0.754
			H201.977z"/>
	</g>
</g>
<g>
	<g>
		<g>
			<path fill="#FFFFFF" d="M73.751,82.884h-47.5c-2.527,0-4.573-2.05-4.573-4.572V21.712c0-2.524,2.045-4.572,4.573-4.572h47.5
				c2.531,0,4.575,2.048,4.575,4.572v56.599C78.326,80.834,76.282,82.884,73.751,82.884z M29.908,79.225h40.188
				c2.524,0,4.57-2.048,4.57-4.573v-49.28c0-2.526-2.046-4.571-4.57-4.571H29.908c-2.525,0-4.573,2.045-4.573,4.571v49.28
				C25.335,77.177,27.383,79.225,29.908,79.225z"/>
		</g>
		<path fill="#FFFFFF" d="M66.266,31.716H31.737c-0.63,0-1.144-0.511-1.144-1.144v-1.6c0-0.631,0.513-1.141,1.144-1.141h34.528
			c0.628,0,1.14,0.51,1.14,1.141v1.6C67.405,31.205,66.894,31.716,66.266,31.716z"/>
		<path fill="#FFFFFF" d="M66.266,39.261H31.737c-0.63,0-1.144-0.513-1.144-1.144v-1.602c0-0.629,0.513-1.141,1.144-1.141h34.528
			c0.628,0,1.14,0.512,1.14,1.141v1.602C67.405,38.748,66.894,39.261,66.266,39.261z"/>
		<path fill="#FFFFFF" d="M44.886,46.58H31.737c-0.63,0-1.144-0.513-1.144-1.146v-1.599c0-0.631,0.513-1.143,1.144-1.143h13.149
			c0.631,0,1.142,0.511,1.142,1.143v1.599C46.028,46.066,45.517,46.58,44.886,46.58z"/>
		<path fill="#FFFFFF" d="M31.737,42.692h13.149c0.631,0,1.142,0.511,1.142,1.143v1.599c0,0.633-0.511,1.146-1.142,1.146H31.737
			V42.692z"/>
		<g>
			<path fill="#FFFFFF" d="M51.915,57.558l-0.099,0.022c-0.185,0.054-0.366,0.242-0.405,0.43l-3.587,15.844
				c-0.044,0.181,0.071,0.292,0.252,0.244l2.134-0.58c0.182-0.048,0.366-0.238,0.408-0.424l0.904-4.01
				c0.043-0.183,0.224-0.375,0.404-0.423l3.635-0.988c0.184-0.05,0.402,0.047,0.487,0.218l1.612,3.256
				c0.087,0.169,0.304,0.266,0.482,0.218l1.852-0.504c0.188-0.047,0.268-0.227,0.183-0.398l-6.463-13.046
				c-0.079-0.169-0.299-0.266-0.479-0.219l-0.031,0.008C53.024,57.258,52.099,57.508,51.915,57.558z M52.122,65.844l0.856-3.842
				c0.046-0.215,0.164-0.228,0.26-0.03l1.527,3.115c0.1,0.196,0.007,0.404-0.207,0.46l-2.14,0.582
				C52.208,66.187,52.075,66.059,52.122,65.844z"/>
			<path fill="#FFFFFF" d="M67.377,62.275l-0.195-1.906c-0.021-0.188-0.186-0.304-0.366-0.251l-2.427,0.658
				c-0.183,0.052-0.348-0.062-0.371-0.247l-0.28-2.527c-0.016-0.185-0.188-0.299-0.369-0.25l-1.835,0.501
				c-0.181,0.048-0.312,0.24-0.288,0.43l0.276,2.521c0.021,0.189-0.107,0.384-0.292,0.431l-2.398,0.65
				c-0.186,0.051-0.314,0.244-0.298,0.432l0.196,1.904c0.021,0.188,0.182,0.299,0.366,0.25l2.41-0.651
				c0.184-0.053,0.348,0.062,0.366,0.251l0.275,2.522c0.018,0.188,0.183,0.302,0.364,0.251l1.836-0.5
				c0.182-0.048,0.316-0.242,0.293-0.429L64.37,63.79c-0.018-0.188,0.112-0.381,0.295-0.432l2.415-0.655
				C67.263,62.653,67.397,62.459,67.377,62.275z"/>
		</g>
	</g>
</g>
</svg>
