<?xml version="1.0" encoding="utf-8"?>
<!-- Generator: Adobe Illustrator 16.0.0, SVG Export Plug-In . SVG Version: 6.00 Build 0)  -->
<!DOCTYPE svg PUBLIC "-//W3C//DTD SVG 1.1//EN" "http://www.w3.org/Graphics/SVG/1.1/DTD/svg11.dtd">
<svg version="1.1" id="Layer_1" xmlns="http://www.w3.org/2000/svg" xmlns:xlink="http://www.w3.org/1999/xlink" x="0px" y="0px"
	 width="100px" height="100px" viewBox="0 0 100 100" enable-background="new 0 0 100 100" xml:space="preserve">
<g>
	<circle fill="#00539C" cx="50" cy="50" r="50"/>
	<g>
		<g>
			<path fill="#FFFFFF" d="M50.757,23.058v1.539v24.601v0.128l0.01,0.128c0.188,2.441,1.796,4.904,4.57,5.588
				c0.491,0.122,1.015,0.188,1.577,0.188c1.249,0,2.3-0.318,3.169-0.797c0.149-0.08,0.294-0.166,0.434-0.256
				c1.038,0.428,2.313,0.771,3.741,0.771c0.884,0,1.759-0.13,2.601-0.393c2.375-0.738,4.167-2.211,5.184-4.253
				c0.582-1.167,0.903-2.511,0.964-4.014c1.252-1.201,2.438-3.078,2.599-5.69c0.091-1.43-0.209-2.664-0.703-3.699
				c-0.135-0.286-0.283-0.56-0.442-0.816c0.023-0.045,0.046-0.094,0.066-0.14c0.757-1.529,1.132-3.434,0.412-5.501
				c-0.51-1.468-1.353-2.535-2.265-3.307c-0.425-0.362-0.867-0.66-1.296-0.903c-0.002-0.013-0.004-0.026-0.008-0.041
				c-0.222-1.603-0.963-3.358-2.699-4.695c-1.372-1.055-2.975-1.613-4.637-1.613c-0.25,0-0.493,0.012-0.727,0.035
				c-1.105-1.368-2.812-2.57-5.28-2.766c-0.3-0.023-0.596-0.036-0.877-0.036c-3.04,0-4.612,1.365-5.399,2.511
				c-0.539,0.787-0.857,1.704-0.955,2.73C50.772,22.586,50.757,22.818,50.757,23.058z M54.084,46.931
				c0.8-0.174,1.322,0.47,1.329,0.478c0.328,0.417,0.813,0.634,1.307,0.634c0.36,0,0.724-0.116,1.028-0.357
				c0.722-0.569,0.847-1.614,0.277-2.336c-0.871-1.108-2.346-1.858-3.941-1.766c0-4.307,0-10.237,0-14.619
				c1.218,0.423,2.542,0.427,3.689,0.427c0.919,0,1.663-0.745,1.663-1.664c0-0.918-0.744-1.664-1.663-1.664
				c-1.47,0-2.638-0.043-3.181-0.587c-0.265-0.266-0.42-0.691-0.509-1.153c0-0.729,0-1.182,0-1.265c0-0.646,0.074-2.613,3.065-2.613
				c0.193,0,0.397,0.008,0.616,0.024c0.859,0.069,1.537,0.342,2.07,0.706c-0.305,0.297-0.493,0.711-0.493,1.171
				c0,0.904,0.734,1.638,1.64,1.638c0.237,0,0.471-0.042,0.682-0.118c0.001,0.008,0.003,0.014,0.003,0.014s0.028-0.017,0.075-0.045
				c0.092-0.039,0.18-0.085,0.259-0.14c0.403-0.198,1.139-0.484,2.032-0.484c0.788,0,1.696,0.222,2.608,0.922
				c0.498,0.385,0.835,0.828,1.062,1.282c-0.963,0.043-1.884,0.288-2.71,0.742c-1.733,0.955-2.769,2.698-2.847,4.786
				c-0.036,0.919,0.682,1.691,1.599,1.725c0.022,0,0.043,0.001,0.062,0.001c0.891,0,1.63-0.705,1.662-1.602
				c0.036-0.918,0.424-1.607,1.127-1.995c0.802-0.44,1.883-0.441,2.969-0.035c0.839,0.443,1.781,1.208,2.229,2.497
				c0.269,0.773,0.236,1.501,0.057,2.146c-0.693-0.294-1.489-0.477-2.382-0.477c-0.921,0-1.664,0.745-1.664,1.664
				s0.743,1.664,1.664,1.664c0.537,0,0.962,0.131,1.297,0.309c0.688,0.603,1.631,1.761,1.521,3.55
				c-0.06,0.919-0.309,1.658-0.631,2.251c-0.865-1.271-2.126-2.425-3.635-3.242c-1.569-0.848-3.231-1.239-4.886-1.191
				c-0.465-2.915-2.853-5.004-5.922-5.004c-0.917,0-1.661,0.745-1.661,1.664s0.744,1.664,1.661,1.664
				c1.604,0,2.51,1.136,2.659,2.362c-0.758,0.301-1.504,0.695-2.219,1.193c-0.755,0.525-0.941,1.562-0.415,2.316
				c0.524,0.754,1.56,0.94,2.315,0.415c2.966-2.062,5.585-1.193,6.883-0.491c1.99,1.076,3.186,2.917,3.155,4.005
				c-0.006,0.147,0.011,0.288,0.042,0.424c-0.237,2.164-1.319,3.863-3.768,4.625c-0.554,0.173-1.094,0.244-1.609,0.244
				c-0.475,0-0.925-0.062-1.347-0.16c0.512-1.008,0.777-2.147,0.729-3.344c-0.037-0.919-0.813-1.633-1.731-1.594
				c-0.917,0.037-1.632,0.811-1.595,1.729c0.06,1.383-0.722,2.618-1.946,3.322c-0.396,0.193-0.875,0.327-1.453,0.327
				c-2.619,0-2.83-2.707-2.83-2.707S54.084,48.337,54.084,46.931z"/>
			<path fill="#FFFFFF" d="M49.206,22.358c-0.1-1.026-0.417-1.943-0.956-2.73c-0.786-1.146-2.359-2.511-5.399-2.511
				c-0.284,0-0.578,0.012-0.878,0.036c-2.468,0.195-4.173,1.398-5.28,2.766c-0.234-0.023-0.477-0.035-0.727-0.035
				c-1.661,0-3.265,0.558-4.635,1.613c-1.737,1.336-2.478,3.092-2.701,4.695c-0.001,0.014-0.004,0.027-0.005,0.041
				c-0.43,0.244-0.871,0.541-1.298,0.903c-0.911,0.771-1.752,1.838-2.263,3.307c-0.719,2.067-0.345,3.972,0.41,5.501
				c0.023,0.046,0.046,0.095,0.07,0.14c-0.162,0.256-0.311,0.53-0.446,0.816c-0.492,1.035-0.792,2.269-0.703,3.699
				c0.164,2.613,1.348,4.489,2.601,5.69c0.06,1.503,0.383,2.847,0.962,4.014c1.017,2.042,2.809,3.515,5.185,4.253
				c0.84,0.263,1.715,0.393,2.601,0.393c1.426,0,2.703-0.344,3.739-0.771c0.14,0.09,0.286,0.176,0.436,0.256
				c0.867,0.479,1.921,0.797,3.168,0.797c0.562,0,1.086-0.065,1.576-0.188c2.776-0.684,4.382-3.146,4.572-5.588l0.009-0.128v-0.128
				V24.597v-1.539C49.243,22.818,49.228,22.586,49.206,22.358z M45.917,49.198c0,0-0.21,2.707-2.831,2.707
				c-0.578,0-1.058-0.134-1.454-0.327c-1.224-0.704-2.004-1.939-1.948-3.322c0.038-0.918-0.676-1.693-1.594-1.729
				c-0.916-0.039-1.692,0.675-1.73,1.594c-0.049,1.197,0.217,2.336,0.729,3.344c-0.422,0.098-0.874,0.16-1.347,0.16
				c-0.516,0-1.058-0.071-1.611-0.244c-2.448-0.763-3.53-2.461-3.768-4.625c0.031-0.136,0.049-0.277,0.044-0.424
				c-0.031-1.088,1.166-2.929,3.154-4.005c1.298-0.702,3.917-1.571,6.883,0.491c0.754,0.526,1.792,0.34,2.315-0.415
				c0.525-0.754,0.338-1.791-0.415-2.316c-0.716-0.498-1.46-0.892-2.219-1.193c0.15-1.226,1.055-2.362,2.658-2.362
				c0.919,0,1.664-0.745,1.664-1.664s-0.745-1.664-1.664-1.664c-3.069,0-5.455,2.09-5.921,5.004
				c-1.656-0.048-3.316,0.343-4.884,1.191c-1.511,0.817-2.772,1.971-3.637,3.242c-0.322-0.593-0.57-1.332-0.628-2.251
				c-0.113-1.789,0.829-2.947,1.519-3.55c0.334-0.178,0.76-0.309,1.297-0.309c0.918,0,1.664-0.745,1.664-1.664
				s-0.745-1.664-1.664-1.664c-0.895,0-1.689,0.183-2.383,0.477c-0.18-0.645-0.213-1.373,0.058-2.146
				c0.447-1.289,1.391-2.054,2.228-2.497c1.085-0.406,2.169-0.406,2.968,0.035c0.704,0.388,1.094,1.077,1.128,1.995
				c0.033,0.897,0.771,1.602,1.661,1.602c0.021,0,0.041,0,0.062-0.001c0.918-0.034,1.635-0.806,1.602-1.725
				c-0.078-2.087-1.116-3.831-2.848-4.786c-0.826-0.454-1.748-0.699-2.71-0.742c0.226-0.454,0.562-0.897,1.062-1.282
				c0.911-0.7,1.82-0.922,2.607-0.922c0.895,0,1.63,0.286,2.032,0.484c0.082,0.054,0.169,0.101,0.26,0.14
				c0.047,0.028,0.074,0.045,0.074,0.045s0.001-0.006,0.004-0.014c0.211,0.077,0.444,0.118,0.683,0.118
				c0.905,0,1.638-0.734,1.638-1.638c0-0.459-0.189-0.874-0.493-1.171c0.534-0.364,1.21-0.637,2.071-0.706
				c0.218-0.017,0.422-0.024,0.616-0.024c2.99,0,3.065,1.967,3.065,2.613c0,0.083,0,0.537,0,1.265
				c-0.089,0.462-0.245,0.887-0.51,1.153c-0.543,0.544-1.71,0.587-3.179,0.587c-0.918,0-1.663,0.745-1.663,1.664
				c0,0.919,0.744,1.664,1.663,1.664c1.145,0,2.472-0.003,3.689-0.427c0,4.382,0,10.312,0,14.619
				c-1.596-0.092-3.069,0.658-3.942,1.766c-0.568,0.722-0.444,1.767,0.277,2.336c0.305,0.241,0.668,0.357,1.029,0.357
				c0.492,0,0.98-0.217,1.308-0.634c0.005-0.008,0.526-0.652,1.328-0.478C45.917,48.337,45.917,49.198,45.917,49.198z"/>
		</g>
		<g>
			<g>
				<g>
					<path fill="#FFFFFF" d="M57.092,75.72H42.91c-0.73,0-1.321-0.59-1.321-1.32c0-0.729,0.591-1.32,1.321-1.32h14.182
						c0.729,0,1.32,0.592,1.32,1.32C58.412,75.13,57.82,75.72,57.092,75.72z"/>
				</g>
				<g>
					<g>
						<path fill="#FFFFFF" d="M57.092,72.071H42.91c-0.73,0-1.321-0.592-1.321-1.32c0-0.732,0.591-1.322,1.321-1.322h14.182
							c0.729,0,1.32,0.59,1.32,1.322C58.412,71.479,57.82,72.071,57.092,72.071z"/>
					</g>
					<g>
						<path fill="#FFFFFF" d="M57.092,79.37H42.91c-0.73,0-1.321-0.59-1.321-1.322c0-0.729,0.591-1.32,1.321-1.32h14.182
							c0.729,0,1.32,0.592,1.32,1.32C58.412,78.78,57.82,79.37,57.092,79.37z"/>
					</g>
				</g>
			</g>
			<g>
				<path fill="#FFFFFF" d="M54.24,82.884h-8.479c-0.73,0-1.321-0.594-1.321-1.322s0.591-1.32,1.321-1.32h8.479
					c0.729,0,1.32,0.592,1.32,1.32S54.969,82.884,54.24,82.884z"/>
			</g>
		</g>
		<g>
			<g>
				<path fill="#FFFFFF" d="M43.056,68.468c-0.73,0-1.321-0.594-1.321-1.324c0-6.17-4.224-8.133-4.267-8.152
					c-0.667-0.297-0.965-1.078-0.667-1.743c0.297-0.668,1.079-0.966,1.745-0.669c0.239,0.107,5.832,2.697,5.832,10.564
					C44.377,67.874,43.785,68.468,43.056,68.468z"/>
			</g>
			<g>
				<path fill="#FFFFFF" d="M56.944,68.468c-0.731,0-1.321-0.594-1.321-1.324c0-7.867,5.591-10.457,5.831-10.564
					c0.665-0.297,1.447,0.001,1.744,0.669c0.297,0.664,0.003,1.44-0.659,1.741c-0.19,0.09-4.273,2.068-4.273,8.154
					C58.266,67.874,57.673,68.468,56.944,68.468z"/>
			</g>
		</g>
		<path fill="#FFFFFF" d="M53.924,57.306c-0.047-0.211-0.247-0.361-0.478-0.361c-0.571,0-1.026,0.492-1.385,1.507
			c-0.51,0.181-1.209,0.272-2.074,0.272c-0.808,0-1.469-0.084-1.968-0.254c-0.352-1.025-0.834-1.525-1.471-1.525
			c-0.238,0-0.439,0.158-0.48,0.375c-0.005,0.029-0.116,0.674,0.432,1.28c0.185,0.204,0.421,0.378,0.703,0.521
			c0.32,1.168,0.692,3.537,0.692,8.242c0,0.25,0.219,0.453,0.487,0.453c0.269,0,0.488-0.203,0.488-0.453
			c0-2.844-0.144-5.26-0.414-6.986c-0.05-0.32-0.105-0.619-0.164-0.894c0.489,0.096,1.058,0.147,1.695,0.147
			c0.677,0,1.276-0.053,1.784-0.16c-0.582,2.537-0.646,6.342-0.646,7.893c0,0.25,0.22,0.453,0.489,0.453
			c0.268,0,0.486-0.203,0.486-0.453c0-3.48,0.274-6.486,0.753-8.26c0.277-0.143,0.506-0.32,0.684-0.522
			C54.056,57.985,53.938,57.374,53.924,57.306z"/>
	</g>
</g>
</svg>
