<?xml version="1.0" encoding="UTF-8" standalone="no"?>
<svg width="100px" height="100px" viewBox="0 0 100 100" version="1.1" xmlns="http://www.w3.org/2000/svg" xmlns:xlink="http://www.w3.org/1999/xlink" xmlns:sketch="http://www.bohemiancoding.com/sketch/ns">
    <!-- Generator: Sketch 3.0.3 (7891) - http://www.bohemiancoding.com/sketch -->
    <title>gifted-icon</title>
    <desc>Created with Sketch.</desc>
    <defs></defs>
    <g id="Page-1" stroke="none" stroke-width="1" fill="none" fill-rule="evenodd" sketch:type="MSPage">
        <g id="gifted-icon" sketch:type="MSLayerGroup">
            <g id="Group" sketch:type="MSShapeGroup">
                <path d="M50,100 C77.6142375,100 100,77.6142375 100,50 C100,22.3857625 77.6142375,0 50,0 C22.3857625,0 0,22.3857625 0,50 C0,77.6142375 22.3857625,100 50,100 Z" id="Oval" fill="#93296F"></path>
                <g transform="translate(24.000000, 17.000000)" id="Shape" fill="#FFFFFF">
                    <g>
                        <path d="M26.757,6.058 L26.757,7.597 L26.757,32.198 L26.757,32.326 L26.767,32.454 C26.955,34.895 28.563,37.358 31.337,38.042 C31.828,38.164 32.352,38.23 32.914,38.23 C34.163,38.23 35.214,37.912 36.083,37.433 C36.232,37.353 36.377,37.267 36.517,37.177 C37.555,37.605 38.83,37.948 40.258,37.948 C41.142,37.948 42.017,37.818 42.859,37.555 C45.234,36.817 47.026,35.344 48.043,33.302 C48.625,32.135 48.946,30.791 49.007,29.288 C50.259,28.087 51.445,26.21 51.606,23.598 C51.697,22.168 51.397,20.934 50.903,19.899 C50.768,19.613 50.62,19.339 50.461,19.083 C50.484,19.038 50.507,18.989 50.527,18.943 C51.284,17.414 51.659,15.509 50.939,13.442 C50.429,11.974 49.586,10.907 48.674,10.135 C48.249,9.773 47.807,9.475 47.378,9.232 C47.376,9.219 47.374,9.206 47.37,9.191 C47.148,7.588 46.407,5.833 44.671,4.496 C43.299,3.441 41.696,2.883 40.034,2.883 C39.784,2.883 39.541,2.895 39.307,2.918 C38.202,1.55 36.495,0.348 34.027,0.152 C33.727,0.129 33.431,0.116 33.15,0.116 C30.11,0.116 28.538,1.481 27.751,2.627 C27.212,3.414 26.894,4.331 26.796,5.357 C26.772,5.586 26.757,5.818 26.757,6.058 L26.757,6.058 Z M30.084,29.931 C30.884,29.757 31.406,30.401 31.413,30.409 C31.741,30.826 32.226,31.043 32.72,31.043 C33.08,31.043 33.444,30.927 33.748,30.686 C34.47,30.117 34.595,29.072 34.025,28.35 C33.154,27.242 31.679,26.492 30.084,26.584 L30.084,11.965 C31.302,12.388 32.626,12.392 33.773,12.392 C34.692,12.392 35.436,11.647 35.436,10.728 C35.436,9.81 34.692,9.064 33.773,9.064 C32.303,9.064 31.135,9.021 30.592,8.477 C30.327,8.211 30.172,7.786 30.083,7.324 L30.083,6.059 C30.083,5.413 30.157,3.446 33.148,3.446 C33.341,3.446 33.545,3.454 33.764,3.47 C34.623,3.539 35.301,3.812 35.834,4.176 C35.529,4.473 35.341,4.887 35.341,5.347 C35.341,6.251 36.075,6.985 36.981,6.985 C37.218,6.985 37.452,6.943 37.663,6.867 C37.664,6.875 37.666,6.881 37.666,6.881 C37.666,6.881 37.694,6.864 37.741,6.836 C37.833,6.797 37.921,6.751 38,6.696 C38.403,6.498 39.139,6.212 40.032,6.212 C40.82,6.212 41.728,6.434 42.64,7.134 C43.138,7.519 43.475,7.962 43.702,8.416 C42.739,8.459 41.818,8.704 40.992,9.158 C39.259,10.113 38.223,11.856 38.145,13.944 C38.109,14.863 38.827,15.635 39.744,15.669 C39.766,15.669 39.787,15.67 39.806,15.67 C40.697,15.67 41.436,14.965 41.468,14.068 C41.504,13.15 41.892,12.461 42.595,12.073 C43.397,11.633 44.478,11.632 45.564,12.038 C46.403,12.481 47.345,13.246 47.793,14.535 C48.062,15.308 48.029,16.036 47.85,16.681 C47.157,16.387 46.361,16.204 45.468,16.204 C44.547,16.204 43.804,16.949 43.804,17.868 C43.804,18.787 44.547,19.532 45.468,19.532 C46.005,19.532 46.43,19.663 46.765,19.841 C47.453,20.444 48.396,21.602 48.286,23.391 C48.226,24.31 47.977,25.049 47.655,25.642 C46.79,24.371 45.529,23.217 44.02,22.4 C42.451,21.552 40.789,21.161 39.134,21.209 C38.669,18.294 36.281,16.205 33.212,16.205 C32.295,16.205 31.551,16.95 31.551,17.869 C31.551,18.788 32.295,19.533 33.212,19.533 C34.816,19.533 35.722,20.669 35.871,21.895 C35.113,22.196 34.367,22.59 33.652,23.088 C32.897,23.613 32.711,24.65 33.237,25.404 C33.761,26.158 34.797,26.344 35.552,25.819 C38.518,23.757 41.137,24.626 42.435,25.328 C44.425,26.404 45.621,28.245 45.59,29.333 C45.584,29.48 45.601,29.621 45.632,29.757 C45.395,31.921 44.313,33.62 41.864,34.382 C41.31,34.555 40.77,34.626 40.255,34.626 C39.78,34.626 39.33,34.564 38.908,34.466 C39.42,33.458 39.685,32.319 39.637,31.122 C39.6,30.203 38.824,29.489 37.906,29.528 C36.989,29.565 36.274,30.339 36.311,31.257 C36.371,32.64 35.589,33.875 34.365,34.579 C33.969,34.772 33.49,34.906 32.912,34.906 C30.293,34.906 30.082,32.199 30.082,32.199 C30.082,32.199 30.084,31.337 30.084,29.931 L30.084,29.931 Z"></path>
                        <path d="M25.206,5.358 C25.106,4.332 24.789,3.415 24.25,2.628 C23.464,1.482 21.891,0.117 18.851,0.117 C18.567,0.117 18.273,0.129 17.973,0.153 C15.505,0.348 13.8,1.551 12.693,2.919 C12.459,2.896 12.216,2.884 11.966,2.884 C10.305,2.884 8.701,3.442 7.331,4.497 C5.594,5.833 4.853,7.589 4.63,9.192 C4.629,9.206 4.626,9.219 4.625,9.233 C4.195,9.477 3.754,9.774 3.327,10.136 C2.416,10.907 1.575,11.974 1.064,13.443 C0.345,15.51 0.719,17.415 1.474,18.944 C1.497,18.99 1.52,19.039 1.544,19.084 C1.382,19.34 1.233,19.614 1.098,19.9 C0.606,20.935 0.306,22.169 0.395,23.599 C0.559,26.212 1.743,28.088 2.996,29.289 C3.056,30.792 3.379,32.136 3.958,33.303 C4.975,35.345 6.767,36.818 9.143,37.556 C9.983,37.819 10.858,37.949 11.744,37.949 C13.17,37.949 14.447,37.605 15.483,37.178 C15.623,37.268 15.769,37.354 15.919,37.434 C16.786,37.913 17.84,38.231 19.087,38.231 C19.649,38.231 20.173,38.166 20.663,38.043 C23.439,37.359 25.045,34.897 25.235,32.455 L25.244,32.327 L25.244,32.199 L25.244,7.597 L25.244,6.058 C25.243,5.818 25.228,5.586 25.206,5.358 L25.206,5.358 Z M21.917,32.198 C21.917,32.198 21.707,34.905 19.086,34.905 C18.508,34.905 18.028,34.771 17.632,34.578 C16.408,33.874 15.628,32.639 15.684,31.256 C15.722,30.338 15.008,29.563 14.09,29.527 C13.174,29.488 12.398,30.202 12.36,31.121 C12.311,32.318 12.577,33.457 13.089,34.465 C12.667,34.563 12.215,34.625 11.742,34.625 C11.226,34.625 10.684,34.554 10.131,34.381 C7.683,33.618 6.601,31.92 6.363,29.756 C6.394,29.62 6.412,29.479 6.407,29.332 C6.376,28.244 7.573,26.403 9.561,25.327 C10.859,24.625 13.478,23.756 16.444,25.818 C17.198,26.344 18.236,26.158 18.759,25.403 C19.284,24.649 19.097,23.612 18.344,23.087 C17.628,22.589 16.884,22.195 16.125,21.894 C16.275,20.668 17.18,19.532 18.783,19.532 C19.702,19.532 20.447,18.787 20.447,17.868 C20.447,16.949 19.702,16.204 18.783,16.204 C15.714,16.204 13.328,18.294 12.862,21.208 C11.206,21.16 9.546,21.551 7.978,22.399 C6.467,23.216 5.206,24.37 4.341,25.641 C4.019,25.048 3.771,24.309 3.713,23.39 C3.6,21.601 4.542,20.443 5.232,19.84 C5.566,19.662 5.992,19.531 6.529,19.531 C7.447,19.531 8.193,18.786 8.193,17.867 C8.193,16.948 7.448,16.203 6.529,16.203 C5.634,16.203 4.84,16.386 4.146,16.68 C3.966,16.035 3.933,15.307 4.204,14.534 C4.651,13.245 5.595,12.48 6.432,12.037 C7.517,11.631 8.601,11.631 9.4,12.072 C10.104,12.46 10.494,13.149 10.528,14.067 C10.561,14.964 11.299,15.669 12.189,15.669 C12.21,15.669 12.23,15.669 12.251,15.668 C13.169,15.634 13.886,14.862 13.853,13.943 C13.775,11.856 12.737,10.112 11.005,9.157 C10.179,8.703 9.257,8.458 8.295,8.415 C8.521,7.961 8.857,7.518 9.357,7.133 C10.268,6.433 11.177,6.211 11.964,6.211 C12.859,6.211 13.594,6.497 13.996,6.695 C14.078,6.749 14.165,6.796 14.256,6.835 C14.303,6.863 14.33,6.88 14.33,6.88 C14.33,6.88 14.331,6.874 14.334,6.866 C14.545,6.943 14.778,6.984 15.017,6.984 C15.922,6.984 16.655,6.25 16.655,5.346 C16.655,4.887 16.466,4.472 16.162,4.175 C16.696,3.811 17.372,3.538 18.233,3.469 C18.451,3.452 18.655,3.445 18.849,3.445 C21.839,3.445 21.914,5.412 21.914,6.058 L21.914,7.323 C21.825,7.785 21.669,8.21 21.404,8.476 C20.861,9.02 19.694,9.063 18.225,9.063 C17.307,9.063 16.562,9.808 16.562,10.727 C16.562,11.646 17.306,12.391 18.225,12.391 C19.37,12.391 20.697,12.388 21.914,11.964 L21.914,26.583 C20.318,26.491 18.845,27.241 17.972,28.349 C17.404,29.071 17.528,30.116 18.249,30.685 C18.554,30.926 18.917,31.042 19.278,31.042 C19.77,31.042 20.258,30.825 20.586,30.408 C20.591,30.4 21.112,29.756 21.914,29.93 C21.917,31.337 21.917,32.198 21.917,32.198 L21.917,32.198 Z"></path>
                    </g>
                    <g transform="translate(18.000000, 52.000000)">
                        <g>
                            <path d="M15.092,6.72 L0.91,6.72 C0.18,6.72 -0.411,6.13 -0.411,5.4 C-0.411,4.671 0.18,4.08 0.91,4.08 L15.092,4.08 C15.821,4.08 16.412,4.672 16.412,5.4 C16.412,6.13 15.82,6.72 15.092,6.72 L15.092,6.72 Z"></path>
                            <g>
                                <path d="M15.092,3.071 L0.91,3.071 C0.18,3.071 -0.411,2.479 -0.411,1.751 C-0.411,1.019 0.18,0.429 0.91,0.429 L15.092,0.429 C15.821,0.429 16.412,1.019 16.412,1.751 C16.412,2.479 15.82,3.071 15.092,3.071 L15.092,3.071 Z"></path>
                                <path d="M15.092,10.37 L0.91,10.37 C0.18,10.37 -0.411,9.78 -0.411,9.048 C-0.411,8.319 0.18,7.728 0.91,7.728 L15.092,7.728 C15.821,7.728 16.412,8.32 16.412,9.048 C16.412,9.78 15.82,10.37 15.092,10.37 L15.092,10.37 Z"></path>
                            </g>
                        </g>
                        <path d="M12.24,13.884 L3.761,13.884 C3.031,13.884 2.44,13.29 2.44,12.562 C2.44,11.834 3.031,11.242 3.761,11.242 L12.24,11.242 C12.969,11.242 13.56,11.834 13.56,12.562 C13.56,13.29 12.969,13.884 12.24,13.884 L12.24,13.884 Z"></path>
                    </g>
                    <g transform="translate(13.000000, 39.000000)">
                        <path d="M6.056,12.468 C5.326,12.468 4.735,11.874 4.735,11.144 C4.735,4.974 0.511,3.011 0.468,2.992 C-0.199,2.695 -0.497,1.914 -0.199,1.249 C0.098,0.581 0.88,0.283 1.546,0.58 C1.785,0.687 7.378,3.277 7.378,11.144 C7.377,11.874 6.785,12.468 6.056,12.468 L6.056,12.468 Z"></path>
                        <path d="M19.944,12.468 C19.213,12.468 18.623,11.874 18.623,11.144 C18.623,3.277 24.214,0.687 24.454,0.58 C25.119,0.283 25.901,0.581 26.198,1.249 C26.495,1.913 26.201,2.689 25.539,2.99 C25.349,3.08 21.266,5.058 21.266,11.144 C21.266,11.874 20.673,12.468 19.944,12.468 L19.944,12.468 Z"></path>
                    </g>
                    <path d="M29.924,40.306 C29.877,40.095 29.677,39.945 29.446,39.945 C28.875,39.945 28.42,40.437 28.061,41.452 C27.551,41.633 26.852,41.724 25.987,41.724 C25.179,41.724 24.518,41.64 24.019,41.47 C23.667,40.445 23.185,39.945 22.548,39.945 C22.31,39.945 22.109,40.103 22.068,40.32 C22.063,40.349 21.952,40.994 22.5,41.6 C22.685,41.804 22.921,41.978 23.203,42.121 C23.523,43.289 23.895,45.658 23.895,50.363 C23.895,50.613 24.114,50.816 24.382,50.816 C24.651,50.816 24.87,50.613 24.87,50.363 C24.87,47.519 24.726,45.103 24.456,43.377 C24.406,43.057 24.351,42.758 24.292,42.483 C24.781,42.579 25.35,42.63 25.987,42.63 C26.664,42.63 27.263,42.577 27.771,42.47 C27.189,45.007 27.125,48.812 27.125,50.363 C27.125,50.613 27.345,50.816 27.614,50.816 C27.882,50.816 28.1,50.613 28.1,50.363 C28.1,46.883 28.374,43.877 28.853,42.103 C29.13,41.96 29.359,41.783 29.537,41.581 C30.056,40.985 29.938,40.374 29.924,40.306 L29.924,40.306 Z"></path>
                </g>
            </g>
        </g>
    </g>
</svg>