<?xml version="1.0" encoding="UTF-8" standalone="no"?>
<svg width="100px" height="100px" viewBox="0 0 100 100" version="1.1" xmlns="http://www.w3.org/2000/svg" xmlns:xlink="http://www.w3.org/1999/xlink" xmlns:sketch="http://www.bohemiancoding.com/sketch/ns">
    <!-- Generator: Sketch 3.0.3 (7891) - http://www.bohemiancoding.com/sketch -->
    <title>other-icon</title>
    <desc>Created with Sketch.</desc>
    <defs></defs>
    <g id="Page-1" stroke="none" stroke-width="1" fill="none" fill-rule="evenodd" sketch:type="MSPage">
        <g id="other-icon" sketch:type="MSLayerGroup">
            <g id="Group" sketch:type="MSShapeGroup">
                <path d="M50,100 C77.6142375,100 100,77.6142375 100,50 C100,22.3857625 77.6142375,0 50,0 C22.3857625,0 0,22.3857625 0,50 C0,77.6142375 22.3857625,100 50,100 Z" id="Oval" fill="#00539C"></path>
                <g transform="translate(9.000000, 17.000000)" id="Shape" fill="#FFFFFF">
                    <g transform="translate(0.000000, 8.000000)">
                        <path d="M5.692,29.932 C5.935,30.065 6.191,30.186 6.458,30.29 C6.487,30.302 6.515,30.318 6.542,30.334 C7.675,30.898 10.002,31.511 11.429,33.18 C12.097,33.963 12.498,34.892 12.743,35.902 C12.865,37.237 12.972,38.57 13.014,40.121 C13.11,43.58 12.492,46.398 12.413,46.963 C12.299,47.78 12.074,48.835 12.253,49.479 C12.449,50.19 14.64,50.257 15.412,50.259 L15.412,50.259 L15.432,50.259 L15.453,50.259 L15.453,50.259 C16.225,50.257 18.416,50.19 18.612,49.479 C18.791,48.835 18.565,47.781 18.45,46.963 C18.371,46.399 17.755,43.58 17.85,40.121 C17.893,38.57 18,37.237 18.121,35.902 C18.366,34.892 18.765,33.964 19.435,33.18 C20.862,31.51 23.19,30.899 24.322,30.334 C24.35,30.318 24.378,30.302 24.406,30.29 C24.674,30.186 24.929,30.064 25.172,29.932 L5.692,29.932 L5.692,29.932 Z"></path>
                        <path d="M15.454,0.425 L15.454,0.425 L15.434,0.425 C15.427,0.425 15.42,0.425 15.413,0.424 L15.413,0.425 C6.699,0.573 -0.364,7.859 0.266,18.261 C0.475,21.713 1.12,24.361 2.237,26.361 L2.237,26.364 C2.266,26.414 2.294,26.467 2.323,26.515 C2.323,26.515 2.324,26.515 2.324,26.517 C2.518,26.853 3.338,28.232 4.749,29.312 L26.116,29.312 C27.526,28.232 28.346,26.853 28.541,26.517 C28.541,26.515 28.542,26.515 28.542,26.514 C28.572,26.466 28.6,26.413 28.628,26.364 L28.628,26.361 C29.745,24.361 30.389,21.713 30.598,18.261 C31.23,7.859 24.167,0.574 15.454,0.425 L15.454,0.425 Z M15.433,13.424 C13.018,13.424 11.061,11.466 11.061,9.051 C11.061,6.637 13.018,4.679 15.433,4.679 C17.848,4.679 19.805,6.637 19.805,9.051 C19.805,11.466 17.848,13.424 15.433,13.424 L15.433,13.424 Z"></path>
                    </g>
                    <path d="M38.013,6.219 C31.886,14.043 35.132,26.824 45.264,34.766 C55.398,42.71 68.584,42.806 74.713,34.987 C76.523,32.677 79.254,29.122 76.74,27.619 C75.508,26.877 74.571,27.64 72.649,28.613 C70.582,29.66 69.744,29.637 68.584,29.651 C63.893,29.699 63.391,27.309 63.354,26.668 C63.312,25.827 63.338,25.051 63.919,24.106 C64.513,23.138 66.537,21.939 68.304,21.978 C71.898,22.058 75.055,21.109 76.101,19.773 C78.537,16.671 72.473,10.364 67.468,6.443 C57.334,-1.503 44.147,-1.603 38.013,6.219 L38.013,6.219 Z M55.553,29.818 C55.698,29.832 55.842,29.846 55.968,29.857 C56.519,29.882 57.28,29.982 57.78,30.3 C58.233,30.597 58.749,31.177 59.019,31.714 C59.058,31.785 59.101,31.863 59.144,31.946 C59.407,32.425 59.733,33.018 59.706,33.567 C59.682,34.067 59.321,34.524 59.007,34.926 C58.907,35.052 58.813,35.169 58.741,35.273 C58.691,35.353 58.636,35.445 58.58,35.541 C58.316,35.978 57.993,36.517 57.534,36.752 C57.121,36.967 56.619,36.851 56.176,36.744 C55.973,36.697 55.785,36.655 55.637,36.648 C55.487,36.64 55.296,36.666 55.088,36.694 C54.635,36.752 54.12,36.822 53.735,36.572 C53.335,36.314 53.214,35.807 53.112,35.365 C53.068,35.163 53.018,34.958 52.954,34.835 C52.781,34.493 52.845,34.071 52.948,33.703 C52.994,33.541 53.041,33.388 53.047,33.24 C53.054,33.118 52.928,32.863 52.822,32.661 C52.672,32.354 52.511,32.036 52.525,31.723 C52.532,31.583 52.572,31.456 52.642,31.342 C52.758,31.165 53.37,30.25 54.017,29.918 C54.446,29.694 55.034,29.761 55.553,29.818 L55.553,29.818 Z M49.953,25.766 C50.04,25.826 50.125,25.883 50.203,25.931 C50.631,26.212 51.192,26.705 51.474,27.253 C51.531,27.36 51.555,27.476 51.548,27.603 C51.531,27.94 51.286,28.225 51.046,28.503 C50.915,28.651 50.707,28.902 50.7,29.003 C50.697,29.107 50.912,29.394 51.028,29.547 C51.254,29.862 51.492,30.185 51.475,30.531 C51.469,30.652 51.434,30.765 51.371,30.864 C51.087,31.303 50.524,31.255 50.077,31.217 C49.884,31.201 49.594,31.176 49.5,31.226 C49.42,31.268 49.27,31.532 49.179,31.691 C48.944,32.108 48.659,32.619 48.117,32.594 C47.577,32.567 47.063,32.217 46.649,31.934 C46.575,31.881 46.499,31.828 46.428,31.785 C46.157,31.608 45.492,31.136 45.163,30.496 C44.796,29.783 44.621,29.178 44.645,28.707 C44.677,28.071 44.977,27.333 45.247,26.92 C45.289,26.85 45.334,26.775 45.383,26.695 C45.675,26.228 46.038,25.644 46.505,25.402 C47.083,25.105 48.052,25.067 48.483,25.087 C49.015,25.11 49.536,25.473 49.953,25.766 L49.953,25.766 Z M45.526,19.091 C45.687,19.397 45.689,19.749 45.678,19.985 C45.666,20.15 45.65,20.32 45.626,20.49 C45.609,20.634 45.594,20.771 45.585,20.904 C45.582,21.05 45.599,21.226 45.615,21.418 C45.634,21.642 45.66,21.875 45.649,22.097 C45.633,22.375 45.57,22.594 45.458,22.774 C45.134,23.27 44.521,23.837 44.03,24.091 C43.601,24.313 43.141,24.082 42.734,23.883 C42.535,23.785 42.303,23.675 42.166,23.667 C42.041,23.664 41.742,23.81 41.525,23.923 C41.061,24.152 40.538,24.412 40.12,24.142 C39.659,23.844 39.283,23.173 38.944,22.511 C38.678,21.997 38.745,21.383 38.783,20.873 C38.791,20.769 38.8,20.665 38.803,20.575 C38.827,20.06 38.972,19.326 39.307,18.809 C39.605,18.351 40.174,18.462 40.634,18.548 C40.807,18.584 41.124,18.645 41.21,18.603 C41.297,18.56 41.396,18.406 41.485,18.266 C41.661,17.982 41.931,17.557 42.462,17.581 C42.609,17.592 42.832,17.543 43.045,17.495 C43.483,17.399 43.987,17.287 44.373,17.537 C44.836,17.836 45.204,18.458 45.526,19.091 L45.526,19.091 Z M64.357,13.191 C65.578,15.016 65.417,17.266 63.998,18.215 C62.581,19.166 60.439,18.455 59.219,16.631 C57.995,14.805 58.157,12.555 59.573,11.605 C60.994,10.654 63.134,11.367 64.357,13.191 L64.357,13.191 Z M45.898,10.626 C45.883,10.914 45.736,11.167 45.594,11.414 C45.493,11.588 45.381,11.786 45.373,11.914 C45.368,12.023 45.556,12.324 45.666,12.504 C45.874,12.828 46.084,13.17 46.068,13.509 C46.061,13.635 46.024,13.752 45.958,13.855 L45.849,14.026 C45.537,14.518 45.114,15.192 44.626,15.44 C44.139,15.694 43.677,15.231 43.227,14.785 C43.046,14.601 42.735,14.293 42.615,14.267 C42.516,14.262 42.274,14.412 42.099,14.523 C41.727,14.752 41.268,15.042 40.828,14.761 C40.426,14.499 40.256,14.043 40.102,13.64 C40.044,13.489 39.989,13.347 39.933,13.233 C39.872,13.122 39.73,12.969 39.594,12.82 C39.276,12.479 38.914,12.094 38.939,11.6 C38.968,10.969 39.43,10.253 39.707,9.825 C39.973,9.417 40.453,9.21 40.877,9.033 C41.007,8.976 41.135,8.922 41.244,8.867 C41.309,8.832 41.377,8.795 41.445,8.758 C41.857,8.539 42.367,8.262 42.92,8.291 C43.063,8.296 43.256,8.277 43.467,8.26 C43.967,8.214 44.533,8.159 44.923,8.41 C45.322,8.666 45.484,9.209 45.626,9.686 C45.689,9.892 45.748,10.089 45.808,10.209 C45.875,10.337 45.906,10.479 45.898,10.626 L45.898,10.626 Z M52.62,3.878 C52.72,4.028 52.821,4.184 52.916,4.245 C53.002,4.304 53.312,4.307 53.51,4.307 C53.977,4.312 54.556,4.317 54.795,4.783 C54.853,4.895 54.877,5.018 54.873,5.152 C54.852,5.476 54.635,5.78 54.424,6.075 C54.302,6.244 54.115,6.506 54.111,6.621 C54.104,6.765 54.15,6.926 54.199,7.098 C54.259,7.297 54.32,7.508 54.306,7.739 C54.298,7.912 54.245,8.075 54.152,8.221 C53.89,8.626 53.468,8.684 53.127,8.729 C52.954,8.75 52.792,8.771 52.674,8.833 C52.596,8.875 52.525,8.914 52.459,8.95 C52.157,9.117 51.87,9.277 51.337,9.253 C51.226,9.246 50.897,9.446 50.702,9.565 C50.244,9.843 49.722,10.158 49.287,9.878 C48.89,9.622 48.709,9.075 48.548,8.593 C48.484,8.395 48.424,8.21 48.36,8.093 C48.304,7.98 48.195,7.83 48.08,7.671 C47.777,7.256 47.44,6.786 47.464,6.295 C47.488,5.803 47.884,5.389 48.23,5.026 C48.373,4.877 48.509,4.731 48.582,4.624 C48.854,4.201 49.353,4.201 49.755,4.205 C49.949,4.205 50.169,4.205 50.274,4.151 C50.37,4.1 50.487,3.948 50.597,3.803 C50.818,3.507 51.122,3.103 51.637,3.127 C52.146,3.156 52.421,3.573 52.62,3.878 L52.62,3.878 Z"></path>
                    <g transform="translate(33.000000, 39.000000)">
                        <path d="M20.382,25.953 C20.261,26.057 20.25,26.241 20.354,26.36 L21.746,27.954 C21.85,28.073 22.034,28.087 22.152,27.983 L25.428,25.126 C25.546,25.021 25.561,24.837 25.454,24.718 L24.063,23.124 C23.959,23.005 23.776,22.99 23.656,23.096 L20.382,25.953 L20.382,25.953 Z"></path>
                        <path d="M0.438,-0.057 L0.831,1.416 C0.864,1.539 0.968,1.571 1.065,1.489 L2.038,0.638 C2.133,0.555 2.116,0.446 1.996,0.398 L0.59,-0.19 C0.474,-0.242 0.405,-0.181 0.438,-0.057 L0.438,-0.057 Z"></path>
                        <path d="M1.176,1.851 C1.081,1.933 1.023,2.102 1.048,2.229 L1.508,4.572 C1.532,4.696 1.653,4.813 1.78,4.83 L2.277,4.901 C2.402,4.922 2.507,4.834 2.505,4.706 L2.504,4.23 C2.505,4.104 2.607,4.016 2.733,4.032 L3.202,4.096 C3.328,4.115 3.431,4.026 3.431,3.897 L3.431,3.427 C3.431,3.297 3.533,3.21 3.659,3.226 L4.13,3.289 C4.255,3.308 4.358,3.219 4.357,3.089 L4.355,2.617 C4.355,2.49 4.457,2.401 4.584,2.417 L5.053,2.483 C5.179,2.501 5.28,2.411 5.281,2.282 L5.28,1.81 C5.281,1.68 5.183,1.545 5.062,1.501 L2.776,0.719 C2.654,0.68 2.479,0.713 2.384,0.797 L1.176,1.851 L1.176,1.851 Z"></path>
                        <path d="M7.465,11.593 L2.813,6.264 L2.417,5.808 L2.177,5.533 C2.094,5.438 2.129,5.36 2.257,5.358 L2.64,5.355 C2.765,5.354 2.884,5.251 2.904,5.126 L2.956,4.788 C2.974,4.663 3.093,4.557 3.219,4.556 L3.565,4.55 C3.691,4.549 3.811,4.446 3.828,4.32 L3.88,3.979 C3.899,3.854 4.017,3.75 4.145,3.75 L4.488,3.745 C4.614,3.742 4.735,3.641 4.754,3.513 L4.806,3.175 C4.825,3.049 4.943,2.946 5.07,2.945 L5.414,2.939 C5.54,2.935 5.66,2.833 5.677,2.706 L5.73,2.367 C5.748,2.243 5.832,2.216 5.916,2.313 L6.233,2.447 L11.277,8.23 L17.228,15.275 L22.827,21.688 L23.314,22.248 C23.399,22.346 23.389,22.489 23.292,22.573 L19.923,25.517 C19.827,25.598 19.681,25.589 19.597,25.495 L13.509,18.52 L7.465,11.593 L7.465,11.593 Z"></path>
                    </g>
                </g>
            </g>
        </g>
    </g>
</svg>