<?xml version="1.0" encoding="utf-8"?>
<!-- Generator: Adobe Illustrator 16.0.0, SVG Export Plug-In . SVG Version: 6.00 Build 0)  -->
<!DOCTYPE svg PUBLIC "-//W3C//DTD SVG 1.1//EN" "http://www.w3.org/Graphics/SVG/1.1/DTD/svg11.dtd">
<svg version="1.1" id="Layer_1" xmlns="http://www.w3.org/2000/svg" xmlns:xlink="http://www.w3.org/1999/xlink" x="0px" y="0px"
	 width="100px" height="100px" viewBox="0 0 100 100" enable-background="new 0 0 100 100" xml:space="preserve">
<path display="none" fill="#FFFFFF" d="M40.116,25.338c-1.26,0-2.281,1.021-2.281,2.281v19.769c0,1.26,1.021,2.281,2.281,2.281
	h19.769c1.259,0,2.28-1.021,2.28-2.281V27.619c0-1.259-1.021-2.281-2.28-2.281H40.116z M59.123,45.877c0,0.414-0.336,0.75-0.75,0.75
	H41.626c-0.415,0-0.75-0.337-0.75-0.75V29.129c0-0.415,0.336-0.75,0.75-0.75h16.747c0.414,0,0.75,0.336,0.75,0.75V45.877z
	 M56.274,43.253c0.074,0.187,0.052,0.398-0.06,0.564c-0.113,0.167-0.301,0.266-0.501,0.266h-1.583c-0.249,0-0.474-0.154-0.564-0.388
	l-0.85-2.213c-0.09-0.233-0.315-0.388-0.565-0.388h-4.42c-0.255,0-0.482,0.159-0.569,0.398l-0.797,2.192
	c-0.087,0.239-0.314,0.398-0.568,0.398h-1.51c-0.2,0-0.386-0.098-0.5-0.264c-0.113-0.164-0.137-0.375-0.064-0.561l4.654-11.95
	c0.09-0.233,0.314-0.386,0.564-0.386h1.986c0.248,0,0.471,0.15,0.562,0.38L56.274,43.253z M50.846,38.876
	c0.196,0,0.383-0.097,0.495-0.259c0.114-0.163,0.14-0.37,0.071-0.556l-0.938-2.526c-0.088-0.237-0.315-0.395-0.568-0.394
	c-0.254,0.001-0.48,0.16-0.567,0.398l-0.919,2.525c-0.068,0.186-0.04,0.392,0.073,0.554c0.113,0.162,0.298,0.258,0.496,0.258H50.846
	z M27.343,50.277c-1.26,0-2.281,1.021-2.281,2.281v19.768c0,1.26,1.021,2.282,2.281,2.282H47.11c1.26,0,2.281-1.022,2.281-2.282
	V52.558c0-1.26-1.021-2.281-2.281-2.281H27.343z M46.35,70.814c0,0.415-0.336,0.75-0.75,0.75H28.854
	c-0.415,0-0.751-0.335-0.751-0.75V54.068c0-0.415,0.336-0.751,0.751-0.751H45.6c0.415,0,0.75,0.336,0.75,0.751V70.814z
	 M31.656,56.398c0-0.335,0.273-0.609,0.609-0.609c6.678-0.018,8.247-0.284,9.468,1.793c0.886,1.505,0.324,3.632-1.46,4.439
	c2.518,0.732,3.008,3.127,2.1,4.976c-1.206,2.447-3.161,2.111-10.107,2.091c-0.336-0.002-0.609-0.274-0.609-0.611V56.398z
	 M34.95,58.001c-0.336,0.002-0.608,0.274-0.608,0.612v1.854c0,0.337,0.272,0.609,0.608,0.61c2.844,0.013,3.586,0.076,4.185-0.522
	c0.54-0.539,0.502-1.534,0.054-2.04C38.655,57.908,37.832,57.989,34.95,58.001z M34.95,63.29c-0.336,0-0.609,0.273-0.609,0.61v2.336
	c0,0.337,0.272,0.61,0.609,0.611c3.297,0.011,4.056,0.101,4.693-0.612c0.49-0.551,0.489-1.568,0.086-2.146
	C39.121,63.215,38.029,63.279,34.95,63.29z M52.89,50.277c-1.26,0-2.281,1.021-2.281,2.281v19.768c0,1.26,1.021,2.282,2.281,2.282
	h19.768c1.261,0,2.281-1.022,2.281-2.282V52.558c0-1.26-1.021-2.281-2.281-2.281H52.89z M71.896,70.814
	c0,0.415-0.335,0.75-0.749,0.75H54.4c-0.415,0-0.751-0.335-0.751-0.75V54.068c0-0.415,0.336-0.751,0.751-0.751h16.747
	c0.414,0,0.749,0.336,0.749,0.751V70.814z M65.897,64.797c0.106-0.319,0.449-0.493,0.769-0.392l1.432,0.452
	c0.159,0.051,0.291,0.164,0.364,0.313c0.074,0.148,0.085,0.323,0.028,0.48c-0.876,2.471-2.662,3.712-5.37,3.712
	c-3.375,0-6.101-2.378-6.101-6.803c0-4.704,2.729-7.042,6.265-7.042c2.363,0,4.237,0.994,5.134,3.249
	c0.065,0.166,0.057,0.353-0.025,0.51c-0.083,0.158-0.23,0.275-0.403,0.315l-1.463,0.351c-0.297,0.07-0.6-0.087-0.714-0.37
	c-0.435-1.085-1.4-1.743-2.665-1.743c-2.479,0-3.342,2.03-3.342,4.528c0,2.525,0.761,4.695,3.288,4.695
	C64.568,67.054,65.448,66.138,65.897,64.797z"/>
<g>
	<circle fill="#00539C" cx="50" cy="50" r="50"/>
	<g>
		<g>
			<path fill="#FFFFFF" d="M14.692,54.932c0.243,0.133,0.499,0.254,0.766,0.358c0.029,0.012,0.057,0.028,0.084,0.044
				c1.133,0.564,3.46,1.177,4.887,2.846c0.668,0.783,1.069,1.712,1.314,2.722c0.122,1.335,0.229,2.668,0.271,4.219
				c0.096,3.459-0.522,6.277-0.601,6.842c-0.114,0.817-0.339,1.872-0.16,2.516c0.196,0.711,2.387,0.778,3.159,0.78l0,0
				c0.006,0,0.014,0,0.02,0c0.007,0,0.013,0,0.021,0l0,0c0.772-0.002,2.963-0.069,3.159-0.78c0.179-0.644-0.047-1.698-0.162-2.516
				c-0.079-0.564-0.695-3.383-0.6-6.842c0.043-1.551,0.15-2.884,0.271-4.219c0.245-1.01,0.644-1.938,1.314-2.722
				c1.427-1.67,3.755-2.281,4.887-2.846c0.028-0.016,0.056-0.032,0.084-0.044c0.268-0.104,0.523-0.226,0.766-0.358H14.692z"/>
			<path fill="#FFFFFF" d="M24.454,25.425L24.454,25.425c-0.007,0-0.013,0-0.02,0c-0.007,0-0.014,0-0.021-0.001v0.001
				c-8.714,0.148-15.777,7.434-15.147,17.836c0.209,3.452,0.854,6.1,1.971,8.1c0,0,0,0.003,0,0.003
				c0.029,0.05,0.057,0.103,0.086,0.151c0,0,0.001,0,0.001,0.002c0.194,0.336,1.014,1.715,2.425,2.795h21.367
				c1.41-1.08,2.23-2.459,2.425-2.795c0-0.002,0.001-0.002,0.001-0.003c0.03-0.048,0.058-0.101,0.086-0.15v-0.003
				c1.117-2,1.761-4.648,1.97-8.1C40.23,32.859,33.167,25.574,24.454,25.425z M24.433,38.424c-2.415,0-4.372-1.958-4.372-4.373
				c0-2.414,1.957-4.372,4.372-4.372s4.372,1.958,4.372,4.372C28.805,36.466,26.848,38.424,24.433,38.424z"/>
		</g>
		<g>
			<path fill="#FFFFFF" d="M47.013,23.219c-6.127,7.824-2.881,20.605,7.251,28.547c10.134,7.944,23.32,8.04,29.449,0.221
				c1.81-2.31,4.541-5.865,2.027-7.368c-1.232-0.742-2.169,0.021-4.091,0.994c-2.067,1.047-2.905,1.024-4.065,1.038
				c-4.691,0.048-5.193-2.342-5.23-2.983c-0.042-0.841-0.016-1.617,0.565-2.562c0.594-0.968,2.618-2.167,4.385-2.128
				c3.594,0.08,6.751-0.869,7.797-2.205c2.436-3.102-3.628-9.409-8.633-13.33C66.334,15.497,53.147,15.397,47.013,23.219z
				 M64.553,46.818c0.145,0.014,0.289,0.028,0.415,0.039c0.551,0.025,1.312,0.125,1.812,0.443c0.453,0.297,0.969,0.877,1.239,1.414
				c0.039,0.071,0.082,0.149,0.125,0.232c0.263,0.479,0.589,1.072,0.562,1.621c-0.024,0.5-0.385,0.957-0.699,1.359
				c-0.1,0.126-0.194,0.243-0.266,0.347c-0.05,0.08-0.105,0.172-0.161,0.268c-0.264,0.437-0.587,0.976-1.046,1.211
				c-0.413,0.215-0.915,0.099-1.358-0.008c-0.203-0.047-0.391-0.089-0.539-0.096c-0.15-0.008-0.341,0.018-0.549,0.046
				c-0.453,0.058-0.968,0.128-1.353-0.122c-0.4-0.258-0.521-0.765-0.623-1.207c-0.044-0.202-0.094-0.407-0.158-0.53
				c-0.173-0.342-0.109-0.764-0.006-1.132c0.046-0.162,0.093-0.315,0.099-0.463c0.007-0.122-0.119-0.377-0.225-0.579
				c-0.15-0.307-0.311-0.625-0.297-0.938c0.007-0.14,0.047-0.267,0.117-0.381c0.116-0.177,0.728-1.092,1.375-1.424
				C63.446,46.694,64.034,46.761,64.553,46.818z M58.953,42.766c0.087,0.06,0.172,0.117,0.25,0.165
				c0.428,0.281,0.989,0.774,1.271,1.322c0.057,0.107,0.081,0.223,0.074,0.35c-0.017,0.337-0.262,0.622-0.502,0.9
				c-0.131,0.148-0.339,0.399-0.346,0.5c-0.003,0.104,0.212,0.391,0.328,0.544c0.226,0.315,0.464,0.638,0.447,0.984
				c-0.006,0.121-0.041,0.234-0.104,0.333c-0.284,0.439-0.847,0.391-1.294,0.353c-0.193-0.016-0.483-0.041-0.577,0.009
				c-0.08,0.042-0.23,0.306-0.321,0.465c-0.235,0.417-0.52,0.928-1.062,0.903c-0.54-0.027-1.054-0.377-1.468-0.66
				c-0.074-0.053-0.15-0.106-0.221-0.149c-0.271-0.177-0.936-0.649-1.265-1.289c-0.367-0.713-0.542-1.318-0.518-1.789
				c0.032-0.636,0.332-1.374,0.602-1.787c0.042-0.07,0.087-0.145,0.136-0.225c0.292-0.467,0.655-1.051,1.122-1.293
				c0.578-0.297,1.547-0.335,1.978-0.315C58.015,42.11,58.536,42.473,58.953,42.766z M54.526,36.091
				c0.161,0.306,0.163,0.658,0.152,0.894c-0.012,0.165-0.028,0.335-0.052,0.505c-0.017,0.144-0.032,0.281-0.041,0.414
				c-0.003,0.146,0.014,0.322,0.03,0.514c0.019,0.224,0.045,0.457,0.034,0.679c-0.016,0.278-0.079,0.497-0.191,0.677
				c-0.324,0.496-0.937,1.063-1.428,1.317c-0.429,0.222-0.889-0.009-1.296-0.208c-0.199-0.098-0.431-0.208-0.568-0.216
				c-0.125-0.003-0.424,0.143-0.641,0.256c-0.464,0.229-0.987,0.489-1.405,0.219c-0.461-0.298-0.837-0.969-1.176-1.631
				c-0.266-0.514-0.199-1.128-0.161-1.638c0.008-0.104,0.017-0.208,0.02-0.298c0.024-0.515,0.169-1.249,0.504-1.766
				c0.298-0.458,0.867-0.347,1.327-0.261c0.173,0.036,0.49,0.097,0.576,0.055c0.087-0.043,0.186-0.197,0.275-0.337
				c0.176-0.284,0.446-0.709,0.977-0.685c0.147,0.011,0.37-0.038,0.583-0.086c0.438-0.096,0.942-0.208,1.328,0.042
				C53.836,34.836,54.204,35.458,54.526,36.091z M73.357,30.191c1.221,1.825,1.06,4.075-0.359,5.024
				c-1.417,0.951-3.559,0.24-4.779-1.584c-1.224-1.826-1.062-4.076,0.354-5.026C69.994,27.654,72.134,28.367,73.357,30.191z
				 M54.898,27.626c-0.015,0.288-0.162,0.541-0.304,0.788c-0.101,0.174-0.213,0.372-0.221,0.5c-0.005,0.109,0.183,0.41,0.293,0.59
				c0.208,0.324,0.418,0.666,0.402,1.005c-0.007,0.126-0.044,0.243-0.11,0.346l-0.109,0.171c-0.312,0.492-0.735,1.166-1.223,1.414
				c-0.487,0.254-0.949-0.209-1.399-0.655c-0.181-0.184-0.492-0.492-0.612-0.518c-0.099-0.005-0.341,0.145-0.516,0.256
				c-0.372,0.229-0.831,0.519-1.271,0.238c-0.402-0.262-0.572-0.718-0.726-1.121c-0.058-0.151-0.113-0.293-0.169-0.407
				c-0.061-0.111-0.203-0.264-0.339-0.413c-0.318-0.341-0.68-0.726-0.655-1.22c0.029-0.631,0.491-1.347,0.768-1.775
				c0.266-0.408,0.746-0.615,1.17-0.792c0.13-0.057,0.258-0.111,0.367-0.166c0.065-0.035,0.133-0.072,0.201-0.109
				c0.412-0.219,0.922-0.496,1.475-0.467c0.143,0.005,0.336-0.014,0.547-0.031c0.5-0.046,1.066-0.101,1.456,0.15
				c0.399,0.256,0.561,0.799,0.703,1.276c0.063,0.206,0.122,0.403,0.182,0.523C54.875,27.337,54.906,27.479,54.898,27.626z
				 M61.62,20.878c0.1,0.15,0.201,0.306,0.296,0.367c0.086,0.059,0.396,0.062,0.594,0.062c0.467,0.005,1.046,0.01,1.285,0.476
				c0.058,0.112,0.082,0.235,0.078,0.369c-0.021,0.324-0.238,0.628-0.449,0.923c-0.122,0.169-0.309,0.431-0.313,0.546
				c-0.007,0.144,0.039,0.305,0.088,0.477c0.06,0.199,0.121,0.41,0.107,0.641c-0.008,0.173-0.061,0.336-0.154,0.482
				c-0.262,0.405-0.684,0.463-1.025,0.508c-0.173,0.021-0.335,0.042-0.453,0.104c-0.078,0.042-0.149,0.081-0.215,0.117
				c-0.302,0.167-0.589,0.327-1.122,0.303c-0.111-0.007-0.44,0.193-0.635,0.312c-0.458,0.278-0.98,0.593-1.415,0.313
				c-0.397-0.256-0.578-0.803-0.739-1.285c-0.064-0.198-0.124-0.383-0.188-0.5c-0.056-0.113-0.165-0.263-0.28-0.422
				c-0.303-0.415-0.64-0.885-0.616-1.376c0.024-0.492,0.42-0.906,0.766-1.269c0.143-0.149,0.279-0.295,0.352-0.402
				c0.272-0.423,0.771-0.423,1.173-0.419c0.194,0,0.414,0,0.519-0.054c0.096-0.051,0.213-0.203,0.323-0.348
				c0.221-0.296,0.525-0.7,1.04-0.676C61.146,20.156,61.421,20.573,61.62,20.878z"/>
		</g>
		<g>
			<path fill="#FFFFFF" d="M62.382,81.953c-0.121,0.104-0.132,0.288-0.028,0.407l1.392,1.594c0.104,0.119,0.288,0.133,0.406,0.029
				l3.276-2.857c0.118-0.105,0.133-0.289,0.026-0.408l-1.391-1.594c-0.104-0.119-0.287-0.134-0.407-0.028L62.382,81.953z"/>
			<path fill="#FFFFFF" d="M42.438,55.943l0.393,1.473c0.033,0.123,0.137,0.155,0.234,0.073l0.973-0.851
				c0.095-0.083,0.078-0.192-0.042-0.24l-1.406-0.588C42.474,55.758,42.405,55.819,42.438,55.943z"/>
			<path fill="#FFFFFF" d="M43.176,57.851c-0.095,0.082-0.153,0.251-0.128,0.378l0.46,2.343c0.024,0.124,0.145,0.241,0.272,0.258
				l0.497,0.071c0.125,0.021,0.23-0.067,0.228-0.195l-0.001-0.476c0.001-0.126,0.103-0.214,0.229-0.198l0.469,0.064
				c0.126,0.019,0.229-0.07,0.229-0.199l0-0.47c0-0.13,0.102-0.217,0.228-0.201l0.471,0.063c0.125,0.019,0.228-0.07,0.227-0.2
				l-0.002-0.472c0-0.127,0.102-0.216,0.229-0.2l0.469,0.066c0.126,0.018,0.227-0.072,0.228-0.201l-0.001-0.472
				c0.001-0.13-0.097-0.265-0.218-0.309l-2.286-0.782c-0.122-0.039-0.297-0.006-0.392,0.078L43.176,57.851z"/>
			<path fill="#FFFFFF" d="M49.465,67.593l-4.652-5.329l-0.396-0.456l-0.24-0.275c-0.083-0.095-0.048-0.173,0.08-0.175l0.383-0.003
				c0.125-0.001,0.244-0.104,0.264-0.229l0.052-0.338c0.018-0.125,0.137-0.231,0.263-0.232l0.346-0.006
				c0.126-0.001,0.246-0.104,0.263-0.23l0.052-0.341c0.019-0.125,0.137-0.229,0.265-0.229l0.343-0.005
				c0.126-0.003,0.247-0.104,0.266-0.232l0.052-0.338c0.019-0.126,0.137-0.229,0.264-0.23l0.344-0.006
				c0.126-0.004,0.246-0.106,0.263-0.233l0.053-0.339c0.018-0.124,0.102-0.151,0.186-0.054l0.317,0.134l5.044,5.783l5.951,7.045
				l5.599,6.413l0.487,0.56c0.085,0.098,0.075,0.241-0.022,0.325l-3.369,2.944c-0.096,0.081-0.242,0.072-0.326-0.022l-6.088-6.975
				L49.465,67.593z"/>
		</g>
	</g>
</g>
</svg>
