<?xml version="1.0" encoding="utf-8"?>
<!-- Generator: Adobe Illustrator 16.0.0, SVG Export Plug-In . SVG Version: 6.00 Build 0)  -->
<!DOCTYPE svg PUBLIC "-//W3C//DTD SVG 1.1//EN" "http://www.w3.org/Graphics/SVG/1.1/DTD/svg11.dtd">
<svg version="1.1" id="Layer_1" xmlns="http://www.w3.org/2000/svg" xmlns:xlink="http://www.w3.org/1999/xlink" x="0px" y="0px"
	 width="100px" height="100px" viewBox="0 0 100 100" enable-background="new 0 0 100 100" xml:space="preserve">
<path display="none" fill="#FFFFFF" d="M40.116,25.338c-1.26,0-2.281,1.021-2.281,2.281v19.769c0,1.26,1.021,2.281,2.281,2.281
	h19.769c1.259,0,2.28-1.021,2.28-2.281V27.619c0-1.259-1.021-2.281-2.28-2.281H40.116z M59.123,45.877c0,0.414-0.336,0.75-0.75,0.75
	H41.626c-0.415,0-0.75-0.337-0.75-0.75V29.129c0-0.415,0.336-0.75,0.75-0.75h16.747c0.414,0,0.75,0.336,0.75,0.75V45.877z
	 M56.274,43.253c0.074,0.187,0.052,0.398-0.06,0.564c-0.113,0.167-0.301,0.266-0.501,0.266h-1.583c-0.249,0-0.474-0.154-0.564-0.388
	l-0.85-2.213c-0.09-0.233-0.315-0.388-0.565-0.388h-4.42c-0.255,0-0.482,0.159-0.569,0.398l-0.797,2.192
	c-0.087,0.239-0.314,0.398-0.568,0.398h-1.51c-0.2,0-0.386-0.098-0.5-0.264c-0.113-0.164-0.137-0.375-0.064-0.561l4.654-11.95
	c0.09-0.233,0.314-0.386,0.564-0.386h1.986c0.248,0,0.471,0.15,0.562,0.38L56.274,43.253z M50.846,38.876
	c0.196,0,0.383-0.097,0.495-0.259c0.114-0.163,0.14-0.37,0.071-0.556l-0.938-2.526c-0.088-0.237-0.315-0.395-0.568-0.394
	c-0.254,0.001-0.48,0.16-0.567,0.398l-0.919,2.525c-0.068,0.186-0.04,0.392,0.073,0.554c0.113,0.162,0.298,0.258,0.496,0.258H50.846
	z M27.343,50.277c-1.26,0-2.281,1.021-2.281,2.281v19.768c0,1.26,1.021,2.282,2.281,2.282H47.11c1.26,0,2.281-1.022,2.281-2.282
	V52.558c0-1.26-1.021-2.281-2.281-2.281H27.343z M46.35,70.814c0,0.415-0.336,0.75-0.75,0.75H28.854
	c-0.415,0-0.751-0.335-0.751-0.75V54.068c0-0.415,0.336-0.751,0.751-0.751H45.6c0.415,0,0.75,0.336,0.75,0.751V70.814z
	 M31.656,56.398c0-0.335,0.273-0.609,0.609-0.609c6.678-0.018,8.247-0.284,9.468,1.793c0.886,1.505,0.324,3.632-1.46,4.439
	c2.518,0.732,3.008,3.127,2.1,4.976c-1.206,2.447-3.161,2.111-10.107,2.091c-0.336-0.002-0.609-0.274-0.609-0.611V56.398z
	 M34.95,58.001c-0.336,0.002-0.608,0.274-0.608,0.612v1.854c0,0.337,0.272,0.609,0.608,0.61c2.844,0.013,3.586,0.076,4.185-0.522
	c0.54-0.539,0.502-1.534,0.054-2.04C38.655,57.908,37.832,57.989,34.95,58.001z M34.95,63.29c-0.336,0-0.609,0.273-0.609,0.61v2.336
	c0,0.337,0.272,0.61,0.609,0.611c3.297,0.011,4.056,0.101,4.693-0.612c0.49-0.551,0.489-1.568,0.086-2.146
	C39.121,63.215,38.029,63.279,34.95,63.29z M52.89,50.277c-1.26,0-2.281,1.021-2.281,2.281v19.768c0,1.26,1.021,2.282,2.281,2.282
	h19.768c1.261,0,2.281-1.022,2.281-2.282V52.558c0-1.26-1.021-2.281-2.281-2.281H52.89z M71.896,70.814
	c0,0.415-0.335,0.75-0.749,0.75H54.4c-0.415,0-0.751-0.335-0.751-0.75V54.068c0-0.415,0.336-0.751,0.751-0.751h16.747
	c0.414,0,0.749,0.336,0.749,0.751V70.814z M65.897,64.797c0.106-0.319,0.449-0.493,0.769-0.392l1.432,0.452
	c0.159,0.051,0.291,0.164,0.364,0.313c0.074,0.148,0.085,0.323,0.028,0.48c-0.876,2.471-2.662,3.712-5.37,3.712
	c-3.375,0-6.101-2.378-6.101-6.803c0-4.704,2.729-7.042,6.265-7.042c2.363,0,4.237,0.994,5.134,3.249
	c0.065,0.166,0.057,0.353-0.025,0.51c-0.083,0.158-0.23,0.275-0.403,0.315l-1.463,0.351c-0.297,0.07-0.6-0.087-0.714-0.37
	c-0.435-1.085-1.4-1.743-2.665-1.743c-2.479,0-3.342,2.03-3.342,4.528c0,2.525,0.761,4.695,3.288,4.695
	C64.568,67.054,65.448,66.138,65.897,64.797z"/>
<g display="none">
	<g display="inline">
		<path fill="#FFFFFF" d="M75.51,25.938c0-0.378-0.31-0.688-0.688-0.688H46.826c-0.378,0-0.748,0.304-0.821,0.675l-7.081,35.92
			c-0.073,0.371-0.189,0.979-0.259,1.351l-0.608,3.218c-0.064,0.373-0.184,0.375-0.265,0.006l-0.756-3.071
			c-0.093-0.367-0.258-0.964-0.367-1.326l-4.396-14.654c-0.109-0.362-0.476-0.522-0.815-0.355l-6.649,3.268
			c-0.339,0.167-0.526,0.599-0.416,0.96l0.717,2.342c0.11,0.361,0.48,0.523,0.822,0.36l2.25-1.074
			c0.341-0.163,0.715-0.002,0.832,0.357l6.702,20.796c0.116,0.359,0.521,0.654,0.899,0.654h3.197c0.378,0,0.75-0.303,0.827-0.674
			l8.926-43.218c0.077-0.371,0.449-0.674,0.828-0.674h24.43c0.378,0,0.688-0.31,0.688-0.688V25.938z"/>
	</g>
	<g display="inline">
		<path fill="#FFFFFF" d="M53.154,64.771c-0.415,0-0.754-0.339-0.754-0.754v-1.933c0-0.415,0.252-0.981,0.56-1.259l2.546-2.3
			c5.346-4.787,7.928-7.518,7.965-10.36c0-1.981-1.16-3.551-3.967-3.551c-2.093,0-4.562,1.576-4.562,1.576
			c-0.35,0.223-0.762,0.09-0.915-0.295l-1.052-2.639c-0.153-0.385,0.02-0.86,0.386-1.056c0,0,4.016-2.147,7.265-2.147
			c5.537,0,8.529,3.213,8.529,7.592c0,4.114-5.932,9.977-5.932,9.977c-0.295,0.292-0.797,0.747-1.115,1.013L61.02,59.54
			c-0.318,0.266-0.24,0.485,0.175,0.488l7.691,0.062c0.415,0.003,0.754,0.345,0.754,0.76v3.168c0,0.415-0.339,0.754-0.754,0.754
			H53.154z"/>
	</g>
</g>
<path display="none" fill="#FFFFFF" d="M703.033-464.307l19.66,5.209l-11.509-13.643c3.122-4.568,4.928-9.69,4.928-15.121
	c0-18.807-20.963-34.046-46.812-34.046S622.5-506.668,622.5-487.861c0,18.785,20.952,34.025,46.801,34.025
	C682.565-453.835,694.513-457.865,703.033-464.307z"/>
<g>
	<g>
		<path fill="#FFFFFF" d="M230.592,125.477v-16.445c0-6.262-5.076-11.336-11.341-11.336h-2.806l0.44,0.278
			c0.35,0.23,0.511,0.731,0.35,1.124l-1.008,2.524l1.891,13.87l-3.374,3.055l-3.387-3.055l1.701-13.87l-1.014-2.524
			c-0.162-0.393,0-0.894,0.35-1.124l0.438-0.278h-3.267c-6.269,0-11.344,5.074-11.344,11.336v16.495
			c2.966-3.771,6.392-3.801,6.647-3.809l-0.002-13.239h2.316l-0.013,13.329c3.478,0.519,6.573,3.541,7.235,6.427
			c0.01,0.042-0.016,0.062,0,0c0.633-2.623,2.86-4.696,4.54-5.502c0.524-0.344,1.868-0.762,2.499-0.881v-13.373h2.305l0.002,13.224
			C228.157,121.86,230.592,125.477,230.592,125.477z"/>
		<path fill="#FFFFFF" d="M214.41,96.146c4.153,0,7.517-3.37,7.517-7.513c0-4.155-3.363-7.516-7.517-7.516
			c-4.149,0-7.516,3.36-7.516,7.516C206.895,92.775,210.261,96.146,214.41,96.146z"/>
	</g>
	<path fill="#FFFFFF" d="M196.881,146.834h37.198c0-2.984-3.767-7.521-7.36-9.671c2.237-1.24,3.764-3.602,3.764-6.341
		c0-4.025-3.259-7.284-7.286-7.284c-4.025,0-7.281,3.259-7.281,7.284c0,2.739,1.527,5.101,3.756,6.341
		c-1.892,1.135-3.832,2.939-5.241,4.826c-1.42-1.887-3.359-3.691-5.255-4.826c2.233-1.24,3.764-3.602,3.764-6.341
		c0-4.025-3.263-7.284-7.282-7.284c-4.029,0-7.285,3.259-7.285,7.284c0,2.739,1.526,5.101,3.761,6.341
		c-1.9,1.135-7.037,5.314-7.399,9.671H196.881z"/>
</g>
<path fill-rule="evenodd" clip-rule="evenodd" d="M368.031-15.534c0.398-4.252,4.205-6.378,8.453-6.378
	c4.246,0,8.053,2.126,8.451,6.378c0.208,2.22-0.29,7.472-1.394,9.459c-0.965,1.739-3.212,3.409-5.702,3.98
	c-1.205,0.177-1.507,0.177-2.713,0c-2.49-0.572-4.738-2.241-5.701-3.98C368.321-8.062,367.823-13.314,368.031-15.534L368.031-15.534
	z M397.274-15.627c0.392-4.232,4.134-6.35,8.307-6.35s7.913,2.117,8.306,6.35c0.205,2.21-0.285,7.438-1.369,9.418
	c-0.948,1.731-3.156,3.394-5.604,3.962c-1.186,0.177-1.48,0.177-2.666,0c-2.447-0.568-4.656-2.231-5.604-3.962
	C397.561-8.188,397.07-13.417,397.274-15.627L397.274-15.627z M394.42,13.424l-6.32-1.688l-3.281,47.788
	c-0.111,0.955-0.762,1.582-1.732,1.582h-13.205c-0.97,0-1.621-0.627-1.731-1.582l-1.69-24.617l-1.734-0.521
	c-2.086-0.627-2.775-2.006-2.907-4.446l-1.13-20.872c-0.35-6.446,9.148-9.407,17.82-8.869l27.088-0.224
	c7.914-0.095,15.825,2.958,15.508,8.891l-1.11,20.78c-0.128,2.406-0.808,3.801-2.856,4.426l-1.705,0.52l-1.66,24.508
	c-0.108,0.95-0.749,1.574-1.703,1.574h-12.975c-0.955,0-1.595-0.624-1.703-1.574L394.42,13.424z"/>
<g>
	<circle fill="#00539C" cx="50" cy="50" r="50"/>
	<g>
		<path fill-rule="evenodd" clip-rule="evenodd" fill="#FFFFFF" d="M83.662,50.637c0,9.591,0,19.18,0,28.77h-3.836v-2.169H20.175
			v2.169h-3.834c0-9.59,0-19.179,0-28.77h-1.18v-3.811H84.84v3.811H83.662z"/>
		<g>
			<path fill-rule="evenodd" clip-rule="evenodd" fill="#FFFFFF" d="M35.706,39.97c2.485-0.506,5.359-0.326,9.072,1.326
				l0.612,13.952c-3.168-1.256-6.157-2.129-8.446-1.485c-0.053-0.532-0.102-1.064-0.149-1.593c0.215,0.01,0.426,0.012,0.63,0.014
				c3.243,0.007,2.139-7.223-0.4-7.223h-0.86C36.026,43.384,35.878,41.735,35.706,39.97L35.706,39.97z M48.534,41.36
				c-1.063,0.302-2.159,0.302-3.223,0l0.622,13.954c0.575,0.231,1.405,0.231,1.979,0L48.534,41.36L48.534,41.36z M58.141,39.97
				c-0.174,1.766-0.323,3.414-0.461,4.991H56.82c-2.539,0-3.644,7.229-0.402,7.223c0.207-0.002,0.417-0.004,0.635-0.014
				c-0.051,0.528-0.1,1.061-0.15,1.593c-2.291-0.644-5.279,0.229-8.447,1.485l0.612-13.952
				C52.779,39.644,55.654,39.464,58.141,39.97z"/>
			<path fill-rule="evenodd" clip-rule="evenodd" fill="#FFFFFF" d="M59.208,39.874l-0.018,0.198
				c-0.184,1.875-0.343,3.752-0.517,5.628H56.82c-1.672,0-2.694,5.746-0.402,5.746c4.955-0.016,5.099-2.529,4.286-6.299
				C60.358,43.538,59.897,41.352,59.208,39.874L59.208,39.874z M34.635,39.874l0.02,0.198c0.182,1.875,0.341,3.752,0.515,5.628
				h1.854c1.67,0,2.696,5.746,0.402,5.746c-4.956-0.016-5.098-2.529-4.288-6.299C33.487,43.538,33.945,41.352,34.635,39.874
				L34.635,39.874z M52.311,34.294c2.46,1.06,5.039,2.351,6.447,4.724c-0.54-0.109-1.004-0.202-1.555-0.264
				c-2.726-0.313-5.34,0.243-7.89,1.29c-2.258,0.64-2.525,0.64-4.782,0c-2.551-1.046-5.164-1.603-7.892-1.29
				c-0.549,0.062-1.012,0.155-1.551,0.264c1.408-2.373,3.986-3.664,6.444-4.724c1.048,1.237,2.536,2.185,4.05,2.581
				c0.758,0.197,1.921,0.197,2.68,0C49.775,36.479,51.263,35.531,52.311,34.294L52.311,34.294z M41.061,25.716
				c-0.146,1.688,0.2,5.098,0.966,6.608c0.67,1.322,2.228,2.59,3.955,3.023c0.837,0.135,1.045,0.135,1.881,0
				c1.729-0.434,3.287-1.703,3.956-3.023c0.766-1.51,1.111-4.921,0.968-6.608c-0.276-3.23-2.917-4.845-5.864-4.845
				C43.977,20.872,41.335,22.486,41.061,25.716z"/>
		</g>
		<g>
			<path fill-rule="evenodd" clip-rule="evenodd" fill="#FFFFFF" d="M76.673,47.965l0.096-1.834c0.338-6.171-17.728-6.156-17.395,0
				l0.235,4.322c1.362,0,2.558-0.374,3.859-0.706C67.754,48.139,72.12,47.34,76.673,47.965L76.673,47.965z"/>
			<path fill-rule="evenodd" clip-rule="evenodd" fill="#FFFFFF" d="M63.7,33.397c0.205-2.2,2.175-3.3,4.373-3.3
				c2.199,0,4.169,1.101,4.377,3.3c0.105,1.149-0.151,3.866-0.725,4.895c-0.501,0.902-1.661,1.765-2.95,2.061
				c-0.623,0.092-0.78,0.092-1.404,0c-1.289-0.295-2.453-1.158-2.95-2.061C63.85,37.264,63.592,34.546,63.7,33.397L63.7,33.397z"/>
		</g>
	</g>
</g>
</svg>
