<?xml version="1.0" encoding="UTF-8" standalone="no"?>
<svg width="100px" height="100px" viewBox="0 0 100 100" version="1.1" xmlns="http://www.w3.org/2000/svg" xmlns:xlink="http://www.w3.org/1999/xlink" xmlns:sketch="http://www.bohemiancoding.com/sketch/ns">
    <!-- Generator: Sketch 3.0.3 (7891) - http://www.bohemiancoding.com/sketch -->
    <title>private-tutoring-icon</title>
    <desc>Created with Sketch.</desc>
    <defs></defs>
    <g id="Page-1" stroke="none" stroke-width="1" fill="none" fill-rule="evenodd" sketch:type="MSPage">
        <g id="private-tutoring-icon" sketch:type="MSLayerGroup">
            <g id="Group" sketch:type="MSShapeGroup">
                <circle id="Oval" fill="#00703E" cx="50" cy="50" r="50"></circle>
                <g transform="translate(13.000000, 17.000000)" fill="#FFFFFF">
                    <g transform="translate(36.230769, 0.000000)">
                        <path d="M1.82082201,8.92167249 C2.36018398,3.1437274 7.54332098,0.254754852 13.3263337,0.254754852 C19.1119775,0.254754852 24.2951145,3.14635374 24.8423696,8.92167249 C25.1186282,11.9393356 24.4450835,19.0750978 22.9348699,21.7776003 C21.6167219,24.1465578 18.5647225,26.4130881 15.1733196,27.1904843 C13.5341854,27.4321075 13.1211131,27.4321075 11.4793479,27.1904843 C8.08794502,26.4157144 5.02542143,24.1491841 3.71779753,21.7776003 C2.21547711,19.0777242 1.53667033,11.9393356 1.82082201,8.92167249 L1.82082201,8.92167249 L1.82082201,8.92167249 Z" id="Shape"></path>
                        <path d="M21.4630784,25.956543 C16.6212816,30.0415039 10.9718675,29.9853516 6.08124249,27.2026367 C4.11444561,30.2617187 2.32095579,31.5904227 -0.00518329327,32.6005859 C4.14520733,35.8632812 8.38446514,39.5717773 8.93915264,52.2973633 C15.8893247,54.9165761 21.2046086,55.2010192 25.1467592,54.5148281 C31.9122057,53.3371996 34.6333911,49.3007821 34.6333911,49.3007821 C35.5311645,41.5858864 31.8395433,31.3085937 31.8395433,31.3085937 C30.6887062,28.7662076 28.9708909,27.7602539 21.4630784,25.956543 Z" id="Path-3"></path>
                    </g>
                    <g transform="translate(-0.072527, 11.000000)" id="Shape">
                        <path d="M4.18686593,29.2990042 C8.03178901,28.5174915 12.4785934,28.7955 18.2235429,31.347 L19.1704615,52.8957458 C14.2687648,50.9558644 9.64402637,49.6075233 6.10236484,50.6021758 C6.02036044,49.7805064 5.94454505,48.9588369 5.87182418,48.1418008 C6.20448352,48.1572458 6.53095385,48.1603347 6.84659341,48.1634237 C11.8643341,48.1742352 10.156167,37.0075614 6.22769231,37.0075614 L4.89705495,37.0075614 C4.68198681,34.5718983 4.45299341,32.0250318 4.18686593,29.2990042 L4.18686593,29.2990042 L4.18686593,29.2990042 Z M24.0350242,31.4458475 C22.3902945,31.9122839 20.6945055,31.9122839 19.0482286,31.4458475 L20.0106198,52.9976822 C20.9002901,53.3544597 22.1845099,53.3544597 23.072633,52.9976822 L24.0350242,31.4458475 L24.0350242,31.4458475 Z M38.8994813,29.2990042 C38.6302593,32.0265763 38.3997187,34.5718983 38.1861978,37.0075614 L36.8555604,37.0075614 C32.9270857,37.0075614 31.2173714,48.1726907 36.2335648,48.1634237 C36.5538462,48.1603347 36.8787692,48.1572458 37.2160703,48.1418008 C37.1371604,48.9572924 37.0613451,49.7805064 36.9839824,50.6021758 C33.4392264,49.6075233 28.8160352,50.9558644 23.9143385,52.8957458 L24.8612571,31.347 C30.6031121,28.7955 35.0514637,28.5174915 38.8994813,29.2990042 L38.8994813,29.2990042 Z"></path>
                        <path d="M40.5504,29.1507331 L40.5225495,29.4565424 C40.2378549,32.352464 39.9918418,35.2514746 39.7226198,38.1489407 L36.8555604,38.1489407 C34.2685538,38.1489407 32.6872615,47.023589 36.2335648,47.023589 C43.9002022,46.9988771 44.1230066,43.1175699 42.8650901,37.2948369 C42.3297407,34.80975 41.6164571,31.4334915 40.5504,29.1507331 L40.5504,29.1507331 L40.5504,29.1507331 Z M2.52975824,29.1507331 L2.5607033,29.4565424 C2.8423033,32.352464 3.08831648,35.2514746 3.35753846,38.1489407 L6.22614505,38.1489407 C8.81005714,38.1489407 10.3975385,47.023589 6.84814066,47.023589 C-0.820043956,46.9988771 -1.03975385,43.1175699 0.213520879,37.2948369 C0.753512088,34.80975 1.46215385,31.4334915 2.52975824,29.1507331 L2.52975824,29.1507331 L2.52975824,29.1507331 Z M29.8789978,20.5324703 C33.6852396,22.1696314 37.6756044,24.1635699 39.8541363,27.8286483 C39.0186198,27.6602987 38.3006945,27.516661 37.4481582,27.4209025 C33.2303473,26.9374767 29.1858286,27.796214 25.2403341,29.4132966 C21.7466374,30.4017712 21.3335209,30.4017712 17.8413714,29.4132966 C13.8943297,27.7977585 9.85135824,26.9374767 5.63045275,27.4209025 C4.78101099,27.516661 4.06463297,27.6602987 3.23066374,27.8286483 C5.4091956,24.1635699 9.39801319,22.1696314 13.2011604,20.5324703 C14.8226813,22.4430064 17.1249934,23.9071843 19.4675341,24.518803 C20.6403516,24.8230678 22.4398066,24.8230678 23.6141714,24.518803 C25.9551648,23.9071843 28.2574769,22.4430064 29.8789978,20.5324703 L29.8789978,20.5324703 L29.8789978,20.5324703 Z M12.4724044,7.28382203 C12.2465055,9.89092373 12.7818549,15.1576398 13.9670505,17.489822 C15.0037099,19.5316398 17.4143297,21.4900551 20.0864352,22.1588199 C21.3814857,22.3673263 21.7033143,22.3673263 22.9968176,22.1588199 C25.6720176,21.4885106 28.0826374,19.5285508 29.1177495,17.489822 C30.3029451,15.1576398 30.8367473,9.88937924 30.6154901,7.28382203 C30.1884484,2.29511441 26.1021538,-0.199239407 21.5424,-0.199239407 C16.9841934,-0.197694915 12.8963516,2.29511441 12.4724044,7.28382203 L12.4724044,7.28382203 Z"></path>
                    </g>
                </g>
            </g>
        </g>
    </g>
</svg>