<?xml version="1.0" encoding="UTF-8" standalone="no"?>
<svg width="100px" height="100px" viewBox="0 0 100 100" version="1.1" xmlns="http://www.w3.org/2000/svg" xmlns:xlink="http://www.w3.org/1999/xlink" xmlns:sketch="http://www.bohemiancoding.com/sketch/ns">
    <!-- Generator: Sketch 3.0.3 (7891) - http://www.bohemiancoding.com/sketch -->
    <title>sat-icon</title>
    <desc>Created with Sketch.</desc>
    <defs></defs>
    <g id="Page-1" stroke="none" stroke-width="1" fill="none" fill-rule="evenodd" sketch:type="MSPage">
        <g id="sat-icon" sketch:type="MSLayerGroup">
            <g id="Group" sketch:type="MSShapeGroup">
                <path d="M50,100 C77.6142375,100 100,77.6142375 100,50 C100,22.3857625 77.6142375,0 50,0 C22.3857625,0 0,22.3857625 0,50 C0,77.6142375 22.3857625,100 50,100 Z" id="Oval" fill="#DF0030"></path>
                <g transform="translate(29.000000, 40.000000)" id="Shape" fill="#FFFFFF">
                    <path d="M6.509,22.561 C2.949,22.561 0.051,19.663 0.051,16.102 C0.051,12.54 2.948,9.645 6.509,9.645 C10.07,9.645 12.966,12.54 12.966,16.102 C12.966,19.662 10.069,22.561 6.509,22.561 L6.509,22.561 Z M6.509,10.883 C3.632,10.883 1.289,13.224 1.289,16.102 C1.289,18.98 3.632,21.322 6.509,21.322 C9.387,21.322 11.729,18.98 11.729,16.102 C11.729,13.224 9.387,10.883 6.509,10.883 L6.509,10.883 Z"></path>
                    <path d="M21.001,22.561 C17.441,22.561 14.544,19.663 14.544,16.102 C14.544,12.54 17.441,9.645 21.001,9.645 C24.563,9.645 27.459,12.54 27.459,16.102 C27.459,19.662 24.562,22.561 21.001,22.561 L21.001,22.561 Z M21.001,10.883 C18.123,10.883 15.781,13.224 15.781,16.102 C15.781,18.98 18.122,21.322 21.001,21.322 C23.88,21.322 26.221,18.98 26.221,16.102 C26.221,13.224 23.88,10.883 21.001,10.883 L21.001,10.883 Z"></path>
                    <path d="M4.899,2.652 C5.464,2.406 5.965,2.282 6.401,2.282 C6.845,2.282 7.198,2.399 7.456,2.63 C7.715,2.862 7.843,3.198 7.84,3.635 L7.819,5.444 C7.815,5.593 7.819,5.712 7.828,5.801 C7.839,5.891 7.866,5.96 7.907,6.009 C7.949,6.056 8.012,6.09 8.097,6.109 C8.18,6.128 8.293,6.139 8.437,6.141 L8.458,6.31 C8.333,6.36 8.181,6.41 8,6.458 C7.82,6.506 7.698,6.532 7.633,6.532 C7.348,6.532 7.154,6.388 7.048,6.098 C6.638,6.39 6.251,6.536 5.887,6.536 C5.48,6.536 5.152,6.437 4.905,6.238 C4.656,6.039 4.533,5.759 4.533,5.395 C4.533,4.949 4.732,4.62 5.131,4.409 C5.53,4.197 6.155,4.092 7.007,4.092 L7.011,3.752 C7.014,3.427 6.932,3.187 6.763,3.031 C6.595,2.874 6.336,2.796 5.989,2.796 C5.724,2.796 5.393,2.845 4.997,2.944 L4.899,2.652 L4.899,2.652 Z M7.009,4.444 C6.399,4.444 5.984,4.505 5.761,4.632 C5.537,4.756 5.426,4.966 5.426,5.261 C5.426,5.538 5.5,5.733 5.648,5.846 C5.794,5.962 5.996,6.018 6.25,6.018 C6.536,6.018 6.787,5.968 7.001,5.868 L7.009,4.444 L7.009,4.444 Z"></path>
                    <path d="M20.505,-0.106 C20.488,0.329 20.48,0.983 20.48,1.855 L20.48,2.738 C20.95,2.433 21.38,2.281 21.772,2.281 C22.32,2.281 22.752,2.464 23.071,2.828 C23.386,3.195 23.549,3.672 23.549,4.26 C23.549,4.976 23.343,5.534 22.933,5.934 C22.524,6.332 21.956,6.531 21.23,6.531 C20.744,6.531 20.223,6.449 19.664,6.282 C19.669,5.915 19.672,5.44 19.672,4.859 L19.672,2.28 C19.672,1.64 19.666,1.041 19.654,0.484 L19.067,0.311 L19.045,0.167 C19.522,0.077 19.994,-0.027 20.463,-0.142 L20.505,-0.106 L20.505,-0.106 Z M20.48,6.044 C20.714,6.12 20.952,6.158 21.192,6.158 C21.679,6.158 22.045,6.008 22.288,5.709 C22.532,5.411 22.655,4.983 22.655,4.425 C22.655,3.915 22.541,3.519 22.317,3.234 C22.091,2.949 21.756,2.807 21.313,2.807 C21.03,2.807 20.752,2.87 20.48,2.998 L20.48,6.044 L20.48,6.044 Z"></path>
                    <path d="M38.086,6.107 C37.906,6.228 37.682,6.331 37.42,6.412 C37.151,6.496 36.889,6.537 36.627,6.537 C36.002,6.537 35.502,6.354 35.126,5.988 C34.75,5.621 34.562,5.13 34.562,4.519 C34.562,3.854 34.776,3.316 35.202,2.902 C35.627,2.488 36.166,2.282 36.824,2.282 C37.252,2.282 37.665,2.37 38.065,2.544 C37.969,2.931 37.883,3.33 37.808,3.736 L37.639,3.762 L37.287,2.719 C37.151,2.672 37,2.649 36.834,2.649 C36.401,2.649 36.063,2.799 35.819,3.102 C35.577,3.403 35.455,3.801 35.455,4.297 C35.455,4.88 35.593,5.311 35.867,5.59 C36.142,5.869 36.579,6.007 37.178,6.007 C37.452,6.007 37.745,5.978 38.058,5.924 L38.086,6.107 L38.086,6.107 Z"></path>
                    <path d="M35.492,22.51 C31.932,22.51 29.036,19.614 29.036,16.054 C29.036,12.492 31.932,9.596 35.492,9.596 C39.054,9.596 41.948,12.492 41.948,16.054 C41.948,19.614 39.055,22.51 35.492,22.51 L35.492,22.51 Z M35.492,10.834 C32.615,10.834 30.273,13.174 30.273,16.054 C30.273,18.931 32.615,21.274 35.492,21.274 C38.373,21.274 40.711,18.931 40.711,16.054 C40.711,13.174 38.373,10.834 35.492,10.834 L35.492,10.834 Z"></path>
                    <path d="M35.657,22.179 C35.646,22.179 35.633,22.178 35.623,22.174 C35.521,22.167 35.43,22.118 35.366,22.04 C35.142,21.764 35.354,21.52 35.744,21.083 C35.92,20.882 36.149,20.632 36.445,20.314 C34.314,22.052 34.164,22.039 33.989,22.023 C33.882,22.014 33.787,21.961 33.72,21.881 C33.483,21.587 33.739,21.311 34.088,20.922 C34.322,20.664 34.666,20.31 35.135,19.837 C35.406,19.566 35.705,19.271 36.018,18.961 C34.957,19.842 33.896,20.728 33.007,21.476 C32.852,21.604 32.619,21.587 32.49,21.438 C32.356,21.288 32.366,21.06 32.513,20.921 C33.446,20.045 34.57,18.982 35.671,17.926 C31.929,20.986 31.866,20.978 31.665,20.959 C31.568,20.946 31.474,20.898 31.411,20.82 C31.19,20.545 31.393,20.337 31.73,19.991 C31.919,19.798 32.199,19.523 32.576,19.155 C32.968,18.771 33.436,18.32 33.945,17.832 C31.343,20.039 31.164,20.122 30.93,20.099 C30.833,20.091 30.73,20.037 30.668,19.959 C30.545,19.81 30.561,19.591 30.7,19.457 C31.925,18.29 33.394,16.882 34.757,15.572 C33.304,16.787 31.768,18.1 30.546,19.157 C30.396,19.287 30.168,19.274 30.034,19.129 C29.895,18.982 29.901,18.755 30.042,18.613 L32.567,16.092 C30.129,18.074 30.06,18.068 29.887,18.051 C29.788,18.04 29.695,17.989 29.635,17.913 C29.512,17.764 29.526,17.547 29.661,17.413 C30.588,16.507 31.722,15.383 32.807,14.301 C31.841,15.086 30.855,15.891 30.005,16.586 C29.931,16.648 29.831,16.678 29.734,16.668 C29.634,16.659 29.544,16.608 29.484,16.534 C29.276,16.274 29.494,16.046 29.587,15.949 C29.642,15.889 29.725,15.803 29.831,15.694 C30.042,15.48 30.338,15.174 30.688,14.819 C30.869,14.633 31.075,14.424 31.296,14.196 C30.086,15.209 29.954,15.248 29.768,15.232 C29.668,15.222 29.565,15.169 29.503,15.091 C29.393,14.955 29.393,14.763 29.5,14.628 L30.871,12.895 C30.758,12.895 30.65,12.85 30.579,12.758 C30.447,12.597 30.472,12.363 30.634,12.237 L32.784,10.493 C32.931,10.375 33.143,10.385 33.277,10.518 C33.414,10.651 33.425,10.865 33.308,11.012 L32.092,12.549 C32.261,12.403 32.429,12.258 32.585,12.122 C35.259,9.828 35.301,9.833 35.534,9.852 C35.635,9.862 35.733,9.912 35.797,9.992 C36.026,10.276 35.8,10.531 35.351,11.034 C35.135,11.277 34.832,11.6 34.457,11.997 C34.862,11.669 35.242,11.362 35.57,11.098 C36.816,10.093 36.816,10.093 36.988,10.112 C37.089,10.122 37.179,10.17 37.242,10.247 C37.462,10.518 37.234,10.78 36.97,11.082 C36.791,11.284 36.525,11.569 36.18,11.93 C35.864,12.262 35.477,12.657 35.025,13.117 C36.074,12.256 37.133,11.38 38.048,10.619 C38.199,10.494 38.429,10.509 38.562,10.655 C38.692,10.802 38.689,11.028 38.548,11.166 L36.76,12.952 C38.948,11.185 39.132,11.2 39.307,11.218 C39.415,11.226 39.515,11.279 39.58,11.361 C39.801,11.634 39.608,11.837 39.223,12.233 C39.015,12.454 38.697,12.77 38.288,13.173 C38.275,13.182 38.268,13.194 38.258,13.201 C39.681,12.032 39.871,11.966 40.07,11.984 C40.174,11.992 40.269,12.045 40.337,12.129 C40.565,12.41 40.354,12.624 39.939,13.054 C39.704,13.298 39.356,13.646 38.879,14.104 C38.446,14.533 37.94,15.023 37.401,15.541 C38.457,14.673 39.515,13.797 40.434,13.033 C40.511,12.97 40.609,12.939 40.707,12.951 C40.807,12.96 40.895,13.008 40.957,13.085 C41.191,13.374 40.926,13.68 40.671,13.976 C40.476,14.202 40.18,14.518 39.789,14.917 C39.781,14.924 39.775,14.931 39.768,14.938 C40.933,14.021 41.025,14.03 41.159,14.041 C41.26,14.053 41.355,14.103 41.418,14.181 C41.635,14.452 41.415,14.687 41.197,14.914 C41.064,15.056 40.868,15.255 40.6,15.522 C40.094,16.022 39.398,16.701 38.658,17.419 C38.457,17.615 38.243,17.821 38.019,18.037 C39.103,17.129 40.218,16.18 41.12,15.404 C41.197,15.341 41.298,15.306 41.394,15.317 C41.496,15.327 41.588,15.375 41.65,15.452 C41.858,15.708 41.643,15.938 41.516,16.075 C41.437,16.163 41.32,16.287 41.173,16.441 C40.883,16.743 40.477,17.165 40.016,17.641 C39.975,17.685 39.933,17.728 39.889,17.774 C40.85,17.02 40.952,17.03 41.092,17.041 C41.19,17.048 41.292,17.103 41.358,17.181 C41.468,17.319 41.468,17.514 41.358,17.649 L40.131,19.177 C40.142,19.177 40.155,19.178 40.17,19.18 C40.269,19.188 40.367,19.241 40.43,19.317 C40.562,19.476 40.537,19.711 40.376,19.841 C40.336,19.873 40.29,19.895 40.243,19.906 C40,20.066 38.998,20.904 38.119,21.665 C37.976,21.79 37.759,21.785 37.619,21.65 C37.482,21.516 37.469,21.301 37.588,21.154 L38.862,19.566 C37.951,20.321 36.889,21.224 35.89,22.086 C35.831,22.146 35.743,22.179 35.657,22.179 L35.657,22.179 Z"></path>
                </g>
                <path d="M49.552,22.753 C32.974,22.753 19.488,36.239 19.488,52.819 C19.488,69.393 32.975,82.883 49.552,82.883 C66.132,82.883 79.618,69.393 79.618,52.819 C79.618,36.24 66.132,22.753 49.552,22.753 L49.552,22.753 Z M49.552,77.654 C35.857,77.654 24.716,66.513 24.716,52.819 C24.716,39.124 35.857,27.981 49.552,27.981 C63.248,27.981 74.39,39.124 74.39,52.819 C74.39,66.514 63.248,77.654 49.552,77.654 L49.552,77.654 Z M75.774,31.218 L80.513,26.48 L75.891,21.857 L71.154,26.597 C72.838,27.985 74.385,29.535 75.774,31.218 L75.774,31.218 Z M44.324,18.222 L46.938,18.222 C46.938,19.665 48.109,20.836 49.552,20.836 C50.995,20.836 52.166,19.665 52.166,18.222 L54.781,18.222 C56.219,18.222 57.395,17.046 57.395,15.607 C57.395,14.169 56.218,12.993 54.781,12.993 L44.324,12.993 C42.887,12.993 41.71,14.169 41.71,15.607 C41.71,17.046 42.887,18.222 44.324,18.222 L44.324,18.222 Z" id="Shape" fill="#FFFFFF"></path>
            </g>
        </g>
    </g>
</svg>