<?xml version="1.0" encoding="utf-8"?>
<!-- Generator: Adobe Illustrator 16.0.0, SVG Export Plug-In . SVG Version: 6.00 Build 0)  -->
<!DOCTYPE svg PUBLIC "-//W3C//DTD SVG 1.1//EN" "http://www.w3.org/Graphics/SVG/1.1/DTD/svg11.dtd">
<svg version="1.1" id="Layer_1" xmlns="http://www.w3.org/2000/svg" xmlns:xlink="http://www.w3.org/1999/xlink" x="0px" y="0px"
	 width="100px" height="100px" viewBox="0 0 100 100" enable-background="new 0 0 100 100" xml:space="preserve">
<g>
	<circle fill="#00539C" cx="50" cy="50" r="50"/>
	<g>
		<path fill="#FFFFFF" d="M35.509,62.561c-3.56,0-6.458-2.898-6.458-6.459c0-3.562,2.897-6.457,6.458-6.457s6.457,2.895,6.457,6.457
			C41.966,59.662,39.069,62.561,35.509,62.561z M35.509,50.883c-2.877,0-5.22,2.341-5.22,5.219s2.343,5.22,5.22,5.22
			c2.878,0,5.22-2.342,5.22-5.22S38.387,50.883,35.509,50.883z"/>
		<path fill="#FFFFFF" d="M50.001,62.561c-3.56,0-6.457-2.898-6.457-6.459c0-3.562,2.897-6.457,6.457-6.457
			c3.562,0,6.458,2.895,6.458,6.457C56.459,59.662,53.562,62.561,50.001,62.561z M50.001,50.883c-2.878,0-5.22,2.341-5.22,5.219
			s2.341,5.22,5.22,5.22c2.879,0,5.22-2.342,5.22-5.22S52.88,50.883,50.001,50.883z"/>
		<g>
			<path fill="#FFFFFF" d="M33.899,42.652c0.565-0.246,1.066-0.37,1.502-0.37c0.444,0,0.797,0.117,1.055,0.348
				c0.259,0.232,0.387,0.568,0.384,1.005l-0.021,1.809c-0.004,0.149,0,0.268,0.009,0.357c0.011,0.09,0.038,0.159,0.079,0.208
				c0.042,0.047,0.105,0.081,0.19,0.1c0.083,0.019,0.196,0.03,0.34,0.032l0.021,0.169c-0.125,0.05-0.277,0.1-0.458,0.148
				c-0.18,0.048-0.302,0.074-0.367,0.074c-0.285,0-0.479-0.144-0.585-0.434c-0.41,0.292-0.797,0.438-1.161,0.438
				c-0.407,0-0.735-0.099-0.982-0.298c-0.249-0.199-0.372-0.479-0.372-0.843c0-0.446,0.199-0.775,0.598-0.986
				c0.399-0.212,1.024-0.317,1.876-0.317l0.004-0.34c0.003-0.325-0.079-0.565-0.248-0.721c-0.168-0.157-0.427-0.235-0.774-0.235
				c-0.265,0-0.596,0.049-0.992,0.148L33.899,42.652z M36.009,44.444c-0.61,0-1.025,0.061-1.248,0.188
				c-0.224,0.124-0.335,0.334-0.335,0.629c0,0.277,0.074,0.472,0.222,0.585c0.146,0.116,0.348,0.172,0.602,0.172
				c0.286,0,0.537-0.05,0.751-0.15L36.009,44.444z"/>
		</g>
		<g>
			<path fill="#FFFFFF" d="M49.505,39.894c-0.017,0.435-0.025,1.089-0.025,1.961v0.883c0.47-0.305,0.9-0.457,1.292-0.457
				c0.548,0,0.98,0.183,1.299,0.547c0.315,0.367,0.478,0.844,0.478,1.432c0,0.716-0.206,1.274-0.616,1.674
				c-0.409,0.398-0.977,0.597-1.703,0.597c-0.486,0-1.007-0.082-1.566-0.249c0.005-0.367,0.008-0.842,0.008-1.423v-2.579
				c0-0.64-0.006-1.239-0.018-1.796l-0.587-0.173l-0.022-0.144c0.477-0.09,0.949-0.194,1.418-0.309L49.505,39.894z M49.48,46.044
				c0.234,0.076,0.472,0.114,0.712,0.114c0.487,0,0.853-0.15,1.096-0.449c0.244-0.298,0.367-0.726,0.367-1.284
				c0-0.51-0.114-0.906-0.338-1.191c-0.226-0.285-0.561-0.427-1.004-0.427c-0.283,0-0.561,0.063-0.833,0.191V46.044z"/>
		</g>
		<g>
			<path fill="#FFFFFF" d="M67.086,46.107c-0.18,0.121-0.404,0.224-0.666,0.305c-0.269,0.084-0.531,0.125-0.793,0.125
				c-0.625,0-1.125-0.183-1.501-0.549c-0.376-0.367-0.564-0.858-0.564-1.469c0-0.665,0.214-1.203,0.64-1.617
				c0.425-0.414,0.964-0.62,1.622-0.62c0.428,0,0.841,0.088,1.241,0.262c-0.096,0.387-0.182,0.786-0.257,1.192l-0.169,0.026
				l-0.352-1.043c-0.136-0.047-0.287-0.07-0.453-0.07c-0.433,0-0.771,0.15-1.015,0.453c-0.242,0.301-0.364,0.699-0.364,1.195
				c0,0.583,0.138,1.014,0.412,1.293c0.275,0.279,0.712,0.417,1.311,0.417c0.274,0,0.567-0.029,0.88-0.083L67.086,46.107z"/>
		</g>
		<path fill="#FFFFFF" d="M64.492,62.51c-3.56,0-6.456-2.896-6.456-6.456c0-3.562,2.896-6.458,6.456-6.458
			c3.562,0,6.456,2.896,6.456,6.458C70.948,59.614,68.055,62.51,64.492,62.51z M64.492,50.834c-2.877,0-5.219,2.34-5.219,5.22
			c0,2.877,2.342,5.22,5.219,5.22c2.881,0,5.219-2.343,5.219-5.22C69.711,53.174,67.373,50.834,64.492,50.834z"/>
		<g>
			<g>
				<path fill="#FFFFFF" d="M64.657,62.179c-0.011,0-0.024-0.001-0.034-0.005c-0.102-0.007-0.193-0.056-0.257-0.134
					c-0.224-0.276-0.012-0.52,0.378-0.957c0.176-0.201,0.405-0.451,0.701-0.769c-2.131,1.738-2.281,1.725-2.456,1.709
					c-0.107-0.009-0.202-0.062-0.269-0.142c-0.237-0.294,0.019-0.57,0.368-0.959c0.234-0.258,0.578-0.612,1.047-1.085
					c0.271-0.271,0.57-0.566,0.883-0.876c-1.061,0.881-2.122,1.767-3.011,2.515c-0.155,0.128-0.388,0.111-0.517-0.038
					c-0.134-0.15-0.124-0.378,0.023-0.517c0.933-0.876,2.057-1.939,3.158-2.995c-3.742,3.06-3.805,3.052-4.006,3.033
					c-0.097-0.013-0.191-0.061-0.254-0.139c-0.221-0.275-0.018-0.483,0.319-0.829c0.189-0.193,0.469-0.468,0.846-0.836
					c0.392-0.384,0.86-0.835,1.369-1.323c-2.602,2.207-2.781,2.29-3.015,2.267c-0.097-0.008-0.2-0.062-0.262-0.14
					c-0.123-0.149-0.107-0.368,0.032-0.502c1.225-1.167,2.694-2.575,4.057-3.885c-1.453,1.215-2.989,2.528-4.211,3.585
					c-0.15,0.13-0.378,0.117-0.512-0.028c-0.139-0.147-0.133-0.374,0.008-0.516l2.525-2.521c-2.438,1.982-2.507,1.976-2.68,1.959
					c-0.099-0.011-0.192-0.062-0.252-0.138c-0.123-0.149-0.109-0.366,0.026-0.5c0.927-0.906,2.061-2.03,3.146-3.112
					c-0.966,0.785-1.952,1.59-2.802,2.285c-0.074,0.062-0.174,0.092-0.271,0.082c-0.1-0.009-0.19-0.06-0.25-0.134
					c-0.208-0.26,0.01-0.488,0.103-0.585c0.055-0.06,0.138-0.146,0.244-0.255c0.211-0.214,0.507-0.52,0.857-0.875
					c0.181-0.186,0.387-0.395,0.608-0.623c-1.21,1.013-1.342,1.052-1.528,1.036c-0.1-0.01-0.203-0.063-0.265-0.141
					c-0.11-0.136-0.11-0.328-0.003-0.463l1.371-1.733c-0.113,0-0.221-0.045-0.292-0.137c-0.132-0.161-0.107-0.395,0.055-0.521
					l2.15-1.744c0.147-0.118,0.359-0.108,0.493,0.025c0.137,0.133,0.148,0.347,0.031,0.494l-1.216,1.537
					c0.169-0.146,0.337-0.291,0.493-0.427c2.674-2.294,2.716-2.289,2.949-2.27c0.101,0.01,0.199,0.06,0.263,0.14
					c0.229,0.284,0.003,0.539-0.446,1.042c-0.216,0.243-0.519,0.566-0.894,0.963c0.405-0.328,0.785-0.635,1.113-0.899
					c1.246-1.005,1.246-1.005,1.418-0.986c0.101,0.01,0.191,0.058,0.254,0.135c0.22,0.271-0.008,0.533-0.272,0.835
					c-0.179,0.202-0.445,0.487-0.79,0.848c-0.316,0.332-0.703,0.727-1.155,1.187c1.049-0.861,2.108-1.737,3.023-2.498
					c0.151-0.125,0.381-0.11,0.514,0.036c0.13,0.147,0.127,0.373-0.014,0.511l-1.788,1.786c2.188-1.767,2.372-1.752,2.547-1.734
					c0.108,0.008,0.208,0.061,0.273,0.143c0.221,0.273,0.028,0.476-0.357,0.872c-0.208,0.221-0.526,0.537-0.935,0.94
					c-0.013,0.009-0.02,0.021-0.03,0.028c1.423-1.169,1.613-1.235,1.812-1.217c0.104,0.008,0.199,0.061,0.267,0.145
					c0.228,0.281,0.017,0.495-0.398,0.925c-0.235,0.244-0.583,0.592-1.06,1.05c-0.433,0.429-0.939,0.919-1.478,1.437
					c1.056-0.868,2.114-1.744,3.033-2.508c0.077-0.063,0.175-0.094,0.273-0.082c0.1,0.009,0.188,0.057,0.25,0.134
					c0.234,0.289-0.031,0.595-0.286,0.891c-0.195,0.226-0.491,0.542-0.882,0.941c-0.008,0.007-0.014,0.014-0.021,0.021
					c1.165-0.917,1.257-0.908,1.391-0.897c0.101,0.012,0.196,0.062,0.259,0.14c0.217,0.271-0.003,0.506-0.221,0.733
					c-0.133,0.142-0.329,0.341-0.597,0.608c-0.506,0.5-1.202,1.179-1.942,1.897c-0.201,0.196-0.415,0.402-0.639,0.618
					c1.084-0.908,2.199-1.857,3.101-2.633c0.077-0.063,0.178-0.098,0.274-0.087c0.102,0.01,0.194,0.058,0.256,0.135
					c0.208,0.256-0.007,0.486-0.134,0.623c-0.079,0.088-0.196,0.212-0.343,0.366c-0.29,0.302-0.696,0.724-1.157,1.2
					c-0.041,0.044-0.083,0.087-0.127,0.133c0.961-0.754,1.063-0.744,1.203-0.733c0.098,0.007,0.2,0.062,0.266,0.14
					c0.11,0.138,0.11,0.333,0,0.468l-1.227,1.528c0.011,0,0.024,0.001,0.039,0.003c0.099,0.008,0.197,0.061,0.26,0.137
					c0.132,0.159,0.107,0.394-0.054,0.524c-0.04,0.032-0.086,0.054-0.133,0.065c-0.243,0.16-1.245,0.998-2.124,1.759
					c-0.143,0.125-0.36,0.12-0.5-0.015c-0.137-0.134-0.15-0.349-0.031-0.496l1.274-1.588c-0.911,0.755-1.973,1.658-2.972,2.52
					C64.831,62.146,64.743,62.179,64.657,62.179z"/>
			</g>
		</g>
	</g>
	<g>
		<path fill="#FFFFFF" d="M49.552,22.753c-16.578,0-30.064,13.486-30.064,30.066c0,16.574,13.487,30.064,30.064,30.064
			c16.58,0,30.066-13.49,30.066-30.064C79.618,36.24,66.132,22.753,49.552,22.753z M49.552,77.654
			c-13.695,0-24.836-11.141-24.836-24.835c0-13.695,11.141-24.838,24.836-24.838c13.696,0,24.838,11.143,24.838,24.838
			C74.39,66.514,63.248,77.654,49.552,77.654z M75.774,31.218l4.739-4.738l-4.622-4.623l-4.737,4.74
			C72.838,27.985,74.385,29.535,75.774,31.218z M44.324,16.222h2.614c0,1.443,1.171,2.614,2.614,2.614
			c1.443,0,2.614-1.171,2.614-2.614h2.615c1.438,0,2.614-1.176,2.614-2.615c0-1.438-1.177-2.614-2.614-2.614H44.324
			c-1.437,0-2.614,1.176-2.614,2.614C41.71,15.046,42.887,16.222,44.324,16.222z"/>
	</g>
</g>
</svg>
